M48
;GenerationSoftware,Autodesk,EAGLE,9.5.2*%
;CreationDate,2020-02-25T07:59:37Z*%
FMAT,2
ICI,OFF
METRIC,TZ,000.000
T7C0.350
T6C0.708
T5C0.730
T4C0.800
T3C0.813
T2C0.850
T1C2.800
%
G90
M71
T1
X4000Y4000
X96000Y96000
X96000Y4000
X4000Y96000
T2
X94270Y45470
X96770Y43470
X94270Y43470
X96770Y41470
X94270Y41470
X61000Y4000
X59000Y4000
X57000Y4000
X55000Y4000
X53000Y4000
X51000Y4000
X61000Y6500
X59000Y6500
X57000Y6500
X55000Y6500
X53000Y6500
X51000Y6500
X2180Y54980
X49000Y6500
X49000Y4000
X96770Y45470
X94270Y47470
X96770Y47470
X94270Y49470
X96770Y49470
X94270Y51470
X96770Y51470
X94270Y53470
X96770Y53470
X94270Y55470
X96770Y55470
X94270Y57470
X96770Y57470
X94270Y59470
X96770Y59470
X94270Y61470
X96770Y61470
X94270Y63470
X96770Y63470
X4680Y62980
X2180Y62980
X4680Y60980
X2180Y60980
X4680Y58980
X2180Y58980
X4680Y56980
X2180Y56980
X4680Y54980
X4680Y52980
X2180Y52980
X4680Y50980
X2180Y50980
X4680Y48980
X2180Y48980
X4680Y46980
X2180Y46980
T3
X92000Y23190
X92000Y30810
X97000Y18730
X97000Y21270
X22000Y18730
X27000Y18730
X27000Y21270
X32000Y18730
X32000Y21270
X37000Y18730
X37000Y21270
X42000Y18730
X42000Y21270
X47000Y18730
X47000Y21270
X52000Y18730
X52000Y21270
X57000Y18730
X57000Y21270
X62000Y18730
X62000Y21270
X67000Y18730
X67000Y21270
X72000Y18730
X72000Y21270
X47000Y30810
X77000Y21270
X82000Y18730
X82000Y21270
X87000Y18730
X87000Y21270
X92000Y18730
X92000Y21270
X77000Y18730
X16730Y43000
X19270Y43000
X16730Y40000
X19270Y40000
X16730Y37000
X19270Y37000
X16730Y34000
X19270Y34000
X97000Y23190
X97000Y30810
X22000Y23190
X22000Y30810
X27000Y23190
X27000Y30810
X32000Y23190
X32000Y30810
X37000Y23190
X37000Y30810
X42000Y23190
X42000Y30810
X47000Y23190
X52000Y23190
X52000Y30810
X57000Y23190
X57000Y30810
X62000Y23190
X62000Y30810
X67000Y23190
X67000Y30810
X22000Y21270
X72000Y23190
X72000Y30810
X77000Y23190
X77000Y30810
X82000Y23190
X82000Y30810
X87000Y23190
X87000Y30810
T4
X69050Y43390
X71590Y43390
X69050Y35290
X66510Y35290
X63970Y35290
X61430Y35290
X85000Y43500
X58890Y35290
X56350Y35290
X53810Y35290
X30247Y43349
X32787Y43349
X83000Y43500
X87000Y38500
X85000Y38500
X83000Y38500
X35327Y43349
X53810Y43390
X56350Y43390
X58890Y43390
X61430Y43390
X63970Y43390
X66510Y43390
X71590Y35290
X87000Y43500
X30247Y35249
X32787Y35249
X35327Y35249
X37867Y35249
X40407Y35249
X42947Y35249
X45487Y35249
X48027Y35249
X48027Y43349
X45487Y43349
X42947Y43349
X40407Y43349
X37867Y43349
T5
X23710Y50910
X23710Y48370
X31650Y48370
X31650Y50910
X31650Y53450
X31650Y55990
X31650Y58530
X31650Y61070
X31650Y63610
X31650Y66150
X45228Y66278
X45228Y63738
X45228Y61198
X45228Y58658
X45228Y56118
X48110Y76970
X45228Y51038
X45228Y48498
X53168Y48498
X53168Y51038
X53168Y53578
X53168Y56118
X53168Y58658
X53168Y61198
X53168Y63738
X53168Y66278
X34500Y66150
X34500Y63610
X34500Y61070
X34500Y58530
X34500Y55990
X34500Y53450
X34500Y50910
X34500Y48370
X42440Y48370
X42440Y50910
X42440Y53450
X42440Y55990
X42440Y58530
X42440Y61070
X42440Y63610
X42440Y66150
X78280Y65470
X78280Y62930
X78280Y60390
X78280Y57850
X78280Y55310
X78280Y52770
X78280Y50230
X78280Y47690
X86220Y47690
X86220Y50230
X86220Y52770
X86220Y55310
X86220Y57850
X86220Y60390
X86220Y62930
X86220Y65470
X2470Y41150
X2470Y38610
X2470Y36070
X2470Y33530
X2470Y30990
X2470Y28450
X2470Y25910
X2470Y23370
X10410Y23370
X10410Y25910
X10410Y28450
X10410Y30990
X10410Y33530
X10410Y36070
X10410Y38610
X10410Y41150
X56580Y65470
X56580Y62930
X56580Y60390
X56580Y57850
X56580Y55310
X56580Y52770
X56580Y50230
X56580Y47690
X64520Y47690
X64520Y50230
X64520Y52770
X64520Y55310
X64520Y57850
X64520Y60390
X64520Y62930
X64520Y65470
X10980Y65470
X10980Y62930
X10980Y60390
X10980Y57850
X10980Y55310
X10980Y52770
X10980Y50230
X10980Y47690
X18920Y47690
X45228Y53578
X18920Y50230
X18920Y52770
X18920Y55310
X18920Y57850
X18920Y60390
X18920Y62930
X18920Y65470
X17970Y3380
X17970Y5920
X17970Y8460
X17970Y11000
X17970Y13540
X17970Y16080
X17970Y18620
X10030Y18620
X10030Y16080
X10030Y13540
X10030Y11000
X10030Y8460
X10030Y5920
X10030Y3380
X23110Y69030
X25650Y69030
X28190Y69030
X30730Y69030
X33270Y69030
X35810Y69030
X38350Y69030
X40890Y69030
X40890Y76970
X38350Y76970
X35810Y76970
X33270Y76970
X30730Y76970
X28190Y76970
X25650Y76970
X23110Y76970
X2110Y69030
X4650Y69030
X7190Y69030
X9730Y69030
X12270Y69030
X14810Y69030
X17350Y69030
X19890Y69030
X19890Y76970
X17350Y76970
X14810Y76970
X12270Y76970
X9730Y76970
X7190Y76970
X4650Y76970
X2110Y76970
X45570Y69030
X48110Y69030
X50650Y69030
X53190Y69030
X55730Y69030
X58270Y69030
X60810Y69030
X63350Y69030
X65890Y69030
X68430Y69030
X68430Y76970
X65890Y76970
X63350Y76970
X60810Y76970
X58270Y76970
X55730Y76970
X53190Y76970
X50650Y76970
X45570Y76970
X73570Y69030
X76110Y69030
X78650Y69030
X81190Y69030
X83730Y69030
X86270Y69030
X88810Y69030
X91350Y69030
X93890Y69030
X96430Y69030
X96430Y76970
X93890Y76970
X91350Y76970
X88810Y76970
X86270Y76970
X83730Y76970
X81190Y76970
X78650Y76970
X76110Y76970
X73570Y76970
X67530Y65150
X67530Y62610
X67530Y60070
X67530Y57530
X67530Y54990
X67530Y52450
X67530Y49910
X67530Y47370
X75470Y47370
X75470Y49910
X75470Y52450
X75470Y54990
X75470Y57530
X75470Y60070
X75470Y62610
X75470Y65150
X23710Y66150
X23710Y63610
X23710Y61070
X23710Y58530
X23710Y55990
X23710Y53450
T6
X67140Y96030
X64600Y96030
X62060Y96030
X54440Y96030
X59520Y96030
X56980Y96030
X82380Y80790
X84920Y80790
X87460Y80790
X87460Y96030
X84920Y96030
X82380Y96030
X79840Y96030
X77300Y96030
X74760Y96030
X72220Y96030
X69680Y96030
X14440Y81010
X16980Y81010
X19520Y81010
X22060Y81010
X24600Y81010
X27140Y81010
X29680Y81010
X34760Y81010
X37300Y81010
X39840Y81010
X42380Y81010
X44920Y81010
X47460Y81010
X47460Y96250
X44920Y96250
X42380Y96250
X39840Y96250
X37300Y96250
X34760Y96250
X32220Y96250
X29680Y96250
X27140Y96250
X24600Y96250
X22060Y96250
X19520Y96250
X16980Y96250
X14440Y96250
X32220Y81010
X54440Y80790
X56980Y80790
X59520Y80790
X62060Y80790
X64600Y80790
X67140Y80790
X69680Y80790
X72220Y80790
X74760Y80790
X77300Y80790
X79840Y80790
T7
X42062Y45415
X49530Y47092
X51206Y63246
X56693Y71323
X83515Y45415
X80162Y41148
X56998Y38557
X57302Y45263
X25603Y61874
X39014Y72085
X44501Y77876
X97841Y74524
X97993Y78791
X63398Y88087
X59284Y86411
X58064Y78943
X60960Y78943
X61265Y87478
X7925Y34290
X8992Y49073
X10973Y64313
X17374Y75743
X90830Y48311
X95098Y44501
X93269Y85344
X89916Y85344
X47701Y15697
X75438Y28042
X90526Y39776
X67666Y78029
X89306Y80315
X93116Y76048
X92050Y53188
X32918Y36881
X41910Y16612
X70409Y28042
X91135Y44348
X85954Y84125
X69037Y52730
X65989Y40234
X60808Y30023
X58522Y27737
X43739Y18288
X42062Y19964
X7468Y27584
X42672Y17221
X38100Y20574
X8534Y27737
X5334Y37338
X70561Y56845
X61417Y58217
X46482Y58674
X30175Y71780
X25908Y71780
X18593Y67056
X7315Y56236
X61722Y53340
X59588Y51206
X55931Y45720
X42672Y44653
X7315Y44958
X37490Y61265
X22250Y65380
X12192Y60655
X20726Y62636
X14021Y61112
X49225Y54864
X49225Y63703
X8077Y67666
X47244Y57912
X43434Y60350
X39624Y60960
X28651Y70256
X25603Y70866
X22098Y70866
X10363Y70866
X25908Y57302
X11278Y51511
X33528Y51664
X6553Y45568
X12192Y59436
X21488Y51206
X21488Y48920
X28804Y50902
X21793Y47396
X20422Y46482
X15088Y47396
X8534Y35509
X9601Y49835
X9906Y62332
X8839Y33223
X13868Y50749
X16916Y54712
X26365Y48311
X28194Y50140
X36881Y59588
X72085Y56236
X72085Y64465
X60655Y19964
X63856Y54254
X89611Y25603
X75590Y63856
X71018Y54254
X70561Y52730
X79400Y71018
X69342Y45263
X74828Y76962
X74828Y66142
X95250Y79096
X94031Y75743
X59893Y57607
X69342Y63246
X66294Y25756
X64922Y27127
X60503Y49073
X46177Y39472
X55474Y30175
X80162Y43129
X73304Y31242
X74066Y40691
X90983Y62179
X55016Y53035
X83515Y26365
X97993Y55321
X44044Y66446
X45872Y72085
X53188Y29261
X42672Y24841
X48006Y73304
X36881Y48616
X43282Y39776
X41910Y78181
X38557Y62941
X38100Y59131
X35966Y56998
X35966Y52883
X48616Y62179
X49225Y64618
X48920Y25146
X47396Y36881
X47396Y45872
X36881Y44044
X42062Y37490
X41605Y94793
X41605Y88087
X47396Y82296
X48006Y42062
X47396Y52730
X49987Y56388
X49987Y62636
X39776Y95098
X77876Y46330
X80467Y55626
X90830Y58217
X93116Y58826
X63703Y74828
X85039Y81991
X92354Y56540
X90830Y57302
X61417Y86258
X88849Y62484
X87478Y63856
X86716Y67361
X57607Y48311
X59893Y46025
X64313Y30175
X76962Y34290
X92659Y44806
X90678Y59284
X78943Y51664
X91745Y51968
X88087Y65075
X72390Y77267
X80467Y83515
X87478Y83668
X14935Y66751
X27432Y72695
X34138Y78943
X36576Y79858
X92507Y78029
X63551Y58522
X62332Y57302
X61722Y50292
X63398Y32461
X60808Y18898
X36576Y89611
X4115Y43434
X58674Y84430
X56388Y84430
X78638Y82601
X86258Y81686
X89459Y74066
X87630Y60046
X87630Y56845
X76505Y45110
X73609Y48006
X71933Y54559
X70561Y64465
X67666Y67361
X65532Y67818
X56083Y72085
X51816Y78791
X74219Y73762
X19507Y78181
X27737Y74219
X48616Y15697
X5639Y23927
X2896Y42367
X3200Y51816
X81686Y88697
X61112Y75438
X84430Y66599
X87935Y54407
X48616Y71933
X52578Y49987
X48006Y54864
X46634Y61112
X3353Y68123
X3810Y44348
X1981Y15240
X20879Y87630
X20879Y84887
X30175Y74524
X40386Y62941
X39014Y58217
X44653Y52426
X44653Y47396
X45415Y37033
X83972Y88697
X84887Y67970
X84582Y57302
X71323Y28651
X66142Y17678
X15088Y43891
X29566Y37643
X32766Y33985
X34747Y19355
X18593Y76048
X26822Y63551
X27127Y61722
X29870Y58979
X37490Y53645
X44196Y35662
X44044Y20422
X46482Y16002
X45415Y83210
X23012Y83210
X65227Y75438
X70256Y73304
X71628Y58979
X87478Y52730
X71780Y78029
X70866Y62027
X70256Y51054
X68123Y37338
X84734Y84125
X59131Y29870
X59131Y19507
X37490Y46025
X35509Y91897
X67056Y77267
X60503Y64618
X51968Y61265
X47092Y34442
X54407Y17831
X46177Y82601
X66142Y82601
X62179Y74219
X45568Y16002
X73000Y84125
X63551Y83820
X13106Y60503
X28651Y72390
X35966Y78334
X91897Y71476
X88087Y82906
X72238Y83210
X62027Y83820
X33985Y49682
X37490Y47092
X88544Y52730
X91440Y49835
X87935Y36576
X87935Y33985
X49378Y83820
X57607Y81991
X12802Y8534
X5334Y30785
X6553Y32004
X49530Y12954
X49225Y14478
X54407Y33071
X77114Y71780
X63246Y65532
X6858Y65532
X9754Y50902
X6553Y43282
X6706Y58674
X8839Y59741
X8839Y53188
X6858Y51206
X10058Y46177
X9449Y35357
X9449Y29261
X39472Y39167
X30175Y50140
X61417Y32156
X38710Y42062
X25298Y42062
X44806Y39014
X30023Y54407
X22555Y55931
X21488Y57302
X72238Y37948
X40996Y52883
X36881Y52883
X49225Y51816
X69037Y66904
X92659Y43891
X4724Y28956
X34442Y45415
X71323Y50902
X71171Y60808
X64770Y41453
X21488Y86411
X67818Y70104
X47092Y75590
X78486Y66751
X24384Y71171
X20574Y60808
X17221Y56236
X52883Y72238
X39014Y94488
X17374Y27889
X17374Y30937
X13106Y35204
X14478Y52121
X38557Y33985
X57455Y67970
X34595Y39776
X43891Y76200
X40081Y72390
X24994Y61112
X17678Y55321
X61417Y73609
X40996Y91288
X40691Y94793
X33833Y41453
X36881Y63856
X43434Y62636
X48616Y53340
X51054Y50902
X37186Y88087
X32918Y83820
X35662Y63551
X50597Y81686
X47244Y85039
X43586Y37186
M30