G04 EAGLE Gerber RS-274X export*
G75*
%MOMM*%
%FSLAX34Y34*%
%LPD*%
%INTop Copper*%
%IPPOS*%
%AMOC8*
5,1,8,0,0,1.08239X$1,22.5*%
G01*
%ADD10R,1.258000X1.258000*%
%ADD11C,1.258000*%
%ADD12R,1.676400X1.676400*%
%ADD13C,1.676400*%
%ADD14R,1.238000X1.238000*%
%ADD15C,1.238000*%
%ADD16P,1.429621X8X292.500000*%
%ADD17P,1.429621X8X112.500000*%
%ADD18C,1.381000*%
%ADD19P,1.429621X8X22.500000*%
%ADD20C,1.358000*%
%ADD21C,0.152400*%
%ADD22C,0.756400*%


D10*
X482600Y311150D03*
D11*
X508000Y311150D03*
X533400Y311150D03*
X558800Y311150D03*
X584200Y311150D03*
X609600Y311150D03*
X635000Y311150D03*
X660400Y311150D03*
X685800Y311150D03*
X711200Y311150D03*
X736600Y311150D03*
X762000Y311150D03*
X762000Y476250D03*
X736600Y476250D03*
X711200Y476250D03*
X685800Y476250D03*
X660400Y476250D03*
X635000Y476250D03*
X609600Y476250D03*
X584200Y476250D03*
X558800Y476250D03*
X533400Y476250D03*
X508000Y476250D03*
X482600Y476250D03*
D10*
X876300Y311150D03*
D11*
X901700Y311150D03*
X927100Y311150D03*
X952500Y311150D03*
X977900Y311150D03*
X1003300Y311150D03*
X1028700Y311150D03*
X1054100Y311150D03*
X1079500Y311150D03*
X1104900Y311150D03*
X1130300Y311150D03*
X1155700Y311150D03*
X1155700Y476250D03*
X1130300Y476250D03*
X1104900Y476250D03*
X1079500Y476250D03*
X1054100Y476250D03*
X1028700Y476250D03*
X1003300Y476250D03*
X977900Y476250D03*
X952500Y476250D03*
X927100Y476250D03*
X901700Y476250D03*
X876300Y476250D03*
D10*
X1270000Y311150D03*
D11*
X1295400Y311150D03*
X1320800Y311150D03*
X1346200Y311150D03*
X1371600Y311150D03*
X1397000Y311150D03*
X1422400Y311150D03*
X1447800Y311150D03*
X1473200Y311150D03*
X1498600Y311150D03*
X1524000Y311150D03*
X1549400Y311150D03*
X1549400Y476250D03*
X1524000Y476250D03*
X1498600Y476250D03*
X1473200Y476250D03*
X1447800Y476250D03*
X1422400Y476250D03*
X1397000Y476250D03*
X1371600Y476250D03*
X1346200Y476250D03*
X1320800Y476250D03*
X1295400Y476250D03*
X1270000Y476250D03*
D12*
X152400Y304800D03*
D13*
X177800Y304800D03*
X203200Y304800D03*
X228600Y304800D03*
X254000Y304800D03*
X279400Y304800D03*
X304800Y304800D03*
X330200Y304800D03*
X355600Y304800D03*
X381000Y304800D03*
X381000Y381000D03*
X355600Y381000D03*
X330200Y381000D03*
X304800Y381000D03*
X279400Y381000D03*
X254000Y381000D03*
X228600Y381000D03*
X203200Y381000D03*
X177800Y381000D03*
X152400Y381000D03*
D12*
X152400Y419100D03*
D13*
X177800Y419100D03*
X203200Y419100D03*
X228600Y419100D03*
X254000Y419100D03*
X279400Y419100D03*
X304800Y419100D03*
X330200Y419100D03*
X355600Y419100D03*
X381000Y419100D03*
X381000Y495300D03*
X355600Y495300D03*
X330200Y495300D03*
X304800Y495300D03*
X279400Y495300D03*
X254000Y495300D03*
X228600Y495300D03*
X203200Y495300D03*
X177800Y495300D03*
X152400Y495300D03*
D14*
X457200Y747700D03*
D15*
X482600Y747700D03*
X508000Y747700D03*
X533400Y747700D03*
X558800Y747700D03*
X584200Y747700D03*
X609600Y747700D03*
X635000Y747700D03*
X660400Y747700D03*
X685800Y747700D03*
X685800Y827100D03*
X660400Y827100D03*
X635000Y827100D03*
X609600Y827100D03*
X584200Y827100D03*
X558800Y827100D03*
X533400Y827100D03*
X508000Y827100D03*
X482600Y827100D03*
X457200Y827100D03*
D14*
X50800Y747700D03*
D15*
X76200Y747700D03*
X101600Y747700D03*
X127000Y747700D03*
X152400Y747700D03*
X177800Y747700D03*
X203200Y747700D03*
X228600Y747700D03*
X254000Y747700D03*
X279400Y747700D03*
X279400Y827100D03*
X254000Y827100D03*
X228600Y827100D03*
X203200Y827100D03*
X177800Y827100D03*
X152400Y827100D03*
X127000Y827100D03*
X101600Y827100D03*
X76200Y827100D03*
X50800Y827100D03*
D14*
X925500Y774700D03*
D15*
X925500Y749300D03*
X925500Y723900D03*
X925500Y698500D03*
X925500Y673100D03*
X925500Y647700D03*
X925500Y622300D03*
X925500Y596900D03*
X1004900Y596900D03*
X1004900Y622300D03*
X1004900Y647700D03*
X1004900Y673100D03*
X1004900Y698500D03*
X1004900Y723900D03*
X1004900Y749300D03*
X1004900Y774700D03*
D14*
X241300Y61900D03*
D15*
X266700Y61900D03*
X292100Y61900D03*
X317500Y61900D03*
X342900Y61900D03*
X368300Y61900D03*
X393700Y61900D03*
X419100Y61900D03*
X444500Y61900D03*
X469900Y61900D03*
X469900Y141300D03*
X444500Y141300D03*
X419100Y141300D03*
X393700Y141300D03*
X368300Y141300D03*
X342900Y141300D03*
X317500Y141300D03*
X292100Y141300D03*
X266700Y141300D03*
X241300Y141300D03*
D14*
X241300Y188900D03*
D15*
X266700Y188900D03*
X292100Y188900D03*
X317500Y188900D03*
X342900Y188900D03*
X368300Y188900D03*
X393700Y188900D03*
X419100Y188900D03*
X444500Y188900D03*
X469900Y188900D03*
X469900Y268300D03*
X444500Y268300D03*
X419100Y268300D03*
X393700Y268300D03*
X368300Y268300D03*
X342900Y268300D03*
X317500Y268300D03*
X292100Y268300D03*
X266700Y268300D03*
X241300Y268300D03*
D14*
X1458900Y723900D03*
D15*
X1458900Y698500D03*
X1458900Y673100D03*
X1458900Y647700D03*
X1458900Y622300D03*
X1458900Y596900D03*
X1458900Y571500D03*
X1538300Y571500D03*
X1538300Y596900D03*
X1538300Y622300D03*
X1538300Y647700D03*
X1538300Y673100D03*
X1538300Y698500D03*
X1538300Y723900D03*
D14*
X1281100Y723900D03*
D15*
X1281100Y698500D03*
X1281100Y673100D03*
X1281100Y647700D03*
X1281100Y622300D03*
X1281100Y596900D03*
X1281100Y571500D03*
X1360500Y571500D03*
X1360500Y596900D03*
X1360500Y622300D03*
X1360500Y647700D03*
X1360500Y673100D03*
X1360500Y698500D03*
X1360500Y723900D03*
D14*
X1065200Y762000D03*
D15*
X1065200Y736600D03*
X1065200Y711200D03*
X1065200Y685800D03*
X1065200Y660400D03*
X1065200Y635000D03*
X1065200Y609600D03*
X1144600Y609600D03*
X1144600Y635000D03*
X1144600Y660400D03*
X1144600Y685800D03*
X1144600Y711200D03*
X1144600Y736600D03*
X1144600Y762000D03*
D16*
X584200Y152400D03*
X584200Y127000D03*
X635000Y152400D03*
X635000Y127000D03*
X685800Y152400D03*
X685800Y127000D03*
X736600Y152400D03*
X736600Y127000D03*
X787400Y152400D03*
X787400Y127000D03*
X838200Y152400D03*
X838200Y127000D03*
X889000Y152400D03*
X889000Y127000D03*
X939800Y152400D03*
X939800Y127000D03*
X990600Y152400D03*
X990600Y127000D03*
X1041400Y152400D03*
X1041400Y127000D03*
X1092200Y152400D03*
X1092200Y127000D03*
X1143000Y152400D03*
X1143000Y127000D03*
X1193800Y152400D03*
X1193800Y127000D03*
X1244600Y152400D03*
X1244600Y127000D03*
X1295400Y152400D03*
X1295400Y127000D03*
X1346200Y152400D03*
X1346200Y127000D03*
X1397000Y152400D03*
X1397000Y127000D03*
X1447800Y152400D03*
X1447800Y127000D03*
X1498600Y152400D03*
X1498600Y127000D03*
D17*
X584200Y190500D03*
X584200Y266700D03*
X635000Y190500D03*
X635000Y266700D03*
X685800Y190500D03*
X685800Y266700D03*
X736600Y190500D03*
X736600Y266700D03*
X787400Y190500D03*
X787400Y266700D03*
X838200Y190500D03*
X838200Y266700D03*
X889000Y190500D03*
X889000Y266700D03*
X939800Y190500D03*
X939800Y266700D03*
X990600Y190500D03*
X990600Y266700D03*
X1041400Y190500D03*
X1041400Y266700D03*
X1092200Y190500D03*
X1092200Y266700D03*
X1143000Y190500D03*
X1143000Y266700D03*
X1193800Y190500D03*
X1193800Y266700D03*
X1244600Y190500D03*
X1244600Y266700D03*
X1295400Y190500D03*
X1295400Y266700D03*
X1346200Y190500D03*
X1346200Y266700D03*
X1397000Y190500D03*
X1397000Y266700D03*
X1447800Y190500D03*
X1447800Y266700D03*
X1498600Y190500D03*
X1498600Y266700D03*
X533400Y190500D03*
X533400Y266700D03*
D16*
X533400Y152400D03*
X533400Y127000D03*
D18*
X800100Y901700D03*
X800100Y876700D03*
X820100Y901700D03*
X820100Y876700D03*
X840100Y901700D03*
X840100Y876700D03*
X860100Y901700D03*
X860100Y876700D03*
X880100Y901700D03*
X880100Y876700D03*
X900100Y901700D03*
X900100Y876700D03*
X920100Y901700D03*
X920100Y876700D03*
X940100Y901700D03*
X940100Y876700D03*
X960100Y901700D03*
X960100Y876700D03*
X980100Y901700D03*
X980100Y876700D03*
X1000100Y901700D03*
X1000100Y876700D03*
X1020100Y901700D03*
X1020100Y876700D03*
D19*
X952500Y812800D03*
X977900Y812800D03*
X1206500Y520700D03*
X1231900Y520700D03*
X50800Y457200D03*
X76200Y457200D03*
X50800Y330200D03*
X76200Y330200D03*
D17*
X800100Y635000D03*
X800100Y660400D03*
X749300Y635000D03*
X749300Y660400D03*
X698500Y635000D03*
X698500Y660400D03*
X647700Y635000D03*
X647700Y660400D03*
X596900Y635000D03*
X596900Y660400D03*
X546100Y635000D03*
X546100Y660400D03*
X495300Y635000D03*
X495300Y660400D03*
X444500Y635000D03*
X444500Y660400D03*
X393700Y635000D03*
X393700Y660400D03*
X342900Y635000D03*
X342900Y660400D03*
X292100Y635000D03*
X292100Y660400D03*
X241300Y635000D03*
X241300Y660400D03*
X190500Y635000D03*
X190500Y660400D03*
X139700Y635000D03*
X139700Y660400D03*
X88900Y635000D03*
X88900Y660400D03*
X850900Y635000D03*
X850900Y660400D03*
D16*
X800100Y596900D03*
X800100Y520700D03*
X749300Y596900D03*
X749300Y520700D03*
X698500Y596900D03*
X698500Y520700D03*
X647700Y596900D03*
X647700Y520700D03*
X596900Y596900D03*
X596900Y520700D03*
X546100Y596900D03*
X546100Y520700D03*
X495300Y596900D03*
X495300Y520700D03*
X444500Y596900D03*
X444500Y520700D03*
X393700Y596900D03*
X393700Y520700D03*
X342900Y596900D03*
X342900Y520700D03*
X292100Y596900D03*
X292100Y520700D03*
X241300Y596900D03*
X241300Y520700D03*
X190500Y596900D03*
X190500Y520700D03*
X139700Y596900D03*
X139700Y520700D03*
X88900Y596900D03*
X88900Y520700D03*
X850900Y596900D03*
X850900Y520700D03*
D20*
X443400Y898600D03*
X443400Y873600D03*
X463400Y898600D03*
X463400Y873600D03*
X483400Y898600D03*
X483400Y873600D03*
X503400Y898600D03*
X503400Y873600D03*
X523400Y898600D03*
X523400Y873600D03*
X543400Y898600D03*
X543400Y873600D03*
X563400Y898600D03*
X563400Y873600D03*
X583400Y898600D03*
X583400Y873600D03*
X603400Y898600D03*
X603400Y873600D03*
X623400Y898600D03*
X623400Y873600D03*
D21*
X609600Y477012D02*
X585216Y477012D01*
X584200Y476250D01*
X609600Y477012D02*
X633984Y477012D01*
X635000Y476250D01*
X609600Y476250D02*
X609600Y477012D01*
X451104Y419100D02*
X381000Y419100D01*
X451104Y419100D02*
X507492Y475488D01*
X508000Y476250D01*
X1144524Y711708D02*
X1144524Y736092D01*
X1144524Y711708D02*
X1144600Y711200D01*
X1144524Y736092D02*
X1144600Y736600D01*
X1065276Y685800D02*
X1065276Y661416D01*
X1065200Y660400D01*
X1065276Y685800D02*
X1065200Y685800D01*
X1054608Y627888D02*
X1054608Y618744D01*
X1063752Y609600D01*
X1065200Y609600D01*
X1146048Y696468D02*
X1146048Y710184D01*
X1146048Y696468D02*
X1153668Y688848D01*
X1153668Y669036D01*
X1146048Y661416D01*
X1146048Y710184D02*
X1144600Y711200D01*
X1146048Y661416D02*
X1144600Y660400D01*
X1028700Y477012D02*
X1004316Y477012D01*
X1003300Y476250D01*
X1028700Y476250D02*
X1028700Y477012D01*
X940308Y477012D02*
X928116Y477012D01*
X940308Y477012D02*
X949452Y486156D01*
X967740Y486156D01*
X976884Y477012D01*
X928116Y477012D02*
X927100Y476250D01*
X976884Y477012D02*
X977900Y476250D01*
X978408Y477012D02*
X1002792Y477012D01*
X1003300Y476250D01*
X978408Y477012D02*
X977900Y476250D01*
X926592Y673608D02*
X926592Y697992D01*
X926592Y673608D02*
X925500Y673100D01*
X926592Y697992D02*
X925500Y698500D01*
X926592Y699516D02*
X926592Y723900D01*
X925500Y723900D01*
X926592Y699516D02*
X925500Y698500D01*
X926592Y672084D02*
X926592Y647700D01*
X925500Y647700D01*
X926592Y672084D02*
X925500Y673100D01*
X685800Y746760D02*
X632460Y693420D01*
X685800Y746760D02*
X685800Y747700D01*
X278892Y748284D02*
X254508Y748284D01*
X254000Y747700D01*
X278892Y748284D02*
X279400Y747700D01*
X202692Y748284D02*
X178308Y748284D01*
X177800Y747700D01*
X202692Y748284D02*
X203200Y747700D01*
X204216Y748284D02*
X228600Y748284D01*
X204216Y748284D02*
X203200Y747700D01*
X228600Y748284D02*
X252984Y748284D01*
X254000Y747700D01*
X228600Y747700D02*
X228600Y748284D01*
X64008Y329184D02*
X51816Y329184D01*
X64008Y329184D02*
X88392Y304800D01*
X152400Y304800D01*
X51816Y329184D02*
X50800Y330200D01*
X51816Y330708D02*
X51816Y457200D01*
X51816Y330708D02*
X50800Y330200D01*
X85344Y419100D02*
X152400Y419100D01*
X166116Y746760D02*
X176784Y746760D01*
X166116Y746760D02*
X96012Y676656D01*
X82296Y676656D01*
X51816Y646176D01*
X51816Y457200D01*
X176784Y746760D02*
X177800Y747700D01*
X51816Y457200D02*
X50800Y457200D01*
X1347216Y128016D02*
X1395984Y128016D01*
X1347216Y128016D02*
X1346200Y127000D01*
X1395984Y128016D02*
X1397000Y127000D01*
X1397508Y128016D02*
X1447800Y128016D01*
X1397508Y128016D02*
X1397000Y127000D01*
X1447800Y128016D02*
X1498092Y128016D01*
X1447800Y128016D02*
X1447800Y127000D01*
X1498092Y128016D02*
X1498600Y127000D01*
X1281100Y571500D02*
X1257300Y571500D01*
X1206500Y520700D01*
X1295400Y477012D02*
X1319784Y477012D01*
X1295400Y477012D02*
X1295400Y476250D01*
X1319784Y477012D02*
X1320800Y476250D01*
X1371600Y477012D02*
X1395984Y477012D01*
X1371600Y477012D02*
X1371600Y476250D01*
X1395984Y477012D02*
X1397000Y476250D01*
X1458468Y512064D02*
X1458468Y571500D01*
X1458468Y512064D02*
X1423416Y477012D01*
X1458468Y571500D02*
X1458900Y571500D01*
X1423416Y477012D02*
X1422400Y476250D01*
X1421892Y477012D02*
X1397508Y477012D01*
X1397000Y476250D01*
X1421892Y477012D02*
X1422400Y476250D01*
X1243584Y128016D02*
X1194816Y128016D01*
X1193800Y127000D01*
X1243584Y128016D02*
X1244600Y127000D01*
X1178052Y310896D02*
X1156716Y310896D01*
X1178052Y310896D02*
X1210056Y278892D01*
X1214628Y278892D01*
X1280160Y213360D01*
X1284732Y213360D01*
X1287780Y210312D01*
X1287780Y196596D01*
X1286256Y195072D01*
X1286256Y137160D01*
X1295400Y128016D01*
X1156716Y310896D02*
X1155700Y311150D01*
X1245108Y128016D02*
X1277112Y128016D01*
X1286256Y137160D01*
X1245108Y128016D02*
X1244600Y127000D01*
X316992Y188976D02*
X292608Y188976D01*
X292100Y188900D01*
X316992Y188976D02*
X317500Y188900D01*
X394716Y188976D02*
X419100Y188976D01*
X394716Y188976D02*
X393700Y188900D01*
X419100Y188976D02*
X443484Y188976D01*
X444500Y188900D01*
X419100Y188976D02*
X419100Y188900D01*
X367284Y188976D02*
X342900Y188976D01*
X342900Y188900D01*
X367284Y188976D02*
X368300Y188900D01*
X890016Y128016D02*
X938784Y128016D01*
X890016Y128016D02*
X889000Y127000D01*
X938784Y128016D02*
X939800Y127000D01*
X940308Y128016D02*
X990600Y128016D01*
X940308Y128016D02*
X939800Y127000D01*
X1042416Y128016D02*
X1091184Y128016D01*
X1042416Y128016D02*
X1041400Y127000D01*
X1091184Y128016D02*
X1092200Y127000D01*
X1092708Y128016D02*
X1143000Y128016D01*
X1092708Y128016D02*
X1092200Y127000D01*
X1040892Y128016D02*
X990600Y128016D01*
X990600Y127000D01*
X1040892Y128016D02*
X1041400Y127000D01*
X316992Y62484D02*
X292608Y62484D01*
X292100Y61900D01*
X316992Y62484D02*
X317500Y61900D01*
X318516Y62484D02*
X342900Y62484D01*
X318516Y62484D02*
X317500Y61900D01*
X445008Y62484D02*
X469392Y62484D01*
X445008Y62484D02*
X444500Y61900D01*
X469392Y62484D02*
X469900Y61900D01*
X393192Y62484D02*
X368808Y62484D01*
X368300Y61900D01*
X393192Y62484D02*
X393700Y61900D01*
X394716Y62484D02*
X419100Y62484D01*
X394716Y62484D02*
X393700Y61900D01*
X419100Y62484D02*
X443484Y62484D01*
X444500Y61900D01*
X419100Y61900D02*
X419100Y62484D01*
X367284Y62484D02*
X342900Y62484D01*
X342900Y61900D01*
X367284Y62484D02*
X368300Y61900D01*
X533400Y128016D02*
X583692Y128016D01*
X584200Y127000D01*
X585216Y128016D02*
X633984Y128016D01*
X635000Y127000D01*
X585216Y128016D02*
X584200Y127000D01*
X723900Y272796D02*
X762000Y310896D01*
X723900Y272796D02*
X723900Y140208D01*
X736092Y128016D01*
X762000Y310896D02*
X762000Y311150D01*
X736092Y128016D02*
X736600Y127000D01*
X711708Y128016D02*
X685800Y128016D01*
X711708Y128016D02*
X723900Y140208D01*
X787908Y128016D02*
X838200Y128016D01*
X787908Y128016D02*
X787400Y127000D01*
X685800Y128016D02*
X635508Y128016D01*
X635000Y127000D01*
X685800Y127000D02*
X685800Y128016D01*
X533400Y124968D02*
X470916Y62484D01*
X533400Y124968D02*
X533400Y127000D01*
X470916Y62484D02*
X469900Y61900D01*
X838200Y128016D02*
X888492Y128016D01*
X889000Y127000D01*
X838200Y127000D02*
X838200Y128016D01*
X473964Y187452D02*
X470916Y187452D01*
X473964Y187452D02*
X533400Y128016D01*
X470916Y187452D02*
X469900Y188900D01*
X533400Y128016D02*
X533400Y127000D01*
X1143000Y128016D02*
X1193292Y128016D01*
X1193800Y127000D01*
X1143000Y127000D02*
X1143000Y128016D01*
X1295400Y128016D02*
X1345692Y128016D01*
X1346200Y127000D01*
X1295400Y127000D02*
X1295400Y128016D01*
X1146048Y620268D02*
X1146048Y633984D01*
X1146048Y620268D02*
X1181100Y585216D01*
X1181100Y525780D01*
X1146048Y633984D02*
X1144600Y635000D01*
D22*
X1054608Y627888D03*
X632460Y693420D03*
X85344Y419100D03*
X1181100Y525780D03*
D21*
X291084Y140208D02*
X291084Y73152D01*
X271272Y53340D01*
X262128Y53340D01*
X249936Y65532D01*
X249936Y120396D01*
X204216Y166116D01*
X204216Y304800D01*
X292100Y141300D02*
X291084Y140208D01*
X204216Y304800D02*
X203200Y304800D01*
X964692Y675132D02*
X964692Y716280D01*
X964692Y675132D02*
X1005840Y633984D01*
X1010412Y633984D01*
X1063752Y580644D01*
X1063752Y452628D02*
X1063752Y411480D01*
X1063752Y452628D02*
X1063752Y486156D01*
X1063752Y580644D01*
X659892Y310896D02*
X652272Y310896D01*
X643128Y301752D01*
X630936Y301752D01*
X626364Y306324D01*
X626364Y315468D01*
X765048Y454152D01*
X1019556Y454152D01*
X1051560Y486156D01*
X1063752Y486156D01*
X660400Y311150D02*
X659892Y310896D01*
X1447800Y311150D02*
X1447800Y320040D01*
X1432560Y335280D01*
X1146048Y452628D02*
X1063752Y452628D01*
D22*
X964692Y716280D03*
X1063752Y411480D03*
X1432560Y335280D03*
X1146048Y452628D03*
D21*
X649224Y312420D02*
X635508Y312420D01*
X649224Y312420D02*
X758952Y422148D01*
X993648Y422148D01*
X635508Y312420D02*
X635000Y311150D01*
X1423416Y310896D02*
X1435608Y310896D01*
X1444752Y301752D01*
X1450848Y301752D01*
X1456944Y307848D01*
X1456944Y320040D01*
X1444752Y332232D01*
X1129284Y362712D02*
X1078992Y362712D01*
X1028700Y312420D01*
X1422400Y311150D02*
X1423416Y310896D01*
X1028700Y311150D02*
X1028700Y312420D01*
D22*
X993648Y422148D03*
X1444752Y332232D03*
X1129284Y362712D03*
D21*
X609600Y312420D02*
X600456Y312420D01*
X589788Y323088D01*
X557784Y323088D01*
X550164Y315468D01*
X550164Y306324D01*
X563880Y292608D01*
X714756Y292608D01*
X725424Y303276D01*
X609600Y311150D02*
X609600Y312420D01*
X1395984Y310896D02*
X1395984Y303276D01*
X1350264Y257556D01*
X1240536Y257556D01*
X1200912Y297180D01*
X1395984Y310896D02*
X1397000Y311150D01*
D22*
X725424Y303276D03*
X1200912Y297180D03*
D21*
X592836Y310896D02*
X585216Y310896D01*
X592836Y310896D02*
X605028Y298704D01*
X685800Y298704D01*
X797052Y409956D01*
X981456Y409956D01*
X585216Y310896D02*
X584200Y311150D01*
X1342644Y341376D02*
X1371600Y312420D01*
X1156716Y498348D02*
X1007364Y647700D01*
X1004900Y647700D01*
X1371600Y312420D02*
X1371600Y311150D01*
D22*
X981456Y409956D03*
X1342644Y341376D03*
X1156716Y498348D03*
D21*
X553212Y332232D02*
X533400Y312420D01*
X533400Y311150D01*
X228600Y521208D02*
X190500Y521208D01*
X228600Y521208D02*
X281940Y574548D01*
X777240Y574548D01*
X190500Y521208D02*
X190500Y520700D01*
D22*
X553212Y332232D03*
X777240Y574548D03*
D21*
X266700Y115824D02*
X266700Y61900D01*
X266700Y115824D02*
X242316Y140208D01*
X241300Y141300D01*
X242316Y204216D02*
X242316Y268224D01*
X242316Y204216D02*
X249936Y196596D01*
X249936Y149352D01*
X242316Y141732D01*
X242316Y268224D02*
X241300Y268300D01*
X242316Y141732D02*
X241300Y141300D01*
X483108Y477012D02*
X495300Y477012D01*
X504444Y486156D01*
X524256Y486156D01*
X533400Y477012D01*
X483108Y477012D02*
X482600Y476250D01*
X533400Y477012D02*
X557784Y477012D01*
X558800Y476250D01*
X533400Y476250D02*
X533400Y477012D01*
X457200Y826008D02*
X448056Y826008D01*
X431292Y809244D01*
X68580Y809244D01*
X51816Y826008D01*
X457200Y826008D02*
X457200Y827100D01*
X51816Y826008D02*
X50800Y827100D01*
X114300Y495300D02*
X152400Y495300D01*
X114300Y495300D02*
X76200Y457200D01*
X134112Y362712D02*
X134112Y356616D01*
X134112Y362712D02*
X152400Y381000D01*
X1333500Y477012D02*
X1345692Y477012D01*
X1333500Y477012D02*
X1324356Y486156D01*
X1280160Y486156D01*
X1271016Y477012D01*
X1345692Y477012D02*
X1346200Y476250D01*
X1271016Y477012D02*
X1270000Y476250D01*
X1360500Y723900D02*
X1443228Y723900D01*
X1455420Y736092D01*
X1525524Y736092D01*
X1537716Y723900D01*
X1538300Y723900D01*
X1347216Y498348D02*
X1347216Y477012D01*
X1347216Y498348D02*
X1458468Y609600D01*
X1533144Y609600D01*
X1536192Y612648D01*
X1540764Y612648D01*
X1546860Y618744D01*
X1546860Y716280D01*
X1539240Y723900D01*
X1347216Y477012D02*
X1346200Y476250D01*
X1538300Y723900D02*
X1539240Y723900D01*
X900684Y477012D02*
X876300Y477012D01*
X876300Y476250D01*
X900684Y477012D02*
X901700Y476250D01*
X926592Y621792D02*
X1004316Y621792D01*
X926592Y621792D02*
X925500Y622300D01*
X1004316Y621792D02*
X1004900Y622300D01*
X1005840Y621792D02*
X1005840Y597408D01*
X1004900Y596900D01*
X1005840Y621792D02*
X1004900Y622300D01*
X902208Y598932D02*
X902208Y477012D01*
X902208Y598932D02*
X925068Y621792D01*
X902208Y477012D02*
X901700Y476250D01*
X925068Y621792D02*
X925500Y622300D01*
X1004316Y775716D02*
X1004316Y786384D01*
X977900Y812800D01*
X1004316Y775716D02*
X1004900Y774700D01*
X1092708Y762000D02*
X1144600Y762000D01*
X1296924Y723900D02*
X1360500Y723900D01*
X1296924Y723900D02*
X1258824Y762000D01*
X1170432Y762000D01*
D22*
X134112Y356616D03*
X1092708Y762000D03*
X1170432Y762000D03*
D21*
X266700Y269748D02*
X252984Y269748D01*
X245364Y277368D01*
X237744Y277368D01*
X231648Y271272D01*
X231648Y198120D01*
X240792Y188976D01*
X266700Y268300D02*
X266700Y269748D01*
X241300Y188900D02*
X240792Y188976D01*
X1373124Y697992D02*
X1458468Y697992D01*
X1373124Y697992D02*
X1351788Y676656D01*
X1335024Y676656D01*
X967740Y858012D02*
X918972Y858012D01*
X909828Y867156D02*
X900684Y876300D01*
X909828Y867156D02*
X918972Y858012D01*
X1458468Y697992D02*
X1458900Y698500D01*
X900684Y876300D02*
X900100Y876700D01*
X240792Y121920D02*
X240792Y62484D01*
X240792Y121920D02*
X25908Y336804D01*
X25908Y824484D01*
X120396Y918972D01*
X769620Y918972D01*
X801624Y886968D01*
X844296Y886968D01*
X850392Y880872D01*
X850392Y873252D01*
X868680Y854964D01*
X897636Y854964D02*
X909828Y867156D01*
X240792Y62484D02*
X241300Y61900D01*
D22*
X1335024Y676656D03*
X967740Y858012D03*
X868680Y854964D03*
X897636Y854964D03*
D21*
X318516Y176784D02*
X318516Y141732D01*
X318516Y176784D02*
X326136Y184404D01*
X326136Y246888D01*
X278892Y294132D01*
X239268Y294132D01*
X228600Y304800D01*
X317500Y141300D02*
X318516Y141732D01*
X455676Y897636D02*
X463296Y897636D01*
X455676Y897636D02*
X441960Y883920D01*
X298704Y883920D01*
X233172Y818388D01*
X199644Y818388D01*
X193548Y824484D01*
X193548Y829056D01*
X182880Y839724D01*
X45720Y839724D01*
X28956Y822960D01*
X28956Y338328D01*
X73152Y294132D01*
X182880Y294132D01*
X192024Y303276D01*
X192024Y313944D01*
X193548Y315468D01*
X463296Y897636D02*
X463400Y898600D01*
D22*
X193548Y315468D03*
D21*
X342900Y172212D02*
X342900Y141300D01*
X342900Y172212D02*
X329184Y185928D01*
X329184Y280416D01*
X304800Y304800D01*
X545592Y827532D02*
X557784Y827532D01*
X545592Y827532D02*
X536448Y836676D01*
X480060Y836676D01*
X403860Y760476D01*
X47244Y760476D01*
X41148Y754380D01*
X41148Y353568D01*
X557784Y827532D02*
X558800Y827100D01*
D22*
X41148Y353568D03*
D21*
X571500Y827532D02*
X583692Y827532D01*
X571500Y827532D02*
X534924Y864108D01*
X519684Y864108D01*
X513588Y870204D01*
X513588Y888492D01*
X504444Y897636D01*
X583692Y827532D02*
X584200Y827100D01*
X504444Y897636D02*
X503400Y898600D01*
X367284Y152400D02*
X367284Y141732D01*
X367284Y152400D02*
X332232Y187452D01*
X332232Y303276D01*
X330708Y304800D01*
X367284Y141732D02*
X368300Y141300D01*
X492252Y748284D02*
X571500Y827532D01*
X492252Y748284D02*
X492252Y745236D01*
X417576Y670560D01*
X85344Y670560D01*
X67056Y652272D01*
X67056Y400812D01*
X126492Y341376D01*
X310896Y341376D01*
X330708Y321564D01*
X330708Y304800D01*
X330200Y304800D01*
X348996Y324612D02*
X348996Y362712D01*
X330708Y381000D01*
X330200Y381000D01*
X533400Y556260D02*
X624840Y556260D01*
X656844Y524256D01*
X656844Y516636D01*
X632460Y492252D01*
X582168Y492252D01*
X571500Y481584D01*
X571500Y470916D01*
X492252Y391668D01*
X376428Y391668D01*
X367284Y382524D01*
X367284Y376428D01*
X353568Y362712D01*
X348996Y362712D01*
D22*
X348996Y324612D03*
X533400Y556260D03*
D21*
X582168Y911352D02*
X585216Y911352D01*
X582168Y911352D02*
X577596Y915924D01*
X560832Y915924D01*
X544068Y899160D01*
X543400Y898600D01*
X432816Y140208D02*
X419100Y140208D01*
X432816Y140208D02*
X443484Y129540D01*
X475488Y129540D01*
X481584Y135636D01*
X481584Y164592D01*
X457200Y188976D01*
X457200Y307848D01*
X413004Y352044D01*
X419100Y141300D02*
X419100Y140208D01*
X621792Y826008D02*
X633984Y826008D01*
X621792Y826008D02*
X556260Y760476D01*
X545592Y760476D01*
X544068Y710184D02*
X571500Y682752D01*
X633984Y826008D02*
X635000Y827100D01*
D22*
X585216Y911352D03*
X413004Y352044D03*
X545592Y760476D03*
X544068Y710184D03*
X571500Y682752D03*
D21*
X563880Y899160D02*
X574548Y909828D01*
X563880Y899160D02*
X563400Y898600D01*
X458724Y140208D02*
X445008Y140208D01*
X458724Y140208D02*
X466344Y132588D01*
X473964Y132588D01*
X478536Y137160D01*
X478536Y163068D01*
X454152Y187452D01*
X454152Y301752D01*
X451104Y304800D01*
X473964Y405384D02*
X362712Y405384D01*
X350520Y393192D01*
X312420Y393192D01*
X444500Y141300D02*
X445008Y140208D01*
X603504Y769620D02*
X659892Y826008D01*
X451104Y501396D02*
X448056Y501396D01*
X396240Y449580D01*
X659892Y826008D02*
X660400Y827100D01*
D22*
X574548Y909828D03*
X451104Y304800D03*
X473964Y405384D03*
X312420Y393192D03*
X603504Y769620D03*
X451104Y501396D03*
X396240Y449580D03*
D21*
X682752Y827532D02*
X685800Y827532D01*
X682752Y827532D02*
X621792Y888492D01*
X592836Y888492D01*
X583692Y897636D01*
X685800Y827532D02*
X685800Y827100D01*
X583692Y897636D02*
X583400Y898600D01*
X429768Y181356D02*
X469392Y141732D01*
X356616Y318516D02*
X345948Y318516D01*
X295656Y368808D01*
X295656Y370332D01*
X469392Y141732D02*
X469900Y141300D01*
X128016Y376428D02*
X123444Y376428D01*
X128016Y376428D02*
X143256Y391668D01*
D22*
X429768Y181356D03*
X356616Y318516D03*
X295656Y370332D03*
X123444Y376428D03*
X143256Y391668D03*
D21*
X470916Y283464D02*
X470916Y269748D01*
X470916Y283464D02*
X498348Y310896D01*
X498348Y313944D01*
X649224Y464820D01*
X650748Y464820D01*
X644652Y682752D02*
X585216Y682752D01*
X524256Y743712D01*
X524256Y754380D01*
X556260Y786384D02*
X592836Y822960D01*
X556260Y786384D02*
X524256Y754380D01*
X592836Y822960D02*
X592836Y864108D01*
X583692Y873252D01*
X470916Y269748D02*
X469900Y268300D01*
X583692Y873252D02*
X583400Y873600D01*
X548640Y794004D02*
X556260Y786384D01*
X213360Y495300D02*
X203200Y495300D01*
X213360Y495300D02*
X228600Y510540D01*
X254508Y510540D01*
X312420Y568452D01*
X361188Y568452D01*
D22*
X650748Y464820D03*
X644652Y682752D03*
X548640Y794004D03*
X361188Y568452D03*
D21*
X443484Y268224D02*
X443484Y251460D01*
X377952Y185928D01*
X377952Y138684D01*
X371856Y132588D01*
X313944Y132588D01*
X275844Y170688D01*
X275844Y271272D01*
X256032Y291084D01*
X227076Y291084D01*
X214884Y303276D01*
X214884Y309372D01*
X188976Y335280D01*
X146304Y335280D01*
X134112Y347472D02*
X117348Y364236D01*
X117348Y388620D01*
X137160Y408432D01*
X163068Y408432D01*
X166116Y411480D01*
X166116Y432816D01*
X228600Y495300D01*
X443484Y268224D02*
X444500Y268300D01*
D22*
X146304Y335280D03*
X134112Y347472D03*
D21*
X531876Y568452D02*
X769620Y568452D01*
X531876Y568452D02*
X504444Y541020D01*
X504444Y516636D01*
X498348Y510540D01*
X381000Y510540D01*
X367284Y496824D01*
X367284Y490728D01*
X361188Y484632D01*
X315468Y484632D01*
X304800Y495300D01*
X483108Y885444D02*
X496824Y885444D01*
X483108Y885444D02*
X473964Y894588D01*
X473964Y902208D01*
X467868Y908304D01*
X309372Y908304D01*
X228600Y827532D01*
X228600Y827100D01*
D22*
X769620Y568452D03*
X496824Y885444D03*
D21*
X394716Y342900D02*
X394716Y269748D01*
X394716Y342900D02*
X426720Y374904D01*
X551688Y374904D01*
X650748Y473964D01*
X650748Y480060D01*
X681228Y510540D01*
X752856Y510540D01*
X806196Y563880D01*
X806196Y565404D01*
X827532Y586740D01*
X853440Y586740D01*
X867156Y600456D01*
X867156Y694944D01*
X743712Y818388D01*
X681228Y818388D01*
X635508Y864108D01*
X618744Y864108D01*
X612648Y870204D01*
X612648Y877824D01*
X606552Y883920D01*
X533400Y883920D01*
X528828Y879348D02*
X524256Y874776D01*
X528828Y879348D02*
X533400Y883920D01*
X394716Y269748D02*
X393700Y268300D01*
X523400Y873600D02*
X524256Y874776D01*
X216408Y827532D02*
X204216Y827532D01*
X216408Y827532D02*
X300228Y911352D01*
X504444Y911352D01*
X513588Y902208D01*
X513588Y894588D01*
X528828Y879348D01*
X204216Y827532D02*
X203200Y827100D01*
X367284Y277368D02*
X367284Y269748D01*
X367284Y277368D02*
X341376Y303276D01*
X341376Y315468D01*
X286512Y370332D01*
X274320Y370332D01*
X268224Y376428D01*
X268224Y391668D01*
X294132Y417576D01*
X294132Y423672D01*
X300228Y429768D01*
X318516Y429768D01*
X329184Y419100D01*
X367284Y269748D02*
X368300Y268300D01*
X330200Y419100D02*
X329184Y419100D01*
X182880Y826008D02*
X178308Y826008D01*
X182880Y826008D02*
X196596Y812292D01*
X429768Y812292D01*
X481584Y864108D01*
X493776Y864108D01*
X502920Y873252D01*
X178308Y826008D02*
X177800Y827100D01*
X502920Y873252D02*
X503400Y873600D01*
X483108Y874776D02*
X460248Y851916D01*
X483400Y873600D02*
X483108Y874776D01*
X35052Y824484D02*
X35052Y704088D01*
X35052Y824484D02*
X47244Y836676D01*
X143256Y836676D01*
X152400Y827532D01*
X152400Y827100D01*
X304800Y419100D02*
X313944Y419100D01*
X324612Y408432D01*
X335280Y408432D01*
X341376Y414528D01*
X341376Y423672D01*
X332232Y432816D01*
X277368Y432816D01*
X265176Y420624D01*
X265176Y414528D01*
X248412Y397764D01*
X213360Y397764D01*
X135636Y397764D02*
X123444Y385572D01*
D22*
X460248Y851916D03*
X35052Y704088D03*
X213360Y397764D03*
X135636Y397764D03*
X123444Y385572D03*
D21*
X309372Y364236D02*
X336804Y336804D01*
X224028Y364236D02*
X178308Y364236D01*
X166116Y376428D01*
X166116Y385572D01*
X188976Y408432D01*
X217932Y408432D01*
X224028Y414528D01*
X140208Y826008D02*
X128016Y826008D01*
X140208Y826008D02*
X147828Y818388D01*
X156972Y818388D01*
X175260Y836676D01*
X181356Y836676D01*
X190500Y827532D01*
X190500Y822960D01*
X198120Y815340D01*
X405384Y815340D01*
X463296Y873252D01*
X128016Y826008D02*
X127000Y827100D01*
X463296Y873252D02*
X463400Y873600D01*
X201168Y437388D02*
X224028Y414528D01*
X201168Y437388D02*
X181356Y437388D01*
X224028Y414528D02*
X228600Y419100D01*
D22*
X336804Y336804D03*
X309372Y364236D03*
X224028Y364236D03*
X181356Y437388D03*
D21*
X286512Y269748D02*
X291084Y269748D01*
X286512Y269748D02*
X268224Y288036D01*
X161544Y347472D02*
X161544Y374904D01*
X163068Y376428D01*
X163068Y387096D01*
X195072Y419100D01*
X203200Y419100D01*
X291084Y269748D02*
X292100Y268300D01*
D22*
X268224Y288036D03*
X161544Y347472D03*
D21*
X457200Y757428D02*
X457200Y801624D01*
X457200Y757428D02*
X457200Y747700D01*
X457200Y801624D02*
X481584Y826008D01*
X482600Y827100D01*
X64008Y748284D02*
X51816Y748284D01*
X64008Y748284D02*
X73152Y757428D01*
X457200Y757428D01*
X51816Y748284D02*
X50800Y747700D01*
X1360932Y580644D02*
X1360932Y571500D01*
X1360932Y580644D02*
X1370076Y589788D01*
X1370076Y600456D01*
X1360932Y609600D01*
X1338072Y609600D01*
X1315212Y632460D01*
X1260348Y658368D02*
X1056132Y862584D01*
X1030224Y862584D01*
X969264Y867156D02*
X929640Y867156D01*
X920496Y876300D01*
X1360500Y571500D02*
X1360932Y571500D01*
X920496Y876300D02*
X920100Y876700D01*
X640080Y815340D02*
X609600Y784860D01*
X851916Y829056D02*
X874776Y851916D01*
X874776Y864108D01*
X871728Y867156D01*
D22*
X1315212Y632460D03*
X1260348Y658368D03*
X1030224Y862584D03*
X969264Y867156D03*
X609600Y784860D03*
X640080Y815340D03*
X851916Y829056D03*
X871728Y867156D03*
D21*
X129540Y719328D02*
X102108Y746760D01*
X101600Y747700D01*
D22*
X129540Y719328D03*
D21*
X472440Y746760D02*
X481584Y746760D01*
X472440Y746760D02*
X399288Y673608D01*
X83820Y673608D01*
X64008Y653796D01*
X64008Y399288D01*
X147828Y315468D01*
X166116Y315468D01*
X176784Y304800D01*
X481584Y746760D02*
X482600Y747700D01*
X177800Y304800D02*
X176784Y304800D01*
X553212Y676656D02*
X704088Y676656D01*
D22*
X704088Y676656D03*
X553212Y676656D03*
D21*
X812292Y562356D02*
X812292Y533400D01*
X800100Y521208D01*
X800100Y520700D01*
X263652Y304800D02*
X254000Y304800D01*
X263652Y304800D02*
X277368Y318516D01*
X324612Y318516D01*
X355092Y336804D02*
X385572Y367284D01*
D22*
X812292Y562356D03*
X324612Y318516D03*
X355092Y336804D03*
X385572Y367284D03*
D21*
X533400Y748284D02*
X547116Y748284D01*
X556260Y757428D01*
X800100Y757428D01*
X864108Y693420D01*
X864108Y655320D01*
X853440Y644652D01*
X847344Y644652D01*
X812292Y609600D01*
X812292Y583692D01*
X749300Y520700D01*
X533400Y747700D02*
X533400Y748284D01*
X518160Y342900D02*
X445008Y342900D01*
D22*
X445008Y342900D03*
X518160Y342900D03*
D21*
X356616Y309372D02*
X356616Y304800D01*
X356616Y309372D02*
X425196Y377952D01*
X550164Y377952D01*
X647700Y475488D01*
X647700Y481584D01*
X685800Y519684D01*
X697992Y519684D01*
X356616Y304800D02*
X355600Y304800D01*
X697992Y519684D02*
X698500Y520700D01*
X128016Y519684D02*
X89916Y519684D01*
X128016Y519684D02*
X141732Y505968D01*
X166116Y505968D01*
X172212Y499872D02*
X176784Y495300D01*
X172212Y499872D02*
X166116Y505968D01*
X89916Y519684D02*
X88900Y520700D01*
X176784Y495300D02*
X177800Y495300D01*
X172212Y499872D02*
X97536Y425196D01*
X82296Y425196D01*
X79248Y422148D01*
X79248Y397764D01*
X172212Y499872D02*
X177800Y495300D01*
D22*
X79248Y397764D03*
D21*
X902208Y310896D02*
X902208Y286512D01*
X934212Y254508D01*
X1060704Y254508D01*
X1126236Y320040D01*
X1287780Y320040D01*
X1295400Y312420D01*
X902208Y310896D02*
X901700Y311150D01*
X1295400Y311150D02*
X1295400Y312420D01*
X178308Y521208D02*
X140208Y521208D01*
X178308Y521208D02*
X240792Y583692D01*
X766572Y583692D01*
X885444Y338328D02*
X885444Y327660D01*
X888492Y324612D01*
X140208Y521208D02*
X139700Y520700D01*
D22*
X766572Y583692D03*
X885444Y338328D03*
X888492Y324612D03*
D21*
X288036Y530352D02*
X278892Y521208D01*
X288036Y530352D02*
X320040Y530352D01*
X355092Y495300D01*
X355600Y495300D01*
X559308Y310896D02*
X571500Y310896D01*
X586740Y295656D01*
X708660Y295656D01*
X736092Y323088D01*
X816864Y323088D01*
X559308Y310896D02*
X558800Y311150D01*
X861060Y216408D02*
X1214628Y216408D01*
X861060Y216408D02*
X816864Y260604D01*
X816864Y323088D01*
X472440Y473964D02*
X438912Y473964D01*
X472440Y473964D02*
X480060Y466344D01*
X489204Y466344D01*
X644652Y405384D02*
X644652Y338328D01*
X618744Y312420D01*
X618744Y307848D01*
X612648Y301752D01*
X606552Y301752D01*
X588264Y320040D01*
X580644Y320040D01*
X571500Y310896D01*
D22*
X278892Y521208D03*
X816864Y323088D03*
X1214628Y216408D03*
X438912Y473964D03*
X489204Y466344D03*
X644652Y405384D03*
D21*
X187452Y381000D02*
X177800Y381000D01*
X187452Y381000D02*
X211836Y405384D01*
X230124Y405384D01*
X242316Y417576D01*
X242316Y467868D01*
X268224Y493776D01*
X268224Y519684D01*
X281940Y533400D01*
X483108Y533400D01*
X495300Y521208D01*
X495300Y520700D01*
X289560Y381000D02*
X279400Y381000D01*
X289560Y381000D02*
X313944Y405384D01*
X358140Y405384D01*
X370332Y417576D01*
X370332Y423672D01*
X390144Y443484D01*
X399288Y443484D01*
X451104Y495300D01*
X571500Y495300D01*
X596900Y520700D01*
X361188Y381000D02*
X355600Y381000D01*
X361188Y381000D02*
X379476Y399288D01*
X495300Y399288D01*
X568452Y472440D01*
X568452Y483108D01*
X595884Y510540D01*
X638556Y510540D01*
X647700Y519684D01*
X647700Y520700D01*
X355092Y429768D02*
X355092Y419100D01*
X355092Y429768D02*
X292608Y492252D01*
X292608Y519684D01*
X355092Y419100D02*
X355600Y419100D01*
X292608Y519684D02*
X292100Y520700D01*
X1459992Y714756D02*
X1459992Y723900D01*
X1459992Y714756D02*
X1514856Y659892D01*
X1514856Y629412D01*
X1459992Y723900D02*
X1458900Y723900D01*
X672084Y266700D02*
X635000Y266700D01*
X672084Y266700D02*
X694944Y289560D01*
X728472Y289560D01*
X752856Y313944D01*
X752856Y315468D01*
X757428Y320040D01*
X766572Y320040D01*
X771144Y315468D01*
X771144Y307848D01*
X739140Y275844D01*
X733044Y275844D01*
X726948Y269748D01*
X726948Y213360D01*
X777240Y163068D01*
X777240Y123444D01*
X783336Y117348D01*
X1502664Y117348D01*
X1508760Y123444D01*
X1508760Y283464D01*
X1485900Y306324D01*
X1485900Y463296D01*
X1498092Y475488D01*
X1498600Y476250D01*
D22*
X1514856Y629412D03*
D21*
X1459992Y659892D02*
X1459992Y672084D01*
X1459992Y659892D02*
X1487424Y632460D01*
X1487424Y629412D01*
X1459992Y672084D02*
X1458900Y673100D01*
X685800Y266700D02*
X685800Y236220D01*
X717804Y204216D01*
X1316736Y251460D02*
X1405128Y251460D01*
X1464564Y310896D01*
X1464564Y467868D01*
X1472184Y475488D01*
X1473200Y476250D01*
D22*
X1487424Y629412D03*
X717804Y204216D03*
X1316736Y251460D03*
D21*
X1063752Y737616D02*
X1063752Y746760D01*
X1019556Y790956D01*
X1019556Y850392D01*
X1063752Y737616D02*
X1065200Y736600D01*
X1175004Y542544D02*
X1175004Y516636D01*
X1175004Y542544D02*
X1078992Y638556D01*
X774192Y266700D02*
X736600Y266700D01*
X774192Y266700D02*
X830580Y210312D01*
X1217676Y210312D01*
X1243584Y236220D01*
X1280160Y272796D02*
X1280160Y278892D01*
X1312164Y310896D01*
X1312164Y320040D01*
X1447800Y455676D01*
X1447800Y476250D01*
D22*
X1019556Y850392D03*
X1175004Y516636D03*
X1078992Y638556D03*
X1243584Y236220D03*
X1280160Y272796D03*
D21*
X1143000Y266700D02*
X1133856Y266700D01*
X1115568Y248412D01*
X833628Y248412D01*
X822960Y259080D01*
X822960Y332232D01*
X894588Y403860D01*
X984504Y403860D01*
X1053084Y472440D01*
X1053084Y475488D01*
X1054100Y476250D01*
X1359408Y583692D02*
X1359408Y595884D01*
X1359408Y583692D02*
X1088136Y312420D01*
X1080516Y312420D01*
X1359408Y595884D02*
X1360500Y596900D01*
X1080516Y312420D02*
X1079500Y311150D01*
X1072896Y310896D02*
X1025652Y263652D01*
X1072896Y310896D02*
X1078992Y310896D01*
X1079500Y311150D01*
D22*
X1025652Y263652D03*
D21*
X1098804Y310896D02*
X1104900Y310896D01*
X1098804Y310896D02*
X1045464Y257556D01*
X935736Y257556D01*
X911352Y281940D01*
X911352Y313944D01*
X905256Y320040D01*
X897636Y320040D01*
X888492Y310896D01*
X888492Y301752D01*
X853440Y266700D01*
X838200Y266700D01*
X1104900Y310896D02*
X1104900Y311150D01*
X1021080Y856488D02*
X1001268Y876300D01*
X1021080Y856488D02*
X1022604Y856488D01*
X1083564Y795528D01*
X1083564Y705612D01*
X1103376Y685800D01*
X1106424Y685800D01*
X1141476Y650748D01*
X1170432Y650748D01*
X1176528Y644652D01*
X1001268Y876300D02*
X1000100Y876700D01*
D22*
X1176528Y644652D03*
D21*
X1098804Y405384D02*
X990600Y405384D01*
X908304Y323088D01*
X896112Y323088D01*
X885444Y312420D01*
X885444Y303276D01*
X858012Y275844D01*
X833628Y275844D01*
X829056Y271272D01*
X829056Y262128D01*
X833628Y257556D01*
X879348Y257556D01*
X888492Y266700D01*
X889000Y266700D01*
D22*
X1098804Y405384D03*
D21*
X1280160Y612648D02*
X1280160Y621792D01*
X1280160Y612648D02*
X1156716Y489204D01*
X1156716Y477012D01*
X1280160Y621792D02*
X1281100Y622300D01*
X1156716Y477012D02*
X1155700Y476250D01*
X946404Y266700D02*
X939800Y266700D01*
X946404Y266700D02*
X1078992Y399288D01*
X1101852Y399288D01*
X1155192Y452628D01*
X1155192Y475488D01*
X1155700Y476250D01*
X990600Y284988D02*
X990600Y266700D01*
X990600Y284988D02*
X1019556Y313944D01*
X1019556Y315468D01*
X1100328Y396240D01*
X1107948Y396240D01*
X1129284Y417576D01*
D22*
X1129284Y417576D03*
D21*
X1537716Y583692D02*
X1537716Y595884D01*
X1537716Y583692D02*
X1431036Y477012D01*
X1431036Y443484D01*
X1304544Y316992D01*
X1304544Y307848D01*
X1263396Y266700D01*
X1244600Y266700D01*
X1537716Y595884D02*
X1538300Y596900D01*
X809244Y286512D02*
X809244Y259080D01*
X832104Y236220D01*
D22*
X809244Y286512D03*
X832104Y236220D03*
D21*
X912876Y900684D02*
X918972Y900684D01*
X912876Y900684D02*
X899160Y886968D01*
X896112Y886968D01*
X890016Y880872D01*
X890016Y792480D01*
X890016Y694944D02*
X890016Y601980D01*
X918972Y900684D02*
X920100Y901700D01*
D22*
X890016Y792480D03*
X890016Y694944D03*
X890016Y601980D03*
D21*
X1281684Y673608D02*
X1318260Y673608D01*
X1351788Y707136D01*
X1463040Y707136D01*
X1508760Y661416D01*
X1508760Y641604D01*
X1520952Y545592D02*
X1456944Y481584D01*
X1456944Y384048D01*
X1347216Y274320D01*
X1347216Y266700D01*
X1281100Y673100D02*
X1281684Y673608D01*
X1346200Y266700D02*
X1347216Y266700D01*
X903732Y460248D02*
X777240Y460248D01*
X903732Y460248D02*
X917448Y473964D01*
X917448Y480060D01*
X986028Y548640D01*
X1039368Y548640D01*
X1184148Y661416D02*
X1194816Y672084D01*
D22*
X1508760Y641604D03*
X1520952Y545592D03*
X777240Y460248D03*
X1039368Y548640D03*
X1184148Y661416D03*
X1194816Y672084D03*
D21*
X1360500Y647700D02*
X1446276Y647700D01*
X1459992Y633984D01*
X1473708Y633984D01*
X1488948Y618744D01*
X1513332Y618744D01*
X1513332Y528828D02*
X1459992Y475488D01*
X1459992Y371856D01*
X1406652Y318516D01*
X1406652Y275844D01*
X1397508Y266700D01*
X1397000Y266700D01*
X838200Y284988D02*
X838200Y338328D01*
X838200Y284988D02*
X826008Y272796D01*
X826008Y260604D01*
X835152Y251460D01*
X1114044Y251460D01*
X1138428Y275844D01*
X1213104Y275844D01*
X1281684Y207264D01*
D22*
X1513332Y618744D03*
X1513332Y528828D03*
X838200Y338328D03*
X1281684Y207264D03*
D21*
X1347216Y697992D02*
X1359408Y697992D01*
X1347216Y697992D02*
X1328928Y679704D01*
X1328928Y665988D01*
X1363980Y630936D01*
X1464564Y630936D01*
X1476756Y618744D01*
X1470660Y419100D02*
X1470660Y326136D01*
X1482852Y313944D01*
X1482852Y301752D01*
X1447800Y266700D01*
X1359408Y697992D02*
X1360500Y698500D01*
X723900Y477012D02*
X711708Y477012D01*
X723900Y477012D02*
X751332Y504444D01*
X801624Y504444D01*
X915924Y618744D01*
X915924Y624840D01*
X922020Y630936D01*
X1008888Y630936D01*
X1057656Y582168D01*
X1057656Y553212D01*
X1293876Y644652D02*
X1315212Y665988D01*
X1328928Y665988D01*
X711708Y477012D02*
X711200Y476250D01*
D22*
X1476756Y618744D03*
X1470660Y419100D03*
X1057656Y553212D03*
X1293876Y644652D03*
D21*
X699516Y477012D02*
X685800Y477012D01*
X699516Y477012D02*
X729996Y507492D01*
X800100Y507492D01*
X870204Y577596D01*
X870204Y758952D01*
X765048Y864108D01*
X685800Y477012D02*
X685800Y476250D01*
D22*
X765048Y864108D03*
D21*
X659892Y466344D02*
X659892Y429768D01*
X659892Y466344D02*
X659892Y475488D01*
X659892Y429768D02*
X542544Y312420D01*
X542544Y275844D01*
X533400Y266700D01*
X659892Y475488D02*
X660400Y476250D01*
X1021080Y862584D02*
X1021080Y876300D01*
X1021080Y862584D02*
X1086612Y797052D01*
X1086612Y711708D01*
X1097280Y701040D01*
X1025652Y582168D02*
X1014984Y582168D01*
X911352Y478536D01*
X911352Y472440D01*
X905256Y466344D01*
X659892Y466344D01*
X1020100Y876700D02*
X1021080Y876300D01*
D22*
X1097280Y701040D03*
X1025652Y582168D03*
D21*
X1499616Y390144D02*
X1499616Y312420D01*
X1499616Y390144D02*
X1562100Y452628D01*
X1562100Y726948D01*
X1386840Y902208D01*
X1046988Y902208D01*
X1025652Y923544D01*
X842772Y923544D01*
X821436Y902208D01*
X1499616Y312420D02*
X1498600Y311150D01*
X821436Y902208D02*
X820100Y901700D01*
X1511808Y310896D02*
X1524000Y310896D01*
X1511808Y310896D02*
X1502664Y301752D01*
X1495044Y301752D01*
X1488948Y307848D01*
X1488948Y384048D01*
X1559052Y454152D01*
X1559052Y725424D01*
X1385316Y899160D01*
X1045464Y899160D01*
X1024128Y920496D01*
X859536Y920496D01*
X841248Y902208D01*
X1524000Y311150D02*
X1524000Y310896D01*
X841248Y902208D02*
X840100Y901700D01*
X1549908Y612648D02*
X1549908Y477012D01*
X1549908Y612648D02*
X1552956Y615696D01*
X1552956Y726948D01*
X1383792Y896112D01*
X1043940Y896112D01*
X1022604Y917448D01*
X876300Y917448D01*
X861060Y902208D01*
X1549400Y476250D02*
X1549908Y477012D01*
X861060Y902208D02*
X860100Y901700D01*
X1524000Y476250D02*
X1524000Y428244D01*
X641604Y210312D02*
X585216Y266700D01*
X584200Y266700D01*
X952500Y877824D02*
X958596Y877824D01*
X952500Y877824D02*
X938784Y891540D01*
X937260Y891540D01*
X929640Y899160D01*
X929640Y905256D01*
X935736Y911352D01*
X1004316Y911352D01*
X1010412Y905256D01*
X1010412Y897636D01*
X1021080Y886968D01*
X1027176Y886968D01*
X1045464Y868680D01*
X1472184Y658368D02*
X1495044Y635508D01*
X960100Y876700D02*
X958596Y877824D01*
D22*
X1524000Y428244D03*
X641604Y210312D03*
X1045464Y868680D03*
X1472184Y658368D03*
X1495044Y635508D03*
D21*
X926592Y775716D02*
X926592Y807720D01*
X979932Y861060D01*
X979932Y876300D01*
X926592Y775716D02*
X925500Y774700D01*
X979932Y876300D02*
X980100Y876700D01*
X1092708Y675132D02*
X1101852Y675132D01*
X1092708Y675132D02*
X1065276Y702564D01*
X1039368Y702564D01*
X967740Y774192D01*
X926592Y774192D01*
X925500Y774700D01*
D22*
X1101852Y675132D03*
D21*
X1459992Y597408D02*
X1525524Y597408D01*
X1537716Y609600D01*
X1542288Y609600D01*
X1549908Y617220D01*
X1549908Y725424D01*
X1382268Y893064D01*
X1042416Y893064D01*
X1021080Y914400D01*
X893064Y914400D01*
X880872Y902208D01*
X1458900Y596900D02*
X1459992Y597408D01*
X880872Y902208D02*
X880100Y901700D01*
X1197864Y729996D02*
X1280160Y647700D01*
X1197864Y729996D02*
X1193292Y729996D01*
X1021080Y902208D01*
X1280160Y647700D02*
X1281100Y647700D01*
X1021080Y902208D02*
X1020100Y901700D01*
X1281684Y609600D02*
X1281684Y597408D01*
X1281684Y609600D02*
X1290828Y618744D01*
X1290828Y624840D01*
X1280160Y635508D01*
X1156716Y635508D01*
X1147572Y644652D01*
X1045464Y644652D01*
X928116Y762000D01*
X906780Y762000D01*
X821436Y847344D01*
X821436Y876300D01*
X1281100Y596900D02*
X1281684Y597408D01*
X821436Y876300D02*
X820100Y876700D01*
X1338072Y623316D02*
X1359408Y623316D01*
X1338072Y623316D02*
X1312164Y649224D01*
X1307592Y649224D01*
X1095756Y667512D02*
X1063752Y699516D01*
X1016508Y699516D01*
X950976Y765048D01*
X908304Y765048D01*
X880872Y792480D01*
X880872Y876300D01*
X1359408Y623316D02*
X1360500Y622300D01*
X880872Y876300D02*
X880100Y876700D01*
D22*
X1307592Y649224D03*
X1095756Y667512D03*
D21*
X1525524Y621792D02*
X1537716Y621792D01*
X1525524Y621792D02*
X1516380Y612648D01*
X1344168Y612648D01*
X1318260Y638556D01*
X1158240Y638556D01*
X1149096Y647700D01*
X1138428Y647700D01*
X1103376Y682752D01*
X1101852Y682752D01*
X1074420Y710184D01*
X1074420Y714756D01*
X1013460Y775716D01*
X1013460Y848868D01*
X990600Y871728D01*
X990600Y879348D01*
X978408Y891540D01*
X949452Y891540D01*
X940308Y900684D01*
X1537716Y621792D02*
X1538300Y622300D01*
X940308Y900684D02*
X940100Y901700D01*
X1481328Y729996D02*
X1537716Y673608D01*
X1303020Y908304D02*
X1045464Y908304D01*
X1027176Y926592D01*
X830580Y926592D01*
X810768Y906780D01*
X810768Y897636D01*
X816864Y891540D01*
X890016Y891540D01*
X899160Y900684D01*
X1537716Y673608D02*
X1538300Y673100D01*
X900100Y901700D02*
X899160Y900684D01*
D22*
X1481328Y729996D03*
X1303020Y908304D03*
D21*
X647700Y827532D02*
X601980Y873252D01*
X603400Y873600D01*
D22*
X647700Y827532D03*
D21*
X858012Y690372D02*
X858012Y665988D01*
X861060Y662940D01*
X861060Y656844D01*
X851916Y647700D01*
X845820Y647700D01*
X809244Y611124D01*
X809244Y592836D01*
X778764Y562356D01*
X659892Y562356D02*
X530352Y562356D01*
X659892Y562356D02*
X778764Y562356D01*
X530352Y562356D02*
X507492Y539496D01*
X507492Y515112D01*
X499872Y507492D01*
X393192Y507492D01*
X381000Y495300D01*
X381000Y381000D02*
X486156Y381000D01*
X574548Y469392D01*
X574548Y480060D01*
X583692Y489204D01*
X633984Y489204D01*
X659892Y515112D01*
X659892Y562356D01*
D22*
X858012Y690372D03*
D21*
X585216Y190500D02*
X585216Y152400D01*
X584200Y152400D01*
X584200Y190500D02*
X585216Y190500D01*
X635508Y190500D02*
X635508Y152400D01*
X635000Y152400D01*
X635000Y190500D02*
X635508Y190500D01*
X685800Y190500D02*
X685800Y152400D01*
X737616Y152400D02*
X737616Y190500D01*
X737616Y152400D02*
X736600Y152400D01*
X736600Y190500D02*
X737616Y190500D01*
X787908Y190500D02*
X787908Y152400D01*
X787400Y152400D01*
X787400Y190500D02*
X787908Y190500D01*
X838200Y190500D02*
X838200Y152400D01*
X890016Y152400D02*
X890016Y190500D01*
X890016Y152400D02*
X889000Y152400D01*
X889000Y190500D02*
X890016Y190500D01*
X990600Y190500D02*
X990600Y152400D01*
X1042416Y152400D02*
X1042416Y190500D01*
X1042416Y152400D02*
X1041400Y152400D01*
X1041400Y190500D02*
X1042416Y190500D01*
X1092708Y190500D02*
X1092708Y152400D01*
X1092200Y152400D01*
X1092200Y190500D02*
X1092708Y190500D01*
X1245108Y190500D02*
X1245108Y152400D01*
X1244600Y152400D01*
X1244600Y190500D02*
X1245108Y190500D01*
X1347216Y190500D02*
X1347216Y152400D01*
X1346200Y152400D01*
X1346200Y190500D02*
X1347216Y190500D01*
X1397508Y190500D02*
X1397508Y152400D01*
X1397000Y152400D01*
X1397000Y190500D02*
X1397508Y190500D01*
X1447800Y190500D02*
X1447800Y152400D01*
X1499616Y152400D02*
X1499616Y190500D01*
X1499616Y152400D02*
X1498600Y152400D01*
X1498600Y190500D02*
X1499616Y190500D01*
X940308Y190500D02*
X940308Y152400D01*
X939800Y152400D01*
X939800Y190500D02*
X940308Y190500D01*
X1143000Y190500D02*
X1143000Y152400D01*
X1194816Y152400D02*
X1194816Y190500D01*
X1194816Y152400D02*
X1193800Y152400D01*
X1193800Y190500D02*
X1194816Y190500D01*
X1295400Y190500D02*
X1295400Y152400D01*
X533400Y152400D02*
X533400Y190500D01*
X800100Y596900D02*
X800100Y635000D01*
X749808Y633984D02*
X749808Y597408D01*
X749300Y596900D01*
X749808Y633984D02*
X749300Y635000D01*
X699516Y633984D02*
X699516Y597408D01*
X698500Y596900D01*
X699516Y633984D02*
X698500Y635000D01*
X647700Y635000D02*
X647700Y596900D01*
X597408Y597408D02*
X597408Y633984D01*
X597408Y597408D02*
X596900Y596900D01*
X597408Y633984D02*
X596900Y635000D01*
X547116Y633984D02*
X547116Y597408D01*
X546100Y596900D01*
X547116Y633984D02*
X546100Y635000D01*
X495300Y635000D02*
X495300Y596900D01*
X445008Y597408D02*
X445008Y633984D01*
X445008Y597408D02*
X444500Y596900D01*
X445008Y633984D02*
X444500Y635000D01*
X394716Y633984D02*
X394716Y597408D01*
X393700Y596900D01*
X394716Y633984D02*
X393700Y635000D01*
X342900Y635000D02*
X342900Y596900D01*
X292608Y597408D02*
X292608Y633984D01*
X292608Y597408D02*
X292100Y596900D01*
X292608Y633984D02*
X292100Y635000D01*
X242316Y633984D02*
X242316Y597408D01*
X241300Y596900D01*
X242316Y633984D02*
X241300Y635000D01*
X190500Y635000D02*
X190500Y596900D01*
X140208Y597408D02*
X140208Y633984D01*
X140208Y597408D02*
X139700Y596900D01*
X140208Y633984D02*
X139700Y635000D01*
X89916Y633984D02*
X89916Y597408D01*
X88900Y596900D01*
X89916Y633984D02*
X88900Y635000D01*
X851916Y633984D02*
X851916Y597408D01*
X850900Y596900D01*
X851916Y633984D02*
X850900Y635000D01*
X138684Y661416D02*
X89916Y661416D01*
X88900Y660400D01*
X138684Y661416D02*
X139700Y660400D01*
X140208Y661416D02*
X190500Y661416D01*
X140208Y661416D02*
X139700Y660400D01*
X242316Y661416D02*
X291084Y661416D01*
X242316Y661416D02*
X241300Y660400D01*
X291084Y661416D02*
X292100Y660400D01*
X292608Y661416D02*
X342900Y661416D01*
X292608Y661416D02*
X292100Y660400D01*
X240792Y661416D02*
X190500Y661416D01*
X190500Y660400D01*
X240792Y661416D02*
X241300Y660400D01*
X699516Y661416D02*
X748284Y661416D01*
X699516Y661416D02*
X698500Y660400D01*
X748284Y661416D02*
X749300Y660400D01*
X749808Y661416D02*
X800100Y661416D01*
X749808Y661416D02*
X749300Y660400D01*
X800100Y661416D02*
X850392Y661416D01*
X850900Y660400D01*
X800100Y660400D02*
X800100Y661416D01*
X443484Y661416D02*
X394716Y661416D01*
X393700Y660400D01*
X443484Y661416D02*
X444500Y660400D01*
X445008Y661416D02*
X495300Y661416D01*
X445008Y661416D02*
X444500Y660400D01*
X547116Y661416D02*
X595884Y661416D01*
X547116Y661416D02*
X546100Y660400D01*
X595884Y661416D02*
X596900Y660400D01*
X597408Y661416D02*
X647700Y661416D01*
X597408Y661416D02*
X596900Y660400D01*
X545592Y661416D02*
X495300Y661416D01*
X495300Y660400D01*
X545592Y661416D02*
X546100Y660400D01*
X647700Y661416D02*
X697992Y661416D01*
X698500Y660400D01*
X647700Y660400D02*
X647700Y661416D01*
X393192Y661416D02*
X342900Y661416D01*
X342900Y660400D01*
X393192Y661416D02*
X393700Y660400D01*
X888492Y749808D02*
X925068Y749808D01*
X888492Y749808D02*
X729996Y908304D01*
X612648Y908304D01*
X603504Y899160D01*
X925068Y749808D02*
X925500Y749300D01*
X603400Y898600D02*
X603504Y899160D01*
M02*
