G04 EAGLE Gerber RS-274X export*
G75*
%MOMM*%
%FSLAX34Y34*%
%LPD*%
%IN*%
%IPPOS*%
%AMOC8*
5,1,8,0,0,1.08239X$1,22.5*%
G01*
%ADD10C,0.254000*%


D10*
X0Y0D02*
X1600000Y0D01*
X1600000Y1000000D01*
X0Y1000000D01*
X0Y0D01*
X52100Y37600D02*
X52029Y36603D01*
X51886Y35613D01*
X51674Y34636D01*
X51392Y33676D01*
X51043Y32739D01*
X50627Y31829D01*
X50148Y30952D01*
X49607Y30110D01*
X49008Y29310D01*
X48353Y28554D01*
X47646Y27847D01*
X46890Y27192D01*
X46090Y26593D01*
X45248Y26052D01*
X44371Y25573D01*
X43461Y25157D01*
X42524Y24808D01*
X41565Y24526D01*
X40587Y24314D01*
X39598Y24171D01*
X38600Y24100D01*
X37600Y24100D01*
X36603Y24171D01*
X35613Y24314D01*
X34636Y24526D01*
X33676Y24808D01*
X32739Y25157D01*
X31829Y25573D01*
X30952Y26052D01*
X30110Y26593D01*
X29310Y27192D01*
X28554Y27847D01*
X27847Y28554D01*
X27192Y29310D01*
X26593Y30110D01*
X26052Y30952D01*
X25573Y31829D01*
X25157Y32739D01*
X24808Y33676D01*
X24526Y34636D01*
X24314Y35613D01*
X24171Y36603D01*
X24100Y37600D01*
X24100Y38600D01*
X24171Y39598D01*
X24314Y40587D01*
X24526Y41565D01*
X24808Y42524D01*
X25157Y43461D01*
X25573Y44371D01*
X26052Y45248D01*
X26593Y46090D01*
X27192Y46890D01*
X27847Y47646D01*
X28554Y48353D01*
X29310Y49008D01*
X30110Y49607D01*
X30952Y50148D01*
X31829Y50627D01*
X32739Y51043D01*
X33676Y51392D01*
X34636Y51674D01*
X35613Y51886D01*
X36603Y52029D01*
X37600Y52100D01*
X38600Y52100D01*
X39598Y52029D01*
X40587Y51886D01*
X41565Y51674D01*
X42524Y51392D01*
X43461Y51043D01*
X44371Y50627D01*
X45248Y50148D01*
X46090Y49607D01*
X46890Y49008D01*
X47646Y48353D01*
X48353Y47646D01*
X49008Y46890D01*
X49607Y46090D01*
X50148Y45248D01*
X50627Y44371D01*
X51043Y43461D01*
X51392Y42524D01*
X51674Y41565D01*
X51886Y40587D01*
X52029Y39598D01*
X52100Y38600D01*
X52100Y37600D01*
X52100Y964700D02*
X52029Y963703D01*
X51886Y962713D01*
X51674Y961736D01*
X51392Y960776D01*
X51043Y959839D01*
X50627Y958929D01*
X50148Y958052D01*
X49607Y957210D01*
X49008Y956410D01*
X48353Y955654D01*
X47646Y954947D01*
X46890Y954292D01*
X46090Y953693D01*
X45248Y953152D01*
X44371Y952673D01*
X43461Y952257D01*
X42524Y951908D01*
X41565Y951626D01*
X40587Y951414D01*
X39598Y951271D01*
X38600Y951200D01*
X37600Y951200D01*
X36603Y951271D01*
X35613Y951414D01*
X34636Y951626D01*
X33676Y951908D01*
X32739Y952257D01*
X31829Y952673D01*
X30952Y953152D01*
X30110Y953693D01*
X29310Y954292D01*
X28554Y954947D01*
X27847Y955654D01*
X27192Y956410D01*
X26593Y957210D01*
X26052Y958052D01*
X25573Y958929D01*
X25157Y959839D01*
X24808Y960776D01*
X24526Y961736D01*
X24314Y962713D01*
X24171Y963703D01*
X24100Y964700D01*
X24100Y965700D01*
X24171Y966698D01*
X24314Y967687D01*
X24526Y968665D01*
X24808Y969624D01*
X25157Y970561D01*
X25573Y971471D01*
X26052Y972348D01*
X26593Y973190D01*
X27192Y973990D01*
X27847Y974746D01*
X28554Y975453D01*
X29310Y976108D01*
X30110Y976707D01*
X30952Y977248D01*
X31829Y977727D01*
X32739Y978143D01*
X33676Y978492D01*
X34636Y978774D01*
X35613Y978986D01*
X36603Y979129D01*
X37600Y979200D01*
X38600Y979200D01*
X39598Y979129D01*
X40587Y978986D01*
X41565Y978774D01*
X42524Y978492D01*
X43461Y978143D01*
X44371Y977727D01*
X45248Y977248D01*
X46090Y976707D01*
X46890Y976108D01*
X47646Y975453D01*
X48353Y974746D01*
X49008Y973990D01*
X49607Y973190D01*
X50148Y972348D01*
X50627Y971471D01*
X51043Y970561D01*
X51392Y969624D01*
X51674Y968665D01*
X51886Y967687D01*
X52029Y966698D01*
X52100Y965700D01*
X52100Y964700D01*
X1576100Y964700D02*
X1576029Y963703D01*
X1575886Y962713D01*
X1575674Y961736D01*
X1575392Y960776D01*
X1575043Y959839D01*
X1574627Y958929D01*
X1574148Y958052D01*
X1573607Y957210D01*
X1573008Y956410D01*
X1572353Y955654D01*
X1571646Y954947D01*
X1570890Y954292D01*
X1570090Y953693D01*
X1569248Y953152D01*
X1568371Y952673D01*
X1567461Y952257D01*
X1566524Y951908D01*
X1565565Y951626D01*
X1564587Y951414D01*
X1563598Y951271D01*
X1562600Y951200D01*
X1561600Y951200D01*
X1560603Y951271D01*
X1559613Y951414D01*
X1558636Y951626D01*
X1557676Y951908D01*
X1556739Y952257D01*
X1555829Y952673D01*
X1554952Y953152D01*
X1554110Y953693D01*
X1553310Y954292D01*
X1552554Y954947D01*
X1551847Y955654D01*
X1551192Y956410D01*
X1550593Y957210D01*
X1550052Y958052D01*
X1549573Y958929D01*
X1549157Y959839D01*
X1548808Y960776D01*
X1548526Y961736D01*
X1548314Y962713D01*
X1548171Y963703D01*
X1548100Y964700D01*
X1548100Y965700D01*
X1548171Y966698D01*
X1548314Y967687D01*
X1548526Y968665D01*
X1548808Y969624D01*
X1549157Y970561D01*
X1549573Y971471D01*
X1550052Y972348D01*
X1550593Y973190D01*
X1551192Y973990D01*
X1551847Y974746D01*
X1552554Y975453D01*
X1553310Y976108D01*
X1554110Y976707D01*
X1554952Y977248D01*
X1555829Y977727D01*
X1556739Y978143D01*
X1557676Y978492D01*
X1558636Y978774D01*
X1559613Y978986D01*
X1560603Y979129D01*
X1561600Y979200D01*
X1562600Y979200D01*
X1563598Y979129D01*
X1564587Y978986D01*
X1565565Y978774D01*
X1566524Y978492D01*
X1567461Y978143D01*
X1568371Y977727D01*
X1569248Y977248D01*
X1570090Y976707D01*
X1570890Y976108D01*
X1571646Y975453D01*
X1572353Y974746D01*
X1573008Y973990D01*
X1573607Y973190D01*
X1574148Y972348D01*
X1574627Y971471D01*
X1575043Y970561D01*
X1575392Y969624D01*
X1575674Y968665D01*
X1575886Y967687D01*
X1576029Y966698D01*
X1576100Y965700D01*
X1576100Y964700D01*
X1576100Y37600D02*
X1576029Y36603D01*
X1575886Y35613D01*
X1575674Y34636D01*
X1575392Y33676D01*
X1575043Y32739D01*
X1574627Y31829D01*
X1574148Y30952D01*
X1573607Y30110D01*
X1573008Y29310D01*
X1572353Y28554D01*
X1571646Y27847D01*
X1570890Y27192D01*
X1570090Y26593D01*
X1569248Y26052D01*
X1568371Y25573D01*
X1567461Y25157D01*
X1566524Y24808D01*
X1565565Y24526D01*
X1564587Y24314D01*
X1563598Y24171D01*
X1562600Y24100D01*
X1561600Y24100D01*
X1560603Y24171D01*
X1559613Y24314D01*
X1558636Y24526D01*
X1557676Y24808D01*
X1556739Y25157D01*
X1555829Y25573D01*
X1554952Y26052D01*
X1554110Y26593D01*
X1553310Y27192D01*
X1552554Y27847D01*
X1551847Y28554D01*
X1551192Y29310D01*
X1550593Y30110D01*
X1550052Y30952D01*
X1549573Y31829D01*
X1549157Y32739D01*
X1548808Y33676D01*
X1548526Y34636D01*
X1548314Y35613D01*
X1548171Y36603D01*
X1548100Y37600D01*
X1548100Y38600D01*
X1548171Y39598D01*
X1548314Y40587D01*
X1548526Y41565D01*
X1548808Y42524D01*
X1549157Y43461D01*
X1549573Y44371D01*
X1550052Y45248D01*
X1550593Y46090D01*
X1551192Y46890D01*
X1551847Y47646D01*
X1552554Y48353D01*
X1553310Y49008D01*
X1554110Y49607D01*
X1554952Y50148D01*
X1555829Y50627D01*
X1556739Y51043D01*
X1557676Y51392D01*
X1558636Y51674D01*
X1559613Y51886D01*
X1560603Y52029D01*
X1561600Y52100D01*
X1562600Y52100D01*
X1563598Y52029D01*
X1564587Y51886D01*
X1565565Y51674D01*
X1566524Y51392D01*
X1567461Y51043D01*
X1568371Y50627D01*
X1569248Y50148D01*
X1570090Y49607D01*
X1570890Y49008D01*
X1571646Y48353D01*
X1572353Y47646D01*
X1573008Y46890D01*
X1573607Y46090D01*
X1574148Y45248D01*
X1574627Y44371D01*
X1575043Y43461D01*
X1575392Y42524D01*
X1575674Y41565D01*
X1575886Y40587D01*
X1576029Y39598D01*
X1576100Y38600D01*
X1576100Y37600D01*
M02*
