G04 EAGLE Gerber RS-274X export*
G75*
%MOMM*%
%FSLAX34Y34*%
%LPD*%
%INTop Copper*%
%IPPOS*%
%AMOC8*
5,1,8,0,0,1.08239X$1,22.5*%
G01*
%ADD10R,1.238000X1.238000*%
%ADD11C,1.238000*%
%ADD12R,1.358000X1.358000*%
%ADD13C,1.358000*%
%ADD14R,1.676400X1.676400*%
%ADD15C,1.676400*%
%ADD16C,1.381000*%
%ADD17P,1.429621X8X112.500000*%
%ADD18P,1.429621X8X292.500000*%
%ADD19P,1.429621X8X22.500000*%
%ADD20C,0.152400*%
%ADD21C,0.756400*%


D10*
X229800Y766900D03*
D11*
X229800Y741500D03*
X229800Y716100D03*
X229800Y690700D03*
X229800Y665300D03*
X229800Y639900D03*
X229800Y614500D03*
X229800Y589100D03*
X229800Y563700D03*
X229800Y538300D03*
X309200Y538300D03*
X309200Y563700D03*
X309200Y589100D03*
X309200Y614500D03*
X309200Y639900D03*
X309200Y665300D03*
X309200Y690700D03*
X309200Y716100D03*
X309200Y741500D03*
X309200Y766900D03*
D10*
X362800Y766900D03*
D11*
X362800Y741500D03*
X362800Y716100D03*
X362800Y690700D03*
X362800Y665300D03*
X362800Y639900D03*
X362800Y614500D03*
X362800Y589100D03*
X362800Y563700D03*
X362800Y538300D03*
X442200Y538300D03*
X442200Y563700D03*
X442200Y589100D03*
X442200Y614500D03*
X442200Y639900D03*
X442200Y665300D03*
X442200Y690700D03*
X442200Y716100D03*
X442200Y741500D03*
X442200Y766900D03*
D12*
X439500Y903900D03*
D13*
X439500Y878900D03*
X459500Y903900D03*
X459500Y878900D03*
X479500Y903900D03*
X479500Y878900D03*
X499500Y903900D03*
X499500Y878900D03*
X519500Y903900D03*
X519500Y878900D03*
X539500Y903900D03*
X539500Y878900D03*
X559500Y903900D03*
X559500Y878900D03*
X579500Y903900D03*
X579500Y878900D03*
D14*
X834100Y812100D03*
D15*
X834100Y786700D03*
X834100Y761300D03*
X834100Y735900D03*
X834100Y710500D03*
X834100Y685100D03*
X834100Y659700D03*
X834100Y634300D03*
X834100Y608900D03*
X834100Y583500D03*
X910300Y583500D03*
X910300Y608900D03*
X910300Y634300D03*
X910300Y659700D03*
X910300Y685100D03*
X910300Y710500D03*
X910300Y735900D03*
X910300Y761300D03*
X910300Y786700D03*
X910300Y812100D03*
D14*
X666300Y812100D03*
D15*
X666300Y786700D03*
X666300Y761300D03*
X666300Y735900D03*
X666300Y710500D03*
X666300Y685100D03*
X666300Y659700D03*
X666300Y634300D03*
X666300Y608900D03*
X666300Y583500D03*
X742500Y583500D03*
X742500Y608900D03*
X742500Y634300D03*
X742500Y659700D03*
X742500Y685100D03*
X742500Y710500D03*
X742500Y735900D03*
X742500Y761300D03*
X742500Y786700D03*
X742500Y812100D03*
D10*
X76900Y907800D03*
D11*
X76900Y882400D03*
X76900Y857000D03*
X76900Y831600D03*
X76900Y806200D03*
X76900Y780800D03*
X76900Y755400D03*
X156300Y755400D03*
X156300Y780800D03*
X156300Y806200D03*
X156300Y831600D03*
X156300Y857000D03*
X156300Y882400D03*
X156300Y907800D03*
D16*
X106600Y415700D03*
X131600Y415700D03*
X106600Y435700D03*
X131600Y435700D03*
X106600Y455700D03*
X131600Y455700D03*
X106600Y475700D03*
X131600Y475700D03*
X106600Y495700D03*
X131600Y495700D03*
X106600Y515700D03*
X131600Y515700D03*
X106600Y535700D03*
X131600Y535700D03*
X106600Y555700D03*
X131600Y555700D03*
X106600Y575700D03*
X131600Y575700D03*
X106600Y595700D03*
X131600Y595700D03*
X106600Y615700D03*
X131600Y615700D03*
X106600Y635700D03*
X131600Y635700D03*
D17*
X910000Y291900D03*
X910000Y368100D03*
X860000Y291900D03*
X860000Y368100D03*
X810000Y291900D03*
X810000Y368100D03*
X760000Y291900D03*
X760000Y368100D03*
X710000Y291900D03*
X710000Y368100D03*
X660000Y291900D03*
X660000Y368100D03*
X610000Y291900D03*
X610000Y368100D03*
X560000Y291900D03*
X560000Y368100D03*
X510000Y291900D03*
X510000Y368100D03*
X460000Y291900D03*
X460000Y368100D03*
X410000Y291900D03*
X410000Y368100D03*
X360000Y291900D03*
X360000Y368100D03*
X310000Y291900D03*
X310000Y368100D03*
X260000Y291900D03*
X260000Y368100D03*
X210000Y291900D03*
X210000Y368100D03*
X960000Y291900D03*
X960000Y368100D03*
D18*
X910000Y192700D03*
X910000Y167300D03*
X860000Y192700D03*
X860000Y167300D03*
X810000Y192700D03*
X810000Y167300D03*
X760000Y192700D03*
X760000Y167300D03*
X710000Y192700D03*
X710000Y167300D03*
X660000Y192700D03*
X660000Y167300D03*
X610000Y192700D03*
X610000Y167300D03*
X560000Y192700D03*
X560000Y167300D03*
X510000Y192700D03*
X510000Y167300D03*
X460000Y192700D03*
X460000Y167300D03*
X410000Y192700D03*
X410000Y167300D03*
X360000Y192700D03*
X360000Y167300D03*
X310000Y192700D03*
X310000Y167300D03*
X260000Y192700D03*
X260000Y167300D03*
X210000Y192700D03*
X210000Y167300D03*
X960000Y192700D03*
X960000Y167300D03*
D19*
X117300Y280000D03*
X142700Y280000D03*
X117300Y230000D03*
X142700Y230000D03*
X117300Y180000D03*
X142700Y180000D03*
X117300Y130000D03*
X142700Y130000D03*
D20*
X402336Y537972D02*
X441960Y537972D01*
X402336Y537972D02*
X257556Y393192D01*
X111252Y393192D01*
X86868Y417576D01*
X86868Y536448D01*
X105156Y554736D01*
X441960Y537972D02*
X442200Y538300D01*
X106600Y555700D02*
X105156Y554736D01*
X911352Y760476D02*
X928116Y743712D01*
X928116Y585216D01*
X885444Y542544D01*
X446532Y542544D01*
X443484Y539496D01*
X910300Y761300D02*
X911352Y760476D01*
X443484Y539496D02*
X442200Y538300D01*
X441960Y562356D02*
X422148Y562356D01*
X256032Y396240D01*
X112776Y396240D01*
X89916Y419100D01*
X89916Y519684D01*
X105156Y534924D01*
X441960Y562356D02*
X442200Y563700D01*
X106600Y535700D02*
X105156Y534924D01*
X909828Y729996D02*
X909828Y734568D01*
X909828Y729996D02*
X850392Y670560D01*
X850392Y633984D01*
X836676Y620268D01*
X719328Y620268D01*
X667512Y568452D01*
X448056Y568452D01*
X443484Y563880D01*
X909828Y734568D02*
X910300Y735900D01*
X443484Y563880D02*
X442200Y563700D01*
X288036Y477012D02*
X182880Y477012D01*
X288036Y477012D02*
X365760Y554736D01*
X382524Y554736D01*
D21*
X182880Y477012D03*
X382524Y554736D03*
D20*
X441960Y611124D02*
X441960Y614172D01*
X441960Y611124D02*
X400812Y569976D01*
X400812Y554736D01*
X262128Y416052D01*
X146304Y416052D01*
X129540Y399288D01*
X115824Y399288D01*
X112776Y402336D01*
X112776Y408432D01*
X115824Y411480D01*
X115824Y420624D01*
X111252Y425196D01*
X103632Y425196D01*
X96012Y432816D01*
X96012Y486156D01*
X105156Y495300D01*
X441960Y614172D02*
X442200Y614500D01*
X106600Y495700D02*
X105156Y495300D01*
X911352Y623316D02*
X911352Y633984D01*
X911352Y623316D02*
X922020Y612648D01*
X922020Y605028D01*
X911352Y594360D01*
X899160Y594360D01*
X867156Y562356D01*
X495300Y562356D01*
X910300Y634300D02*
X911352Y633984D01*
D21*
X495300Y562356D03*
D20*
X443484Y640080D02*
X656844Y640080D01*
X664464Y647700D01*
X670560Y647700D01*
X701040Y678180D01*
X701040Y710184D01*
X737616Y746760D01*
X746760Y746760D01*
X754380Y739140D01*
X754380Y707136D01*
X743712Y696468D01*
X737616Y696468D01*
X731520Y690372D01*
X731520Y679704D01*
X740664Y670560D01*
X792480Y670560D01*
X827532Y635508D01*
X833628Y635508D01*
X443484Y640080D02*
X442200Y639900D01*
X833628Y635508D02*
X834100Y634300D01*
X553212Y665988D02*
X443484Y665988D01*
X553212Y665988D02*
X637032Y749808D01*
X748284Y749808D01*
X762000Y736092D01*
X762000Y710184D01*
X812292Y659892D01*
X833628Y659892D01*
X443484Y665988D02*
X442200Y665300D01*
X833628Y659892D02*
X834100Y659700D01*
X803148Y650748D02*
X792480Y640080D01*
D21*
X792480Y640080D03*
X803148Y650748D03*
D20*
X787908Y722376D02*
X821436Y722376D01*
X833628Y734568D01*
X834100Y735900D01*
X118872Y434340D02*
X106680Y434340D01*
X118872Y434340D02*
X128016Y425196D01*
X134112Y425196D01*
X176784Y467868D01*
X176784Y480060D01*
X179832Y483108D01*
X266700Y483108D01*
X324612Y541020D01*
X324612Y586740D01*
X312420Y598932D01*
X306324Y598932D01*
X300228Y592836D01*
X300228Y585216D01*
X318516Y566928D01*
X318516Y560832D01*
X312420Y554736D01*
X304800Y554736D01*
X294132Y565404D01*
X294132Y612648D01*
X309372Y627888D01*
X336804Y658368D02*
X356616Y658368D01*
X359664Y655320D01*
X365760Y655320D01*
X400812Y690372D01*
X441960Y690372D01*
X106600Y435700D02*
X106680Y434340D01*
X441960Y690372D02*
X442200Y690700D01*
D21*
X787908Y722376D03*
X309372Y627888D03*
X336804Y658368D03*
D20*
X443484Y716280D02*
X477012Y716280D01*
X513588Y752856D01*
X513588Y819912D01*
X569976Y876300D01*
X569976Y882396D01*
X576072Y888492D01*
X778764Y888492D01*
X848868Y818388D01*
X848868Y775716D01*
X835152Y762000D01*
X443484Y716280D02*
X442200Y716100D01*
X834100Y761300D02*
X835152Y762000D01*
X105156Y419100D02*
X105156Y416052D01*
X105156Y419100D02*
X92964Y431292D01*
X92964Y515112D01*
X103632Y525780D01*
X109728Y525780D01*
X115824Y531876D01*
X115824Y573024D01*
X128016Y585216D01*
X149352Y585216D01*
X208788Y644652D01*
X106600Y415700D02*
X105156Y416052D01*
D21*
X208788Y644652D03*
D20*
X246888Y537972D02*
X307848Y537972D01*
X246888Y537972D02*
X195072Y486156D01*
X175260Y486156D01*
X134112Y445008D01*
X128016Y445008D01*
X118872Y454152D01*
X118872Y542544D01*
X131064Y554736D01*
X307848Y537972D02*
X309200Y538300D01*
X131600Y555700D02*
X131064Y554736D01*
X681228Y762000D02*
X742188Y762000D01*
X681228Y762000D02*
X670560Y772668D01*
X560832Y772668D01*
X463296Y675132D01*
X394716Y675132D01*
X368808Y649224D01*
X227076Y649224D01*
X132588Y554736D01*
X742188Y762000D02*
X742500Y761300D01*
X132588Y554736D02*
X131600Y555700D01*
X742188Y725424D02*
X742188Y734568D01*
X742188Y725424D02*
X704088Y687324D01*
X704088Y656844D01*
X670560Y623316D01*
X330708Y623316D01*
X309372Y601980D01*
X304800Y601980D01*
X297180Y594360D01*
X297180Y574548D01*
X307848Y563880D01*
X742188Y734568D02*
X742500Y735900D01*
X309200Y563700D02*
X307848Y563880D01*
X309372Y580644D02*
X309372Y588264D01*
X309372Y580644D02*
X321564Y568452D01*
X321564Y559308D01*
X309372Y547116D01*
X251460Y547116D01*
X193548Y489204D01*
X158496Y489204D01*
X135636Y466344D01*
X126492Y466344D01*
X121920Y470916D01*
X121920Y505968D01*
X131064Y515112D01*
X309372Y588264D02*
X309200Y589100D01*
X131600Y515700D02*
X131064Y515112D01*
X268224Y614172D02*
X277368Y614172D01*
X268224Y614172D02*
X230124Y576072D01*
X211836Y576072D01*
X132588Y496824D01*
X131600Y495700D01*
X419100Y579120D02*
X454152Y614172D01*
D21*
X277368Y614172D03*
X454152Y614172D03*
X419100Y579120D03*
D20*
X307848Y635508D02*
X307848Y638556D01*
X307848Y635508D02*
X245364Y573024D01*
X227076Y573024D01*
X131064Y477012D01*
X307848Y638556D02*
X309200Y639900D01*
X131064Y477012D02*
X131600Y475700D01*
X449580Y633984D02*
X665988Y633984D01*
X449580Y633984D02*
X446532Y630936D01*
X316992Y630936D01*
X309372Y638556D01*
X665988Y633984D02*
X666300Y634300D01*
X309372Y638556D02*
X309200Y639900D01*
X196596Y609600D02*
X152400Y565404D01*
X196596Y644652D02*
X208788Y656844D01*
D21*
X152400Y565404D03*
X196596Y609600D03*
X196596Y644652D03*
X208788Y656844D03*
D20*
X131064Y414528D02*
X128016Y414528D01*
X118872Y405384D01*
X131064Y414528D02*
X131600Y415700D01*
D21*
X118872Y405384D03*
D20*
X77724Y894588D02*
X77724Y906780D01*
X77724Y894588D02*
X115824Y856488D01*
X115824Y585216D01*
X106680Y576072D01*
X77724Y906780D02*
X76900Y907800D01*
X106680Y576072D02*
X106600Y575700D01*
X333756Y766572D02*
X362712Y766572D01*
X333756Y766572D02*
X309372Y742188D01*
X362712Y766572D02*
X362800Y766900D01*
X309372Y742188D02*
X309200Y741500D01*
X388620Y742188D02*
X441960Y742188D01*
X388620Y742188D02*
X364236Y766572D01*
X441960Y742188D02*
X442200Y741500D01*
X364236Y766572D02*
X362800Y766900D01*
X149352Y576072D02*
X132588Y576072D01*
X149352Y576072D02*
X214884Y641604D01*
X214884Y752856D01*
X228600Y766572D01*
X132588Y576072D02*
X131600Y575700D01*
X228600Y766572D02*
X229800Y766900D01*
X77724Y868680D02*
X77724Y882396D01*
X77724Y868680D02*
X96012Y850392D01*
X96012Y626364D01*
X105156Y617220D01*
X77724Y882396D02*
X76900Y882400D01*
X105156Y617220D02*
X106600Y615700D01*
X230124Y742188D02*
X297180Y742188D01*
X318516Y763524D01*
X324612Y763524D01*
X438912Y877824D01*
X230124Y742188D02*
X229800Y741500D01*
X438912Y877824D02*
X439500Y878900D01*
X445008Y864108D02*
X458724Y877824D01*
X459500Y878900D01*
X637032Y740664D02*
X665988Y711708D01*
X483108Y745236D02*
X483108Y786384D01*
X445008Y824484D01*
X445008Y864108D01*
X665988Y711708D02*
X666300Y710500D01*
D21*
X445008Y864108D03*
X637032Y740664D03*
X483108Y745236D03*
D20*
X272796Y691896D02*
X230124Y691896D01*
X272796Y691896D02*
X312420Y731520D01*
X478536Y731520D01*
X483108Y736092D02*
X496824Y749808D01*
X483108Y736092D02*
X478536Y731520D01*
X496824Y749808D02*
X496824Y861060D01*
X480060Y877824D01*
X230124Y691896D02*
X229800Y690700D01*
X480060Y877824D02*
X479500Y878900D01*
X621792Y530352D02*
X460248Y368808D01*
X643128Y576072D02*
X664464Y597408D01*
X670560Y597408D01*
X725424Y652272D01*
X725424Y664464D01*
X460248Y368808D02*
X460000Y368100D01*
X664464Y722376D02*
X652272Y734568D01*
X664464Y722376D02*
X670560Y722376D01*
X678180Y714756D01*
X678180Y696468D01*
X667512Y685800D01*
X666300Y685100D01*
D21*
X621792Y530352D03*
X643128Y576072D03*
X725424Y664464D03*
X483108Y736092D03*
X652272Y734568D03*
D20*
X297180Y665988D02*
X230124Y665988D01*
X297180Y665988D02*
X338328Y707136D01*
X420624Y707136D01*
X441960Y728472D01*
X484632Y728472D01*
X499872Y743712D01*
X499872Y877824D01*
X230124Y665988D02*
X229800Y665300D01*
X499872Y877824D02*
X499500Y878900D01*
X228600Y679704D02*
X228600Y665988D01*
X228600Y679704D02*
X220980Y687324D01*
X220980Y723900D01*
X128016Y358140D02*
X400812Y358140D01*
X409956Y367284D01*
X229800Y665300D02*
X228600Y665988D01*
X410000Y368100D02*
X409956Y367284D01*
D21*
X220980Y723900D03*
X128016Y358140D03*
D20*
X464820Y685800D02*
X573024Y794004D01*
X397764Y368808D02*
X361188Y368808D01*
X397764Y368808D02*
X565404Y536448D01*
X670560Y536448D01*
X710184Y576072D02*
X742188Y608076D01*
X361188Y368808D02*
X360000Y368100D01*
X742188Y608076D02*
X742500Y608900D01*
X525780Y879348D02*
X519684Y879348D01*
X525780Y879348D02*
X537972Y891540D01*
X568452Y891540D01*
X571500Y894588D01*
X781812Y894588D01*
X899160Y777240D01*
X899160Y755904D01*
X905256Y749808D01*
X917448Y749808D01*
X925068Y742188D01*
X925068Y658368D01*
X912876Y646176D01*
X906780Y646176D01*
X867156Y606552D01*
X867156Y588264D01*
X850392Y571500D01*
X810768Y571500D01*
X774192Y608076D01*
X743712Y608076D01*
X519500Y878900D02*
X519684Y879348D01*
X742500Y608900D02*
X743712Y608076D01*
D21*
X464820Y685800D03*
X573024Y794004D03*
X670560Y536448D03*
X710184Y576072D03*
D20*
X202692Y675132D02*
X202692Y755904D01*
X225552Y778764D01*
X298704Y778764D01*
X309372Y368808D02*
X272796Y368808D01*
X254508Y387096D01*
X117348Y387096D01*
X190500Y670560D02*
X198120Y670560D01*
X202692Y675132D01*
X309372Y368808D02*
X310000Y368100D01*
X743712Y684276D02*
X783336Y684276D01*
X819912Y647700D01*
X838200Y647700D01*
X847344Y656844D01*
X847344Y717804D01*
X743712Y684276D02*
X742500Y685100D01*
D21*
X202692Y675132D03*
X298704Y778764D03*
X117348Y387096D03*
X190500Y670560D03*
X847344Y717804D03*
D20*
X265176Y409956D02*
X260604Y409956D01*
X265176Y409956D02*
X434340Y579120D01*
X620268Y579120D01*
X661416Y620268D01*
X672084Y620268D01*
X728472Y676656D01*
X728472Y696468D01*
X742188Y710184D01*
X742500Y710500D01*
X573024Y891540D02*
X560832Y879348D01*
X573024Y891540D02*
X780288Y891540D01*
X851916Y819912D01*
X851916Y763524D01*
X835152Y746760D01*
X803148Y746760D01*
X771144Y714756D01*
X560832Y879348D02*
X559500Y878900D01*
D21*
X260604Y409956D03*
X771144Y714756D03*
D20*
X249936Y563880D02*
X230124Y563880D01*
X249936Y563880D02*
X268224Y582168D01*
X288036Y582168D01*
X291084Y579120D01*
X291084Y553212D01*
X230124Y563880D02*
X229800Y563700D01*
X580644Y877824D02*
X652272Y877824D01*
X742188Y787908D01*
X580644Y877824D02*
X579500Y878900D01*
X742188Y787908D02*
X742500Y786700D01*
X330708Y655320D02*
X327660Y655320D01*
X330708Y655320D02*
X333756Y652272D01*
X367284Y652272D01*
X396240Y681228D01*
X451104Y681228D01*
X579120Y809244D01*
X579120Y877824D01*
X579500Y878900D01*
D21*
X291084Y553212D03*
X327660Y655320D03*
D20*
X321564Y769620D02*
X321564Y819912D01*
X405384Y903732D01*
X438912Y903732D01*
X439500Y903900D01*
X819912Y838200D02*
X819912Y801624D01*
X833628Y787908D01*
X834100Y786700D01*
D21*
X321564Y769620D03*
X819912Y838200D03*
D20*
X362712Y716280D02*
X347472Y716280D01*
X338328Y725424D01*
X396240Y885444D02*
X432816Y885444D01*
X441960Y894588D01*
X449580Y894588D01*
X458724Y903732D01*
X362712Y716280D02*
X362800Y716100D01*
X458724Y903732D02*
X459500Y903900D01*
X911352Y550164D02*
X911352Y368808D01*
X911352Y550164D02*
X949452Y588264D01*
X949452Y734568D01*
X941832Y742188D02*
X937260Y746760D01*
X941832Y742188D02*
X949452Y734568D01*
X911352Y368808D02*
X910000Y368100D01*
X467868Y905256D02*
X460248Y905256D01*
X467868Y905256D02*
X486156Y923544D01*
X833628Y923544D01*
X967740Y789432D01*
X967740Y768096D01*
X941832Y742188D01*
X460248Y905256D02*
X459500Y903900D01*
D21*
X338328Y725424D03*
X396240Y885444D03*
X937260Y746760D03*
D20*
X861060Y667512D02*
X861060Y591312D01*
X861060Y667512D02*
X870204Y676656D01*
X478536Y891540D02*
X478536Y903732D01*
X478536Y891540D02*
X469392Y882396D01*
X469392Y804672D01*
X490728Y783336D01*
X490728Y752856D01*
X478536Y903732D02*
X479500Y903900D01*
D21*
X861060Y591312D03*
X870204Y676656D03*
X490728Y752856D03*
D20*
X810768Y585216D02*
X833628Y608076D01*
X834100Y608900D01*
X371856Y665988D02*
X364236Y665988D01*
X371856Y665988D02*
X409956Y704088D01*
X469392Y704088D01*
X519684Y754380D01*
X519684Y816864D01*
X519684Y865632D02*
X509016Y876300D01*
X509016Y894588D01*
X499872Y903732D01*
X364236Y665988D02*
X362800Y665300D01*
X499500Y903900D02*
X499872Y903732D01*
X827532Y920496D02*
X961644Y786384D01*
X827532Y920496D02*
X515112Y920496D01*
X499872Y905256D01*
X499500Y903900D01*
D21*
X810768Y585216D03*
X519684Y816864D03*
X519684Y865632D03*
X961644Y786384D03*
D20*
X429768Y640080D02*
X364236Y640080D01*
X429768Y640080D02*
X452628Y662940D01*
X653796Y662940D01*
X661416Y670560D01*
X684276Y670560D01*
X364236Y640080D02*
X362800Y639900D01*
X804672Y568452D02*
X868680Y568452D01*
X909828Y609600D01*
X910300Y608900D01*
X527304Y905256D02*
X519684Y905256D01*
X527304Y905256D02*
X536448Y914400D01*
X792480Y914400D01*
X908304Y798576D01*
X914400Y798576D01*
X947928Y765048D01*
X955548Y765048D01*
X519500Y903900D02*
X519684Y905256D01*
D21*
X684276Y670560D03*
X804672Y568452D03*
X955548Y765048D03*
D20*
X362712Y614172D02*
X362712Y601980D01*
X353568Y592836D01*
X353568Y571500D01*
X513588Y400812D02*
X614172Y400812D01*
X656844Y358140D01*
X699516Y358140D01*
X708660Y367284D01*
X362712Y614172D02*
X362800Y614500D01*
X708660Y367284D02*
X710000Y368100D01*
X824484Y914400D02*
X829056Y914400D01*
X949452Y794004D01*
X949452Y786384D01*
X720852Y368808D02*
X710184Y368808D01*
X720852Y368808D02*
X940308Y588264D01*
X940308Y705612D01*
X710184Y368808D02*
X710000Y368100D01*
D21*
X353568Y571500D03*
X513588Y400812D03*
X824484Y914400D03*
X949452Y786384D03*
X940308Y705612D03*
D20*
X394716Y557784D02*
X364236Y588264D01*
X544068Y408432D02*
X620268Y408432D01*
X659892Y368808D01*
X364236Y588264D02*
X362800Y589100D01*
X659892Y368808D02*
X660000Y368100D01*
X559308Y903732D02*
X553212Y903732D01*
X544068Y894588D01*
X515112Y894588D01*
X509016Y900684D01*
X509016Y906780D01*
X519684Y917448D01*
X812292Y917448D01*
X906780Y822960D01*
X915924Y822960D01*
X943356Y795528D01*
X943356Y778764D01*
X559500Y903900D02*
X559308Y903732D01*
X661416Y368808D02*
X697992Y368808D01*
X868680Y539496D01*
X886968Y539496D01*
X934212Y586740D01*
X934212Y719328D01*
X661416Y368808D02*
X660000Y368100D01*
D21*
X394716Y557784D03*
X544068Y408432D03*
X943356Y778764D03*
X934212Y719328D03*
D20*
X583692Y394716D02*
X531876Y394716D01*
X583692Y394716D02*
X609600Y368808D01*
X610000Y368100D01*
X580644Y903732D02*
X794004Y903732D01*
X909828Y787908D01*
X580644Y903732D02*
X579500Y903900D01*
X909828Y787908D02*
X910300Y786700D01*
X643128Y367284D02*
X611124Y367284D01*
X643128Y367284D02*
X655320Y355092D01*
X711708Y355092D01*
X946404Y589788D01*
X946404Y728472D01*
X931164Y743712D01*
X931164Y766572D01*
X911352Y786384D01*
X610000Y368100D02*
X611124Y367284D01*
X910300Y786700D02*
X911352Y786384D01*
D21*
X531876Y394716D03*
D20*
X960120Y291084D02*
X960120Y193548D01*
X960000Y192700D01*
X960120Y291084D02*
X960000Y291900D01*
X909828Y291084D02*
X909828Y193548D01*
X910000Y192700D01*
X909828Y291084D02*
X910000Y291900D01*
X859536Y291084D02*
X859536Y193548D01*
X860000Y192700D01*
X859536Y291084D02*
X860000Y291900D01*
X810768Y291084D02*
X810768Y193548D01*
X810000Y192700D01*
X810768Y291084D02*
X810000Y291900D01*
X760476Y291084D02*
X760476Y193548D01*
X760000Y192700D01*
X760476Y291084D02*
X760000Y291900D01*
X710184Y291084D02*
X710184Y193548D01*
X710000Y192700D01*
X710184Y291084D02*
X710000Y291900D01*
X659892Y291084D02*
X659892Y193548D01*
X660000Y192700D01*
X659892Y291084D02*
X660000Y291900D01*
X609600Y291084D02*
X609600Y193548D01*
X610000Y192700D01*
X609600Y291084D02*
X610000Y291900D01*
X560832Y291084D02*
X560832Y193548D01*
X560000Y192700D01*
X560832Y291084D02*
X560000Y291900D01*
X510540Y291084D02*
X510540Y193548D01*
X510000Y192700D01*
X510540Y291084D02*
X510000Y291900D01*
X460248Y291084D02*
X460248Y193548D01*
X460000Y192700D01*
X460248Y291084D02*
X460000Y291900D01*
X409956Y291084D02*
X409956Y193548D01*
X410000Y192700D01*
X409956Y291084D02*
X410000Y291900D01*
X359664Y291084D02*
X359664Y193548D01*
X360000Y192700D01*
X359664Y291084D02*
X360000Y291900D01*
X310896Y291084D02*
X310896Y193548D01*
X310000Y192700D01*
X310896Y291084D02*
X310000Y291900D01*
X260604Y291084D02*
X260604Y193548D01*
X260000Y192700D01*
X260604Y291084D02*
X260000Y291900D01*
X210312Y291084D02*
X210312Y193548D01*
X210000Y192700D01*
X210312Y291084D02*
X210000Y291900D01*
X143256Y179832D02*
X143256Y131064D01*
X142700Y130000D01*
X143256Y179832D02*
X142700Y180000D01*
X143256Y181356D02*
X143256Y228600D01*
X142700Y230000D01*
X143256Y181356D02*
X142700Y180000D01*
X143256Y230124D02*
X143256Y278892D01*
X142700Y280000D01*
X143256Y230124D02*
X142700Y230000D01*
X105156Y588264D02*
X105156Y594360D01*
X105156Y588264D02*
X83820Y566928D01*
X83820Y338328D01*
X141732Y280416D01*
X105156Y594360D02*
X106600Y595700D01*
X141732Y280416D02*
X142700Y280000D01*
X156972Y906780D02*
X179832Y906780D01*
X307848Y778764D01*
X307848Y768096D01*
X156972Y906780D02*
X156300Y907800D01*
X307848Y768096D02*
X309200Y766900D01*
X105156Y603504D02*
X105156Y595884D01*
X105156Y603504D02*
X67056Y641604D01*
X67056Y914400D01*
X70104Y917448D01*
X146304Y917448D01*
X155448Y908304D01*
X106600Y595700D02*
X105156Y595884D01*
X156300Y907800D02*
X155448Y908304D01*
X77724Y769620D02*
X77724Y755904D01*
X77724Y769620D02*
X86868Y778764D01*
X86868Y797052D01*
X77724Y806196D01*
X77724Y755904D02*
X76900Y755400D01*
X76900Y806200D02*
X77724Y806196D01*
X77724Y807720D02*
X77724Y830580D01*
X76900Y831600D01*
X77724Y807720D02*
X76900Y806200D01*
X156972Y806196D02*
X156972Y781812D01*
X156300Y780800D01*
X156300Y806200D02*
X156972Y806196D01*
X156972Y858012D02*
X156972Y882396D01*
X156972Y858012D02*
X156300Y857000D01*
X156300Y882400D02*
X156972Y882396D01*
X156972Y819912D02*
X156972Y807720D01*
X156972Y819912D02*
X166116Y829056D01*
X166116Y847344D01*
X156972Y856488D01*
X156972Y807720D02*
X156300Y806200D01*
X156972Y856488D02*
X156300Y857000D01*
X266700Y576072D02*
X284988Y576072D01*
X266700Y576072D02*
X230124Y539496D01*
X229800Y538300D01*
X155448Y766572D02*
X155448Y780288D01*
X155448Y766572D02*
X141732Y752856D01*
X141732Y605028D01*
X132588Y595884D01*
X155448Y780288D02*
X156300Y780800D01*
X132588Y595884D02*
X131600Y595700D01*
X117348Y179832D02*
X117348Y131064D01*
X117300Y130000D01*
X117348Y179832D02*
X117300Y180000D01*
X117348Y181356D02*
X117348Y228600D01*
X117300Y230000D01*
X117348Y181356D02*
X117300Y180000D01*
X117348Y230124D02*
X117348Y278892D01*
X117300Y280000D01*
X117348Y230124D02*
X117300Y230000D01*
X411480Y167640D02*
X458724Y167640D01*
X411480Y167640D02*
X410000Y167300D01*
X458724Y167640D02*
X460000Y167300D01*
X259080Y167640D02*
X210312Y167640D01*
X210000Y167300D01*
X259080Y167640D02*
X260000Y167300D01*
X310896Y167640D02*
X359664Y167640D01*
X310896Y167640D02*
X310000Y167300D01*
X359664Y167640D02*
X360000Y167300D01*
X309372Y167640D02*
X260604Y167640D01*
X260000Y167300D01*
X309372Y167640D02*
X310000Y167300D01*
X361188Y167640D02*
X409956Y167640D01*
X410000Y167300D01*
X361188Y167640D02*
X360000Y167300D01*
X661416Y167640D02*
X708660Y167640D01*
X661416Y167640D02*
X660000Y167300D01*
X708660Y167640D02*
X710000Y167300D01*
X559308Y167640D02*
X510540Y167640D01*
X510000Y167300D01*
X559308Y167640D02*
X560000Y167300D01*
X560832Y167640D02*
X609600Y167640D01*
X610000Y167300D01*
X560832Y167640D02*
X560000Y167300D01*
X611124Y167640D02*
X659892Y167640D01*
X660000Y167300D01*
X611124Y167640D02*
X610000Y167300D01*
X911352Y167640D02*
X958596Y167640D01*
X911352Y167640D02*
X910000Y167300D01*
X958596Y167640D02*
X960000Y167300D01*
X809244Y167640D02*
X760476Y167640D01*
X760000Y167300D01*
X809244Y167640D02*
X810000Y167300D01*
X810768Y167640D02*
X859536Y167640D01*
X860000Y167300D01*
X810768Y167640D02*
X810000Y167300D01*
X861060Y167640D02*
X909828Y167640D01*
X910000Y167300D01*
X861060Y167640D02*
X860000Y167300D01*
X835152Y801624D02*
X835152Y810768D01*
X835152Y801624D02*
X845820Y790956D01*
X845820Y781812D01*
X836676Y772668D01*
X819912Y772668D01*
X765048Y717804D01*
X765048Y711708D01*
X768096Y708660D01*
X816864Y708660D01*
X832104Y723900D01*
X882396Y723900D01*
X905256Y746760D01*
X915924Y746760D01*
X922020Y740664D01*
X922020Y731520D01*
X912876Y722376D01*
X906780Y722376D01*
X853440Y669036D01*
X853440Y601980D01*
X835152Y583692D01*
X835152Y810768D02*
X834100Y812100D01*
X835152Y583692D02*
X834100Y583500D01*
X509016Y167640D02*
X460248Y167640D01*
X460000Y167300D01*
X509016Y167640D02*
X510000Y167300D01*
D21*
X284988Y576072D03*
M02*
