G04 EAGLE Gerber RS-274X export*
G75*
%MOMM*%
%FSLAX34Y34*%
%LPD*%
%INSoldermask Top*%
%IPPOS*%
%AMOC8*
5,1,8,0,0,1.08239X$1,22.5*%
G01*
%ADD10R,1.441200X1.441200*%
%ADD11C,1.441200*%
%ADD12R,1.561200X1.561200*%
%ADD13C,1.561200*%
%ADD14R,1.879600X1.879600*%
%ADD15C,1.879600*%
%ADD16C,1.584200*%
%ADD17P,1.649562X8X112.500000*%
%ADD18P,1.649562X8X292.500000*%
%ADD19P,1.649562X8X22.500000*%
%ADD20C,3.003200*%
%ADD21C,0.959600*%


D10*
X229800Y766900D03*
D11*
X229800Y741500D03*
X229800Y716100D03*
X229800Y690700D03*
X229800Y665300D03*
X229800Y639900D03*
X229800Y614500D03*
X229800Y589100D03*
X229800Y563700D03*
X229800Y538300D03*
X309200Y538300D03*
X309200Y563700D03*
X309200Y589100D03*
X309200Y614500D03*
X309200Y639900D03*
X309200Y665300D03*
X309200Y690700D03*
X309200Y716100D03*
X309200Y741500D03*
X309200Y766900D03*
D10*
X362800Y766900D03*
D11*
X362800Y741500D03*
X362800Y716100D03*
X362800Y690700D03*
X362800Y665300D03*
X362800Y639900D03*
X362800Y614500D03*
X362800Y589100D03*
X362800Y563700D03*
X362800Y538300D03*
X442200Y538300D03*
X442200Y563700D03*
X442200Y589100D03*
X442200Y614500D03*
X442200Y639900D03*
X442200Y665300D03*
X442200Y690700D03*
X442200Y716100D03*
X442200Y741500D03*
X442200Y766900D03*
D12*
X439500Y903900D03*
D13*
X439500Y878900D03*
X459500Y903900D03*
X459500Y878900D03*
X479500Y903900D03*
X479500Y878900D03*
X499500Y903900D03*
X499500Y878900D03*
X519500Y903900D03*
X519500Y878900D03*
X539500Y903900D03*
X539500Y878900D03*
X559500Y903900D03*
X559500Y878900D03*
X579500Y903900D03*
X579500Y878900D03*
D14*
X834100Y812100D03*
D15*
X834100Y786700D03*
X834100Y761300D03*
X834100Y735900D03*
X834100Y710500D03*
X834100Y685100D03*
X834100Y659700D03*
X834100Y634300D03*
X834100Y608900D03*
X834100Y583500D03*
X910300Y583500D03*
X910300Y608900D03*
X910300Y634300D03*
X910300Y659700D03*
X910300Y685100D03*
X910300Y710500D03*
X910300Y735900D03*
X910300Y761300D03*
X910300Y786700D03*
X910300Y812100D03*
D14*
X666300Y812100D03*
D15*
X666300Y786700D03*
X666300Y761300D03*
X666300Y735900D03*
X666300Y710500D03*
X666300Y685100D03*
X666300Y659700D03*
X666300Y634300D03*
X666300Y608900D03*
X666300Y583500D03*
X742500Y583500D03*
X742500Y608900D03*
X742500Y634300D03*
X742500Y659700D03*
X742500Y685100D03*
X742500Y710500D03*
X742500Y735900D03*
X742500Y761300D03*
X742500Y786700D03*
X742500Y812100D03*
D10*
X76900Y907800D03*
D11*
X76900Y882400D03*
X76900Y857000D03*
X76900Y831600D03*
X76900Y806200D03*
X76900Y780800D03*
X76900Y755400D03*
X156300Y755400D03*
X156300Y780800D03*
X156300Y806200D03*
X156300Y831600D03*
X156300Y857000D03*
X156300Y882400D03*
X156300Y907800D03*
D16*
X106600Y415700D03*
X131600Y415700D03*
X106600Y435700D03*
X131600Y435700D03*
X106600Y455700D03*
X131600Y455700D03*
X106600Y475700D03*
X131600Y475700D03*
X106600Y495700D03*
X131600Y495700D03*
X106600Y515700D03*
X131600Y515700D03*
X106600Y535700D03*
X131600Y535700D03*
X106600Y555700D03*
X131600Y555700D03*
X106600Y575700D03*
X131600Y575700D03*
X106600Y595700D03*
X131600Y595700D03*
X106600Y615700D03*
X131600Y615700D03*
X106600Y635700D03*
X131600Y635700D03*
D17*
X910000Y291900D03*
X910000Y368100D03*
X860000Y291900D03*
X860000Y368100D03*
X810000Y291900D03*
X810000Y368100D03*
X760000Y291900D03*
X760000Y368100D03*
X710000Y291900D03*
X710000Y368100D03*
X660000Y291900D03*
X660000Y368100D03*
X610000Y291900D03*
X610000Y368100D03*
X560000Y291900D03*
X560000Y368100D03*
X510000Y291900D03*
X510000Y368100D03*
X460000Y291900D03*
X460000Y368100D03*
X410000Y291900D03*
X410000Y368100D03*
X360000Y291900D03*
X360000Y368100D03*
X310000Y291900D03*
X310000Y368100D03*
X260000Y291900D03*
X260000Y368100D03*
X210000Y291900D03*
X210000Y368100D03*
X960000Y291900D03*
X960000Y368100D03*
D18*
X910000Y192700D03*
X910000Y167300D03*
X860000Y192700D03*
X860000Y167300D03*
X810000Y192700D03*
X810000Y167300D03*
X760000Y192700D03*
X760000Y167300D03*
X710000Y192700D03*
X710000Y167300D03*
X660000Y192700D03*
X660000Y167300D03*
X610000Y192700D03*
X610000Y167300D03*
X560000Y192700D03*
X560000Y167300D03*
X510000Y192700D03*
X510000Y167300D03*
X460000Y192700D03*
X460000Y167300D03*
X410000Y192700D03*
X410000Y167300D03*
X360000Y192700D03*
X360000Y167300D03*
X310000Y192700D03*
X310000Y167300D03*
X260000Y192700D03*
X260000Y167300D03*
X210000Y192700D03*
X210000Y167300D03*
X960000Y192700D03*
X960000Y167300D03*
D19*
X117300Y280000D03*
X142700Y280000D03*
X117300Y230000D03*
X142700Y230000D03*
X117300Y180000D03*
X142700Y180000D03*
X117300Y130000D03*
X142700Y130000D03*
D20*
X40000Y40000D03*
X960000Y40000D03*
X960000Y960000D03*
X40000Y960000D03*
D21*
X182880Y477012D03*
X382524Y554736D03*
X495300Y562356D03*
X792480Y640080D03*
X803148Y650748D03*
X787908Y722376D03*
X309372Y627888D03*
X336804Y658368D03*
X208788Y644652D03*
X277368Y614172D03*
X454152Y614172D03*
X419100Y579120D03*
X152400Y565404D03*
X196596Y609600D03*
X196596Y644652D03*
X208788Y656844D03*
X118872Y405384D03*
X445008Y864108D03*
X637032Y740664D03*
X483108Y745236D03*
X621792Y530352D03*
X643128Y576072D03*
X725424Y664464D03*
X483108Y736092D03*
X652272Y734568D03*
X220980Y723900D03*
X128016Y358140D03*
X464820Y685800D03*
X573024Y794004D03*
X670560Y536448D03*
X710184Y576072D03*
X202692Y675132D03*
X298704Y778764D03*
X117348Y387096D03*
X190500Y670560D03*
X847344Y717804D03*
X260604Y409956D03*
X771144Y714756D03*
X291084Y553212D03*
X327660Y655320D03*
X321564Y769620D03*
X819912Y838200D03*
X338328Y725424D03*
X396240Y885444D03*
X937260Y746760D03*
X861060Y591312D03*
X870204Y676656D03*
X490728Y752856D03*
X810768Y585216D03*
X519684Y816864D03*
X519684Y865632D03*
X961644Y786384D03*
X684276Y670560D03*
X804672Y568452D03*
X955548Y765048D03*
X353568Y571500D03*
X513588Y400812D03*
X824484Y914400D03*
X949452Y786384D03*
X940308Y705612D03*
X394716Y557784D03*
X544068Y408432D03*
X943356Y778764D03*
X934212Y719328D03*
X531876Y394716D03*
X284988Y576072D03*
M02*
