G04 EAGLE Gerber RS-274X export*
G75*
%MOMM*%
%FSLAX34Y34*%
%LPD*%
%INTop Copper*%
%IPPOS*%
%AMOC8*
5,1,8,0,0,1.08239X$1,22.5*%
G01*
%ADD10R,1.358000X1.358000*%
%ADD11C,1.358000*%
%ADD12R,1.238000X1.238000*%
%ADD13C,1.238000*%
%ADD14R,1.676400X1.676400*%
%ADD15C,1.676400*%
%ADD16P,1.429621X8X292.500000*%
%ADD17P,1.429621X8X112.500000*%
%ADD18P,1.429621X8X22.500000*%
%ADD19C,0.152400*%
%ADD20C,0.756400*%


D10*
X700700Y888400D03*
D11*
X700700Y863400D03*
X720700Y888400D03*
X720700Y863400D03*
X740700Y888400D03*
X740700Y863400D03*
X760700Y888400D03*
X760700Y863400D03*
X780700Y888400D03*
X780700Y863400D03*
X800700Y888400D03*
X800700Y863400D03*
X820700Y888400D03*
X820700Y863400D03*
X840700Y888400D03*
X840700Y863400D03*
D10*
X871200Y101600D03*
D11*
X871200Y126600D03*
X851200Y101600D03*
X851200Y126600D03*
X831200Y101600D03*
X831200Y126600D03*
X811200Y101600D03*
X811200Y126600D03*
X791200Y101600D03*
X791200Y126600D03*
X771200Y101600D03*
X771200Y126600D03*
X751200Y101600D03*
X751200Y126600D03*
X731200Y101600D03*
X731200Y126600D03*
D12*
X73900Y242100D03*
D13*
X99300Y242100D03*
X124700Y242100D03*
X150100Y242100D03*
X175500Y242100D03*
X200900Y242100D03*
X226300Y242100D03*
X226300Y321500D03*
X200900Y321500D03*
X175500Y321500D03*
X150100Y321500D03*
X124700Y321500D03*
X99300Y321500D03*
X73900Y321500D03*
D12*
X318500Y243400D03*
D13*
X343900Y243400D03*
X369300Y243400D03*
X394700Y243400D03*
X420100Y243400D03*
X445500Y243400D03*
X470900Y243400D03*
X470900Y322800D03*
X445500Y322800D03*
X420100Y322800D03*
X394700Y322800D03*
X369300Y322800D03*
X343900Y322800D03*
X318500Y322800D03*
D12*
X548500Y241200D03*
D13*
X573900Y241200D03*
X599300Y241200D03*
X624700Y241200D03*
X650100Y241200D03*
X675500Y241200D03*
X700900Y241200D03*
X700900Y320600D03*
X675500Y320600D03*
X650100Y320600D03*
X624700Y320600D03*
X599300Y320600D03*
X573900Y320600D03*
X548500Y320600D03*
D12*
X778500Y244400D03*
D13*
X803900Y244400D03*
X829300Y244400D03*
X854700Y244400D03*
X880100Y244400D03*
X905500Y244400D03*
X930900Y244400D03*
X930900Y323800D03*
X905500Y323800D03*
X880100Y323800D03*
X854700Y323800D03*
X829300Y323800D03*
X803900Y323800D03*
X778500Y323800D03*
D14*
X321300Y503700D03*
D15*
X346700Y503700D03*
X372100Y503700D03*
X397500Y503700D03*
X422900Y503700D03*
X448300Y503700D03*
X473700Y503700D03*
X499100Y503700D03*
X499100Y579900D03*
X473700Y579900D03*
X448300Y579900D03*
X422900Y579900D03*
X397500Y579900D03*
X372100Y579900D03*
X346700Y579900D03*
X321300Y579900D03*
D14*
X641300Y502300D03*
D15*
X666700Y502300D03*
X692100Y502300D03*
X717500Y502300D03*
X742900Y502300D03*
X768300Y502300D03*
X793700Y502300D03*
X819100Y502300D03*
X819100Y578500D03*
X793700Y578500D03*
X768300Y578500D03*
X742900Y578500D03*
X717500Y578500D03*
X692100Y578500D03*
X666700Y578500D03*
X641300Y578500D03*
D14*
X321300Y372800D03*
D15*
X346700Y372800D03*
X372100Y372800D03*
X397500Y372800D03*
X422900Y372800D03*
X448300Y372800D03*
X473700Y372800D03*
X499100Y372800D03*
X499100Y449000D03*
X473700Y449000D03*
X448300Y449000D03*
X422900Y449000D03*
X397500Y449000D03*
X372100Y449000D03*
X346700Y449000D03*
X321300Y449000D03*
D14*
X641300Y366000D03*
D15*
X666700Y366000D03*
X692100Y366000D03*
X717500Y366000D03*
X742900Y366000D03*
X768300Y366000D03*
X793700Y366000D03*
X819100Y366000D03*
X819100Y442200D03*
X793700Y442200D03*
X768300Y442200D03*
X742900Y442200D03*
X717500Y442200D03*
X692100Y442200D03*
X666700Y442200D03*
X641300Y442200D03*
D11*
X102000Y420000D03*
X127000Y420000D03*
X102000Y440000D03*
X127000Y440000D03*
X102000Y460000D03*
X127000Y460000D03*
X102000Y480000D03*
X127000Y480000D03*
X102000Y500000D03*
X127000Y500000D03*
X102000Y520000D03*
X127000Y520000D03*
X102000Y540000D03*
X127000Y540000D03*
X102000Y560000D03*
X127000Y560000D03*
X102000Y580000D03*
X127000Y580000D03*
X102000Y600000D03*
X127000Y600000D03*
D12*
X95700Y80300D03*
D13*
X121100Y80300D03*
X146500Y80300D03*
X171900Y80300D03*
X197300Y80300D03*
X222700Y80300D03*
X248100Y80300D03*
X273500Y80300D03*
X298900Y80300D03*
X324300Y80300D03*
X324300Y159700D03*
X298900Y159700D03*
X273500Y159700D03*
X248100Y159700D03*
X222700Y159700D03*
X197300Y159700D03*
X171900Y159700D03*
X146500Y159700D03*
X121100Y159700D03*
X95700Y159700D03*
D12*
X415700Y80300D03*
D13*
X441100Y80300D03*
X466500Y80300D03*
X491900Y80300D03*
X517300Y80300D03*
X542700Y80300D03*
X568100Y80300D03*
X593500Y80300D03*
X618900Y80300D03*
X644300Y80300D03*
X644300Y159700D03*
X618900Y159700D03*
X593500Y159700D03*
X568100Y159700D03*
X542700Y159700D03*
X517300Y159700D03*
X491900Y159700D03*
X466500Y159700D03*
X441100Y159700D03*
X415700Y159700D03*
D16*
X910000Y718100D03*
X910000Y641900D03*
X860000Y718100D03*
X860000Y641900D03*
X810000Y718100D03*
X810000Y641900D03*
X760000Y718100D03*
X760000Y641900D03*
X710000Y718100D03*
X710000Y641900D03*
X660000Y718100D03*
X660000Y641900D03*
X610000Y718100D03*
X610000Y641900D03*
X560000Y718100D03*
X560000Y641900D03*
X510000Y718100D03*
X510000Y641900D03*
X460000Y718100D03*
X460000Y641900D03*
X410000Y718100D03*
X410000Y641900D03*
X360000Y718100D03*
X360000Y641900D03*
X310000Y718100D03*
X310000Y641900D03*
X260000Y718100D03*
X260000Y641900D03*
X210000Y718100D03*
X210000Y641900D03*
X160000Y718100D03*
X160000Y641900D03*
D17*
X910000Y747300D03*
X910000Y772700D03*
X860000Y747300D03*
X860000Y772700D03*
X810000Y747300D03*
X810000Y772700D03*
X760000Y747300D03*
X760000Y772700D03*
X710000Y747300D03*
X710000Y772700D03*
X660000Y747300D03*
X660000Y772700D03*
X610000Y747300D03*
X610000Y772700D03*
X560000Y747300D03*
X560000Y772700D03*
X510000Y747300D03*
X510000Y772700D03*
X460000Y747300D03*
X460000Y772700D03*
X410000Y747300D03*
X410000Y772700D03*
X360000Y747300D03*
X360000Y772700D03*
X310000Y747300D03*
X310000Y772700D03*
X260000Y747300D03*
X260000Y772700D03*
X210000Y747300D03*
X210000Y772700D03*
X160000Y747300D03*
X160000Y772700D03*
D18*
X67300Y850000D03*
X92700Y850000D03*
X67300Y800000D03*
X92700Y800000D03*
X67300Y750000D03*
X92700Y750000D03*
X67300Y700000D03*
X92700Y700000D03*
D19*
X854964Y243840D02*
X854964Y137160D01*
X861060Y131064D01*
X861060Y111252D01*
X851916Y102108D01*
X854964Y243840D02*
X854700Y244400D01*
X851916Y102108D02*
X851200Y101600D01*
X905256Y315468D02*
X905256Y323088D01*
X905256Y315468D02*
X841248Y251460D01*
X841248Y121920D01*
X832104Y112776D01*
X832104Y102108D01*
X905256Y323088D02*
X905500Y323800D01*
X832104Y102108D02*
X831200Y101600D01*
X830580Y283464D02*
X830580Y323088D01*
X830580Y283464D02*
X838200Y275844D01*
X838200Y147828D01*
X821436Y131064D01*
X821436Y121920D01*
X812292Y112776D01*
X812292Y102108D01*
X830580Y323088D02*
X829300Y323800D01*
X812292Y102108D02*
X811200Y101600D01*
X548640Y196596D02*
X548640Y240792D01*
X548640Y196596D02*
X559308Y185928D01*
X559308Y149352D01*
X591312Y117348D01*
X679704Y117348D01*
X713232Y83820D01*
X774192Y83820D01*
X790956Y100584D01*
X548640Y240792D02*
X548500Y241200D01*
X791200Y101600D02*
X790956Y100584D01*
X630936Y240792D02*
X624840Y240792D01*
X630936Y240792D02*
X740664Y131064D01*
X740664Y123444D01*
X752856Y111252D01*
X762000Y111252D01*
X771144Y102108D01*
X624840Y240792D02*
X624700Y241200D01*
X771144Y102108D02*
X771200Y101600D01*
X600456Y252984D02*
X600456Y320040D01*
X600456Y252984D02*
X720852Y132588D01*
X720852Y111252D01*
X729996Y102108D01*
X600456Y320040D02*
X599300Y320600D01*
X729996Y102108D02*
X731200Y101600D01*
X829056Y245364D02*
X829056Y280416D01*
X787908Y321564D01*
X787908Y347472D01*
X769620Y365760D01*
X829056Y245364D02*
X829300Y244400D01*
X769620Y365760D02*
X768300Y366000D01*
X844296Y324612D02*
X853440Y324612D01*
X844296Y324612D02*
X804672Y364236D01*
X804672Y370332D01*
X769620Y405384D01*
X769620Y441960D01*
X853440Y324612D02*
X854700Y323800D01*
X769620Y441960D02*
X768300Y442200D01*
X124968Y320040D02*
X124968Y254508D01*
X134112Y245364D01*
X134112Y169164D01*
X137160Y166116D01*
X137160Y156972D01*
X144780Y149352D01*
X216408Y149352D01*
X495300Y172212D02*
X534924Y172212D01*
X547116Y184404D01*
X124968Y320040D02*
X124700Y321500D01*
D20*
X216408Y149352D03*
X495300Y172212D03*
X547116Y184404D03*
D19*
X201168Y286512D02*
X201168Y320040D01*
X201168Y286512D02*
X277368Y210312D01*
X201168Y320040D02*
X200900Y321500D01*
D20*
X277368Y210312D03*
D19*
X499872Y449580D02*
X632460Y449580D01*
X652272Y469392D01*
X760476Y469392D01*
X792480Y501396D01*
X499872Y449580D02*
X499100Y449000D01*
X792480Y501396D02*
X793700Y502300D01*
X484632Y502920D02*
X473964Y502920D01*
X484632Y502920D02*
X515112Y472440D01*
X754380Y472440D01*
X781812Y499872D01*
X781812Y541020D01*
X818388Y577596D01*
X473964Y502920D02*
X473700Y503700D01*
X818388Y577596D02*
X819100Y578500D01*
X472440Y408432D02*
X472440Y373380D01*
X472440Y408432D02*
X437388Y443484D01*
X437388Y454152D01*
X443484Y460248D01*
X478536Y460248D01*
X487680Y451104D01*
X487680Y445008D01*
X501396Y431292D01*
X748284Y431292D01*
X757428Y440436D01*
X757428Y446532D01*
X765048Y454152D01*
X807720Y454152D01*
X818388Y443484D01*
X473700Y372800D02*
X472440Y373380D01*
X818388Y443484D02*
X819100Y442200D01*
X713232Y225552D02*
X662940Y225552D01*
X713232Y225552D02*
X810768Y128016D01*
X811200Y126600D01*
D20*
X662940Y225552D03*
D19*
X446532Y294132D02*
X446532Y321564D01*
X446532Y294132D02*
X556260Y184404D01*
X556260Y147828D01*
X589788Y114300D01*
X678180Y114300D01*
X711708Y80772D01*
X804672Y80772D01*
X821436Y97536D01*
X821436Y117348D01*
X830580Y126492D01*
X446532Y321564D02*
X445500Y322800D01*
X830580Y126492D02*
X831200Y126600D01*
X467868Y169164D02*
X394716Y242316D01*
X467868Y169164D02*
X469392Y169164D01*
X477012Y161544D01*
X477012Y152400D01*
X533400Y96012D01*
X576072Y96012D01*
X579120Y99060D01*
X688848Y99060D01*
X710184Y77724D01*
X821436Y77724D01*
X841248Y97536D01*
X841248Y117348D01*
X850392Y126492D01*
X394716Y242316D02*
X394700Y243400D01*
X850392Y126492D02*
X851200Y126600D01*
X316992Y243840D02*
X316992Y257556D01*
X315468Y259080D01*
X315468Y265176D01*
X318516Y268224D01*
X387096Y268224D01*
X411480Y243840D01*
X411480Y239268D01*
X416052Y234696D01*
X423672Y234696D01*
X445008Y256032D01*
X475488Y256032D01*
X483108Y248412D01*
X483108Y155448D01*
X530352Y108204D01*
X644652Y108204D01*
X318500Y243400D02*
X316992Y243840D01*
D20*
X644652Y108204D03*
D19*
X598932Y242316D02*
X510540Y330708D01*
X510540Y332232D01*
X484632Y358140D01*
X463296Y358140D01*
X449580Y371856D01*
X598932Y242316D02*
X599300Y241200D01*
X449580Y371856D02*
X448300Y372800D01*
X687324Y320040D02*
X699516Y320040D01*
X687324Y320040D02*
X678180Y310896D01*
X621792Y310896D01*
X571500Y361188D01*
X469392Y361188D01*
X460248Y370332D01*
X460248Y376428D01*
X399288Y437388D01*
X358140Y437388D01*
X347472Y448056D01*
X699516Y320040D02*
X700900Y320600D01*
X347472Y448056D02*
X346700Y449000D01*
X615696Y321564D02*
X623316Y321564D01*
X615696Y321564D02*
X512064Y425196D01*
X472440Y425196D01*
X449580Y448056D01*
X623316Y321564D02*
X624700Y320600D01*
X449580Y448056D02*
X448300Y449000D01*
X393192Y335280D02*
X393192Y323088D01*
X393192Y335280D02*
X358140Y370332D01*
X358140Y422148D01*
X335280Y445008D01*
X335280Y463296D01*
X352044Y480060D01*
X440436Y480060D01*
X461772Y501396D01*
X461772Y513588D01*
X489204Y541020D01*
X537972Y541020D01*
X647700Y650748D01*
X647700Y691896D01*
X687324Y731520D01*
X687324Y816864D01*
X731520Y861060D01*
X731520Y867156D01*
X737616Y873252D01*
X743712Y873252D01*
X751332Y865632D01*
X751332Y794004D01*
X769620Y775716D01*
X769620Y579120D01*
X394700Y322800D02*
X393192Y323088D01*
X768300Y578500D02*
X769620Y579120D01*
X833628Y888492D02*
X839724Y888492D01*
X833628Y888492D02*
X818388Y903732D01*
X787908Y903732D01*
X579120Y789432D02*
X579120Y586740D01*
X536448Y544068D01*
X472440Y544068D01*
X434340Y505968D01*
X434340Y498348D01*
X425196Y489204D01*
X839724Y888492D02*
X840700Y888400D01*
D20*
X787908Y903732D03*
X579120Y789432D03*
X425196Y489204D03*
D19*
X411480Y553212D02*
X411480Y588264D01*
D20*
X411480Y588264D03*
X411480Y553212D03*
D19*
X774192Y888492D02*
X780288Y888492D01*
X774192Y888492D02*
X765048Y897636D01*
X678180Y897636D01*
X573024Y792480D01*
X573024Y611124D01*
X541020Y579120D01*
X780288Y888492D02*
X780700Y888400D01*
D20*
X541020Y579120D03*
D19*
X742188Y886968D02*
X748284Y886968D01*
X757428Y877824D01*
X780288Y877824D01*
X790956Y867156D01*
X790956Y591312D01*
X780288Y580644D01*
X780288Y544068D01*
X766572Y530352D01*
X766572Y516636D01*
X754380Y504444D01*
X754380Y498348D01*
X740664Y484632D01*
X742188Y886968D02*
X740700Y888400D01*
D20*
X740664Y484632D03*
D19*
X696468Y669036D02*
X696468Y778764D01*
X696468Y669036D02*
X754380Y611124D01*
X754380Y530352D01*
X731520Y507492D01*
X731520Y478536D01*
X731520Y391668D02*
X731520Y377952D01*
X742188Y367284D01*
X742900Y366000D01*
D20*
X696468Y778764D03*
X731520Y478536D03*
X731520Y391668D03*
D19*
X687324Y289560D02*
X687324Y240792D01*
X687324Y289560D02*
X757428Y359664D01*
X757428Y431292D01*
D20*
X687324Y240792D03*
X757428Y431292D03*
D19*
X731520Y541020D02*
X731520Y589788D01*
X731520Y541020D02*
X693420Y502920D01*
X692100Y502300D01*
D20*
X731520Y589788D03*
D19*
X740664Y832104D02*
X740664Y862584D01*
X740664Y832104D02*
X690372Y781812D01*
X690372Y580644D01*
X691896Y579120D01*
X740664Y862584D02*
X740700Y863400D01*
X691896Y579120D02*
X692100Y578500D01*
X774192Y864108D02*
X780288Y864108D01*
X774192Y864108D02*
X763524Y874776D01*
X746760Y874776D01*
X745236Y876300D01*
X719328Y876300D01*
X710184Y867156D01*
X710184Y859536D01*
X629412Y778764D01*
X780288Y864108D02*
X780700Y863400D01*
D20*
X629412Y778764D03*
D19*
X124968Y240792D02*
X124968Y173736D01*
X134112Y164592D01*
X134112Y155448D01*
X146304Y143256D01*
X219456Y143256D01*
X306324Y230124D01*
X306324Y417576D01*
X332232Y443484D01*
X332232Y464820D01*
X350520Y483108D01*
X428244Y483108D01*
X448056Y502920D01*
X124700Y242100D02*
X124968Y240792D01*
X448056Y502920D02*
X448300Y503700D01*
X227076Y460248D02*
X227076Y321564D01*
X227076Y460248D02*
X345948Y579120D01*
X227076Y321564D02*
X226300Y321500D01*
X345948Y579120D02*
X346700Y579900D01*
X149352Y365760D02*
X149352Y321564D01*
X149352Y365760D02*
X143256Y371856D01*
X143256Y528828D01*
X234696Y620268D01*
X408432Y620268D01*
X448056Y580644D01*
X150100Y321500D02*
X149352Y321564D01*
X448300Y579900D02*
X448056Y580644D01*
X67056Y701040D02*
X67056Y749808D01*
X67056Y701040D02*
X67300Y700000D01*
X67056Y749808D02*
X67300Y750000D01*
X67056Y751332D02*
X67056Y798576D01*
X67300Y800000D01*
X67056Y751332D02*
X67300Y750000D01*
X67056Y800100D02*
X67056Y848868D01*
X67300Y850000D01*
X67056Y800100D02*
X67300Y800000D01*
X126492Y641604D02*
X126492Y600456D01*
X126492Y641604D02*
X68580Y699516D01*
X126492Y600456D02*
X127000Y600000D01*
X68580Y699516D02*
X67300Y700000D01*
X411480Y772668D02*
X458724Y772668D01*
X411480Y772668D02*
X410000Y772700D01*
X458724Y772668D02*
X460000Y772700D01*
X208788Y772668D02*
X160020Y772668D01*
X160000Y772700D01*
X208788Y772668D02*
X210000Y772700D01*
X260604Y772668D02*
X309372Y772668D01*
X260604Y772668D02*
X260000Y772700D01*
X309372Y772668D02*
X310000Y772700D01*
X310896Y772668D02*
X359664Y772668D01*
X360000Y772700D01*
X310896Y772668D02*
X310000Y772700D01*
X259080Y772668D02*
X210312Y772668D01*
X210000Y772700D01*
X259080Y772668D02*
X260000Y772700D01*
X361188Y772668D02*
X409956Y772668D01*
X410000Y772700D01*
X361188Y772668D02*
X360000Y772700D01*
X499872Y502920D02*
X519684Y483108D01*
X499872Y502920D02*
X499100Y503700D01*
X510540Y772668D02*
X559308Y772668D01*
X510540Y772668D02*
X510000Y772700D01*
X559308Y772668D02*
X560000Y772700D01*
X710184Y772668D02*
X758952Y772668D01*
X760000Y772700D01*
X710184Y772668D02*
X710000Y772700D01*
X659892Y772668D02*
X611124Y772668D01*
X610000Y772700D01*
X659892Y772668D02*
X660000Y772700D01*
X509016Y772668D02*
X460248Y772668D01*
X460000Y772700D01*
X509016Y772668D02*
X510000Y772700D01*
X388620Y262128D02*
X321564Y262128D01*
X394716Y256032D02*
X408432Y242316D01*
X394716Y256032D02*
X388620Y262128D01*
X408432Y242316D02*
X408432Y237744D01*
X414528Y231648D01*
X458724Y231648D01*
X469392Y242316D01*
X470900Y243400D01*
X381000Y80772D02*
X324612Y80772D01*
X381000Y80772D02*
X428244Y128016D01*
X428244Y196596D01*
X385572Y239268D01*
X385572Y246888D01*
X394716Y256032D01*
X324612Y80772D02*
X324300Y80300D01*
X630936Y80772D02*
X643128Y80772D01*
X630936Y80772D02*
X615696Y96012D01*
X580644Y96012D01*
X577596Y92964D01*
X463296Y92964D01*
X428244Y128016D01*
X643128Y80772D02*
X644300Y80300D01*
X810768Y772668D02*
X859536Y772668D01*
X810768Y772668D02*
X810000Y772700D01*
X859536Y772668D02*
X860000Y772700D01*
X861060Y772668D02*
X909828Y772668D01*
X910000Y772700D01*
X861060Y772668D02*
X860000Y772700D01*
X819912Y501396D02*
X833628Y487680D01*
X833628Y381000D01*
X819912Y367284D01*
X819912Y501396D02*
X819100Y502300D01*
X819912Y367284D02*
X819100Y366000D01*
X771144Y312420D02*
X701040Y242316D01*
X700900Y241200D01*
D20*
X519684Y483108D03*
X321564Y262128D03*
X771144Y312420D03*
D19*
X94488Y234696D02*
X94488Y160020D01*
X94488Y234696D02*
X83820Y245364D01*
X83820Y310896D01*
X74676Y320040D01*
X94488Y160020D02*
X95700Y159700D01*
X74676Y320040D02*
X73900Y321500D01*
X92964Y701040D02*
X92964Y749808D01*
X92964Y701040D02*
X92700Y700000D01*
X92964Y749808D02*
X92700Y750000D01*
X92964Y751332D02*
X92964Y798576D01*
X92700Y800000D01*
X92964Y751332D02*
X92700Y750000D01*
X92964Y800100D02*
X92964Y848868D01*
X92700Y850000D01*
X92964Y800100D02*
X92700Y800000D01*
X614172Y443484D02*
X640080Y443484D01*
X641300Y442200D01*
X414528Y160020D02*
X382524Y160020D01*
X309372Y233172D01*
X309372Y313944D01*
X316992Y321564D01*
X414528Y160020D02*
X415700Y159700D01*
X316992Y321564D02*
X318500Y322800D01*
X321564Y580644D02*
X332232Y580644D01*
X342900Y591312D01*
X350520Y591312D01*
X358140Y583692D01*
X358140Y547116D02*
X358140Y495300D01*
X358140Y547116D02*
X358140Y583692D01*
X358140Y495300D02*
X321564Y458724D01*
X321564Y449580D01*
X321300Y579900D02*
X321564Y580644D01*
X321564Y449580D02*
X321300Y449000D01*
X530352Y550164D02*
X533400Y550164D01*
X530352Y550164D02*
X527304Y547116D01*
X358140Y547116D01*
D20*
X614172Y443484D03*
X533400Y550164D03*
D19*
X185928Y137160D02*
X147828Y137160D01*
X131064Y153924D01*
X131064Y163068D01*
X114300Y179832D01*
X114300Y399288D01*
X117348Y402336D01*
D20*
X185928Y137160D03*
X117348Y402336D03*
D19*
X236220Y246888D02*
X236220Y184404D01*
X236220Y246888D02*
X184404Y298704D01*
X184404Y339852D01*
X149352Y374904D01*
D20*
X236220Y184404D03*
X149352Y374904D03*
D19*
X184404Y262128D02*
X184404Y210312D01*
D20*
X184404Y210312D03*
X184404Y262128D03*
D19*
X382524Y91440D02*
X413004Y121920D01*
X382524Y91440D02*
X332232Y91440D01*
X92964Y373380D02*
X92964Y416052D01*
X91440Y417576D01*
X91440Y469392D01*
X100584Y478536D01*
X102000Y480000D01*
D20*
X413004Y121920D03*
X332232Y91440D03*
X92964Y373380D03*
D19*
X568452Y158496D02*
X568452Y153924D01*
X576072Y146304D01*
X582168Y146304D01*
X585216Y149352D01*
X585216Y155448D01*
X583692Y156972D01*
X583692Y249936D01*
X504444Y329184D01*
X510540Y553212D02*
X524256Y553212D01*
X510540Y553212D02*
X484632Y579120D01*
X484632Y585216D01*
X443484Y626364D01*
X231648Y626364D01*
X225552Y620268D01*
X184404Y620268D01*
X152400Y588264D01*
X152400Y566928D01*
X137160Y551688D01*
X137160Y536448D01*
X131064Y530352D01*
X123444Y530352D01*
X111252Y518160D01*
X111252Y510540D01*
X102108Y501396D01*
X568100Y159700D02*
X568452Y158496D01*
X102000Y500000D02*
X102108Y501396D01*
D20*
X504444Y329184D03*
X524256Y553212D03*
D19*
X600456Y89916D02*
X423672Y89916D01*
X411480Y102108D01*
X278892Y102108D02*
X274320Y102108D01*
X251460Y124968D01*
X117348Y124968D01*
X64008Y178308D01*
X64008Y502920D01*
X82296Y521208D01*
D20*
X600456Y89916D03*
X411480Y102108D03*
X278892Y102108D03*
X82296Y521208D03*
D19*
X123444Y569976D02*
X135636Y569976D01*
X123444Y569976D02*
X114300Y560832D01*
X114300Y553212D01*
X102108Y541020D01*
X102000Y540000D01*
D20*
X135636Y569976D03*
D19*
X630936Y158496D02*
X643128Y158496D01*
X630936Y158496D02*
X603504Y131064D01*
X586740Y131064D01*
X643128Y158496D02*
X644300Y159700D01*
D20*
X586740Y131064D03*
D19*
X286512Y225552D02*
X286512Y248412D01*
X149352Y385572D01*
X149352Y518160D01*
D20*
X286512Y225552D03*
X149352Y518160D03*
D19*
X259080Y158496D02*
X272796Y158496D01*
X259080Y158496D02*
X231648Y131064D01*
X137160Y131064D01*
X111252Y156972D01*
X111252Y504444D01*
X126492Y519684D01*
X273500Y159700D02*
X272796Y158496D01*
X126492Y519684D02*
X127000Y520000D01*
X173736Y233172D02*
X176784Y230124D01*
X173736Y233172D02*
X172212Y233172D01*
X140208Y265176D01*
X140208Y487680D01*
X128016Y499872D01*
X127000Y500000D01*
D20*
X176784Y230124D03*
D19*
X222504Y233172D02*
X222504Y160020D01*
X222504Y233172D02*
X184404Y271272D01*
X222504Y160020D02*
X222700Y159700D01*
D20*
X184404Y271272D03*
D19*
X146304Y233172D02*
X146304Y160020D01*
X146304Y233172D02*
X137160Y242316D01*
X137160Y409956D01*
X128016Y419100D01*
X146304Y160020D02*
X146500Y159700D01*
X128016Y419100D02*
X127000Y420000D01*
X384048Y79248D02*
X414528Y79248D01*
X384048Y79248D02*
X376428Y71628D01*
X315468Y71628D02*
X294132Y71628D01*
X315468Y71628D02*
X376428Y71628D01*
X294132Y71628D02*
X283464Y82296D01*
X283464Y83820D01*
X277368Y89916D01*
X193548Y89916D01*
X175260Y71628D01*
X103632Y71628D01*
X96012Y79248D01*
X414528Y79248D02*
X415700Y80300D01*
X96012Y79248D02*
X95700Y80300D01*
X353568Y121920D02*
X403860Y121920D01*
X353568Y121920D02*
X315468Y83820D01*
X315468Y71628D01*
X100584Y571500D02*
X100584Y579120D01*
X100584Y571500D02*
X45720Y516636D01*
X45720Y129540D01*
X94488Y80772D01*
X100584Y579120D02*
X102000Y580000D01*
X94488Y80772D02*
X95700Y80300D01*
D20*
X403860Y121920D03*
D19*
X100584Y242316D02*
X100584Y320040D01*
X100584Y242316D02*
X99300Y242100D01*
X100584Y320040D02*
X99300Y321500D01*
X111252Y563880D02*
X126492Y579120D01*
X111252Y563880D02*
X111252Y556260D01*
X105156Y550164D01*
X99060Y550164D01*
X88392Y539496D01*
X88392Y377952D01*
X86868Y376428D01*
X86868Y333756D01*
X99060Y321564D01*
X126492Y579120D02*
X127000Y580000D01*
X99060Y321564D02*
X99300Y321500D01*
X420624Y321564D02*
X420624Y313944D01*
X420624Y243840D01*
X420100Y243400D01*
X420624Y321564D02*
X420100Y322800D01*
X176784Y320040D02*
X176784Y242316D01*
X175500Y242100D01*
X176784Y320040D02*
X175500Y321500D01*
X320040Y231648D02*
X332232Y231648D01*
X342900Y242316D01*
X343900Y243400D01*
X352044Y313944D02*
X420624Y313944D01*
X352044Y313944D02*
X344424Y321564D01*
X343900Y322800D01*
X803148Y324612D02*
X803148Y356616D01*
X794004Y365760D01*
X803148Y324612D02*
X803900Y323800D01*
X794004Y365760D02*
X793700Y366000D01*
X880872Y286512D02*
X880872Y245364D01*
X880872Y286512D02*
X914400Y320040D01*
X914400Y327660D01*
X908304Y333756D01*
X890016Y333756D01*
X880872Y324612D01*
X880872Y245364D02*
X880100Y244400D01*
X880100Y323800D02*
X880872Y324612D01*
X662940Y240792D02*
X650748Y240792D01*
X662940Y240792D02*
X672084Y231648D01*
X790956Y231648D01*
X803148Y243840D01*
X650748Y240792D02*
X650100Y241200D01*
X803148Y243840D02*
X803900Y244400D01*
X428244Y323088D02*
X420624Y323088D01*
X428244Y323088D02*
X457200Y352044D01*
X463296Y352044D01*
X573024Y242316D01*
X420624Y323088D02*
X420100Y322800D01*
X573024Y242316D02*
X573900Y241200D01*
X100584Y240792D02*
X100584Y167640D01*
X108204Y160020D01*
X108204Y155448D01*
X135636Y128016D01*
X396240Y128016D01*
X425196Y156972D01*
X425196Y163068D01*
X344424Y243840D01*
X100584Y240792D02*
X99300Y242100D01*
X343900Y243400D02*
X344424Y243840D01*
D20*
X320040Y231648D03*
D19*
X441960Y79248D02*
X454152Y79248D01*
X464820Y68580D01*
X861060Y68580D01*
X940308Y147828D01*
X940308Y612648D01*
X911352Y641604D01*
X441100Y80300D02*
X441960Y79248D01*
X910000Y641900D02*
X911352Y641604D01*
X804672Y411480D02*
X804672Y379476D01*
X804672Y411480D02*
X830580Y437388D01*
X830580Y481584D01*
X827532Y484632D01*
D20*
X804672Y379476D03*
X827532Y484632D03*
D19*
X861060Y595884D02*
X861060Y641604D01*
X861060Y595884D02*
X922020Y534924D01*
X922020Y256032D01*
X923544Y254508D01*
X861060Y641604D02*
X860000Y641900D01*
D20*
X923544Y254508D03*
D19*
X505968Y79248D02*
X492252Y79248D01*
X505968Y79248D02*
X513588Y71628D01*
X859536Y71628D01*
X917448Y129540D01*
X917448Y534924D01*
X876300Y576072D02*
X810768Y641604D01*
X876300Y576072D02*
X917448Y534924D01*
X491900Y80300D02*
X492252Y79248D01*
X810000Y641900D02*
X810768Y641604D01*
X728472Y443484D02*
X717804Y443484D01*
X728472Y443484D02*
X751332Y466344D01*
X774192Y466344D01*
X807720Y499872D01*
X807720Y507492D01*
X876300Y576072D01*
X717804Y443484D02*
X717500Y442200D01*
X758952Y585216D02*
X758952Y641604D01*
X758952Y585216D02*
X757428Y583692D01*
X757428Y528828D01*
X760476Y525780D01*
X758952Y641604D02*
X760000Y641900D01*
D20*
X760476Y525780D03*
D19*
X569976Y102108D02*
X531876Y102108D01*
X480060Y153924D01*
X480060Y246888D01*
X473964Y252984D01*
X467868Y252984D01*
X457200Y242316D01*
X710184Y601980D02*
X710184Y641604D01*
X710184Y601980D02*
X728472Y583692D01*
X728472Y554736D01*
X678180Y504444D01*
X678180Y495300D01*
X670560Y487680D01*
X710184Y641604D02*
X710000Y641900D01*
D20*
X569976Y102108D03*
X457200Y242316D03*
X670560Y487680D03*
D19*
X434340Y179832D02*
X504444Y109728D01*
X434340Y179832D02*
X434340Y190500D01*
X429768Y469392D02*
X350520Y469392D01*
D20*
X504444Y109728D03*
X434340Y190500D03*
X429768Y469392D03*
X350520Y469392D03*
D19*
X579120Y222504D02*
X579120Y152400D01*
X579120Y222504D02*
X557784Y243840D01*
X557784Y248412D01*
X460248Y345948D01*
D20*
X579120Y152400D03*
X460248Y345948D03*
D19*
X716280Y89916D02*
X772668Y89916D01*
X780288Y97536D01*
X780288Y106680D01*
X769620Y117348D01*
X766572Y117348D01*
X760476Y123444D01*
X760476Y131064D01*
X672084Y219456D01*
X658368Y219456D01*
X641604Y236220D01*
X641604Y248412D01*
X710184Y316992D01*
X710184Y324612D01*
X679704Y355092D01*
X586740Y355092D01*
X513588Y428244D01*
X493776Y428244D01*
X473964Y448056D01*
X473700Y449000D01*
D20*
X716280Y89916D03*
D19*
X120396Y80772D02*
X51816Y149352D01*
X112776Y664464D02*
X118872Y670560D01*
X481584Y670560D01*
X509016Y643128D01*
X121100Y80300D02*
X120396Y80772D01*
X510000Y641900D02*
X509016Y643128D01*
X707136Y501396D02*
X716280Y501396D01*
X707136Y501396D02*
X687324Y481584D01*
X667512Y481584D01*
X652272Y496824D01*
X652272Y637032D01*
X650748Y638556D01*
X650748Y650748D01*
X653796Y653796D01*
X717500Y502300D02*
X716280Y501396D01*
D20*
X51816Y149352D03*
X112776Y664464D03*
X653796Y653796D03*
D19*
X146304Y80772D02*
X138684Y80772D01*
X57912Y161544D01*
X57912Y519684D01*
X121920Y664464D02*
X437388Y664464D01*
X458724Y643128D01*
X146304Y80772D02*
X146500Y80300D01*
X460000Y641900D02*
X458724Y643128D01*
X524256Y502920D02*
X640080Y502920D01*
X524256Y502920D02*
X492252Y534924D01*
X640080Y502920D02*
X641300Y502300D01*
D20*
X57912Y519684D03*
X121920Y664464D03*
X492252Y534924D03*
D19*
X170688Y80772D02*
X158496Y80772D01*
X120396Y118872D01*
X109728Y118872D01*
X64008Y164592D01*
X121920Y655320D02*
X397764Y655320D01*
X409956Y643128D01*
X171900Y80300D02*
X170688Y80772D01*
X410000Y641900D02*
X409956Y643128D01*
X716280Y588264D02*
X716280Y579120D01*
X716280Y588264D02*
X696468Y608076D01*
X550164Y608076D02*
X470916Y608076D01*
X437388Y641604D01*
X411480Y641604D01*
X716280Y579120D02*
X717500Y578500D01*
X411480Y641604D02*
X410000Y641900D01*
D20*
X64008Y164592D03*
X121920Y655320D03*
X696468Y608076D03*
X550164Y608076D03*
D19*
X120396Y396240D02*
X120396Y374904D01*
X120396Y396240D02*
X123444Y399288D01*
X123444Y409956D01*
X117348Y416052D01*
X117348Y504444D01*
X123444Y510540D01*
X131064Y510540D01*
X140208Y519684D01*
X140208Y550164D01*
X198120Y608076D01*
X216408Y626364D02*
X227076Y626364D01*
X230124Y629412D01*
X347472Y629412D01*
X359664Y641604D01*
X360000Y641900D01*
X794004Y579120D02*
X794004Y842772D01*
X810768Y859536D01*
X810768Y867156D01*
X800100Y877824D01*
X797052Y877824D01*
X790956Y883920D01*
X790956Y891540D01*
X781812Y900684D01*
X676656Y900684D01*
X569976Y794004D01*
X569976Y618744D01*
X553212Y601980D01*
X472440Y601980D01*
X441960Y632460D01*
X370332Y632460D01*
X361188Y641604D01*
X793700Y578500D02*
X794004Y579120D01*
X361188Y641604D02*
X360000Y641900D01*
D20*
X120396Y374904D03*
X198120Y608076D03*
X216408Y626364D03*
D19*
X111252Y537972D02*
X111252Y531876D01*
X111252Y537972D02*
X123444Y550164D01*
X131064Y550164D01*
X149352Y568452D01*
X149352Y589788D01*
X192024Y632460D01*
X300228Y632460D01*
X309372Y641604D01*
X310000Y641900D01*
D20*
X111252Y531876D03*
D19*
X291084Y80772D02*
X298704Y80772D01*
X291084Y80772D02*
X249936Y121920D01*
X115824Y121920D01*
X60960Y176784D01*
X60960Y510540D01*
X82296Y531876D01*
X298704Y80772D02*
X298900Y80300D01*
X463296Y580644D02*
X472440Y580644D01*
X463296Y580644D02*
X420624Y623316D01*
X233172Y623316D01*
X224028Y614172D01*
X187452Y614172D01*
X472440Y580644D02*
X473700Y579900D01*
D20*
X82296Y531876D03*
X187452Y614172D03*
D19*
X259080Y79248D02*
X272796Y79248D01*
X259080Y79248D02*
X248412Y68580D01*
X91440Y68580D01*
X42672Y117348D01*
X42672Y534924D01*
X97536Y589788D01*
X144780Y589788D01*
X196596Y641604D01*
X208788Y641604D01*
X273500Y80300D02*
X272796Y79248D01*
X208788Y641604D02*
X210000Y641900D01*
X387096Y580644D02*
X396240Y580644D01*
X387096Y580644D02*
X353568Y614172D01*
X237744Y614172D01*
X396240Y580644D02*
X397500Y579900D01*
D20*
X237744Y614172D03*
D19*
X160020Y719328D02*
X160020Y746760D01*
X160020Y719328D02*
X160000Y718100D01*
X160020Y746760D02*
X160000Y747300D01*
X210312Y746760D02*
X210312Y719328D01*
X210000Y718100D01*
X210312Y746760D02*
X210000Y747300D01*
X260604Y746760D02*
X260604Y719328D01*
X260000Y718100D01*
X260604Y746760D02*
X260000Y747300D01*
X310896Y746760D02*
X310896Y719328D01*
X310000Y718100D01*
X310896Y746760D02*
X310000Y747300D01*
X359664Y746760D02*
X359664Y719328D01*
X360000Y718100D01*
X359664Y746760D02*
X360000Y747300D01*
X409956Y746760D02*
X409956Y719328D01*
X410000Y718100D01*
X409956Y746760D02*
X410000Y747300D01*
X460248Y746760D02*
X460248Y719328D01*
X460000Y718100D01*
X460248Y746760D02*
X460000Y747300D01*
X510540Y746760D02*
X510540Y719328D01*
X510000Y718100D01*
X510540Y746760D02*
X510000Y747300D01*
X560832Y746760D02*
X560832Y719328D01*
X560000Y718100D01*
X560832Y746760D02*
X560000Y747300D01*
X609600Y746760D02*
X609600Y719328D01*
X610000Y718100D01*
X609600Y746760D02*
X610000Y747300D01*
X659892Y746760D02*
X659892Y719328D01*
X660000Y718100D01*
X659892Y746760D02*
X660000Y747300D01*
X710184Y746760D02*
X710184Y719328D01*
X710000Y718100D01*
X710184Y746760D02*
X710000Y747300D01*
X760476Y746760D02*
X760476Y719328D01*
X760000Y718100D01*
X760476Y746760D02*
X760000Y747300D01*
X810768Y746760D02*
X810768Y719328D01*
X810000Y718100D01*
X810768Y746760D02*
X810000Y747300D01*
X859536Y746760D02*
X859536Y719328D01*
X860000Y718100D01*
X859536Y746760D02*
X860000Y747300D01*
X909828Y746760D02*
X909828Y719328D01*
X910000Y718100D01*
X909828Y746760D02*
X910000Y747300D01*
M02*
