M48
;GenerationSoftware,Autodesk,EAGLE,9.5.2*%
;CreationDate,2020-02-25T07:37:24Z*%
FMAT,2
ICI,OFF
METRIC,TZ,000.000
T7C0.350
T6C0.730
T5C0.750
T4C0.813
T3C0.850
T2C1.118
T1C2.800
%
G90
M71
T1
X156210Y96520
X3810Y3810
X3810Y96520
X156210Y3810
T2
X15240Y30480
X38100Y38100
X38100Y30480
X35560Y30480
X33020Y30480
X30480Y30480
X27940Y30480
X25400Y30480
X22860Y30480
X20320Y30480
X25400Y38100
X17780Y30480
X30480Y38100
X27940Y38100
X35560Y38100
X33020Y38100
X22860Y38100
X20320Y38100
X17780Y38100
X15240Y38100
X15240Y41910
X17780Y41910
X20320Y41910
X22860Y41910
X25400Y41910
X27940Y41910
X30480Y41910
X33020Y41910
X35560Y41910
X38100Y41910
X38100Y49530
X35560Y49530
X33020Y49530
X30480Y49530
X27940Y49530
X25400Y49530
X22860Y49530
X20320Y49530
X17780Y49530
X15240Y49530
T3
X98010Y87670
X96010Y90170
X94010Y87670
X94010Y90170
X92010Y87670
X92010Y90170
X90010Y87670
X90010Y90170
X88010Y87670
X88010Y90170
X86010Y87670
X84010Y87670
X84010Y90170
X82010Y87670
X82010Y90170
X80010Y87670
X80010Y90170
X86010Y90170
X62340Y87360
X102010Y87670
X102010Y90170
X100010Y87670
X100010Y90170
X98010Y90170
X96010Y87670
X44340Y89860
X44340Y87360
X46340Y89860
X46340Y87360
X48340Y89860
X48340Y87360
X50340Y89860
X50340Y87360
X52340Y89860
X52340Y87360
X54340Y89860
X54340Y87360
X56340Y89860
X56340Y87360
X58340Y89860
X58340Y87360
X60340Y89860
X60340Y87360
X62340Y89860
T4
X134620Y19050
X129540Y26670
X129540Y19050
X83820Y26670
X124460Y26670
X124460Y19050
X119380Y26670
X119380Y19050
X114300Y19050
X109220Y26670
X109220Y19050
X104140Y26670
X104140Y19050
X99060Y26670
X99060Y19050
X93980Y26670
X93980Y19050
X88900Y26670
X88900Y19050
X83820Y19050
X78740Y26670
X78740Y19050
X73660Y26670
X73660Y19050
X68580Y26670
X68580Y19050
X63500Y26670
X63500Y19050
X58420Y26670
X58420Y19050
X149860Y12700
X149860Y15240
X144780Y12700
X144780Y15240
X139700Y12700
X139700Y15240
X134620Y12700
X134620Y15240
X129540Y12700
X129540Y15240
X124460Y12700
X124460Y15240
X119380Y12700
X119380Y15240
X114300Y12700
X114300Y15240
X109220Y12700
X109220Y15240
X104140Y12700
X104140Y15240
X99060Y12700
X99060Y15240
X93980Y12700
X93980Y15240
X88900Y12700
X88900Y15240
X83820Y12700
X83820Y15240
X78740Y12700
X78740Y15240
X73660Y12700
X73660Y15240
X68580Y12700
X68580Y15240
X63500Y12700
X63500Y15240
X58420Y12700
X58420Y15240
X49530Y59690
X13970Y63500
X19050Y66040
X19050Y63500
X24130Y66040
X24130Y63500
X29210Y66040
X29210Y63500
X34290Y66040
X34290Y63500
X39370Y66040
X39370Y63500
X44450Y66040
X44450Y63500
X49530Y66040
X49530Y63500
X54610Y66040
X59690Y66040
X59690Y63500
X64770Y66040
X64770Y63500
X69850Y66040
X69850Y63500
X74930Y66040
X74930Y63500
X80010Y66040
X80010Y63500
X7620Y33020
X13970Y66040
X8890Y63500
X8890Y66040
X85090Y63500
X85090Y66040
X80010Y59690
X80010Y52070
X74930Y59690
X74930Y52070
X69850Y59690
X69850Y52070
X64770Y59690
X64770Y52070
X59690Y59690
X59690Y52070
X54610Y59690
X54610Y52070
X49530Y52070
X44450Y59690
X44450Y52070
X39370Y59690
X39370Y52070
X34290Y59690
X34290Y52070
X29210Y59690
X29210Y52070
X24130Y59690
X24130Y52070
X19050Y59690
X19050Y52070
X13970Y59690
X13970Y52070
X8890Y59690
X8890Y52070
X85090Y59690
X85090Y52070
X5080Y33020
X7620Y45720
X5080Y45720
X123190Y52070
X120650Y52070
X97790Y81280
X95250Y81280
X114300Y26670
X53340Y12700
X53340Y15240
X53340Y26670
X53340Y19050
X149860Y26670
X149860Y19050
X144780Y26670
X144780Y19050
X139700Y26670
X139700Y19050
X134620Y26670
X54610Y63500
T5
X92710Y31115
X95250Y31115
X97790Y31115
X100330Y31115
X102870Y31115
X105410Y31115
X107950Y31115
X110490Y31115
X113030Y31115
X115570Y31115
X115570Y47625
X113030Y47625
X110490Y47625
X107950Y47625
X105410Y47625
X102870Y47625
X100330Y47625
X97790Y47625
X95250Y47625
X92710Y47625
X90170Y47625
X87630Y47625
X127000Y31115
X129540Y31115
X132080Y31115
X134620Y31115
X137160Y31115
X139700Y31115
X142240Y31115
X144780Y31115
X147320Y31115
X149860Y31115
X73660Y47625
X152400Y31115
X154940Y31115
X154940Y47625
X152400Y47625
X149860Y47625
X147320Y47625
X144780Y47625
X142240Y47625
X139700Y47625
X137160Y47625
X134620Y47625
X132080Y47625
X129540Y47625
X127000Y47625
X76200Y47625
X76200Y31115
X73660Y31115
X71120Y31115
X68580Y31115
X66040Y31115
X63500Y31115
X60960Y31115
X58420Y31115
X53340Y31115
X50800Y31115
X48260Y31115
X55880Y31115
X71120Y47625
X68580Y47625
X66040Y47625
X63500Y47625
X60960Y47625
X58420Y47625
X55880Y47625
X53340Y47625
X50800Y47625
X48260Y47625
X87630Y31115
X90170Y31115
T6
X26670Y6190
X29210Y6190
X31750Y6190
X34290Y6190
X36830Y6190
X39370Y6190
X41910Y6190
X44450Y6190
X46990Y6190
X46990Y14130
X44450Y14130
X41910Y14130
X39370Y14130
X36830Y14130
X34290Y14130
X31750Y14130
X29210Y14130
X26670Y14130
X24130Y14130
X24130Y18890
X26670Y18890
X29210Y18890
X31750Y18890
X34290Y18890
X36830Y18890
X39370Y18890
X41910Y18890
X44450Y18890
X46990Y18890
X46990Y26830
X44450Y26830
X41910Y26830
X39370Y26830
X36830Y26830
X34290Y26830
X31750Y26830
X29210Y26830
X26670Y26830
X24130Y26830
X145890Y72390
X145890Y69850
X145890Y67310
X145890Y64770
X145890Y62230
X145890Y59690
X145890Y57150
X153830Y57150
X153830Y59690
X153830Y62230
X153830Y64770
X153830Y67310
X153830Y69850
X153830Y72390
X128110Y72390
X128110Y69850
X128110Y67310
X128110Y64770
X128110Y62230
X128110Y59690
X128110Y57150
X136050Y57150
X136050Y59690
X136050Y62230
X136050Y64770
X136050Y67310
X136050Y69850
X136050Y72390
X106520Y76200
X106520Y73660
X106520Y71120
X106520Y68580
X106520Y66040
X106520Y63500
X106520Y60960
X114460Y60960
X114460Y63500
X114460Y66040
X114460Y68580
X114460Y71120
X114460Y73660
X114460Y76200
X45720Y74770
X48260Y74770
X50800Y74770
X53340Y74770
X55880Y74770
X58420Y74770
X60960Y74770
X63500Y74770
X66040Y74770
X68580Y74770
X68580Y82710
X66040Y82710
X63500Y82710
X60960Y82710
X58420Y82710
X55880Y82710
X53340Y82710
X50800Y82710
X48260Y82710
X45720Y82710
X5080Y74770
X7620Y74770
X10160Y74770
X12700Y74770
X15240Y74770
X17780Y74770
X20320Y74770
X22860Y74770
X25400Y74770
X27940Y74770
X27940Y82710
X25400Y82710
X22860Y82710
X20320Y82710
X17780Y82710
X15240Y82710
X12700Y82710
X10160Y82710
X7620Y82710
X5080Y82710
X92550Y77470
X92550Y74930
X92550Y72390
X92550Y69850
X92550Y67310
X92550Y64770
X92550Y62230
X92550Y59690
X100490Y59690
X100490Y62230
X100490Y64770
X100490Y67310
X100490Y69850
X100490Y72390
X100490Y74930
X100490Y77470
X24130Y6190
T7
X7925Y39776
X51816Y34290
X44501Y34290
X38557Y36728
X35509Y33680
X32461Y31852
X81229Y56236
X55321Y67666
X70409Y67666
X87173Y86716
X85192Y82906
X64008Y81534
X60960Y78486
X96926Y86716
X103022Y86258
X126035Y65837
X131521Y63246
X16154Y34747
X26822Y28804
X18136Y43739
X22403Y36424
X30937Y36424
X33680Y33680
X12344Y38557
X13564Y39776
X21336Y39776
X3505Y70409
X46025Y85192
X49682Y88544
X76962Y56845
X13411Y34747
X14630Y33528
X36119Y56845
X54864Y79400
X64465Y68275
X65075Y46482
X14326Y39167
X12344Y37643
X29566Y37033
X35662Y31852
X42977Y18136
X39624Y44958
X45110Y50140
X60350Y76962
X31242Y39319
X47396Y40538
X45110Y30480
X57455Y90983
X57150Y68275
X54407Y71018
X54559Y76048
X41300Y35204
X58522Y91135
X53340Y55626
X34900Y32461
X4115Y35357
X19355Y31547
X89764Y85496
X86868Y85496
X96774Y85801
X133502Y67666
X117043Y76200
X109271Y76200
X13411Y35662
X77724Y57455
X105461Y62789
X55321Y33223
X115672Y49835
X134264Y34138
X98146Y40996
X120091Y29718
X72542Y30328
X112928Y36271
X144475Y33223
X99365Y42215
X114605Y45263
X143256Y33528
X106375Y41148
X96469Y71628
X118110Y52578
X8534Y41910
X63246Y69342
X12954Y71933
X85801Y69037
X64770Y82753
X130302Y90830
X148133Y73000
X109576Y66751
X130759Y64922
X110185Y67513
X149504Y63551
X147218Y65837
X104546Y86868
X64160Y21031
X152400Y42824
X102565Y58217
X109728Y70104
X76505Y86411
X129388Y64465
X105766Y55321
X147066Y41910
X147676Y61874
X128168Y20726
X83820Y33833
X151333Y52883
X151333Y61874
X119482Y67208
X118415Y66142
X103937Y54864
X77724Y46025
X152095Y54559
X150876Y64160
X89002Y60198
X89002Y69494
X89002Y79248
X83210Y23622
X80924Y28651
X112928Y41758
X109880Y40538
X117653Y64465
X102565Y26365
X128016Y27280
X124358Y23622
X107899Y63856
X117500Y51664
X101956Y85039
X131674Y25146
X71780Y20422
X148742Y62941
X151486Y62941
X64465Y40538
X48920Y46634
X43891Y47396
X121463Y21641
X81686Y32309
X27889Y52121
X88849Y32461
X88544Y33833
X76657Y58369
M30