G04 EAGLE Gerber RS-274X export*
G75*
%MOMM*%
%FSLAX34Y34*%
%LPD*%
%INTop Copper*%
%IPPOS*%
%AMOC8*
5,1,8,0,0,1.08239X$1,22.5*%
G01*
%ADD10C,1.381000*%
%ADD11C,1.358000*%
%ADD12R,1.358000X1.358000*%
%ADD13P,1.429621X8X292.500000*%
%ADD14P,1.429621X8X112.500000*%
%ADD15C,2.010000*%
%ADD16C,1.308000*%
%ADD17R,1.238000X1.238000*%
%ADD18C,1.238000*%
%ADD19C,1.320800*%
%ADD20C,0.152400*%
%ADD21C,0.756400*%


D10*
X953500Y353700D03*
X928500Y353700D03*
X953500Y333700D03*
X928500Y333700D03*
X953500Y313700D03*
X928500Y313700D03*
X953500Y293700D03*
X928500Y293700D03*
X953500Y273700D03*
X928500Y273700D03*
X953500Y253700D03*
X928500Y253700D03*
X953500Y233700D03*
X928500Y233700D03*
X953500Y213700D03*
X928500Y213700D03*
X953500Y193700D03*
X928500Y193700D03*
X953500Y173700D03*
X928500Y173700D03*
X953500Y153700D03*
X928500Y153700D03*
X953500Y133700D03*
X928500Y133700D03*
D11*
X708800Y39400D03*
X708800Y64400D03*
X688800Y39400D03*
X688800Y64400D03*
X668800Y39400D03*
X668800Y64400D03*
X648800Y39400D03*
X648800Y64400D03*
X628800Y39400D03*
X628800Y64400D03*
X608800Y39400D03*
X608800Y64400D03*
X588800Y39400D03*
X588800Y64400D03*
X568800Y39400D03*
X568800Y64400D03*
X548800Y39400D03*
X548800Y64400D03*
X528800Y39400D03*
X528800Y64400D03*
D12*
X137400Y1158800D03*
D11*
X137400Y1133800D03*
X157400Y1158800D03*
X157400Y1133800D03*
X177400Y1158800D03*
X177400Y1133800D03*
X197400Y1158800D03*
X197400Y1133800D03*
D10*
X960530Y1013920D03*
X935530Y1013920D03*
X960530Y993920D03*
X935530Y993920D03*
X960530Y973920D03*
X935530Y973920D03*
X960530Y953920D03*
X935530Y953920D03*
X960530Y933920D03*
X935530Y933920D03*
X960530Y913920D03*
X935530Y913920D03*
X960530Y893920D03*
X935530Y893920D03*
X960530Y873920D03*
X935530Y873920D03*
X960530Y853920D03*
X935530Y853920D03*
X960530Y833920D03*
X935530Y833920D03*
X960530Y813920D03*
X935530Y813920D03*
X960530Y793920D03*
X935530Y793920D03*
D11*
X955700Y664000D03*
X930700Y664000D03*
X955700Y644000D03*
X930700Y644000D03*
X955700Y624000D03*
X930700Y624000D03*
X955700Y604000D03*
X930700Y604000D03*
X955700Y584000D03*
X930700Y584000D03*
X955700Y564000D03*
X930700Y564000D03*
X955700Y544000D03*
X930700Y544000D03*
X955700Y524000D03*
X930700Y524000D03*
X955700Y504000D03*
X930700Y504000D03*
X955700Y484000D03*
X930700Y484000D03*
D12*
X61340Y217420D03*
D11*
X86340Y217420D03*
X61340Y237420D03*
X86340Y237420D03*
X61340Y257420D03*
X86340Y257420D03*
X61340Y277420D03*
X86340Y277420D03*
X61340Y297420D03*
X86340Y297420D03*
X61340Y317420D03*
X86340Y317420D03*
X61340Y337420D03*
X86340Y337420D03*
X61340Y357420D03*
X86340Y357420D03*
X61340Y377420D03*
X86340Y377420D03*
D10*
X386060Y43930D03*
X386060Y68930D03*
X366060Y43930D03*
X366060Y68930D03*
X346060Y43930D03*
X346060Y68930D03*
X326060Y43930D03*
X326060Y68930D03*
X306060Y43930D03*
X306060Y68930D03*
X286060Y43930D03*
X286060Y68930D03*
X266060Y43930D03*
X266060Y68930D03*
X246060Y43930D03*
X246060Y68930D03*
X226060Y43930D03*
X226060Y68930D03*
X206060Y43930D03*
X206060Y68930D03*
X186060Y43930D03*
X186060Y68930D03*
X166060Y43930D03*
X166060Y68930D03*
X311500Y1148600D03*
X311500Y1123600D03*
X331500Y1148600D03*
X331500Y1123600D03*
X351500Y1148600D03*
X351500Y1123600D03*
X371500Y1148600D03*
X371500Y1123600D03*
X391500Y1148600D03*
X391500Y1123600D03*
X411500Y1148600D03*
X411500Y1123600D03*
X431500Y1148600D03*
X431500Y1123600D03*
X451500Y1148600D03*
X451500Y1123600D03*
X471500Y1148600D03*
X471500Y1123600D03*
X491500Y1148600D03*
X491500Y1123600D03*
X511500Y1148600D03*
X511500Y1123600D03*
X531500Y1148600D03*
X531500Y1123600D03*
X66300Y726300D03*
X91300Y726300D03*
X66300Y746300D03*
X91300Y746300D03*
X66300Y766300D03*
X91300Y766300D03*
X66300Y786300D03*
X91300Y786300D03*
X66300Y806300D03*
X91300Y806300D03*
X66300Y826300D03*
X91300Y826300D03*
X66300Y846300D03*
X91300Y846300D03*
X66300Y866300D03*
X91300Y866300D03*
X66300Y886300D03*
X91300Y886300D03*
X66300Y906300D03*
X91300Y906300D03*
X66300Y926300D03*
X91300Y926300D03*
X66300Y946300D03*
X91300Y946300D03*
X633810Y1156350D03*
X633810Y1131350D03*
X653810Y1156350D03*
X653810Y1131350D03*
X673810Y1156350D03*
X673810Y1131350D03*
X693810Y1156350D03*
X693810Y1131350D03*
X713810Y1156350D03*
X713810Y1131350D03*
X733810Y1156350D03*
X733810Y1131350D03*
X753810Y1156350D03*
X753810Y1131350D03*
X773810Y1156350D03*
X773810Y1131350D03*
X793810Y1156350D03*
X793810Y1131350D03*
X813810Y1156350D03*
X813810Y1131350D03*
X833810Y1156350D03*
X833810Y1131350D03*
X853810Y1156350D03*
X853810Y1131350D03*
D13*
X810000Y498100D03*
X810000Y421900D03*
X760000Y498100D03*
X760000Y421900D03*
X710000Y498100D03*
X710000Y421900D03*
X660000Y498100D03*
X660000Y421900D03*
X610000Y498100D03*
X610000Y421900D03*
X560000Y498100D03*
X560000Y421900D03*
X510000Y498100D03*
X510000Y421900D03*
X460000Y498100D03*
X460000Y421900D03*
X410000Y498100D03*
X410000Y421900D03*
X360000Y498100D03*
X360000Y421900D03*
X310000Y498100D03*
X310000Y421900D03*
X260000Y498100D03*
X260000Y421900D03*
X210000Y498100D03*
X210000Y421900D03*
X160000Y498100D03*
X160000Y421900D03*
X130000Y498100D03*
X130000Y421900D03*
X860000Y498100D03*
X860000Y421900D03*
D14*
X810000Y557300D03*
X810000Y582700D03*
X760000Y557300D03*
X760000Y582700D03*
X710000Y557300D03*
X710000Y582700D03*
X660000Y557300D03*
X660000Y582700D03*
X610000Y557300D03*
X610000Y582700D03*
X560000Y557300D03*
X560000Y582700D03*
X510000Y557300D03*
X510000Y582700D03*
X460000Y557300D03*
X460000Y582700D03*
X410000Y557300D03*
X410000Y582700D03*
X360000Y557300D03*
X360000Y582700D03*
X310000Y557300D03*
X310000Y582700D03*
X260000Y557300D03*
X260000Y582700D03*
X210000Y557300D03*
X210000Y582700D03*
X160000Y557300D03*
X160000Y582700D03*
X110000Y557300D03*
X110000Y582700D03*
X860000Y557300D03*
X860000Y582700D03*
D15*
X670000Y960000D03*
D16*
X690000Y1020000D03*
X690000Y900000D03*
X812000Y1020000D03*
X812000Y900000D03*
X730000Y745000D03*
X750000Y745000D03*
X770000Y745000D03*
X730000Y795000D03*
X750000Y795000D03*
X770000Y795000D03*
D13*
X790000Y348100D03*
X790000Y271900D03*
X750000Y348100D03*
X750000Y271900D03*
X710000Y348100D03*
X710000Y271900D03*
X670000Y348100D03*
X670000Y271900D03*
X630000Y348100D03*
X630000Y271900D03*
X590000Y348100D03*
X590000Y271900D03*
X550000Y348100D03*
X550000Y271900D03*
X510000Y348100D03*
X510000Y271900D03*
X470000Y348100D03*
X470000Y271900D03*
X430000Y348100D03*
X430000Y271900D03*
X390000Y348100D03*
X390000Y271900D03*
X350000Y348100D03*
X350000Y271900D03*
X310000Y348100D03*
X310000Y271900D03*
X270000Y348100D03*
X270000Y271900D03*
X230000Y348100D03*
X230000Y271900D03*
X190000Y348100D03*
X190000Y271900D03*
D17*
X213800Y880300D03*
D18*
X239200Y880300D03*
X264600Y880300D03*
X290000Y880300D03*
X315400Y880300D03*
X340800Y880300D03*
X366200Y880300D03*
X366200Y959700D03*
X340800Y959700D03*
X315400Y959700D03*
X290000Y959700D03*
X264600Y959700D03*
X239200Y959700D03*
X213800Y959700D03*
D19*
X620000Y1001496D02*
X620000Y1014704D01*
X620000Y938504D02*
X620000Y925296D01*
D20*
X498348Y1147572D02*
X492252Y1147572D01*
X498348Y1147572D02*
X507492Y1138428D01*
X605028Y1138428D01*
X612648Y1146048D01*
X701040Y1146048D01*
X702564Y1147572D01*
X708660Y1147572D01*
X713232Y1143000D01*
X786384Y1143000D01*
X789432Y1146048D01*
X803148Y1146048D01*
X812292Y1155192D01*
X492252Y1147572D02*
X491500Y1148600D01*
X812292Y1155192D02*
X813810Y1156350D01*
X774192Y981456D02*
X774192Y949452D01*
X810768Y912876D01*
X810768Y900684D01*
X812000Y900000D01*
X224028Y958596D02*
X214884Y958596D01*
X224028Y958596D02*
X426720Y755904D01*
X719328Y755904D01*
X729996Y745236D01*
X214884Y958596D02*
X213800Y959700D01*
X729996Y745236D02*
X730000Y745000D01*
D21*
X774192Y981456D03*
D20*
X109728Y313944D02*
X109728Y303276D01*
X260604Y152400D01*
X350520Y152400D01*
X649224Y164592D02*
X856488Y164592D01*
X649224Y164592D02*
X550164Y65532D01*
X548800Y64400D01*
X167640Y1008888D02*
X167640Y1141476D01*
X106680Y947928D02*
X94488Y935736D01*
X106680Y947928D02*
X167640Y1008888D01*
X94488Y935736D02*
X76200Y935736D01*
X67056Y926592D01*
X66300Y926300D01*
X656844Y1056132D02*
X711708Y1056132D01*
X783336Y1127760D01*
X783336Y1135380D01*
X790956Y1143000D01*
X807720Y1143000D01*
X810768Y1146048D01*
X824484Y1146048D01*
X833628Y1155192D01*
X833810Y1156350D01*
X947928Y792480D02*
X960120Y792480D01*
X947928Y792480D02*
X938784Y783336D01*
X922020Y783336D01*
X877824Y827532D02*
X877824Y873252D01*
X780288Y970788D01*
X780288Y984504D01*
X754380Y1010412D01*
X740664Y1010412D01*
X960530Y793920D02*
X960120Y792480D01*
X361188Y1152144D02*
X348996Y1164336D01*
X361188Y1152144D02*
X361188Y1144524D01*
X371856Y1133856D01*
X434340Y1133856D01*
X441960Y1126236D01*
X441960Y1120140D01*
X448056Y1114044D01*
X455676Y1114044D01*
X461772Y1120140D01*
X461772Y1127760D01*
X472440Y1138428D01*
X475488Y1138428D01*
X481584Y1144524D01*
X481584Y1152144D01*
X487680Y1158240D01*
X501396Y1158240D01*
X510540Y1149096D01*
X511500Y1148600D01*
X86868Y344424D02*
X86868Y338328D01*
X86868Y344424D02*
X97536Y355092D01*
X97536Y705612D01*
X106680Y714756D01*
X164592Y891540D02*
X108204Y947928D01*
X106680Y947928D01*
X86868Y338328D02*
X86340Y337420D01*
D21*
X109728Y313944D03*
X350520Y152400D03*
X856488Y164592D03*
X167640Y1141476D03*
X656844Y1056132D03*
X922020Y783336D03*
X877824Y827532D03*
X740664Y1010412D03*
X348996Y1164336D03*
X106680Y714756D03*
X164592Y891540D03*
D20*
X367284Y960120D02*
X367284Y1007364D01*
X332232Y1042416D01*
X301752Y1042416D01*
X195072Y1149096D01*
X187452Y1149096D01*
X178308Y1158240D01*
X366200Y959700D02*
X367284Y960120D01*
X178308Y1158240D02*
X177400Y1158800D01*
X813816Y1130808D02*
X813816Y1037844D01*
X861060Y990600D01*
X861060Y908304D01*
X934212Y835152D01*
X813816Y1130808D02*
X813810Y1131350D01*
X934212Y835152D02*
X935530Y833920D01*
X263652Y960120D02*
X239268Y960120D01*
X239200Y959700D01*
X263652Y960120D02*
X264600Y959700D01*
X352044Y879348D02*
X365760Y879348D01*
X352044Y879348D02*
X344424Y871728D01*
X336804Y871728D01*
X265176Y943356D01*
X265176Y958596D01*
X366200Y880300D02*
X365760Y879348D01*
X265176Y958596D02*
X264600Y959700D01*
X650748Y900684D02*
X688848Y900684D01*
X650748Y900684D02*
X620268Y931164D01*
X688848Y900684D02*
X690000Y900000D01*
X620268Y931164D02*
X620000Y931900D01*
X208788Y967740D02*
X196596Y967740D01*
X208788Y967740D02*
X210312Y969264D01*
X228600Y969264D01*
X237744Y960120D01*
X239200Y959700D01*
X763524Y745236D02*
X769620Y745236D01*
X763524Y745236D02*
X734568Y774192D01*
X705612Y774192D01*
X690372Y789432D01*
X690372Y899160D01*
X769620Y745236D02*
X770000Y745000D01*
X690372Y899160D02*
X690000Y900000D01*
X760476Y583692D02*
X809244Y583692D01*
X760476Y583692D02*
X760000Y582700D01*
X809244Y583692D02*
X810000Y582700D01*
X810768Y583692D02*
X859536Y583692D01*
X860000Y582700D01*
X810768Y583692D02*
X810000Y582700D01*
X458724Y583692D02*
X411480Y583692D01*
X410000Y582700D01*
X458724Y583692D02*
X460000Y582700D01*
X309372Y583692D02*
X260604Y583692D01*
X260000Y582700D01*
X309372Y583692D02*
X310000Y582700D01*
X310896Y583692D02*
X359664Y583692D01*
X360000Y582700D01*
X310896Y583692D02*
X310000Y582700D01*
X361188Y583692D02*
X409956Y583692D01*
X410000Y582700D01*
X361188Y583692D02*
X360000Y582700D01*
X661416Y583692D02*
X708660Y583692D01*
X661416Y583692D02*
X660000Y582700D01*
X708660Y583692D02*
X710000Y582700D01*
X559308Y583692D02*
X510540Y583692D01*
X510000Y582700D01*
X559308Y583692D02*
X560000Y582700D01*
X560832Y583692D02*
X609600Y583692D01*
X610000Y582700D01*
X560832Y583692D02*
X560000Y582700D01*
X611124Y583692D02*
X659892Y583692D01*
X660000Y582700D01*
X611124Y583692D02*
X610000Y582700D01*
X509016Y583692D02*
X460248Y583692D01*
X460000Y582700D01*
X509016Y583692D02*
X510000Y582700D01*
X710184Y583692D02*
X758952Y583692D01*
X760000Y582700D01*
X710184Y583692D02*
X710000Y582700D01*
X536448Y65532D02*
X528828Y65532D01*
X536448Y65532D02*
X643128Y172212D01*
X780288Y172212D02*
X928116Y172212D01*
X780288Y172212D02*
X643128Y172212D01*
X528828Y65532D02*
X528800Y64400D01*
X928116Y172212D02*
X928500Y173700D01*
X789432Y348996D02*
X751332Y348996D01*
X750000Y348100D01*
X789432Y348996D02*
X790000Y348100D01*
X629412Y348996D02*
X591312Y348996D01*
X590000Y348100D01*
X629412Y348996D02*
X630000Y348100D01*
X670560Y348996D02*
X708660Y348996D01*
X670560Y348996D02*
X670000Y348100D01*
X708660Y348996D02*
X710000Y348100D01*
X669036Y348996D02*
X630936Y348996D01*
X630000Y348100D01*
X669036Y348996D02*
X670000Y348100D01*
X710184Y348996D02*
X749808Y348996D01*
X750000Y348100D01*
X710184Y348996D02*
X710000Y348100D01*
X469392Y348996D02*
X431292Y348996D01*
X430000Y348100D01*
X469392Y348996D02*
X470000Y348100D01*
X510540Y348996D02*
X548640Y348996D01*
X510540Y348996D02*
X510000Y348100D01*
X548640Y348996D02*
X550000Y348100D01*
X509016Y348996D02*
X470916Y348996D01*
X470000Y348100D01*
X509016Y348996D02*
X510000Y348100D01*
X388620Y348996D02*
X350520Y348996D01*
X350000Y348100D01*
X388620Y348996D02*
X390000Y348100D01*
X348996Y348996D02*
X310896Y348996D01*
X310000Y348100D01*
X348996Y348996D02*
X350000Y348100D01*
X158496Y583692D02*
X111252Y583692D01*
X110000Y582700D01*
X158496Y583692D02*
X160000Y582700D01*
X160020Y583692D02*
X208788Y583692D01*
X210000Y582700D01*
X160020Y583692D02*
X160000Y582700D01*
X190500Y348996D02*
X228600Y348996D01*
X190500Y348996D02*
X190000Y348100D01*
X228600Y348996D02*
X230000Y348100D01*
X230124Y348996D02*
X269748Y348996D01*
X270000Y348100D01*
X230124Y348996D02*
X230000Y348100D01*
X390144Y348996D02*
X429768Y348996D01*
X430000Y348100D01*
X390144Y348996D02*
X390000Y348100D01*
X550164Y348996D02*
X589788Y348996D01*
X590000Y348100D01*
X550164Y348996D02*
X550000Y348100D01*
X780288Y178308D02*
X780288Y172212D01*
D21*
X196596Y967740D03*
X780288Y178308D03*
D20*
X156972Y1050036D02*
X156972Y1132332D01*
X156972Y1050036D02*
X47244Y940308D01*
X47244Y784860D01*
X30480Y768096D01*
X30480Y333756D01*
X28956Y332232D01*
X28956Y163068D01*
X164592Y27432D01*
X502920Y27432D01*
X524256Y48768D01*
X539496Y48768D01*
X548640Y39624D01*
X156972Y1132332D02*
X157400Y1133800D01*
X548640Y39624D02*
X548800Y39400D01*
X160020Y906780D02*
X160020Y972312D01*
X260604Y1072896D01*
X553212Y1130808D02*
X632460Y1130808D01*
X553212Y1130808D02*
X533400Y1110996D01*
X512064Y1110996D01*
X481584Y1110996D02*
X477012Y1110996D01*
X473964Y1107948D01*
X327660Y1107948D01*
X312420Y1123188D01*
X632460Y1130808D02*
X633810Y1131350D01*
X312420Y1123188D02*
X311500Y1123600D01*
X870204Y1014984D02*
X934212Y1014984D01*
X784860Y1030224D02*
X763524Y1030224D01*
X751332Y1042416D01*
X734568Y1042416D02*
X722376Y1042416D01*
X734568Y1042416D02*
X751332Y1042416D01*
X934212Y1014984D02*
X935530Y1013920D01*
X286512Y216408D02*
X205740Y216408D01*
X286512Y216408D02*
X316992Y185928D01*
X414528Y262128D02*
X460248Y262128D01*
X469392Y271272D01*
X470000Y271900D01*
X644652Y230124D02*
X705612Y230124D01*
X644652Y230124D02*
X592836Y281940D01*
X573024Y281940D01*
X553212Y262128D01*
X480060Y262128D01*
X470916Y271272D01*
X470000Y271900D01*
X777240Y662940D02*
X929640Y662940D01*
X777240Y662940D02*
X707136Y592836D01*
X633984Y592836D01*
X929640Y662940D02*
X930700Y664000D01*
X928116Y355092D02*
X871728Y355092D01*
X859536Y367284D01*
X928116Y355092D02*
X928500Y353700D01*
X734568Y984504D02*
X734568Y1042416D01*
X734568Y984504D02*
X803148Y915924D01*
X803148Y816864D01*
X832104Y787908D01*
D21*
X160020Y906780D03*
X260604Y1072896D03*
X512064Y1110996D03*
X481584Y1110996D03*
X870204Y1014984D03*
X784860Y1030224D03*
X722376Y1042416D03*
X205740Y216408D03*
X316992Y185928D03*
X414528Y262128D03*
X705612Y230124D03*
X633984Y592836D03*
X859536Y367284D03*
X832104Y787908D03*
D20*
X653796Y1132332D02*
X646176Y1132332D01*
X637032Y1141476D01*
X620268Y1141476D02*
X612648Y1141476D01*
X620268Y1141476D02*
X637032Y1141476D01*
X612648Y1141476D02*
X605028Y1133856D01*
X487680Y1133856D01*
X481584Y1127760D01*
X481584Y1120140D01*
X472440Y1110996D01*
X344424Y1110996D01*
X332232Y1123188D01*
X653810Y1131350D02*
X653796Y1132332D01*
X332232Y1123188D02*
X331500Y1123600D01*
X620268Y1139952D02*
X620268Y1141476D01*
X929640Y643128D02*
X929640Y637032D01*
X876300Y583692D01*
X876300Y460248D01*
X844296Y428244D01*
X844296Y413004D02*
X844296Y355092D01*
X844296Y413004D02*
X844296Y428244D01*
X844296Y355092D02*
X868680Y330708D01*
X926592Y330708D01*
X928116Y332232D01*
X929640Y643128D02*
X930700Y644000D01*
X928500Y333700D02*
X928116Y332232D01*
X163068Y236220D02*
X86868Y236220D01*
X163068Y236220D02*
X233172Y166116D01*
X86868Y236220D02*
X86340Y237420D01*
X419100Y413004D02*
X844296Y413004D01*
X419100Y413004D02*
X411480Y420624D01*
X410000Y421900D01*
D21*
X620268Y1139952D03*
X233172Y166116D03*
D20*
X359664Y411480D02*
X359664Y420624D01*
X359664Y411480D02*
X300228Y352044D01*
X300228Y344424D01*
X347472Y297180D01*
X359664Y420624D02*
X360000Y421900D01*
X374904Y257556D02*
X205740Y257556D01*
X374904Y257556D02*
X388620Y271272D01*
X390000Y271900D01*
X393192Y249936D02*
X437388Y249936D01*
X199644Y656844D02*
X91440Y765048D01*
X91300Y766300D01*
X929640Y623316D02*
X929640Y617220D01*
X920496Y608076D01*
X920496Y580644D01*
X926592Y574548D01*
X934212Y574548D01*
X940308Y568452D01*
X940308Y428244D01*
X932688Y420624D01*
X932688Y376428D01*
X929640Y623316D02*
X930700Y624000D01*
X499872Y1042416D02*
X364236Y1042416D01*
X588264Y1045464D02*
X673608Y1130808D01*
X673810Y1131350D01*
X882396Y975360D02*
X934212Y975360D01*
X882396Y975360D02*
X871728Y986028D01*
X731520Y964692D02*
X714756Y964692D01*
X690372Y989076D01*
X589788Y989076D01*
X563880Y1014984D01*
X563880Y1021080D01*
X588264Y1045464D01*
X934212Y975360D02*
X935530Y973920D01*
X588264Y1042416D02*
X588264Y1045464D01*
X775716Y787908D02*
X822960Y787908D01*
X775716Y787908D02*
X772668Y784860D01*
X766572Y784860D01*
X758952Y792480D01*
X758952Y937260D01*
X731520Y964692D01*
D21*
X347472Y297180D03*
X205740Y257556D03*
X437388Y249936D03*
X393192Y249936D03*
X199644Y656844D03*
X932688Y376428D03*
X364236Y1042416D03*
X499872Y1042416D03*
X588264Y1042416D03*
X871728Y986028D03*
X731520Y964692D03*
X822960Y787908D03*
D20*
X888492Y896112D02*
X888492Y906780D01*
X934212Y952500D01*
X935530Y953920D01*
X842772Y941832D02*
X757428Y1027176D01*
X842772Y941832D02*
X842772Y917448D01*
X876300Y883920D01*
X144780Y786384D02*
X91440Y786384D01*
X144780Y786384D02*
X230124Y871728D01*
X91440Y786384D02*
X91300Y786300D01*
X309372Y420624D02*
X309372Y365760D01*
X297180Y353568D01*
X297180Y338328D01*
X338328Y297180D01*
X309372Y420624D02*
X310000Y421900D01*
X185928Y298704D02*
X166116Y278892D01*
X185928Y298704D02*
X269748Y298704D01*
X306324Y262128D01*
X339852Y262128D01*
X348996Y271272D01*
X350000Y271900D01*
X359664Y281940D02*
X403860Y281940D01*
X359664Y281940D02*
X350520Y272796D01*
X350000Y271900D01*
X858012Y294132D02*
X928116Y294132D01*
X858012Y294132D02*
X742188Y409956D01*
X385572Y409956D01*
X364236Y431292D01*
X320040Y431292D01*
X316992Y428244D02*
X310896Y422148D01*
X316992Y428244D02*
X320040Y431292D01*
X928116Y294132D02*
X928500Y293700D01*
X310896Y422148D02*
X310000Y421900D01*
X254508Y589788D02*
X254508Y716280D01*
X254508Y755904D01*
X254508Y589788D02*
X249936Y585216D01*
X249936Y495300D01*
X316992Y428244D01*
X749808Y729996D02*
X762000Y729996D01*
X749808Y729996D02*
X736092Y716280D01*
X254508Y716280D01*
D21*
X888492Y896112D03*
X757428Y1027176D03*
X876300Y883920D03*
X230124Y871728D03*
X338328Y297180D03*
X166116Y278892D03*
X403860Y281940D03*
X254508Y755904D03*
X762000Y729996D03*
D20*
X931164Y583692D02*
X943356Y571500D01*
X943356Y426720D01*
X938784Y422148D01*
X938784Y283464D01*
X929640Y274320D01*
X931164Y583692D02*
X930700Y584000D01*
X929640Y274320D02*
X928500Y273700D01*
X935736Y928116D02*
X935736Y932688D01*
X935736Y928116D02*
X950976Y912876D01*
X950976Y909828D01*
X957072Y903732D01*
X964692Y903732D01*
X979932Y888492D01*
X979932Y768096D01*
X940308Y728472D01*
X940308Y594360D01*
X931164Y585216D01*
X935736Y932688D02*
X935530Y933920D01*
X931164Y585216D02*
X930700Y584000D01*
X803148Y1021080D02*
X760476Y1063752D01*
X803148Y1021080D02*
X803148Y987552D01*
X848868Y941832D01*
X260604Y420624D02*
X260604Y370332D01*
X304800Y326136D01*
X304800Y291084D02*
X304800Y277368D01*
X304800Y291084D02*
X304800Y326136D01*
X304800Y277368D02*
X309372Y272796D01*
X260604Y420624D02*
X260000Y421900D01*
X309372Y272796D02*
X310000Y271900D01*
X156972Y807720D02*
X91440Y807720D01*
X156972Y807720D02*
X230124Y880872D01*
X230124Y883920D01*
X236220Y890016D01*
X242316Y890016D01*
X248412Y883920D01*
X248412Y871728D02*
X248412Y588264D01*
X248412Y871728D02*
X248412Y883920D01*
X248412Y588264D02*
X246888Y586740D01*
X246888Y434340D01*
X259080Y422148D01*
X91300Y806300D02*
X91440Y807720D01*
X259080Y422148D02*
X260000Y421900D01*
X377952Y958596D02*
X377952Y1030224D01*
X252984Y871728D02*
X248412Y871728D01*
X801624Y274320D02*
X928116Y274320D01*
X801624Y274320D02*
X784860Y291084D01*
X304800Y291084D01*
X928116Y274320D02*
X928500Y273700D01*
D21*
X760476Y1063752D03*
X848868Y941832D03*
X377952Y1030224D03*
X377952Y958596D03*
X252984Y871728D03*
D20*
X854964Y934212D02*
X854964Y992124D01*
X766572Y1080516D01*
X109728Y827532D02*
X91440Y827532D01*
X109728Y827532D02*
X190500Y908304D01*
X190500Y970788D01*
X208788Y989076D01*
X345948Y989076D01*
X361188Y1004316D01*
X91440Y827532D02*
X91300Y826300D01*
X726948Y1130808D02*
X733044Y1130808D01*
X726948Y1130808D02*
X672084Y1075944D01*
X630936Y1075944D01*
X579120Y1024128D01*
X429768Y1001268D02*
X379476Y950976D01*
X429768Y1001268D02*
X452628Y1024128D01*
X379476Y950976D02*
X362712Y950976D01*
X356616Y957072D01*
X356616Y978408D01*
X345948Y989076D01*
X733044Y1130808D02*
X733810Y1131350D01*
X929640Y563880D02*
X890016Y524256D01*
X890016Y464820D02*
X850392Y425196D01*
X850392Y367284D01*
X880872Y336804D01*
X929640Y563880D02*
X930700Y564000D01*
X249936Y292608D02*
X205740Y292608D01*
X249936Y292608D02*
X269748Y272796D01*
X270000Y271900D01*
X705612Y254508D02*
X928116Y254508D01*
X705612Y254508D02*
X672084Y288036D01*
X313944Y288036D01*
X310896Y284988D01*
X928116Y254508D02*
X928500Y253700D01*
X669036Y762000D02*
X429768Y1001268D01*
X669036Y762000D02*
X717804Y762000D01*
D21*
X854964Y934212D03*
X766572Y1080516D03*
X361188Y1004316D03*
X579120Y1024128D03*
X452628Y1024128D03*
X890016Y524256D03*
X890016Y464820D03*
X880872Y336804D03*
X205740Y292608D03*
X310896Y284988D03*
X717804Y762000D03*
D20*
X513588Y167640D02*
X484632Y167640D01*
X513588Y167640D02*
X551688Y205740D01*
X906780Y205740D01*
X928116Y227076D01*
X928116Y233172D01*
X928500Y233700D01*
X929640Y536448D02*
X929640Y542544D01*
X929640Y536448D02*
X879348Y486156D01*
X879348Y458724D01*
X847344Y426720D01*
X847344Y361188D01*
X871728Y336804D01*
X929640Y542544D02*
X930700Y544000D01*
X752856Y1130808D02*
X746760Y1130808D01*
X688848Y1072896D01*
X664464Y1072896D01*
X609600Y1018032D01*
X609600Y998220D01*
X615696Y992124D01*
X713232Y992124D01*
X763524Y941832D01*
X752856Y1130808D02*
X753810Y1131350D01*
X228600Y272796D02*
X207264Y272796D01*
X192024Y288036D01*
X184404Y288036D01*
X228600Y272796D02*
X230000Y271900D01*
X102108Y728472D02*
X102108Y733044D01*
X102108Y728472D02*
X112776Y717804D01*
X112776Y598932D01*
X100584Y586740D01*
X100584Y480060D01*
X158496Y422148D01*
X160000Y421900D01*
X210312Y995172D02*
X335280Y995172D01*
X210312Y995172D02*
X166116Y950976D01*
X166116Y915924D01*
X569976Y1018032D02*
X609600Y1018032D01*
X420624Y1018032D02*
X411480Y1018032D01*
X397764Y1031748D01*
X353568Y167640D02*
X484632Y167640D01*
X353568Y167640D02*
X278892Y242316D01*
X257556Y263652D02*
X237744Y263652D01*
X230124Y271272D01*
X230000Y271900D01*
D21*
X484632Y167640D03*
X871728Y336804D03*
X763524Y941832D03*
X184404Y288036D03*
X102108Y733044D03*
X335280Y995172D03*
X166116Y915924D03*
X569976Y1018032D03*
X420624Y1018032D03*
X397764Y1031748D03*
X278892Y242316D03*
X257556Y263652D03*
D20*
X832104Y935736D02*
X832104Y943356D01*
X762000Y1013460D01*
X376428Y1048512D02*
X324612Y1048512D01*
X376428Y1048512D02*
X429768Y1101852D01*
X766572Y1130808D02*
X772668Y1130808D01*
X766572Y1130808D02*
X702564Y1066800D01*
X667512Y1066800D01*
X566928Y1167384D02*
X477012Y1167384D01*
X461772Y1152144D01*
X461772Y1133856D01*
X452628Y1124712D01*
X772668Y1130808D02*
X773810Y1131350D01*
X452628Y1124712D02*
X451500Y1123600D01*
X662940Y158496D02*
X569976Y65532D01*
X662940Y158496D02*
X918972Y158496D01*
X923544Y163068D01*
X931164Y163068D01*
X943356Y175260D01*
X943356Y176784D01*
X950976Y184404D01*
X958596Y184404D01*
X963168Y188976D01*
X963168Y198120D01*
X957072Y204216D01*
X938784Y204216D01*
X929640Y213360D01*
X569976Y65532D02*
X568800Y64400D01*
X928500Y213700D02*
X929640Y213360D01*
X929640Y516636D02*
X929640Y522732D01*
X929640Y516636D02*
X908304Y495300D01*
X908304Y382524D01*
X929640Y522732D02*
X930700Y524000D01*
X188976Y272796D02*
X170688Y272796D01*
X166116Y268224D01*
X166116Y259080D01*
X202692Y222504D01*
X266700Y222504D01*
X190000Y271900D02*
X188976Y272796D01*
X114300Y842772D02*
X91440Y865632D01*
X114300Y774192D02*
X176784Y711708D01*
X176784Y697992D01*
X225552Y649224D01*
X225552Y473964D01*
X164592Y413004D01*
X138684Y413004D01*
X131064Y420624D01*
X91440Y865632D02*
X91300Y866300D01*
X130000Y421900D02*
X131064Y420624D01*
D21*
X832104Y935736D03*
X762000Y1013460D03*
X324612Y1048512D03*
X429768Y1101852D03*
X667512Y1066800D03*
X566928Y1167384D03*
X908304Y382524D03*
X266700Y222504D03*
X114300Y842772D03*
X114300Y774192D03*
D20*
X306324Y42672D02*
X313944Y42672D01*
X323088Y33528D01*
X397764Y33528D01*
X541020Y176784D01*
X699516Y615696D02*
X711708Y615696D01*
X829056Y733044D01*
X861060Y733044D01*
X932688Y804672D01*
X950976Y804672D01*
X960120Y813816D01*
X306060Y43930D02*
X306324Y42672D01*
X960120Y813816D02*
X960530Y813920D01*
D21*
X541020Y176784D03*
X699516Y615696D03*
D20*
X265176Y44196D02*
X259080Y44196D01*
X243840Y59436D01*
X242316Y59436D01*
X236220Y65532D01*
X236220Y73152D01*
X220980Y88392D01*
X344424Y589788D02*
X353568Y589788D01*
X373380Y609600D01*
X710184Y609600D01*
X830580Y729996D01*
X909828Y729996D01*
X970788Y790956D01*
X970788Y844296D01*
X961644Y853440D01*
X266060Y43930D02*
X265176Y44196D01*
X960530Y853920D02*
X961644Y853440D01*
D21*
X220980Y88392D03*
X344424Y589788D03*
D20*
X766572Y1156716D02*
X772668Y1156716D01*
X766572Y1156716D02*
X740664Y1182624D01*
X486156Y1182624D01*
X452628Y1149096D01*
X772668Y1156716D02*
X773810Y1156350D01*
X452628Y1149096D02*
X451500Y1148600D01*
X185928Y280416D02*
X178308Y280416D01*
X185928Y280416D02*
X187452Y281940D01*
X193548Y281940D01*
X199644Y275844D01*
X199644Y262128D02*
X199644Y254508D01*
X199644Y262128D02*
X199644Y275844D01*
X199644Y254508D02*
X202692Y251460D01*
X381000Y251460D01*
X391668Y262128D01*
X405384Y262128D01*
X425196Y281940D01*
X499872Y281940D01*
X509016Y272796D01*
X510000Y271900D01*
X403860Y48768D02*
X394716Y48768D01*
X384048Y59436D01*
X361188Y59436D01*
X356616Y64008D01*
X356616Y155448D01*
X266700Y245364D01*
X184404Y245364D01*
X169164Y260604D01*
X169164Y266700D01*
X172212Y269748D01*
X178308Y269748D01*
X185928Y262128D01*
X199644Y262128D01*
X955548Y518160D02*
X955548Y522732D01*
X955548Y518160D02*
X946404Y509016D01*
X946404Y425196D01*
X943356Y422148D01*
X943356Y289560D01*
X949452Y283464D01*
X957072Y283464D01*
X966216Y274320D01*
X966216Y263652D01*
X955548Y522732D02*
X955700Y524000D01*
X694944Y964692D02*
X694944Y970788D01*
X694944Y964692D02*
X720852Y938784D01*
D21*
X178308Y280416D03*
X403860Y48768D03*
X966216Y263652D03*
X694944Y970788D03*
X720852Y938784D03*
D20*
X595884Y39624D02*
X589788Y39624D01*
X595884Y39624D02*
X605028Y48768D01*
X632460Y48768D01*
X638556Y42672D01*
X638556Y36576D01*
X646176Y28956D01*
X652272Y28956D01*
X658368Y35052D01*
X658368Y42672D01*
X670560Y54864D01*
X673608Y54864D01*
X679704Y60960D01*
X679704Y68580D01*
X734568Y123444D01*
X932688Y123444D01*
X943356Y134112D01*
X943356Y137160D01*
X949452Y143256D01*
X957072Y143256D01*
X966216Y152400D01*
X966216Y220980D01*
X954024Y233172D01*
X589788Y39624D02*
X588800Y39400D01*
X953500Y233700D02*
X954024Y233172D01*
X957072Y536448D02*
X957072Y542544D01*
X957072Y536448D02*
X972312Y521208D01*
X972312Y441960D01*
X949452Y419100D01*
X957072Y542544D02*
X955700Y544000D01*
X60960Y344424D02*
X60960Y338328D01*
X60960Y344424D02*
X51816Y353568D01*
X51816Y422148D01*
X51816Y697992D02*
X76200Y722376D01*
X76200Y836676D01*
X67056Y845820D01*
X60960Y338328D02*
X61340Y337420D01*
X67056Y845820D02*
X66300Y846300D01*
X432816Y1149096D02*
X454152Y1170432D01*
X687324Y1173480D02*
X736092Y1173480D01*
X752856Y1156716D01*
X432816Y1149096D02*
X431500Y1148600D01*
X752856Y1156716D02*
X753810Y1156350D01*
X961644Y893064D02*
X961644Y886968D01*
X976884Y871728D01*
X976884Y769620D01*
X873252Y665988D01*
X771144Y665988D01*
X704088Y598932D01*
X960530Y893920D02*
X961644Y893064D01*
X688848Y944880D02*
X688848Y981456D01*
X688848Y944880D02*
X705612Y928116D01*
X705612Y787908D01*
X137160Y1147572D02*
X47244Y1057656D01*
X137160Y1147572D02*
X147828Y1147572D01*
X941832Y234696D02*
X952500Y234696D01*
X941832Y234696D02*
X932688Y243840D01*
X711708Y243840D01*
X670560Y284988D01*
X562356Y284988D01*
X550164Y272796D01*
X952500Y234696D02*
X953500Y233700D01*
X550164Y272796D02*
X550000Y271900D01*
D21*
X949452Y419100D03*
X51816Y422148D03*
X51816Y697992D03*
X454152Y1170432D03*
X687324Y1173480D03*
X704088Y598932D03*
X688848Y981456D03*
X705612Y787908D03*
X47244Y1057656D03*
X147828Y1147572D03*
D20*
X955548Y569976D02*
X955548Y565404D01*
X955548Y569976D02*
X946404Y579120D01*
X946404Y608076D01*
X952500Y614172D01*
X960120Y614172D01*
X966216Y620268D01*
X966216Y630936D01*
X955548Y565404D02*
X955700Y564000D01*
X740664Y1155192D02*
X734568Y1155192D01*
X740664Y1155192D02*
X749808Y1146048D01*
X777240Y1146048D01*
X783336Y1152144D01*
X783336Y1159764D01*
X789432Y1165860D01*
X858012Y1165860D01*
X864108Y1159764D01*
X864108Y984504D01*
X905256Y943356D01*
X734568Y1155192D02*
X733810Y1156350D01*
X41148Y1024128D02*
X41148Y851916D01*
X41148Y1024128D02*
X147828Y1130808D01*
X147828Y1138428D01*
X158496Y1149096D01*
X161544Y1149096D01*
X167640Y1155192D01*
X167640Y1162812D01*
X173736Y1168908D01*
X304800Y1168908D01*
X318516Y1155192D01*
X324612Y1155192D01*
X352044Y1182624D01*
X402336Y1182624D01*
X411480Y1173480D01*
X411480Y1149096D01*
X411500Y1148600D01*
X179832Y263652D02*
X175260Y263652D01*
X179832Y263652D02*
X195072Y248412D01*
X382524Y248412D01*
X390144Y256032D01*
X574548Y256032D01*
X589788Y271272D01*
X590000Y271900D01*
X600456Y38100D02*
X608076Y38100D01*
X600456Y38100D02*
X591312Y28956D01*
X585216Y28956D01*
X579120Y35052D01*
X579120Y42672D01*
X591312Y54864D01*
X592836Y54864D01*
X598932Y60960D01*
X598932Y79248D01*
X627888Y108204D01*
X574548Y224028D02*
X574548Y256032D01*
X574548Y224028D02*
X574548Y211836D01*
X608800Y39400D02*
X608076Y38100D01*
X574548Y224028D02*
X915924Y224028D01*
X41148Y783336D02*
X41148Y851916D01*
X41148Y783336D02*
X24384Y766572D01*
X24384Y416052D01*
X42672Y397764D02*
X42672Y336804D01*
X60960Y318516D01*
X61340Y317420D01*
X882396Y539496D02*
X917448Y574548D01*
D21*
X966216Y630936D03*
X905256Y943356D03*
X41148Y851916D03*
X175260Y263652D03*
X627888Y108204D03*
X574548Y211836D03*
X915924Y224028D03*
X24384Y416052D03*
X42672Y397764D03*
X917448Y574548D03*
X882396Y539496D03*
D20*
X65532Y807720D02*
X65532Y813816D01*
X56388Y822960D01*
X56388Y929640D01*
X62484Y935736D01*
X70104Y935736D01*
X80772Y946404D01*
X80772Y949452D01*
X161544Y1030224D01*
X65532Y807720D02*
X66300Y806300D01*
X629412Y38100D02*
X632460Y38100D01*
X644652Y25908D01*
X669036Y25908D01*
X679704Y36576D01*
X679704Y44196D01*
X687324Y51816D01*
X716280Y51816D01*
X722376Y57912D02*
X784860Y120396D01*
X722376Y57912D02*
X716280Y51816D01*
X784860Y120396D02*
X954024Y120396D01*
X972312Y138684D01*
X972312Y251460D01*
X628800Y39400D02*
X629412Y38100D01*
X957072Y576072D02*
X957072Y583692D01*
X957072Y576072D02*
X984504Y548640D01*
X984504Y390144D01*
X963168Y368808D01*
X957072Y583692D02*
X955700Y584000D01*
X856488Y1171956D02*
X842772Y1171956D01*
X856488Y1171956D02*
X947928Y1080516D01*
X947928Y946404D01*
X960120Y934212D01*
X960530Y933920D01*
X65532Y806196D02*
X65532Y798576D01*
X42672Y775716D01*
X42672Y431292D01*
X42672Y406908D02*
X36576Y400812D01*
X36576Y338328D01*
X51816Y323088D01*
X51816Y307848D01*
X60960Y298704D01*
X65532Y806196D02*
X66300Y806300D01*
X60960Y298704D02*
X61340Y297420D01*
D21*
X161544Y1030224D03*
X972312Y251460D03*
X963168Y368808D03*
X842772Y1171956D03*
X722376Y57912D03*
X42672Y431292D03*
X42672Y406908D03*
D20*
X56388Y277368D02*
X60960Y277368D01*
X56388Y277368D02*
X44196Y265176D01*
X82296Y646176D02*
X82296Y650748D01*
X45720Y687324D01*
X45720Y765048D01*
X51816Y771144D02*
X65532Y784860D01*
X51816Y771144D02*
X45720Y765048D01*
X61340Y277420D02*
X60960Y277368D01*
X65532Y784860D02*
X66300Y786300D01*
X371856Y1149096D02*
X399288Y1176528D01*
X557784Y1176528D02*
X673608Y1176528D01*
X693420Y1156716D01*
X371856Y1149096D02*
X371500Y1148600D01*
X693420Y1156716D02*
X693810Y1156350D01*
X649224Y51816D02*
X649224Y39624D01*
X649224Y51816D02*
X658368Y60960D01*
X658368Y131064D01*
X649224Y39624D02*
X648800Y39400D01*
X885444Y601980D02*
X885444Y606552D01*
X885444Y601980D02*
X870204Y586740D01*
X870204Y579120D01*
X858012Y566928D01*
X856488Y566928D01*
X819912Y530352D01*
X819912Y495300D01*
X746760Y422148D01*
X710184Y422148D01*
X710000Y421900D01*
X714756Y230124D02*
X856488Y230124D01*
X714756Y230124D02*
X673608Y271272D01*
X670560Y271272D01*
X670000Y271900D01*
X961644Y946404D02*
X961644Y952500D01*
X961644Y946404D02*
X970788Y937260D01*
X970788Y931164D01*
X963168Y923544D01*
X957072Y923544D01*
X944880Y935736D01*
X944880Y938784D01*
X940308Y943356D01*
X931164Y943356D01*
X925068Y937260D01*
X925068Y890016D01*
X931164Y883920D01*
X938784Y883920D01*
X950976Y871728D01*
X950976Y870204D01*
X957072Y864108D01*
X964692Y864108D01*
X973836Y854964D01*
X973836Y775716D01*
X964692Y766572D01*
X961644Y952500D02*
X960530Y953920D01*
X906780Y1008888D02*
X896112Y1008888D01*
X906780Y1008888D02*
X931164Y984504D01*
X938784Y984504D01*
X944880Y978408D01*
X944880Y947928D01*
X940308Y943356D01*
X51816Y771144D02*
X50292Y772668D01*
D21*
X44196Y265176D03*
X82296Y646176D03*
X399288Y1176528D03*
X557784Y1176528D03*
X658368Y131064D03*
X885444Y606552D03*
X856488Y230124D03*
X964692Y766572D03*
X896112Y1008888D03*
X50292Y772668D03*
D20*
X230124Y912876D02*
X230124Y931164D01*
X684276Y54864D02*
X669036Y39624D01*
X684276Y54864D02*
X693420Y54864D01*
X699516Y60960D01*
X699516Y79248D01*
X669036Y39624D02*
X668800Y39400D01*
X955548Y624840D02*
X955548Y630936D01*
X946404Y640080D01*
X946404Y729996D01*
X982980Y766572D01*
X982980Y952500D01*
X961644Y973836D01*
X955548Y624840D02*
X955700Y624000D01*
X961644Y973836D02*
X960530Y973920D01*
X854964Y1178052D02*
X835152Y1178052D01*
X854964Y1178052D02*
X950976Y1082040D01*
X950976Y984504D01*
X960120Y975360D01*
X960530Y973920D01*
X975360Y537972D02*
X975360Y481584D01*
X975360Y435864D01*
X975360Y537972D02*
X958596Y554736D01*
X950976Y554736D01*
X946404Y559308D01*
X946404Y574548D01*
X943356Y577596D01*
X943356Y611124D01*
X955548Y623316D01*
X955700Y624000D01*
X975360Y481584D02*
X978408Y481584D01*
X705612Y749808D02*
X268224Y749808D01*
X705612Y749808D02*
X733044Y722376D01*
D21*
X230124Y931164D03*
X230124Y912876D03*
X699516Y79248D03*
X835152Y1178052D03*
X975360Y435864D03*
X978408Y481584D03*
X268224Y749808D03*
X733044Y722376D03*
D20*
X592836Y1161288D02*
X515112Y1161288D01*
X592836Y1161288D02*
X597408Y1165860D01*
X624840Y1165860D02*
X644652Y1165860D01*
X624840Y1165860D02*
X597408Y1165860D01*
X644652Y1165860D02*
X653796Y1156716D01*
X653810Y1156350D01*
X688848Y39624D02*
X694944Y39624D01*
X704088Y48768D01*
X722376Y48768D01*
X754380Y80772D01*
X688848Y39624D02*
X688800Y39400D01*
X897636Y609600D02*
X897636Y614172D01*
X897636Y609600D02*
X873252Y585216D01*
X873252Y484632D01*
X810768Y422148D01*
X810000Y421900D01*
X954024Y332232D02*
X954024Y327660D01*
X972312Y309372D01*
X972312Y260604D01*
X969264Y257556D01*
X963168Y257556D01*
X957072Y263652D01*
X795528Y263652D01*
X794004Y262128D01*
X760476Y262128D01*
X751332Y271272D01*
X953500Y333700D02*
X954024Y332232D01*
X751332Y271272D02*
X750000Y271900D01*
X961644Y986028D02*
X961644Y993648D01*
X961644Y986028D02*
X986028Y961644D01*
X986028Y665988D01*
X972312Y652272D01*
X961644Y993648D02*
X960530Y993920D01*
X624840Y1165860D02*
X624840Y1170432D01*
X312420Y1138428D02*
X298704Y1124712D01*
X312420Y1138428D02*
X321564Y1138428D01*
X330708Y1147572D01*
X331500Y1148600D01*
D21*
X515112Y1161288D03*
X754380Y80772D03*
X897636Y614172D03*
X972312Y652272D03*
X624840Y1170432D03*
X298704Y1124712D03*
D20*
X957072Y662940D02*
X957072Y656844D01*
X987552Y626364D01*
X987552Y384048D01*
X958596Y355092D01*
X954024Y355092D01*
X957072Y662940D02*
X955700Y664000D01*
X954024Y355092D02*
X953500Y353700D01*
X722376Y39624D02*
X710184Y39624D01*
X722376Y39624D02*
X787908Y105156D01*
X787908Y114300D01*
X710184Y39624D02*
X708800Y39400D01*
X914400Y367284D02*
X932688Y367284D01*
X914400Y367284D02*
X861060Y420624D01*
X860000Y421900D01*
X326136Y1161288D02*
X321564Y1161288D01*
X326136Y1161288D02*
X350520Y1185672D01*
X473964Y1185672D02*
X851916Y1185672D01*
X473964Y1185672D02*
X350520Y1185672D01*
X851916Y1185672D02*
X960120Y1077468D01*
X960120Y1014984D01*
X960530Y1013920D01*
X632460Y1156716D02*
X597408Y1156716D01*
X473964Y1179576D02*
X473964Y1185672D01*
X632460Y1156716D02*
X633810Y1156350D01*
X701040Y38100D02*
X708660Y38100D01*
X701040Y38100D02*
X678180Y15240D01*
X172212Y15240D01*
X166116Y21336D01*
X708660Y38100D02*
X708800Y39400D01*
D21*
X787908Y114300D03*
X932688Y367284D03*
X321564Y1161288D03*
X597408Y1156716D03*
X473964Y1179576D03*
X166116Y21336D03*
D20*
X957072Y496824D02*
X957072Y502920D01*
X957072Y496824D02*
X966216Y487680D01*
X966216Y449580D01*
X957072Y502920D02*
X955700Y504000D01*
D21*
X966216Y449580D03*
D20*
X960120Y833628D02*
X949452Y833628D01*
X940308Y824484D01*
X883920Y824484D01*
X841248Y781812D01*
X711708Y781812D02*
X702564Y781812D01*
X711708Y781812D02*
X841248Y781812D01*
X702564Y781812D02*
X699516Y784860D01*
X699516Y929640D01*
X670560Y958596D01*
X960120Y833628D02*
X960530Y833920D01*
X670560Y958596D02*
X670000Y960000D01*
X510540Y21336D02*
X175260Y21336D01*
X510540Y21336D02*
X527304Y38100D01*
X528800Y39400D01*
X952500Y166116D02*
X952500Y172212D01*
X952500Y166116D02*
X938784Y152400D01*
X938784Y150876D01*
X931164Y143256D01*
X653796Y143256D01*
X650748Y140208D02*
X579120Y68580D01*
X650748Y140208D02*
X653796Y143256D01*
X579120Y68580D02*
X579120Y60960D01*
X566928Y48768D01*
X563880Y48768D01*
X559308Y44196D01*
X559308Y36576D01*
X551688Y28956D01*
X537972Y28956D01*
X528828Y38100D01*
X952500Y172212D02*
X953500Y173700D01*
X528800Y39400D02*
X528828Y38100D01*
X711708Y780288D02*
X711708Y781812D01*
X650748Y140208D02*
X652272Y138684D01*
D21*
X175260Y21336D03*
X711708Y780288D03*
X652272Y138684D03*
D20*
X425196Y70104D02*
X387096Y70104D01*
X425196Y70104D02*
X539496Y184404D01*
X943356Y184404D01*
X952500Y193548D01*
X387096Y70104D02*
X386060Y68930D01*
X952500Y193548D02*
X953500Y193700D01*
X373380Y70104D02*
X367284Y70104D01*
X373380Y70104D02*
X464820Y161544D01*
X512064Y161544D01*
X544068Y193548D01*
X928116Y193548D01*
X367284Y70104D02*
X366060Y68930D01*
X928116Y193548D02*
X928500Y193700D01*
X111252Y297180D02*
X86868Y297180D01*
X111252Y297180D02*
X338328Y70104D01*
X345948Y70104D01*
X86868Y297180D02*
X86340Y297420D01*
X345948Y70104D02*
X346060Y68930D01*
X89916Y879348D02*
X89916Y885444D01*
X89916Y879348D02*
X80772Y870204D01*
X80772Y656844D01*
X88392Y649224D01*
X88392Y467868D01*
X33528Y413004D01*
X33528Y332232D01*
X32004Y330708D01*
X32004Y164592D01*
X166116Y30480D01*
X286512Y30480D01*
X295656Y39624D01*
X295656Y47244D01*
X307848Y59436D01*
X315468Y59436D01*
X324612Y68580D01*
X89916Y885444D02*
X91300Y886300D01*
X324612Y68580D02*
X326060Y68930D01*
X77724Y886968D02*
X67056Y886968D01*
X77724Y886968D02*
X86868Y896112D01*
X94488Y896112D01*
X126492Y864108D01*
X126492Y752856D02*
X126492Y739140D01*
X219456Y646176D01*
X66300Y886300D02*
X67056Y886968D01*
D21*
X126492Y864108D03*
X126492Y752856D03*
X219456Y646176D03*
D20*
X539496Y906780D02*
X539496Y1002792D01*
X664464Y1127760D01*
X664464Y1135380D01*
X670560Y1141476D01*
X705612Y1141476D01*
D21*
X539496Y906780D03*
X705612Y1141476D03*
D20*
X205740Y42672D02*
X198120Y42672D01*
X188976Y33528D01*
X182880Y33528D01*
X175260Y41148D01*
X175260Y48768D01*
X164592Y59436D01*
X161544Y59436D01*
X73152Y147828D01*
X73152Y448056D01*
X94488Y469392D01*
X94488Y711708D01*
X97536Y714756D01*
X206060Y43930D02*
X205740Y42672D01*
D21*
X97536Y714756D03*
D20*
X164592Y51816D02*
X164592Y44196D01*
X164592Y51816D02*
X38100Y178308D01*
X38100Y327660D01*
X182880Y704088D02*
X182880Y806196D01*
X164592Y44196D02*
X166060Y43930D01*
D21*
X38100Y327660D03*
X182880Y704088D03*
X182880Y806196D03*
D20*
X630936Y1019556D02*
X688848Y1019556D01*
X630936Y1019556D02*
X620268Y1008888D01*
X688848Y1019556D02*
X690000Y1020000D01*
X620268Y1008888D02*
X620000Y1008100D01*
X769620Y944880D02*
X769620Y795528D01*
X769620Y944880D02*
X694944Y1019556D01*
X690372Y1019556D01*
X769620Y795528D02*
X770000Y795000D01*
X690372Y1019556D02*
X690000Y1020000D01*
X845820Y1155192D02*
X853440Y1155192D01*
X845820Y1155192D02*
X832104Y1141476D01*
X810768Y1141476D01*
X803148Y1133856D01*
X803148Y1126236D01*
X725424Y1048512D01*
X717804Y1048512D01*
X690372Y1021080D01*
X853440Y1155192D02*
X853810Y1156350D01*
X690372Y1021080D02*
X690000Y1020000D01*
X810768Y556260D02*
X810768Y498348D01*
X810000Y498100D01*
X810768Y556260D02*
X810000Y557300D01*
X760476Y556260D02*
X760476Y498348D01*
X760000Y498100D01*
X760476Y556260D02*
X760000Y557300D01*
X710184Y556260D02*
X710184Y498348D01*
X710000Y498100D01*
X710184Y556260D02*
X710000Y557300D01*
X659892Y556260D02*
X659892Y498348D01*
X660000Y498100D01*
X659892Y556260D02*
X660000Y557300D01*
X609600Y556260D02*
X609600Y498348D01*
X610000Y498100D01*
X609600Y556260D02*
X610000Y557300D01*
X560832Y556260D02*
X560832Y498348D01*
X560000Y498100D01*
X560832Y556260D02*
X560000Y557300D01*
X510540Y556260D02*
X510540Y498348D01*
X510000Y498100D01*
X510540Y556260D02*
X510000Y557300D01*
X460248Y556260D02*
X460248Y498348D01*
X460000Y498100D01*
X460248Y556260D02*
X460000Y557300D01*
X409956Y556260D02*
X409956Y498348D01*
X410000Y498100D01*
X409956Y556260D02*
X410000Y557300D01*
X359664Y556260D02*
X359664Y498348D01*
X360000Y498100D01*
X359664Y556260D02*
X360000Y557300D01*
X310896Y556260D02*
X310896Y498348D01*
X310000Y498100D01*
X310896Y556260D02*
X310000Y557300D01*
X260604Y556260D02*
X260604Y498348D01*
X260000Y498100D01*
X260604Y556260D02*
X260000Y557300D01*
X210312Y556260D02*
X210312Y498348D01*
X210000Y498100D01*
X210312Y556260D02*
X210000Y557300D01*
X160020Y556260D02*
X160020Y498348D01*
X160000Y498100D01*
X160020Y556260D02*
X160000Y557300D01*
X111252Y556260D02*
X111252Y516636D01*
X129540Y498348D01*
X111252Y556260D02*
X110000Y557300D01*
X129540Y498348D02*
X130000Y498100D01*
X859536Y498348D02*
X859536Y556260D01*
X859536Y498348D02*
X860000Y498100D01*
X859536Y556260D02*
X860000Y557300D01*
X749808Y745236D02*
X743712Y745236D01*
X717804Y771144D01*
X665988Y771144D01*
X505968Y931164D01*
X505968Y1118616D01*
X510540Y1123188D01*
X749808Y745236D02*
X750000Y745000D01*
X511500Y1123600D02*
X510540Y1123188D01*
X222504Y880872D02*
X214884Y880872D01*
X222504Y880872D02*
X234696Y893064D01*
X265176Y893064D01*
X405384Y752856D01*
X708660Y752856D01*
X725424Y736092D01*
X856488Y736092D01*
X934212Y813816D01*
X214884Y880872D02*
X213800Y880300D01*
X934212Y813816D02*
X935530Y813920D01*
X237744Y879348D02*
X237744Y475488D01*
X89916Y327660D01*
X82296Y327660D01*
X76200Y321564D01*
X76200Y172212D01*
X176784Y71628D01*
X176784Y53340D01*
X185928Y44196D01*
X237744Y879348D02*
X239200Y880300D01*
X185928Y44196D02*
X186060Y43930D01*
X313944Y649224D02*
X313944Y699516D01*
D21*
X313944Y699516D03*
X313944Y649224D03*
D20*
X315468Y960120D02*
X329184Y960120D01*
X338328Y969264D01*
X344424Y969264D01*
X353568Y960120D01*
X353568Y954024D01*
X391668Y915924D01*
X315400Y959700D02*
X315468Y960120D01*
D21*
X391668Y915924D03*
D20*
X341376Y880872D02*
X341376Y958596D01*
X341376Y880872D02*
X340800Y880300D01*
X341376Y958596D02*
X340800Y959700D01*
M02*
