G04 EAGLE Gerber RS-274X export*
G75*
%MOMM*%
%FSLAX34Y34*%
%LPD*%
%INBottom Copper*%
%IPPOS*%
%AMOC8*
5,1,8,0,0,1.08239X$1,22.5*%
G01*
%ADD10C,1.381000*%
%ADD11C,1.358000*%
%ADD12R,1.358000X1.358000*%
%ADD13P,1.429621X8X292.500000*%
%ADD14P,1.429621X8X112.500000*%
%ADD15C,2.010000*%
%ADD16C,1.308000*%
%ADD17R,1.238000X1.238000*%
%ADD18C,1.238000*%
%ADD19C,1.320800*%
%ADD20C,0.152400*%
%ADD21C,0.756400*%


D10*
X953500Y353700D03*
X928500Y353700D03*
X953500Y333700D03*
X928500Y333700D03*
X953500Y313700D03*
X928500Y313700D03*
X953500Y293700D03*
X928500Y293700D03*
X953500Y273700D03*
X928500Y273700D03*
X953500Y253700D03*
X928500Y253700D03*
X953500Y233700D03*
X928500Y233700D03*
X953500Y213700D03*
X928500Y213700D03*
X953500Y193700D03*
X928500Y193700D03*
X953500Y173700D03*
X928500Y173700D03*
X953500Y153700D03*
X928500Y153700D03*
X953500Y133700D03*
X928500Y133700D03*
D11*
X708800Y39400D03*
X708800Y64400D03*
X688800Y39400D03*
X688800Y64400D03*
X668800Y39400D03*
X668800Y64400D03*
X648800Y39400D03*
X648800Y64400D03*
X628800Y39400D03*
X628800Y64400D03*
X608800Y39400D03*
X608800Y64400D03*
X588800Y39400D03*
X588800Y64400D03*
X568800Y39400D03*
X568800Y64400D03*
X548800Y39400D03*
X548800Y64400D03*
X528800Y39400D03*
X528800Y64400D03*
D12*
X137400Y1158800D03*
D11*
X137400Y1133800D03*
X157400Y1158800D03*
X157400Y1133800D03*
X177400Y1158800D03*
X177400Y1133800D03*
X197400Y1158800D03*
X197400Y1133800D03*
D10*
X960530Y1013920D03*
X935530Y1013920D03*
X960530Y993920D03*
X935530Y993920D03*
X960530Y973920D03*
X935530Y973920D03*
X960530Y953920D03*
X935530Y953920D03*
X960530Y933920D03*
X935530Y933920D03*
X960530Y913920D03*
X935530Y913920D03*
X960530Y893920D03*
X935530Y893920D03*
X960530Y873920D03*
X935530Y873920D03*
X960530Y853920D03*
X935530Y853920D03*
X960530Y833920D03*
X935530Y833920D03*
X960530Y813920D03*
X935530Y813920D03*
X960530Y793920D03*
X935530Y793920D03*
D11*
X955700Y664000D03*
X930700Y664000D03*
X955700Y644000D03*
X930700Y644000D03*
X955700Y624000D03*
X930700Y624000D03*
X955700Y604000D03*
X930700Y604000D03*
X955700Y584000D03*
X930700Y584000D03*
X955700Y564000D03*
X930700Y564000D03*
X955700Y544000D03*
X930700Y544000D03*
X955700Y524000D03*
X930700Y524000D03*
X955700Y504000D03*
X930700Y504000D03*
X955700Y484000D03*
X930700Y484000D03*
D12*
X61340Y217420D03*
D11*
X86340Y217420D03*
X61340Y237420D03*
X86340Y237420D03*
X61340Y257420D03*
X86340Y257420D03*
X61340Y277420D03*
X86340Y277420D03*
X61340Y297420D03*
X86340Y297420D03*
X61340Y317420D03*
X86340Y317420D03*
X61340Y337420D03*
X86340Y337420D03*
X61340Y357420D03*
X86340Y357420D03*
X61340Y377420D03*
X86340Y377420D03*
D10*
X386060Y43930D03*
X386060Y68930D03*
X366060Y43930D03*
X366060Y68930D03*
X346060Y43930D03*
X346060Y68930D03*
X326060Y43930D03*
X326060Y68930D03*
X306060Y43930D03*
X306060Y68930D03*
X286060Y43930D03*
X286060Y68930D03*
X266060Y43930D03*
X266060Y68930D03*
X246060Y43930D03*
X246060Y68930D03*
X226060Y43930D03*
X226060Y68930D03*
X206060Y43930D03*
X206060Y68930D03*
X186060Y43930D03*
X186060Y68930D03*
X166060Y43930D03*
X166060Y68930D03*
X311500Y1148600D03*
X311500Y1123600D03*
X331500Y1148600D03*
X331500Y1123600D03*
X351500Y1148600D03*
X351500Y1123600D03*
X371500Y1148600D03*
X371500Y1123600D03*
X391500Y1148600D03*
X391500Y1123600D03*
X411500Y1148600D03*
X411500Y1123600D03*
X431500Y1148600D03*
X431500Y1123600D03*
X451500Y1148600D03*
X451500Y1123600D03*
X471500Y1148600D03*
X471500Y1123600D03*
X491500Y1148600D03*
X491500Y1123600D03*
X511500Y1148600D03*
X511500Y1123600D03*
X531500Y1148600D03*
X531500Y1123600D03*
X66300Y726300D03*
X91300Y726300D03*
X66300Y746300D03*
X91300Y746300D03*
X66300Y766300D03*
X91300Y766300D03*
X66300Y786300D03*
X91300Y786300D03*
X66300Y806300D03*
X91300Y806300D03*
X66300Y826300D03*
X91300Y826300D03*
X66300Y846300D03*
X91300Y846300D03*
X66300Y866300D03*
X91300Y866300D03*
X66300Y886300D03*
X91300Y886300D03*
X66300Y906300D03*
X91300Y906300D03*
X66300Y926300D03*
X91300Y926300D03*
X66300Y946300D03*
X91300Y946300D03*
X633810Y1156350D03*
X633810Y1131350D03*
X653810Y1156350D03*
X653810Y1131350D03*
X673810Y1156350D03*
X673810Y1131350D03*
X693810Y1156350D03*
X693810Y1131350D03*
X713810Y1156350D03*
X713810Y1131350D03*
X733810Y1156350D03*
X733810Y1131350D03*
X753810Y1156350D03*
X753810Y1131350D03*
X773810Y1156350D03*
X773810Y1131350D03*
X793810Y1156350D03*
X793810Y1131350D03*
X813810Y1156350D03*
X813810Y1131350D03*
X833810Y1156350D03*
X833810Y1131350D03*
X853810Y1156350D03*
X853810Y1131350D03*
D13*
X810000Y498100D03*
X810000Y421900D03*
X760000Y498100D03*
X760000Y421900D03*
X710000Y498100D03*
X710000Y421900D03*
X660000Y498100D03*
X660000Y421900D03*
X610000Y498100D03*
X610000Y421900D03*
X560000Y498100D03*
X560000Y421900D03*
X510000Y498100D03*
X510000Y421900D03*
X460000Y498100D03*
X460000Y421900D03*
X410000Y498100D03*
X410000Y421900D03*
X360000Y498100D03*
X360000Y421900D03*
X310000Y498100D03*
X310000Y421900D03*
X260000Y498100D03*
X260000Y421900D03*
X210000Y498100D03*
X210000Y421900D03*
X160000Y498100D03*
X160000Y421900D03*
X130000Y498100D03*
X130000Y421900D03*
X860000Y498100D03*
X860000Y421900D03*
D14*
X810000Y557300D03*
X810000Y582700D03*
X760000Y557300D03*
X760000Y582700D03*
X710000Y557300D03*
X710000Y582700D03*
X660000Y557300D03*
X660000Y582700D03*
X610000Y557300D03*
X610000Y582700D03*
X560000Y557300D03*
X560000Y582700D03*
X510000Y557300D03*
X510000Y582700D03*
X460000Y557300D03*
X460000Y582700D03*
X410000Y557300D03*
X410000Y582700D03*
X360000Y557300D03*
X360000Y582700D03*
X310000Y557300D03*
X310000Y582700D03*
X260000Y557300D03*
X260000Y582700D03*
X210000Y557300D03*
X210000Y582700D03*
X160000Y557300D03*
X160000Y582700D03*
X110000Y557300D03*
X110000Y582700D03*
X860000Y557300D03*
X860000Y582700D03*
D15*
X670000Y960000D03*
D16*
X690000Y1020000D03*
X690000Y900000D03*
X812000Y1020000D03*
X812000Y900000D03*
X730000Y745000D03*
X750000Y745000D03*
X770000Y745000D03*
X730000Y795000D03*
X750000Y795000D03*
X770000Y795000D03*
D13*
X790000Y348100D03*
X790000Y271900D03*
X750000Y348100D03*
X750000Y271900D03*
X710000Y348100D03*
X710000Y271900D03*
X670000Y348100D03*
X670000Y271900D03*
X630000Y348100D03*
X630000Y271900D03*
X590000Y348100D03*
X590000Y271900D03*
X550000Y348100D03*
X550000Y271900D03*
X510000Y348100D03*
X510000Y271900D03*
X470000Y348100D03*
X470000Y271900D03*
X430000Y348100D03*
X430000Y271900D03*
X390000Y348100D03*
X390000Y271900D03*
X350000Y348100D03*
X350000Y271900D03*
X310000Y348100D03*
X310000Y271900D03*
X270000Y348100D03*
X270000Y271900D03*
X230000Y348100D03*
X230000Y271900D03*
X190000Y348100D03*
X190000Y271900D03*
D17*
X213800Y880300D03*
D18*
X239200Y880300D03*
X264600Y880300D03*
X290000Y880300D03*
X315400Y880300D03*
X340800Y880300D03*
X366200Y880300D03*
X366200Y959700D03*
X340800Y959700D03*
X315400Y959700D03*
X290000Y959700D03*
X264600Y959700D03*
X239200Y959700D03*
X213800Y959700D03*
D19*
X620000Y1001496D02*
X620000Y1014704D01*
X620000Y938504D02*
X620000Y925296D01*
D20*
X202692Y958596D02*
X137160Y958596D01*
X202692Y958596D02*
X213360Y958596D01*
X137160Y958596D02*
X94488Y915924D01*
X76200Y915924D01*
X67056Y906780D01*
X213360Y958596D02*
X213800Y959700D01*
X67056Y906780D02*
X66300Y906300D01*
X138684Y1146048D02*
X138684Y1158240D01*
X138684Y1146048D02*
X147828Y1136904D01*
X147828Y1025652D01*
X202692Y970788D01*
X202692Y958596D01*
X138684Y1158240D02*
X137400Y1158800D01*
X731520Y775716D02*
X731520Y745236D01*
X731520Y775716D02*
X749808Y794004D01*
X731520Y745236D02*
X730000Y745000D01*
X749808Y794004D02*
X750000Y795000D01*
X810768Y854964D02*
X810768Y899160D01*
X810768Y854964D02*
X751332Y795528D01*
X810768Y899160D02*
X812000Y900000D01*
X751332Y795528D02*
X750000Y795000D01*
X957072Y492252D02*
X957072Y484632D01*
X957072Y492252D02*
X966216Y501396D01*
X966216Y507492D01*
X960120Y513588D01*
X952500Y513588D01*
X940308Y525780D01*
X940308Y527304D01*
X932688Y534924D01*
X926592Y534924D01*
X739140Y722376D01*
X739140Y736092D01*
X731520Y743712D01*
X955700Y484000D02*
X957072Y484632D01*
X731520Y743712D02*
X730000Y745000D01*
X813816Y1155192D02*
X821436Y1155192D01*
X835152Y1141476D01*
X838200Y1141476D01*
X844296Y1135380D01*
X844296Y1098804D01*
X778764Y1033272D01*
X778764Y986028D01*
X774192Y981456D01*
X813816Y1155192D02*
X813810Y1156350D01*
D21*
X774192Y981456D03*
D20*
X109728Y313944D02*
X86868Y336804D01*
X350520Y152400D02*
X461772Y152400D01*
X548640Y65532D01*
X86868Y336804D02*
X86340Y337420D01*
X548640Y65532D02*
X548800Y64400D01*
X941832Y153924D02*
X952500Y153924D01*
X941832Y153924D02*
X932688Y163068D01*
X858012Y163068D01*
X856488Y164592D01*
X952500Y153924D02*
X953500Y153700D01*
X158496Y1150620D02*
X158496Y1158240D01*
X158496Y1150620D02*
X167640Y1141476D01*
X158496Y1158240D02*
X157400Y1158800D01*
X512064Y1149096D02*
X524256Y1161288D01*
X551688Y1161288D01*
X656844Y1056132D01*
X512064Y1149096D02*
X511500Y1148600D01*
X877824Y827532D02*
X922020Y783336D01*
X740664Y1007364D02*
X740664Y1010412D01*
X740664Y1007364D02*
X697992Y964692D01*
X691896Y964692D01*
X656844Y999744D01*
X656844Y1056132D01*
X164592Y1159764D02*
X158496Y1159764D01*
X164592Y1159764D02*
X175260Y1170432D01*
X342900Y1170432D01*
X348996Y1164336D01*
X158496Y1159764D02*
X157400Y1158800D01*
X106680Y719328D02*
X106680Y714756D01*
X106680Y719328D02*
X161544Y774192D01*
X161544Y888492D01*
X164592Y891540D01*
D21*
X109728Y313944D03*
X350520Y152400D03*
X856488Y164592D03*
X167640Y1141476D03*
X656844Y1056132D03*
X922020Y783336D03*
X877824Y827532D03*
X740664Y1010412D03*
X348996Y1164336D03*
X106680Y714756D03*
X164592Y891540D03*
D20*
X771144Y745236D02*
X859536Y833628D01*
X934212Y833628D01*
X771144Y745236D02*
X770000Y745000D01*
X934212Y833628D02*
X935530Y833920D01*
X137160Y1030224D02*
X137160Y1132332D01*
X135636Y1028700D02*
X56388Y949452D01*
X135636Y1028700D02*
X137160Y1030224D01*
X56388Y949452D02*
X56388Y902208D01*
X62484Y896112D01*
X80772Y896112D01*
X89916Y905256D01*
X137160Y1132332D02*
X137400Y1133800D01*
X91300Y906300D02*
X89916Y905256D01*
X492252Y1124712D02*
X498348Y1124712D01*
X512064Y1138428D01*
X515112Y1138428D01*
X521208Y1144524D01*
X521208Y1152144D01*
X527304Y1158240D01*
X534924Y1158240D01*
X609600Y1083564D01*
X609600Y941832D01*
X618744Y932688D01*
X491500Y1123600D02*
X492252Y1124712D01*
X618744Y932688D02*
X620000Y931900D01*
X367284Y900684D02*
X367284Y880872D01*
X367284Y900684D02*
X408432Y941832D01*
X609600Y941832D01*
X367284Y880872D02*
X366200Y880300D01*
X196596Y967740D02*
X135636Y1028700D01*
X896112Y518160D02*
X929640Y484632D01*
X896112Y518160D02*
X896112Y547116D01*
X861060Y582168D01*
X929640Y484632D02*
X930700Y484000D01*
X861060Y582168D02*
X860000Y582700D01*
X309372Y348996D02*
X271272Y348996D01*
X270000Y348100D01*
X309372Y348996D02*
X310000Y348100D01*
X86868Y358140D02*
X86868Y364236D01*
X117348Y394716D01*
X117348Y426720D01*
X124968Y434340D01*
X150876Y434340D02*
X161544Y434340D01*
X150876Y434340D02*
X124968Y434340D01*
X161544Y434340D02*
X188976Y406908D01*
X188976Y348996D01*
X86868Y358140D02*
X86340Y357420D01*
X188976Y348996D02*
X190000Y348100D01*
X158496Y568452D02*
X158496Y582168D01*
X158496Y568452D02*
X150876Y560832D01*
X150876Y434340D01*
X158496Y582168D02*
X160000Y582700D01*
X780288Y338328D02*
X780288Y178308D01*
X780288Y338328D02*
X789432Y347472D01*
X790000Y348100D01*
X458724Y569976D02*
X458724Y582168D01*
X458724Y569976D02*
X437388Y548640D01*
X437388Y355092D01*
X431292Y348996D01*
X458724Y582168D02*
X460000Y582700D01*
X431292Y348996D02*
X430000Y348100D01*
X688848Y611124D02*
X688848Y899160D01*
X688848Y611124D02*
X661416Y583692D01*
X688848Y899160D02*
X690000Y900000D01*
X661416Y583692D02*
X660000Y582700D01*
D21*
X196596Y967740D03*
X780288Y178308D03*
D20*
X105156Y726948D02*
X91440Y726948D01*
X105156Y726948D02*
X120396Y742188D01*
X120396Y867156D01*
X160020Y906780D01*
X260604Y1072896D02*
X310896Y1123188D01*
X91440Y726948D02*
X91300Y726300D01*
X310896Y1123188D02*
X311500Y1123600D01*
X481584Y1110996D02*
X512064Y1110996D01*
X830580Y1014984D02*
X870204Y1014984D01*
X830580Y1014984D02*
X815340Y1030224D01*
X784860Y1030224D01*
X722376Y1042416D02*
X633984Y1130808D01*
X633810Y1131350D01*
X469392Y335280D02*
X469392Y272796D01*
X469392Y335280D02*
X460248Y344424D01*
X460248Y420624D01*
X469392Y272796D02*
X470000Y271900D01*
X460248Y420624D02*
X460000Y421900D01*
X205740Y216408D02*
X86868Y216408D01*
X316992Y185928D02*
X338328Y185928D01*
X414528Y262128D01*
X86868Y216408D02*
X86340Y217420D01*
X708660Y227076D02*
X708660Y74676D01*
X708660Y65532D01*
X708660Y227076D02*
X705612Y230124D01*
X708660Y65532D02*
X708800Y64400D01*
X608076Y566928D02*
X633984Y592836D01*
X608076Y566928D02*
X605028Y566928D01*
X460000Y421900D01*
X859536Y367284D02*
X859536Y362712D01*
X800100Y303276D01*
X800100Y117348D01*
X757428Y74676D01*
X708660Y74676D01*
X832104Y762000D02*
X832104Y787908D01*
X832104Y762000D02*
X929640Y664464D01*
X930700Y664000D01*
D21*
X160020Y906780D03*
X260604Y1072896D03*
X512064Y1110996D03*
X481584Y1110996D03*
X870204Y1014984D03*
X784860Y1030224D03*
X722376Y1042416D03*
X205740Y216408D03*
X316992Y185928D03*
X414528Y262128D03*
X705612Y230124D03*
X633984Y592836D03*
X859536Y367284D03*
X832104Y787908D03*
D20*
X89916Y754380D02*
X89916Y746760D01*
X89916Y754380D02*
X80772Y763524D01*
X80772Y848868D01*
X88392Y856488D01*
X96012Y856488D01*
X161544Y922020D01*
X239268Y922020D01*
X330708Y1013460D01*
X330708Y1123188D01*
X91300Y746300D02*
X89916Y746760D01*
X330708Y1123188D02*
X331500Y1123600D01*
X934212Y1001268D02*
X934212Y995172D01*
X915924Y1019556D02*
X867156Y1068324D01*
X915924Y1019556D02*
X934212Y1001268D01*
X867156Y1068324D02*
X867156Y1156716D01*
X839724Y1184148D01*
X647700Y1184148D01*
X620268Y1156716D01*
X620268Y1139952D01*
X934212Y995172D02*
X935530Y993920D01*
X429768Y335280D02*
X429768Y303276D01*
X429768Y272796D01*
X429768Y335280D02*
X411480Y353568D01*
X411480Y420624D01*
X429768Y272796D02*
X430000Y271900D01*
X411480Y420624D02*
X410000Y421900D01*
X681228Y65532D02*
X687324Y65532D01*
X681228Y65532D02*
X644652Y102108D01*
X614172Y102108D01*
X545592Y170688D01*
X531876Y170688D01*
X431292Y271272D01*
X687324Y65532D02*
X688800Y64400D01*
X431292Y271272D02*
X430000Y271900D01*
X233172Y248412D02*
X233172Y166116D01*
X233172Y248412D02*
X288036Y303276D01*
X429768Y303276D01*
X847344Y950976D02*
X915924Y1019556D01*
X847344Y950976D02*
X723900Y950976D01*
X434340Y661416D01*
X434340Y445008D01*
X411480Y422148D01*
X410000Y421900D01*
D21*
X620268Y1139952D03*
X233172Y166116D03*
D20*
X347472Y297180D02*
X364236Y297180D01*
X388620Y272796D01*
X390000Y271900D01*
X205740Y257556D02*
X199644Y257556D01*
X86868Y257556D01*
X86340Y257420D01*
X661416Y65532D02*
X667512Y65532D01*
X661416Y65532D02*
X627888Y99060D01*
X612648Y99060D01*
X544068Y167640D01*
X519684Y167640D01*
X437388Y249936D01*
X393192Y249936D02*
X393192Y268224D01*
X390144Y271272D01*
X667512Y65532D02*
X668800Y64400D01*
X390144Y271272D02*
X390000Y271900D01*
X199644Y257556D02*
X199644Y656844D01*
X918972Y362712D02*
X932688Y376428D01*
X918972Y362712D02*
X918972Y323088D01*
X928116Y313944D01*
X928500Y313700D01*
X352044Y1054608D02*
X352044Y1123188D01*
X352044Y1054608D02*
X364236Y1042416D01*
X499872Y1042416D02*
X588264Y1042416D01*
X352044Y1123188D02*
X351500Y1123600D01*
X787908Y986028D02*
X871728Y986028D01*
X787908Y986028D02*
X766572Y964692D01*
X731520Y964692D01*
X929640Y630936D02*
X929640Y624840D01*
X929640Y630936D02*
X822960Y737616D01*
X822960Y787908D01*
X929640Y624840D02*
X930700Y624000D01*
X361188Y486156D02*
X361188Y422148D01*
X361188Y486156D02*
X431292Y556260D01*
X431292Y664464D01*
X731520Y964692D01*
X361188Y422148D02*
X360000Y421900D01*
D21*
X347472Y297180D03*
X205740Y257556D03*
X437388Y249936D03*
X393192Y249936D03*
X199644Y656844D03*
X932688Y376428D03*
X364236Y1042416D03*
X499872Y1042416D03*
X588264Y1042416D03*
X871728Y986028D03*
X731520Y964692D03*
X822960Y787908D03*
D20*
X896112Y605028D02*
X929640Y605028D01*
X766572Y734568D02*
X760476Y740664D01*
X766572Y734568D02*
X896112Y605028D01*
X760476Y740664D02*
X760476Y768096D01*
X876300Y883920D02*
X888492Y896112D01*
X876300Y883920D02*
X760476Y768096D01*
X929640Y605028D02*
X930700Y604000D01*
X694944Y1089660D02*
X694944Y1130808D01*
X694944Y1089660D02*
X757428Y1027176D01*
X694944Y1130808D02*
X693810Y1131350D01*
X230124Y883920D02*
X230124Y871728D01*
X230124Y883920D02*
X262128Y915924D01*
X283464Y915924D01*
X318516Y950976D01*
X320040Y950976D01*
X329184Y960120D01*
X329184Y998220D01*
X370332Y1039368D01*
X370332Y1123188D01*
X371500Y1123600D01*
X338328Y297180D02*
X338328Y283464D01*
X348996Y272796D01*
X350000Y271900D01*
X166116Y278892D02*
X86868Y278892D01*
X86340Y277420D01*
X641604Y65532D02*
X647700Y65532D01*
X641604Y65532D02*
X542544Y164592D01*
X513588Y164592D01*
X420624Y257556D01*
X420624Y265176D01*
X403860Y281940D01*
X647700Y65532D02*
X648800Y64400D01*
X230124Y862584D02*
X230124Y871728D01*
X230124Y862584D02*
X176784Y809244D01*
X176784Y803148D01*
X213360Y766572D01*
X243840Y766572D01*
X254508Y755904D01*
X762000Y729996D02*
X766572Y734568D01*
D21*
X888492Y896112D03*
X757428Y1027176D03*
X876300Y883920D03*
X230124Y871728D03*
X338328Y297180D03*
X166116Y278892D03*
X403860Y281940D03*
X254508Y755904D03*
X762000Y729996D03*
D20*
X714756Y1109472D02*
X714756Y1130808D01*
X714756Y1109472D02*
X760476Y1063752D01*
X848868Y941832D02*
X897636Y941832D01*
X905256Y934212D01*
X934212Y934212D01*
X714756Y1130808D02*
X713810Y1131350D01*
X934212Y934212D02*
X935530Y933920D01*
X627888Y65532D02*
X621792Y65532D01*
X525780Y161544D01*
X499872Y161544D01*
X481584Y179832D01*
X313944Y179832D01*
X310896Y182880D01*
X310896Y271272D01*
X627888Y65532D02*
X628800Y64400D01*
X310896Y271272D02*
X310000Y271900D01*
X390144Y1042416D02*
X390144Y1123188D01*
X390144Y1042416D02*
X377952Y1030224D01*
X377952Y958596D02*
X309372Y890016D01*
X286512Y890016D01*
X268224Y871728D01*
X252984Y871728D01*
X390144Y1123188D02*
X391500Y1123600D01*
D21*
X760476Y1063752D03*
X848868Y941832D03*
X377952Y1030224D03*
X377952Y958596D03*
X252984Y871728D03*
D20*
X874776Y914400D02*
X934212Y914400D01*
X874776Y914400D02*
X854964Y934212D01*
X766572Y1080516D02*
X766572Y1098804D01*
X734568Y1130808D01*
X934212Y914400D02*
X935530Y913920D01*
X734568Y1130808D02*
X733810Y1131350D01*
X394716Y1037844D02*
X361188Y1004316D01*
X394716Y1037844D02*
X394716Y1106424D01*
X411480Y1123188D01*
X411500Y1123600D01*
X452628Y1024128D02*
X579120Y1024128D01*
X890016Y524256D02*
X890016Y464820D01*
X880872Y336804D02*
X880872Y301752D01*
X928116Y254508D01*
X928500Y253700D01*
X208788Y295656D02*
X208788Y420624D01*
X208788Y295656D02*
X205740Y292608D01*
X208788Y420624D02*
X210000Y421900D01*
X601980Y64008D02*
X608076Y64008D01*
X601980Y64008D02*
X592836Y54864D01*
X425196Y54864D01*
X260604Y219456D01*
X260604Y225552D01*
X271272Y236220D01*
X281940Y236220D01*
X284988Y239268D01*
X284988Y257556D01*
X281940Y260604D02*
X271272Y271272D01*
X281940Y260604D02*
X284988Y257556D01*
X608076Y64008D02*
X608800Y64400D01*
X271272Y271272D02*
X270000Y271900D01*
X306324Y284988D02*
X310896Y284988D01*
X306324Y284988D02*
X281940Y260604D01*
X717804Y711708D02*
X717804Y762000D01*
X717804Y711708D02*
X862584Y566928D01*
X864108Y566928D01*
X890016Y541020D01*
X890016Y524256D01*
D21*
X854964Y934212D03*
X766572Y1080516D03*
X361188Y1004316D03*
X579120Y1024128D03*
X452628Y1024128D03*
X890016Y524256D03*
X890016Y464820D03*
X880872Y336804D03*
X205740Y292608D03*
X310896Y284988D03*
X717804Y762000D03*
D20*
X486156Y167640D02*
X588264Y65532D01*
X486156Y167640D02*
X484632Y167640D01*
X588264Y65532D02*
X588800Y64400D01*
X871728Y291084D02*
X871728Y336804D01*
X871728Y291084D02*
X928116Y234696D01*
X928500Y233700D01*
X838200Y941832D02*
X763524Y941832D01*
X838200Y941832D02*
X868680Y911352D01*
X917448Y911352D01*
X934212Y894588D01*
X935530Y893920D01*
X184404Y335280D02*
X184404Y288036D01*
X184404Y335280D02*
X120396Y399288D01*
X120396Y425196D01*
X126492Y431292D01*
X149352Y431292D01*
X158496Y422148D01*
X160000Y421900D01*
X91440Y839724D02*
X91440Y845820D01*
X91440Y839724D02*
X102108Y829056D01*
X102108Y733044D01*
X91440Y845820D02*
X91300Y846300D01*
X431292Y1112520D02*
X431292Y1123188D01*
X431292Y1112520D02*
X397764Y1078992D01*
X397764Y1031748D01*
X361188Y995172D01*
X335280Y995172D01*
X166116Y915924D02*
X160020Y915924D01*
X91440Y847344D01*
X431292Y1123188D02*
X431500Y1123600D01*
X91440Y847344D02*
X91300Y846300D01*
X420624Y1018032D02*
X569976Y1018032D01*
X257556Y263652D02*
X278892Y242316D01*
D21*
X484632Y167640D03*
X871728Y336804D03*
X763524Y941832D03*
X184404Y288036D03*
X102108Y733044D03*
X335280Y995172D03*
X166116Y915924D03*
X569976Y1018032D03*
X420624Y1018032D03*
X397764Y1031748D03*
X278892Y242316D03*
X257556Y263652D03*
D20*
X918972Y874776D02*
X934212Y874776D01*
X918972Y874776D02*
X885444Y908304D01*
X859536Y908304D01*
X832104Y935736D01*
X762000Y1013460D02*
X762000Y1018032D01*
X772668Y1028700D01*
X772668Y1130808D01*
X934212Y874776D02*
X935530Y873920D01*
X773810Y1131350D02*
X772668Y1130808D01*
X102108Y867156D02*
X91440Y867156D01*
X102108Y867156D02*
X160020Y925068D01*
X233172Y925068D01*
X256032Y947928D01*
X256032Y979932D01*
X324612Y1048512D01*
X429768Y1101852D02*
X451104Y1123188D01*
X91440Y867156D02*
X91300Y866300D01*
X451104Y1123188D02*
X451500Y1123600D01*
X566928Y1167384D02*
X667512Y1066800D01*
X131064Y420624D02*
X131064Y393192D01*
X190500Y333756D01*
X190500Y272796D01*
X131064Y420624D02*
X130000Y421900D01*
X190500Y272796D02*
X190000Y271900D01*
X865632Y339852D02*
X908304Y382524D01*
X865632Y339852D02*
X865632Y265176D01*
X915924Y214884D01*
X928116Y214884D01*
X928500Y213700D01*
X330708Y158496D02*
X266700Y222504D01*
X330708Y158496D02*
X475488Y158496D01*
X568452Y65532D01*
X568800Y64400D01*
X114300Y774192D02*
X114300Y842772D01*
D21*
X832104Y935736D03*
X762000Y1013460D03*
X324612Y1048512D03*
X429768Y1101852D03*
X667512Y1066800D03*
X566928Y1167384D03*
X908304Y382524D03*
X266700Y222504D03*
X114300Y842772D03*
X114300Y774192D03*
D20*
X286512Y42672D02*
X294132Y42672D01*
X310896Y25908D01*
X717804Y25908D01*
X847344Y155448D01*
X847344Y341376D01*
X984504Y478536D01*
X984504Y755904D01*
X947928Y792480D01*
X947928Y841248D01*
X935736Y853440D01*
X286060Y43930D02*
X286512Y42672D01*
X935736Y853440D02*
X935530Y853920D01*
X272796Y880872D02*
X265176Y880872D01*
X272796Y880872D02*
X342900Y950976D01*
X344424Y950976D01*
X498348Y1104900D01*
X515112Y1104900D01*
X521208Y1110996D01*
X521208Y1138428D01*
X530352Y1147572D01*
X265176Y880872D02*
X264600Y880300D01*
X530352Y1147572D02*
X531500Y1148600D01*
X541020Y451104D02*
X541020Y176784D01*
X541020Y451104D02*
X699516Y609600D01*
X699516Y615696D01*
D21*
X541020Y176784D03*
X699516Y615696D03*
D20*
X220980Y92964D02*
X220980Y88392D01*
X220980Y92964D02*
X224028Y96012D01*
X224028Y252984D01*
X249936Y278892D01*
X249936Y473964D01*
X344424Y568452D01*
X344424Y589788D01*
D21*
X220980Y88392D03*
X344424Y589788D03*
D20*
X65532Y867156D02*
X65532Y873252D01*
X53340Y885444D01*
X53340Y1092708D01*
X137160Y1176528D01*
X390144Y1176528D01*
X405384Y1161288D01*
X438912Y1161288D01*
X451104Y1149096D01*
X66300Y866300D02*
X65532Y867156D01*
X451104Y1149096D02*
X451500Y1148600D01*
X510540Y335280D02*
X510540Y272796D01*
X510540Y335280D02*
X519684Y344424D01*
X519684Y411480D01*
X510540Y420624D01*
X510540Y272796D02*
X510000Y271900D01*
X510540Y420624D02*
X510000Y421900D01*
X73152Y356616D02*
X62484Y356616D01*
X73152Y356616D02*
X82296Y347472D01*
X111252Y347472D01*
X178308Y280416D01*
X62484Y356616D02*
X61340Y357420D01*
X562356Y39624D02*
X568452Y39624D01*
X562356Y39624D02*
X553212Y48768D01*
X403860Y48768D01*
X568452Y39624D02*
X568800Y39400D01*
X966216Y227076D02*
X966216Y263652D01*
X966216Y227076D02*
X954024Y214884D01*
X953500Y213700D01*
X961644Y874776D02*
X961644Y880872D01*
X970788Y890016D01*
X970788Y917448D01*
X964692Y923544D01*
X957072Y923544D01*
X947928Y932688D01*
X947928Y955548D01*
X940308Y963168D01*
X864108Y963168D01*
X848868Y947928D01*
X760476Y947928D01*
X757428Y944880D01*
X757428Y938784D01*
X786384Y909828D01*
X815340Y909828D01*
X821436Y903732D01*
X821436Y833628D01*
X740664Y752856D01*
X740664Y740664D01*
X928116Y553212D01*
X935736Y553212D01*
X946404Y542544D01*
X946404Y533400D01*
X955548Y524256D01*
X960530Y873920D02*
X961644Y874776D01*
X955548Y524256D02*
X955700Y524000D01*
X510540Y435864D02*
X510540Y422148D01*
X510540Y435864D02*
X650748Y576072D01*
X650748Y873252D01*
X716280Y938784D01*
X720852Y938784D02*
X757428Y938784D01*
X720852Y938784D02*
X716280Y938784D01*
X510540Y422148D02*
X510000Y421900D01*
X452628Y1149096D02*
X470916Y1167384D01*
X554736Y1167384D01*
X676656Y1045464D01*
X676656Y984504D01*
X690372Y970788D01*
X694944Y970788D01*
X452628Y1149096D02*
X451500Y1148600D01*
D21*
X178308Y280416D03*
X403860Y48768D03*
X966216Y263652D03*
X694944Y970788D03*
X720852Y938784D03*
D20*
X949452Y419100D02*
X949452Y414528D01*
X912876Y377952D01*
X912876Y275844D01*
X925068Y263652D01*
X932688Y263652D01*
X943356Y252984D01*
X943356Y243840D01*
X952500Y234696D01*
X953500Y233700D01*
X51816Y422148D02*
X51816Y697992D01*
X454152Y1170432D02*
X560832Y1170432D01*
X563880Y1173480D01*
X571500Y1173480D01*
X611124Y1133856D01*
X623316Y1133856D01*
X635508Y1146048D01*
X656844Y1146048D01*
X664464Y1153668D01*
X664464Y1161288D01*
X676656Y1173480D01*
X687324Y1173480D01*
X550164Y335280D02*
X550164Y272796D01*
X550164Y335280D02*
X559308Y344424D01*
X559308Y420624D01*
X550164Y272796D02*
X550000Y271900D01*
X559308Y420624D02*
X560000Y421900D01*
X704088Y594360D02*
X704088Y598932D01*
X704088Y594360D02*
X669036Y559308D01*
X669036Y530352D01*
X560832Y422148D01*
X560000Y421900D01*
X623316Y1120140D02*
X623316Y1133856D01*
X623316Y1120140D02*
X679704Y1063752D01*
X679704Y990600D01*
X688848Y981456D01*
X705612Y787908D02*
X705612Y600456D01*
X704088Y598932D01*
X65532Y847344D02*
X65532Y853440D01*
X47244Y871728D01*
X47244Y1057656D01*
X147828Y1147572D02*
X147828Y1162812D01*
X158496Y1173480D01*
X388620Y1173480D01*
X403860Y1158240D01*
X422148Y1158240D01*
X431292Y1149096D01*
X65532Y847344D02*
X66300Y846300D01*
X431500Y1148600D02*
X431292Y1149096D01*
D21*
X949452Y419100D03*
X51816Y422148D03*
X51816Y697992D03*
X454152Y1170432D03*
X687324Y1173480D03*
X704088Y598932D03*
X688848Y981456D03*
X705612Y787908D03*
X47244Y1057656D03*
X147828Y1147572D03*
D20*
X961644Y630936D02*
X966216Y630936D01*
X961644Y630936D02*
X958596Y633984D01*
X952500Y633984D01*
X944880Y641604D01*
X944880Y838200D01*
X938784Y844296D01*
X931164Y844296D01*
X925068Y850392D01*
X925068Y856488D01*
X932688Y864108D01*
X938784Y864108D01*
X950976Y876300D01*
X950976Y903732D01*
X960120Y912876D01*
X960530Y913920D01*
X940308Y943356D02*
X905256Y943356D01*
X940308Y943356D02*
X944880Y938784D01*
X944880Y929640D01*
X960120Y914400D01*
X960530Y913920D01*
X65532Y827532D02*
X41148Y851916D01*
X65532Y827532D02*
X66300Y826300D01*
X591312Y336804D02*
X591312Y272796D01*
X591312Y336804D02*
X609600Y355092D01*
X609600Y420624D01*
X591312Y272796D02*
X590000Y271900D01*
X609600Y420624D02*
X610000Y421900D01*
X73152Y316992D02*
X62484Y316992D01*
X73152Y316992D02*
X82296Y307848D01*
X146304Y307848D01*
X172212Y281940D01*
X172212Y266700D01*
X175260Y263652D01*
X62484Y316992D02*
X61340Y317420D01*
X627888Y158496D02*
X627888Y108204D01*
X627888Y158496D02*
X574548Y211836D01*
X954024Y246888D02*
X954024Y252984D01*
X954024Y246888D02*
X963168Y237744D01*
X963168Y230124D01*
X957072Y224028D01*
X915924Y224028D01*
X954024Y252984D02*
X953500Y253700D01*
X42672Y397764D02*
X24384Y416052D01*
X943356Y565404D02*
X955548Y565404D01*
X943356Y565404D02*
X934212Y574548D01*
X917448Y574548D01*
X882396Y539496D02*
X728472Y539496D01*
X611124Y422148D01*
X955700Y564000D02*
X955548Y565404D01*
X611124Y422148D02*
X610000Y421900D01*
D21*
X966216Y630936D03*
X905256Y943356D03*
X41148Y851916D03*
X175260Y263652D03*
X627888Y108204D03*
X574548Y211836D03*
X915924Y224028D03*
X24384Y416052D03*
X42672Y397764D03*
X917448Y574548D03*
X882396Y539496D03*
D20*
X179832Y1030224D02*
X161544Y1030224D01*
X179832Y1030224D02*
X316992Y1167384D01*
X336804Y1167384D01*
X345948Y1158240D01*
X381000Y1158240D01*
X390144Y1149096D01*
X391500Y1148600D01*
X630936Y335280D02*
X630936Y272796D01*
X630936Y335280D02*
X659892Y364236D01*
X659892Y420624D01*
X630936Y272796D02*
X630000Y271900D01*
X659892Y420624D02*
X660000Y421900D01*
X972312Y266700D02*
X972312Y251460D01*
X972312Y266700D02*
X966216Y272796D01*
X954024Y272796D01*
X953500Y273700D01*
X62484Y289560D02*
X62484Y297180D01*
X62484Y289560D02*
X76200Y275844D01*
X76200Y140208D01*
X163068Y53340D01*
X210312Y53340D01*
X216408Y47244D01*
X216408Y39624D01*
X222504Y33528D01*
X230124Y33528D01*
X236220Y39624D01*
X236220Y47244D01*
X242316Y53340D01*
X390144Y53340D01*
X414528Y28956D01*
X618744Y28956D01*
X627888Y38100D01*
X62484Y297180D02*
X61340Y297420D01*
X627888Y38100D02*
X628800Y39400D01*
X963168Y309372D02*
X963168Y368808D01*
X963168Y309372D02*
X957072Y303276D01*
X949452Y303276D01*
X943356Y297180D01*
X943356Y283464D01*
X952500Y274320D01*
X953500Y273700D01*
X987552Y906780D02*
X961644Y932688D01*
X987552Y906780D02*
X987552Y393192D01*
X963168Y368808D01*
X961644Y932688D02*
X960530Y933920D01*
X729996Y1171956D02*
X714756Y1156716D01*
X729996Y1171956D02*
X842772Y1171956D01*
X714756Y1156716D02*
X713810Y1156350D01*
X696468Y422148D02*
X661416Y422148D01*
X696468Y422148D02*
X705612Y431292D01*
X713232Y431292D01*
X719328Y425196D01*
X719328Y370332D01*
X693420Y344424D01*
X693420Y73152D01*
X699516Y67056D01*
X699516Y59436D01*
X704088Y54864D01*
X719328Y54864D01*
X722376Y57912D01*
X660000Y421900D02*
X661416Y422148D01*
X42672Y431292D02*
X42672Y406908D01*
D21*
X161544Y1030224D03*
X972312Y251460D03*
X963168Y368808D03*
X842772Y1171956D03*
X722376Y57912D03*
X42672Y431292D03*
X42672Y406908D03*
D20*
X44196Y269748D02*
X44196Y265176D01*
X44196Y269748D02*
X28956Y284988D01*
X28956Y370332D01*
X82296Y423672D01*
X82296Y646176D01*
X399288Y1176528D02*
X467868Y1176528D01*
X470916Y1173480D01*
X554736Y1173480D01*
X557784Y1176528D01*
X670560Y335280D02*
X670560Y272796D01*
X670560Y335280D02*
X708660Y373380D01*
X708660Y420624D01*
X670560Y272796D02*
X670000Y271900D01*
X708660Y420624D02*
X710000Y421900D01*
X658368Y260604D02*
X658368Y131064D01*
X658368Y260604D02*
X669036Y271272D01*
X670000Y271900D01*
X943356Y603504D02*
X955548Y603504D01*
X943356Y603504D02*
X934212Y594360D01*
X897636Y594360D01*
X885444Y606552D01*
X955548Y603504D02*
X955700Y604000D01*
X954024Y292608D02*
X954024Y289560D01*
X978408Y265176D01*
X978408Y225552D01*
X957072Y204216D01*
X882396Y204216D01*
X856488Y230124D01*
X954024Y292608D02*
X953500Y293700D01*
X964692Y669036D02*
X964692Y766572D01*
X964692Y669036D02*
X978408Y655320D01*
X978408Y626364D01*
X957072Y605028D01*
X955700Y604000D01*
X701040Y1155192D02*
X694944Y1155192D01*
X701040Y1155192D02*
X710184Y1146048D01*
X717804Y1146048D01*
X723900Y1152144D01*
X723900Y1159764D01*
X729996Y1165860D01*
X838200Y1165860D01*
X844296Y1159764D01*
X844296Y1152144D01*
X854964Y1141476D01*
X858012Y1141476D01*
X864108Y1135380D01*
X864108Y1040892D01*
X896112Y1008888D01*
X694944Y1155192D02*
X693810Y1156350D01*
X50292Y833628D02*
X50292Y772668D01*
X50292Y833628D02*
X35052Y848868D01*
X35052Y1078992D01*
X135636Y1179576D01*
X396240Y1179576D01*
X399288Y1176528D01*
D21*
X44196Y265176D03*
X82296Y646176D03*
X399288Y1176528D03*
X557784Y1176528D03*
X658368Y131064D03*
X885444Y606552D03*
X856488Y230124D03*
X964692Y766572D03*
X896112Y1008888D03*
X50292Y772668D03*
D20*
X32004Y286512D02*
X60960Y257556D01*
X32004Y286512D02*
X32004Y368808D01*
X88392Y425196D01*
X88392Y708660D02*
X88392Y714756D01*
X88392Y708660D02*
X88392Y425196D01*
X88392Y714756D02*
X79248Y723900D01*
X79248Y752856D01*
X67056Y765048D01*
X60960Y257556D02*
X61340Y257420D01*
X67056Y765048D02*
X66300Y766300D01*
X344424Y1149096D02*
X350520Y1149096D01*
X344424Y1149096D02*
X335280Y1158240D01*
X327660Y1158240D01*
X321564Y1152144D01*
X321564Y1054608D01*
X230124Y963168D01*
X230124Y931164D01*
X230124Y912876D02*
X164592Y847344D01*
X164592Y763524D01*
X109728Y708660D01*
X88392Y708660D01*
X350520Y1149096D02*
X351500Y1148600D01*
X710184Y335280D02*
X710184Y272796D01*
X710184Y335280D02*
X758952Y384048D01*
X758952Y420624D01*
X710184Y272796D02*
X710000Y271900D01*
X758952Y420624D02*
X760000Y421900D01*
X699516Y262128D02*
X699516Y79248D01*
X699516Y262128D02*
X708660Y271272D01*
X710000Y271900D01*
X679704Y1156716D02*
X675132Y1156716D01*
X679704Y1156716D02*
X701040Y1178052D01*
X835152Y1178052D01*
X675132Y1156716D02*
X673810Y1156350D01*
X940308Y312420D02*
X952500Y312420D01*
X940308Y312420D02*
X931164Y303276D01*
X925068Y303276D01*
X915924Y312420D01*
X915924Y376428D01*
X975360Y435864D01*
X953500Y313700D02*
X952500Y312420D01*
X797052Y422148D02*
X760476Y422148D01*
X797052Y422148D02*
X833628Y458724D01*
X918972Y458724D01*
X940308Y480060D01*
X940308Y487680D01*
X934212Y493776D01*
X926592Y493776D01*
X920496Y499872D01*
X920496Y507492D01*
X926592Y513588D01*
X934212Y513588D01*
X946404Y501396D01*
X946404Y480060D01*
X952500Y473964D01*
X970788Y473964D01*
X978408Y481584D01*
X760476Y422148D02*
X760000Y421900D01*
X237744Y763524D02*
X164592Y763524D01*
X237744Y763524D02*
X251460Y749808D01*
X268224Y749808D01*
X733044Y722376D02*
X920496Y534924D01*
X920496Y519684D01*
X926592Y513588D01*
D21*
X230124Y931164D03*
X230124Y912876D03*
X699516Y79248D03*
X835152Y1178052D03*
X975360Y435864D03*
X978408Y481584D03*
X268224Y749808D03*
X733044Y722376D03*
D20*
X60960Y237744D02*
X25908Y272796D01*
X25908Y371856D01*
X76200Y422148D01*
X76200Y736092D01*
X67056Y745236D01*
X60960Y237744D02*
X61340Y237420D01*
X67056Y745236D02*
X66300Y746300D01*
X332232Y1147572D02*
X338328Y1147572D01*
X347472Y1138428D01*
X455676Y1138428D01*
X461772Y1144524D01*
X461772Y1152144D01*
X470916Y1161288D01*
X515112Y1161288D01*
X332232Y1147572D02*
X331500Y1148600D01*
X751332Y336804D02*
X751332Y272796D01*
X751332Y336804D02*
X809244Y394716D01*
X809244Y420624D01*
X751332Y272796D02*
X750000Y271900D01*
X809244Y420624D02*
X810000Y421900D01*
X754380Y268224D02*
X754380Y80772D01*
X754380Y268224D02*
X751332Y271272D01*
X750000Y271900D01*
X957072Y643128D02*
X963168Y643128D01*
X972312Y633984D01*
X972312Y626364D01*
X960120Y614172D01*
X897636Y614172D01*
X955700Y644000D02*
X957072Y643128D01*
X963168Y643128D02*
X972312Y652272D01*
X629412Y1170432D02*
X624840Y1170432D01*
X629412Y1170432D02*
X646176Y1187196D01*
X841248Y1187196D01*
X950976Y1077468D01*
X950976Y1004316D01*
X960120Y995172D01*
X960530Y993920D01*
X65532Y752856D02*
X65532Y746760D01*
X65532Y752856D02*
X56388Y762000D01*
X56388Y810768D01*
X62484Y816864D01*
X70104Y816864D01*
X77724Y824484D01*
X77724Y867156D01*
X86868Y876300D01*
X106680Y876300D01*
X181356Y950976D01*
X217932Y950976D01*
X227076Y960120D01*
X227076Y1053084D01*
X298704Y1124712D01*
X66300Y746300D02*
X65532Y746760D01*
D21*
X515112Y1161288D03*
X754380Y80772D03*
X897636Y614172D03*
X972312Y652272D03*
X624840Y1170432D03*
X298704Y1124712D03*
D20*
X790956Y335280D02*
X790956Y272796D01*
X790956Y335280D02*
X859536Y403860D01*
X859536Y420624D01*
X790956Y272796D02*
X790000Y271900D01*
X859536Y420624D02*
X860000Y421900D01*
X787908Y269748D02*
X787908Y114300D01*
X787908Y269748D02*
X789432Y271272D01*
X790000Y271900D01*
X944880Y355092D02*
X952500Y355092D01*
X944880Y355092D02*
X932688Y367284D01*
X952500Y355092D02*
X953500Y353700D01*
X60960Y224028D02*
X60960Y217932D01*
X60960Y224028D02*
X18288Y266700D01*
X18288Y678180D01*
X65532Y725424D01*
X60960Y217932D02*
X61340Y217420D01*
X65532Y725424D02*
X66300Y726300D01*
X312420Y1149096D02*
X312420Y1152144D01*
X321564Y1161288D01*
X312420Y1149096D02*
X311500Y1148600D01*
X592836Y1156716D02*
X597408Y1156716D01*
X592836Y1156716D02*
X566928Y1182624D01*
X477012Y1182624D01*
X473964Y1179576D01*
X65532Y733044D02*
X65532Y726948D01*
X65532Y733044D02*
X32004Y766572D01*
X32004Y1080516D01*
X134112Y1182624D01*
X470916Y1182624D01*
X473964Y1179576D01*
X66300Y726300D02*
X65532Y726948D01*
X166116Y25908D02*
X166116Y21336D01*
X166116Y25908D02*
X62484Y129540D01*
X62484Y216408D01*
X61340Y217420D01*
D21*
X787908Y114300D03*
X932688Y367284D03*
X321564Y1161288D03*
X597408Y1156716D03*
X473964Y1179576D03*
X166116Y21336D03*
D20*
X931164Y502920D02*
X943356Y490728D01*
X943356Y441960D01*
X803148Y301752D01*
X803148Y115824D01*
X739140Y51816D01*
X409956Y51816D01*
X405384Y56388D01*
X239268Y56388D01*
X227076Y44196D01*
X931164Y502920D02*
X930700Y504000D01*
X227076Y44196D02*
X226060Y43930D01*
X850392Y333756D02*
X966216Y449580D01*
X850392Y333756D02*
X850392Y153924D01*
X719328Y22860D01*
X266700Y22860D01*
X246888Y42672D01*
X246060Y43930D01*
D21*
X966216Y449580D03*
D20*
X85344Y318516D02*
X76200Y318516D01*
X67056Y327660D01*
X57912Y327660D01*
X51816Y321564D01*
X51816Y272796D01*
X57912Y266700D01*
X65532Y266700D01*
X73152Y259080D01*
X73152Y123444D01*
X175260Y21336D01*
X86340Y317420D02*
X85344Y318516D01*
X711708Y597408D02*
X711708Y780288D01*
X711708Y597408D02*
X672084Y557784D01*
X672084Y496824D01*
X580644Y405384D01*
X580644Y210312D01*
X652272Y138684D01*
D21*
X175260Y21336D03*
X711708Y780288D03*
X652272Y138684D03*
D20*
X126492Y752856D02*
X126492Y864108D01*
X219456Y646176D02*
X219456Y388620D01*
X211836Y381000D01*
X211836Y160020D01*
X155448Y103632D01*
X155448Y65532D01*
X164592Y56388D01*
X234696Y56388D01*
X237744Y59436D01*
X295656Y59436D01*
X304800Y68580D01*
X306060Y68930D01*
D21*
X126492Y864108D03*
X126492Y752856D03*
X219456Y646176D03*
D20*
X227076Y251460D02*
X227076Y70104D01*
X227076Y251460D02*
X350520Y374904D01*
X350520Y717804D01*
X539496Y906780D01*
X705612Y1141476D02*
X725424Y1141476D01*
X729996Y1146048D01*
X783336Y1146048D01*
X792480Y1155192D01*
X227076Y70104D02*
X226060Y68930D01*
X792480Y1155192D02*
X793810Y1156350D01*
D21*
X539496Y906780D03*
X705612Y1141476D03*
D20*
X187452Y131064D02*
X187452Y70104D01*
X187452Y131064D02*
X217932Y161544D01*
X217932Y382524D01*
X237744Y402336D01*
X237744Y614172D01*
X536448Y912876D01*
X670560Y912876D01*
X775716Y1018032D01*
X775716Y1114044D01*
X792480Y1130808D01*
X187452Y70104D02*
X186060Y68930D01*
X792480Y1130808D02*
X793810Y1131350D01*
X158496Y775716D02*
X97536Y714756D01*
X158496Y775716D02*
X158496Y894588D01*
X182880Y918972D01*
X262128Y918972D01*
X326136Y982980D01*
X326136Y1004316D01*
X341376Y1019556D01*
X341376Y1127760D01*
X348996Y1135380D01*
X458724Y1135380D01*
X470916Y1147572D01*
X471500Y1148600D01*
D21*
X97536Y714756D03*
D20*
X38100Y347472D02*
X38100Y327660D01*
X38100Y347472D02*
X57912Y367284D01*
X65532Y367284D01*
X76200Y377952D01*
X76200Y387096D01*
X100584Y411480D01*
X100584Y621792D01*
X182880Y704088D01*
X182880Y806196D02*
X182880Y810768D01*
X320040Y947928D01*
X321564Y947928D01*
X332232Y958596D01*
X332232Y963168D01*
X361188Y992124D01*
X367284Y992124D01*
X470916Y1095756D01*
X470916Y1123188D01*
X471500Y1123600D01*
D21*
X38100Y327660D03*
X182880Y704088D03*
X182880Y806196D03*
D20*
X289560Y762000D02*
X289560Y879348D01*
X289560Y762000D02*
X237744Y710184D01*
X179832Y710184D01*
X91440Y621792D01*
X91440Y406908D01*
X62484Y377952D01*
X289560Y879348D02*
X290000Y880300D01*
X62484Y377952D02*
X61340Y377420D01*
X313944Y699516D02*
X313944Y879348D01*
X313944Y649224D02*
X240792Y576072D01*
X240792Y295656D01*
X220980Y275844D01*
X220980Y97536D01*
X196596Y73152D01*
X196596Y65532D01*
X190500Y59436D01*
X175260Y59436D01*
X166116Y68580D01*
X313944Y879348D02*
X315400Y880300D01*
X166060Y68930D02*
X166116Y68580D01*
D21*
X313944Y699516D03*
X313944Y649224D03*
D20*
X391668Y915924D02*
X655320Y915924D01*
X766572Y1027176D01*
X766572Y1071372D01*
X723900Y1114044D01*
X723900Y1135380D01*
X729996Y1141476D01*
X824484Y1141476D01*
X833628Y1132332D01*
X833810Y1131350D01*
D21*
X391668Y915924D03*
M02*
