G04 EAGLE Gerber RS-274X export*
G75*
%MOMM*%
%FSLAX34Y34*%
%LPD*%
%INSilkscreen Bottom*%
%IPPOS*%
%AMOC8*
5,1,8,0,0,1.08239X$1,22.5*%
G01*
%ADD10C,0.152400*%


D10*
X679238Y760772D02*
X679238Y777028D01*
X673819Y767997D01*
X668401Y777028D01*
X668401Y760772D01*
X662044Y760772D02*
X656625Y777028D01*
X651206Y760772D01*
X652561Y764836D02*
X660689Y764836D01*
X644897Y760772D02*
X644897Y777028D01*
X640381Y777028D01*
X640248Y777026D01*
X640116Y777020D01*
X639984Y777010D01*
X639852Y776997D01*
X639720Y776979D01*
X639590Y776958D01*
X639459Y776933D01*
X639330Y776904D01*
X639202Y776871D01*
X639074Y776835D01*
X638948Y776795D01*
X638823Y776751D01*
X638699Y776703D01*
X638577Y776652D01*
X638456Y776597D01*
X638337Y776539D01*
X638219Y776477D01*
X638104Y776412D01*
X637990Y776343D01*
X637879Y776272D01*
X637770Y776196D01*
X637663Y776118D01*
X637558Y776037D01*
X637456Y775952D01*
X637356Y775865D01*
X637259Y775775D01*
X637164Y775682D01*
X637073Y775586D01*
X636984Y775488D01*
X636898Y775387D01*
X636815Y775283D01*
X636735Y775177D01*
X636659Y775069D01*
X636585Y774959D01*
X636515Y774846D01*
X636448Y774732D01*
X636385Y774615D01*
X636325Y774497D01*
X636268Y774377D01*
X636215Y774255D01*
X636166Y774132D01*
X636120Y774008D01*
X636078Y773882D01*
X636040Y773755D01*
X636005Y773627D01*
X635974Y773498D01*
X635947Y773369D01*
X635924Y773238D01*
X635904Y773107D01*
X635889Y772975D01*
X635877Y772843D01*
X635869Y772711D01*
X635865Y772578D01*
X635865Y772446D01*
X635869Y772313D01*
X635877Y772181D01*
X635889Y772049D01*
X635904Y771917D01*
X635924Y771786D01*
X635947Y771655D01*
X635974Y771526D01*
X636005Y771397D01*
X636040Y771269D01*
X636078Y771142D01*
X636120Y771016D01*
X636166Y770892D01*
X636215Y770769D01*
X636268Y770647D01*
X636325Y770527D01*
X636385Y770409D01*
X636448Y770292D01*
X636515Y770178D01*
X636585Y770065D01*
X636659Y769955D01*
X636735Y769847D01*
X636815Y769741D01*
X636898Y769637D01*
X636984Y769536D01*
X637073Y769438D01*
X637164Y769342D01*
X637259Y769249D01*
X637356Y769159D01*
X637456Y769072D01*
X637558Y768987D01*
X637663Y768906D01*
X637770Y768828D01*
X637879Y768752D01*
X637990Y768681D01*
X638104Y768612D01*
X638219Y768547D01*
X638337Y768485D01*
X638456Y768427D01*
X638577Y768372D01*
X638699Y768321D01*
X638823Y768273D01*
X638948Y768229D01*
X639074Y768189D01*
X639202Y768153D01*
X639330Y768120D01*
X639459Y768091D01*
X639590Y768066D01*
X639720Y768045D01*
X639852Y768027D01*
X639984Y768014D01*
X640116Y768004D01*
X640248Y767998D01*
X640381Y767996D01*
X640381Y767997D02*
X644897Y767997D01*
X639478Y767997D02*
X635866Y760772D01*
X627968Y760772D02*
X627968Y777028D01*
X629774Y760772D02*
X626162Y760772D01*
X626162Y777028D02*
X629774Y777028D01*
X619427Y760772D02*
X612203Y760772D01*
X619427Y760772D02*
X619427Y777028D01*
X612203Y777028D01*
X614009Y769803D02*
X619427Y769803D01*
X597363Y777028D02*
X597363Y760772D01*
X597363Y777028D02*
X592847Y777028D01*
X592714Y777026D01*
X592582Y777020D01*
X592450Y777010D01*
X592318Y776997D01*
X592186Y776979D01*
X592056Y776958D01*
X591925Y776933D01*
X591796Y776904D01*
X591668Y776871D01*
X591540Y776835D01*
X591414Y776795D01*
X591289Y776751D01*
X591165Y776703D01*
X591043Y776652D01*
X590922Y776597D01*
X590803Y776539D01*
X590685Y776477D01*
X590570Y776412D01*
X590456Y776343D01*
X590345Y776272D01*
X590236Y776196D01*
X590129Y776118D01*
X590024Y776037D01*
X589922Y775952D01*
X589822Y775865D01*
X589725Y775775D01*
X589630Y775682D01*
X589539Y775586D01*
X589450Y775488D01*
X589364Y775387D01*
X589281Y775283D01*
X589201Y775177D01*
X589125Y775069D01*
X589051Y774959D01*
X588981Y774846D01*
X588914Y774732D01*
X588851Y774615D01*
X588791Y774497D01*
X588734Y774377D01*
X588681Y774255D01*
X588632Y774132D01*
X588586Y774008D01*
X588544Y773882D01*
X588506Y773755D01*
X588471Y773627D01*
X588440Y773498D01*
X588413Y773369D01*
X588390Y773238D01*
X588370Y773107D01*
X588355Y772975D01*
X588343Y772843D01*
X588335Y772711D01*
X588331Y772578D01*
X588331Y772446D01*
X588335Y772313D01*
X588343Y772181D01*
X588355Y772049D01*
X588370Y771917D01*
X588390Y771786D01*
X588413Y771655D01*
X588440Y771526D01*
X588471Y771397D01*
X588506Y771269D01*
X588544Y771142D01*
X588586Y771016D01*
X588632Y770892D01*
X588681Y770769D01*
X588734Y770647D01*
X588791Y770527D01*
X588851Y770409D01*
X588914Y770292D01*
X588981Y770178D01*
X589051Y770065D01*
X589125Y769955D01*
X589201Y769847D01*
X589281Y769741D01*
X589364Y769637D01*
X589450Y769536D01*
X589539Y769438D01*
X589630Y769342D01*
X589725Y769249D01*
X589822Y769159D01*
X589922Y769072D01*
X590024Y768987D01*
X590129Y768906D01*
X590236Y768828D01*
X590345Y768752D01*
X590456Y768681D01*
X590570Y768612D01*
X590685Y768547D01*
X590803Y768485D01*
X590922Y768427D01*
X591043Y768372D01*
X591165Y768321D01*
X591289Y768273D01*
X591414Y768229D01*
X591540Y768189D01*
X591668Y768153D01*
X591796Y768120D01*
X591925Y768091D01*
X592056Y768066D01*
X592186Y768045D01*
X592318Y768027D01*
X592450Y768014D01*
X592582Y768004D01*
X592714Y767998D01*
X592847Y767996D01*
X592847Y767997D02*
X597363Y767997D01*
X578890Y760772D02*
X575278Y760772D01*
X578890Y760772D02*
X579008Y760774D01*
X579126Y760780D01*
X579244Y760789D01*
X579361Y760803D01*
X579478Y760820D01*
X579595Y760841D01*
X579710Y760866D01*
X579825Y760895D01*
X579939Y760928D01*
X580051Y760964D01*
X580162Y761004D01*
X580272Y761047D01*
X580381Y761094D01*
X580488Y761144D01*
X580593Y761199D01*
X580696Y761256D01*
X580797Y761317D01*
X580897Y761381D01*
X580994Y761448D01*
X581089Y761518D01*
X581181Y761592D01*
X581272Y761668D01*
X581359Y761748D01*
X581444Y761830D01*
X581526Y761915D01*
X581606Y762002D01*
X581682Y762093D01*
X581756Y762185D01*
X581826Y762280D01*
X581893Y762377D01*
X581957Y762477D01*
X582018Y762578D01*
X582075Y762681D01*
X582130Y762786D01*
X582180Y762893D01*
X582227Y763002D01*
X582270Y763112D01*
X582310Y763223D01*
X582346Y763335D01*
X582379Y763449D01*
X582408Y763564D01*
X582433Y763679D01*
X582454Y763796D01*
X582471Y763913D01*
X582485Y764030D01*
X582494Y764148D01*
X582500Y764266D01*
X582502Y764384D01*
X582503Y764384D02*
X582503Y773416D01*
X582502Y773416D02*
X582500Y773534D01*
X582494Y773652D01*
X582485Y773770D01*
X582471Y773887D01*
X582454Y774004D01*
X582433Y774121D01*
X582408Y774236D01*
X582379Y774351D01*
X582346Y774465D01*
X582310Y774577D01*
X582270Y774688D01*
X582227Y774798D01*
X582180Y774907D01*
X582130Y775014D01*
X582075Y775119D01*
X582018Y775222D01*
X581957Y775323D01*
X581893Y775423D01*
X581826Y775520D01*
X581756Y775615D01*
X581682Y775707D01*
X581606Y775798D01*
X581526Y775885D01*
X581444Y775970D01*
X581359Y776052D01*
X581272Y776132D01*
X581181Y776208D01*
X581089Y776282D01*
X580994Y776352D01*
X580897Y776419D01*
X580797Y776483D01*
X580696Y776544D01*
X580593Y776601D01*
X580488Y776656D01*
X580381Y776706D01*
X580272Y776753D01*
X580162Y776796D01*
X580051Y776836D01*
X579939Y776872D01*
X579825Y776905D01*
X579710Y776934D01*
X579595Y776959D01*
X579478Y776980D01*
X579361Y776997D01*
X579244Y777011D01*
X579126Y777020D01*
X579008Y777026D01*
X578890Y777028D01*
X575278Y777028D01*
X674722Y743133D02*
X679238Y743133D01*
X674722Y743134D02*
X674589Y743132D01*
X674457Y743126D01*
X674325Y743116D01*
X674193Y743103D01*
X674061Y743085D01*
X673931Y743064D01*
X673800Y743039D01*
X673671Y743010D01*
X673543Y742977D01*
X673415Y742941D01*
X673289Y742901D01*
X673164Y742857D01*
X673040Y742809D01*
X672918Y742758D01*
X672797Y742703D01*
X672678Y742645D01*
X672560Y742583D01*
X672445Y742518D01*
X672331Y742449D01*
X672220Y742378D01*
X672111Y742302D01*
X672004Y742224D01*
X671899Y742143D01*
X671797Y742058D01*
X671697Y741971D01*
X671600Y741881D01*
X671505Y741788D01*
X671414Y741692D01*
X671325Y741594D01*
X671239Y741493D01*
X671156Y741389D01*
X671076Y741283D01*
X671000Y741175D01*
X670926Y741065D01*
X670856Y740952D01*
X670789Y740838D01*
X670726Y740721D01*
X670666Y740603D01*
X670609Y740483D01*
X670556Y740361D01*
X670507Y740238D01*
X670461Y740114D01*
X670419Y739988D01*
X670381Y739861D01*
X670346Y739733D01*
X670315Y739604D01*
X670288Y739475D01*
X670265Y739344D01*
X670245Y739213D01*
X670230Y739081D01*
X670218Y738949D01*
X670210Y738817D01*
X670206Y738684D01*
X670206Y738552D01*
X670210Y738419D01*
X670218Y738287D01*
X670230Y738155D01*
X670245Y738023D01*
X670265Y737892D01*
X670288Y737761D01*
X670315Y737632D01*
X670346Y737503D01*
X670381Y737375D01*
X670419Y737248D01*
X670461Y737122D01*
X670507Y736998D01*
X670556Y736875D01*
X670609Y736753D01*
X670666Y736633D01*
X670726Y736515D01*
X670789Y736398D01*
X670856Y736284D01*
X670926Y736171D01*
X671000Y736061D01*
X671076Y735953D01*
X671156Y735847D01*
X671239Y735743D01*
X671325Y735642D01*
X671414Y735544D01*
X671505Y735448D01*
X671600Y735355D01*
X671697Y735265D01*
X671797Y735178D01*
X671899Y735093D01*
X672004Y735012D01*
X672111Y734934D01*
X672220Y734858D01*
X672331Y734787D01*
X672445Y734718D01*
X672560Y734653D01*
X672678Y734591D01*
X672797Y734533D01*
X672918Y734478D01*
X673040Y734427D01*
X673164Y734379D01*
X673289Y734335D01*
X673415Y734295D01*
X673543Y734259D01*
X673671Y734226D01*
X673800Y734197D01*
X673931Y734172D01*
X674061Y734151D01*
X674193Y734133D01*
X674325Y734120D01*
X674457Y734110D01*
X674589Y734104D01*
X674722Y734102D01*
X679238Y734102D01*
X679238Y750358D01*
X674722Y750358D01*
X674603Y750356D01*
X674483Y750350D01*
X674364Y750340D01*
X674246Y750326D01*
X674127Y750309D01*
X674010Y750287D01*
X673893Y750262D01*
X673778Y750232D01*
X673663Y750199D01*
X673549Y750162D01*
X673437Y750122D01*
X673326Y750077D01*
X673217Y750029D01*
X673109Y749978D01*
X673003Y749923D01*
X672899Y749864D01*
X672797Y749802D01*
X672697Y749737D01*
X672599Y749668D01*
X672503Y749596D01*
X672410Y749521D01*
X672320Y749444D01*
X672232Y749363D01*
X672147Y749279D01*
X672065Y749192D01*
X671985Y749103D01*
X671909Y749011D01*
X671835Y748917D01*
X671765Y748820D01*
X671698Y748722D01*
X671634Y748621D01*
X671574Y748517D01*
X671517Y748412D01*
X671464Y748305D01*
X671414Y748197D01*
X671368Y748087D01*
X671326Y747975D01*
X671287Y747862D01*
X671252Y747748D01*
X671221Y747633D01*
X671193Y747516D01*
X671170Y747399D01*
X671150Y747282D01*
X671134Y747163D01*
X671122Y747044D01*
X671114Y746925D01*
X671110Y746806D01*
X671110Y746686D01*
X671114Y746567D01*
X671122Y746448D01*
X671134Y746329D01*
X671150Y746210D01*
X671170Y746093D01*
X671193Y745976D01*
X671221Y745859D01*
X671252Y745744D01*
X671287Y745630D01*
X671326Y745517D01*
X671368Y745405D01*
X671414Y745295D01*
X671464Y745187D01*
X671517Y745080D01*
X671574Y744975D01*
X671634Y744871D01*
X671698Y744770D01*
X671765Y744672D01*
X671835Y744575D01*
X671909Y744481D01*
X671985Y744389D01*
X672065Y744300D01*
X672147Y744213D01*
X672232Y744129D01*
X672320Y744048D01*
X672410Y743971D01*
X672503Y743896D01*
X672599Y743824D01*
X672697Y743755D01*
X672797Y743690D01*
X672899Y743628D01*
X673003Y743569D01*
X673109Y743514D01*
X673217Y743463D01*
X673326Y743415D01*
X673437Y743370D01*
X673549Y743330D01*
X673663Y743293D01*
X673778Y743260D01*
X673893Y743230D01*
X674010Y743205D01*
X674127Y743183D01*
X674246Y743166D01*
X674364Y743152D01*
X674483Y743142D01*
X674603Y743136D01*
X674722Y743134D01*
X663818Y738618D02*
X663818Y750358D01*
X663818Y738618D02*
X663816Y738485D01*
X663810Y738353D01*
X663800Y738221D01*
X663787Y738089D01*
X663769Y737957D01*
X663748Y737827D01*
X663723Y737696D01*
X663694Y737567D01*
X663661Y737439D01*
X663625Y737311D01*
X663585Y737185D01*
X663541Y737060D01*
X663493Y736936D01*
X663442Y736814D01*
X663387Y736693D01*
X663329Y736574D01*
X663267Y736456D01*
X663202Y736341D01*
X663133Y736227D01*
X663062Y736116D01*
X662986Y736007D01*
X662908Y735900D01*
X662827Y735795D01*
X662742Y735693D01*
X662655Y735593D01*
X662565Y735496D01*
X662472Y735401D01*
X662376Y735310D01*
X662278Y735221D01*
X662177Y735135D01*
X662073Y735052D01*
X661967Y734972D01*
X661859Y734896D01*
X661749Y734822D01*
X661636Y734752D01*
X661522Y734685D01*
X661405Y734622D01*
X661287Y734562D01*
X661167Y734505D01*
X661045Y734452D01*
X660922Y734403D01*
X660798Y734357D01*
X660672Y734315D01*
X660545Y734277D01*
X660417Y734242D01*
X660288Y734211D01*
X660159Y734184D01*
X660028Y734161D01*
X659897Y734141D01*
X659765Y734126D01*
X659633Y734114D01*
X659501Y734106D01*
X659368Y734102D01*
X659236Y734102D01*
X659103Y734106D01*
X658971Y734114D01*
X658839Y734126D01*
X658707Y734141D01*
X658576Y734161D01*
X658445Y734184D01*
X658316Y734211D01*
X658187Y734242D01*
X658059Y734277D01*
X657932Y734315D01*
X657806Y734357D01*
X657682Y734403D01*
X657559Y734452D01*
X657437Y734505D01*
X657317Y734562D01*
X657199Y734622D01*
X657082Y734685D01*
X656968Y734752D01*
X656855Y734822D01*
X656745Y734896D01*
X656637Y734972D01*
X656531Y735052D01*
X656427Y735135D01*
X656326Y735221D01*
X656228Y735310D01*
X656132Y735401D01*
X656039Y735496D01*
X655949Y735593D01*
X655862Y735693D01*
X655777Y735795D01*
X655696Y735900D01*
X655618Y736007D01*
X655542Y736116D01*
X655471Y736227D01*
X655402Y736341D01*
X655337Y736456D01*
X655275Y736574D01*
X655217Y736693D01*
X655162Y736814D01*
X655111Y736936D01*
X655063Y737060D01*
X655019Y737185D01*
X654979Y737311D01*
X654943Y737439D01*
X654910Y737567D01*
X654881Y737696D01*
X654856Y737827D01*
X654835Y737957D01*
X654817Y738089D01*
X654804Y738221D01*
X654794Y738353D01*
X654788Y738485D01*
X654786Y738618D01*
X654787Y738618D02*
X654787Y750358D01*
X639156Y737714D02*
X639158Y737596D01*
X639164Y737478D01*
X639173Y737360D01*
X639187Y737243D01*
X639204Y737126D01*
X639225Y737009D01*
X639250Y736894D01*
X639279Y736779D01*
X639312Y736665D01*
X639348Y736553D01*
X639388Y736442D01*
X639431Y736332D01*
X639478Y736223D01*
X639528Y736116D01*
X639583Y736011D01*
X639640Y735908D01*
X639701Y735807D01*
X639765Y735707D01*
X639832Y735610D01*
X639902Y735515D01*
X639976Y735423D01*
X640052Y735332D01*
X640132Y735245D01*
X640214Y735160D01*
X640299Y735078D01*
X640386Y734998D01*
X640477Y734922D01*
X640569Y734848D01*
X640664Y734778D01*
X640761Y734711D01*
X640861Y734647D01*
X640962Y734586D01*
X641065Y734529D01*
X641170Y734474D01*
X641277Y734424D01*
X641386Y734377D01*
X641496Y734334D01*
X641607Y734294D01*
X641719Y734258D01*
X641833Y734225D01*
X641948Y734196D01*
X642063Y734171D01*
X642180Y734150D01*
X642297Y734133D01*
X642414Y734119D01*
X642532Y734110D01*
X642650Y734104D01*
X642768Y734102D01*
X642951Y734104D01*
X643133Y734111D01*
X643315Y734122D01*
X643497Y734137D01*
X643679Y734157D01*
X643860Y734181D01*
X644040Y734209D01*
X644220Y734241D01*
X644399Y734278D01*
X644576Y734319D01*
X644753Y734365D01*
X644929Y734414D01*
X645104Y734468D01*
X645277Y734526D01*
X645448Y734588D01*
X645619Y734654D01*
X645787Y734725D01*
X645954Y734799D01*
X646119Y734877D01*
X646282Y734959D01*
X646443Y735045D01*
X646602Y735135D01*
X646759Y735229D01*
X646913Y735326D01*
X647065Y735427D01*
X647215Y735532D01*
X647362Y735640D01*
X647506Y735751D01*
X647648Y735866D01*
X647787Y735985D01*
X647923Y736107D01*
X648056Y736232D01*
X648186Y736360D01*
X647734Y746746D02*
X647732Y746864D01*
X647726Y746982D01*
X647717Y747100D01*
X647703Y747217D01*
X647686Y747334D01*
X647665Y747451D01*
X647640Y747566D01*
X647611Y747681D01*
X647578Y747795D01*
X647542Y747907D01*
X647502Y748018D01*
X647459Y748128D01*
X647412Y748237D01*
X647362Y748344D01*
X647307Y748449D01*
X647250Y748552D01*
X647189Y748653D01*
X647125Y748753D01*
X647058Y748850D01*
X646988Y748945D01*
X646914Y749037D01*
X646838Y749128D01*
X646758Y749215D01*
X646676Y749300D01*
X646591Y749382D01*
X646504Y749462D01*
X646413Y749538D01*
X646321Y749612D01*
X646226Y749682D01*
X646129Y749749D01*
X646029Y749813D01*
X645928Y749874D01*
X645825Y749931D01*
X645720Y749986D01*
X645613Y750036D01*
X645504Y750083D01*
X645394Y750126D01*
X645283Y750166D01*
X645171Y750202D01*
X645057Y750235D01*
X644942Y750264D01*
X644827Y750289D01*
X644710Y750310D01*
X644593Y750327D01*
X644476Y750341D01*
X644358Y750350D01*
X644240Y750356D01*
X644122Y750358D01*
X643961Y750356D01*
X643799Y750350D01*
X643638Y750341D01*
X643477Y750327D01*
X643317Y750310D01*
X643157Y750289D01*
X642997Y750264D01*
X642838Y750235D01*
X642680Y750203D01*
X642523Y750167D01*
X642367Y750127D01*
X642211Y750083D01*
X642057Y750035D01*
X641904Y749984D01*
X641752Y749930D01*
X641601Y749871D01*
X641452Y749810D01*
X641305Y749744D01*
X641159Y749675D01*
X641014Y749603D01*
X640872Y749527D01*
X640731Y749448D01*
X640592Y749366D01*
X640456Y749280D01*
X640321Y749191D01*
X640188Y749099D01*
X640058Y749003D01*
X645929Y743585D02*
X646030Y743647D01*
X646130Y743712D01*
X646227Y743781D01*
X646322Y743853D01*
X646415Y743927D01*
X646505Y744005D01*
X646593Y744086D01*
X646678Y744169D01*
X646760Y744255D01*
X646839Y744344D01*
X646916Y744435D01*
X646989Y744529D01*
X647060Y744625D01*
X647127Y744723D01*
X647191Y744823D01*
X647252Y744926D01*
X647309Y745030D01*
X647363Y745136D01*
X647413Y745244D01*
X647460Y745353D01*
X647504Y745464D01*
X647544Y745576D01*
X647580Y745690D01*
X647612Y745804D01*
X647641Y745920D01*
X647666Y746036D01*
X647687Y746153D01*
X647704Y746271D01*
X647718Y746389D01*
X647727Y746508D01*
X647733Y746627D01*
X647735Y746746D01*
X640961Y740875D02*
X640860Y740813D01*
X640760Y740748D01*
X640663Y740679D01*
X640568Y740607D01*
X640475Y740533D01*
X640385Y740455D01*
X640297Y740374D01*
X640212Y740291D01*
X640130Y740205D01*
X640051Y740116D01*
X639974Y740025D01*
X639901Y739931D01*
X639830Y739835D01*
X639763Y739737D01*
X639699Y739637D01*
X639638Y739534D01*
X639581Y739430D01*
X639527Y739324D01*
X639477Y739216D01*
X639430Y739107D01*
X639386Y738996D01*
X639346Y738884D01*
X639310Y738770D01*
X639278Y738656D01*
X639249Y738540D01*
X639224Y738424D01*
X639203Y738307D01*
X639186Y738189D01*
X639172Y738071D01*
X639163Y737952D01*
X639157Y737833D01*
X639155Y737714D01*
X640962Y740875D02*
X645929Y743585D01*
X673819Y723688D02*
X679238Y707432D01*
X668401Y707432D02*
X673819Y723688D01*
X669755Y711496D02*
X677883Y711496D01*
X662237Y707432D02*
X662237Y718269D01*
X656818Y718269D01*
X656818Y716463D01*
X649174Y707432D02*
X645561Y707432D01*
X649174Y707432D02*
X649275Y707434D01*
X649376Y707440D01*
X649477Y707449D01*
X649578Y707462D01*
X649678Y707479D01*
X649777Y707500D01*
X649875Y707524D01*
X649972Y707552D01*
X650069Y707584D01*
X650164Y707619D01*
X650257Y707658D01*
X650349Y707700D01*
X650440Y707746D01*
X650529Y707795D01*
X650615Y707847D01*
X650700Y707903D01*
X650783Y707961D01*
X650863Y708023D01*
X650941Y708088D01*
X651017Y708155D01*
X651090Y708225D01*
X651160Y708298D01*
X651227Y708374D01*
X651292Y708452D01*
X651354Y708532D01*
X651412Y708615D01*
X651468Y708700D01*
X651520Y708787D01*
X651569Y708875D01*
X651615Y708966D01*
X651657Y709058D01*
X651696Y709151D01*
X651731Y709246D01*
X651763Y709343D01*
X651791Y709440D01*
X651815Y709538D01*
X651836Y709637D01*
X651853Y709737D01*
X651866Y709838D01*
X651875Y709939D01*
X651881Y710040D01*
X651883Y710141D01*
X651883Y715560D01*
X651881Y715661D01*
X651875Y715762D01*
X651866Y715863D01*
X651853Y715964D01*
X651836Y716064D01*
X651815Y716163D01*
X651791Y716261D01*
X651763Y716358D01*
X651731Y716455D01*
X651696Y716550D01*
X651657Y716643D01*
X651615Y716735D01*
X651569Y716826D01*
X651520Y716915D01*
X651468Y717001D01*
X651412Y717086D01*
X651354Y717169D01*
X651292Y717249D01*
X651227Y717327D01*
X651160Y717403D01*
X651090Y717476D01*
X651017Y717546D01*
X650941Y717613D01*
X650863Y717678D01*
X650783Y717740D01*
X650700Y717798D01*
X650615Y717854D01*
X650529Y717906D01*
X650440Y717955D01*
X650349Y718001D01*
X650257Y718043D01*
X650164Y718082D01*
X650069Y718117D01*
X649972Y718149D01*
X649875Y718177D01*
X649777Y718201D01*
X649678Y718222D01*
X649578Y718239D01*
X649477Y718252D01*
X649376Y718261D01*
X649275Y718267D01*
X649174Y718269D01*
X645561Y718269D01*
X639396Y723688D02*
X639396Y707432D01*
X639396Y718269D02*
X634880Y718269D01*
X634776Y718267D01*
X634673Y718261D01*
X634569Y718251D01*
X634466Y718237D01*
X634364Y718219D01*
X634263Y718198D01*
X634162Y718172D01*
X634063Y718143D01*
X633964Y718110D01*
X633867Y718073D01*
X633772Y718032D01*
X633678Y717988D01*
X633586Y717940D01*
X633496Y717889D01*
X633407Y717834D01*
X633321Y717776D01*
X633238Y717714D01*
X633156Y717650D01*
X633078Y717582D01*
X633002Y717512D01*
X632928Y717439D01*
X632858Y717362D01*
X632790Y717284D01*
X632726Y717202D01*
X632664Y717119D01*
X632606Y717033D01*
X632551Y716944D01*
X632500Y716854D01*
X632452Y716762D01*
X632408Y716668D01*
X632367Y716573D01*
X632330Y716476D01*
X632297Y716377D01*
X632268Y716278D01*
X632242Y716177D01*
X632221Y716076D01*
X632203Y715974D01*
X632189Y715871D01*
X632179Y715767D01*
X632173Y715664D01*
X632171Y715560D01*
X632171Y707432D01*
X625363Y707432D02*
X625363Y718269D01*
X625814Y722785D02*
X625814Y723688D01*
X624911Y723688D01*
X624911Y722785D01*
X625814Y722785D01*
X620373Y718269D02*
X614954Y718269D01*
X618566Y723688D02*
X618566Y710141D01*
X618564Y710040D01*
X618558Y709939D01*
X618549Y709838D01*
X618536Y709737D01*
X618519Y709637D01*
X618498Y709538D01*
X618474Y709440D01*
X618446Y709343D01*
X618414Y709246D01*
X618379Y709151D01*
X618340Y709058D01*
X618298Y708966D01*
X618252Y708875D01*
X618203Y708787D01*
X618151Y708700D01*
X618095Y708615D01*
X618037Y708532D01*
X617975Y708452D01*
X617910Y708374D01*
X617843Y708298D01*
X617773Y708225D01*
X617700Y708155D01*
X617624Y708088D01*
X617546Y708023D01*
X617466Y707961D01*
X617383Y707903D01*
X617298Y707847D01*
X617212Y707795D01*
X617123Y707746D01*
X617032Y707700D01*
X616940Y707658D01*
X616847Y707619D01*
X616752Y707584D01*
X616655Y707552D01*
X616558Y707524D01*
X616460Y707500D01*
X616361Y707479D01*
X616261Y707462D01*
X616160Y707449D01*
X616059Y707440D01*
X615958Y707434D01*
X615857Y707432D01*
X614954Y707432D01*
X606466Y707432D02*
X601951Y707432D01*
X606466Y707432D02*
X606567Y707434D01*
X606668Y707440D01*
X606769Y707449D01*
X606870Y707462D01*
X606970Y707479D01*
X607069Y707500D01*
X607167Y707524D01*
X607264Y707552D01*
X607361Y707584D01*
X607456Y707619D01*
X607549Y707658D01*
X607641Y707700D01*
X607732Y707746D01*
X607821Y707795D01*
X607907Y707847D01*
X607992Y707903D01*
X608075Y707961D01*
X608155Y708023D01*
X608233Y708088D01*
X608309Y708155D01*
X608382Y708225D01*
X608452Y708298D01*
X608519Y708374D01*
X608584Y708452D01*
X608646Y708532D01*
X608704Y708615D01*
X608760Y708700D01*
X608812Y708787D01*
X608861Y708875D01*
X608907Y708966D01*
X608949Y709058D01*
X608988Y709151D01*
X609023Y709246D01*
X609055Y709343D01*
X609083Y709440D01*
X609107Y709538D01*
X609128Y709637D01*
X609145Y709737D01*
X609158Y709838D01*
X609167Y709939D01*
X609173Y710040D01*
X609175Y710141D01*
X609175Y714657D01*
X609173Y714776D01*
X609167Y714896D01*
X609157Y715015D01*
X609143Y715133D01*
X609126Y715252D01*
X609104Y715369D01*
X609079Y715486D01*
X609049Y715601D01*
X609016Y715716D01*
X608979Y715830D01*
X608939Y715942D01*
X608894Y716053D01*
X608846Y716162D01*
X608795Y716270D01*
X608740Y716376D01*
X608681Y716480D01*
X608619Y716582D01*
X608554Y716682D01*
X608485Y716780D01*
X608413Y716876D01*
X608338Y716969D01*
X608261Y717059D01*
X608180Y717147D01*
X608096Y717232D01*
X608009Y717314D01*
X607920Y717394D01*
X607828Y717470D01*
X607734Y717544D01*
X607637Y717614D01*
X607539Y717681D01*
X607438Y717745D01*
X607334Y717805D01*
X607229Y717862D01*
X607122Y717915D01*
X607014Y717965D01*
X606904Y718011D01*
X606792Y718053D01*
X606679Y718092D01*
X606565Y718127D01*
X606450Y718158D01*
X606333Y718186D01*
X606216Y718209D01*
X606099Y718229D01*
X605980Y718245D01*
X605861Y718257D01*
X605742Y718265D01*
X605623Y718269D01*
X605503Y718269D01*
X605384Y718265D01*
X605265Y718257D01*
X605146Y718245D01*
X605027Y718229D01*
X604910Y718209D01*
X604793Y718186D01*
X604676Y718158D01*
X604561Y718127D01*
X604447Y718092D01*
X604334Y718053D01*
X604222Y718011D01*
X604112Y717965D01*
X604004Y717915D01*
X603897Y717862D01*
X603792Y717805D01*
X603688Y717745D01*
X603587Y717681D01*
X603489Y717614D01*
X603392Y717544D01*
X603298Y717470D01*
X603206Y717394D01*
X603117Y717314D01*
X603030Y717232D01*
X602946Y717147D01*
X602865Y717059D01*
X602788Y716969D01*
X602713Y716876D01*
X602641Y716780D01*
X602572Y716682D01*
X602507Y716582D01*
X602445Y716480D01*
X602386Y716376D01*
X602331Y716270D01*
X602280Y716162D01*
X602232Y716053D01*
X602187Y715942D01*
X602147Y715830D01*
X602110Y715716D01*
X602077Y715601D01*
X602047Y715486D01*
X602022Y715369D01*
X602000Y715252D01*
X601983Y715133D01*
X601969Y715015D01*
X601959Y714896D01*
X601953Y714776D01*
X601951Y714657D01*
X601951Y712851D01*
X609175Y712851D01*
X592902Y707432D02*
X589289Y707432D01*
X592902Y707432D02*
X593003Y707434D01*
X593104Y707440D01*
X593205Y707449D01*
X593306Y707462D01*
X593406Y707479D01*
X593505Y707500D01*
X593603Y707524D01*
X593700Y707552D01*
X593797Y707584D01*
X593892Y707619D01*
X593985Y707658D01*
X594077Y707700D01*
X594168Y707746D01*
X594257Y707795D01*
X594343Y707847D01*
X594428Y707903D01*
X594511Y707961D01*
X594591Y708023D01*
X594669Y708088D01*
X594745Y708155D01*
X594818Y708225D01*
X594888Y708298D01*
X594955Y708374D01*
X595020Y708452D01*
X595082Y708532D01*
X595140Y708615D01*
X595196Y708700D01*
X595248Y708787D01*
X595297Y708875D01*
X595343Y708966D01*
X595385Y709058D01*
X595424Y709151D01*
X595459Y709246D01*
X595491Y709343D01*
X595519Y709440D01*
X595543Y709538D01*
X595564Y709637D01*
X595581Y709737D01*
X595594Y709838D01*
X595603Y709939D01*
X595609Y710040D01*
X595611Y710141D01*
X595611Y715560D01*
X595609Y715661D01*
X595603Y715762D01*
X595594Y715863D01*
X595581Y715964D01*
X595564Y716064D01*
X595543Y716163D01*
X595519Y716261D01*
X595491Y716358D01*
X595459Y716455D01*
X595424Y716550D01*
X595385Y716643D01*
X595343Y716735D01*
X595297Y716826D01*
X595248Y716915D01*
X595196Y717001D01*
X595140Y717086D01*
X595082Y717169D01*
X595020Y717249D01*
X594955Y717327D01*
X594888Y717403D01*
X594818Y717476D01*
X594745Y717546D01*
X594669Y717613D01*
X594591Y717678D01*
X594511Y717740D01*
X594428Y717798D01*
X594343Y717854D01*
X594257Y717906D01*
X594168Y717955D01*
X594077Y718001D01*
X593985Y718043D01*
X593892Y718082D01*
X593797Y718117D01*
X593700Y718149D01*
X593603Y718177D01*
X593505Y718201D01*
X593406Y718222D01*
X593306Y718239D01*
X593205Y718252D01*
X593104Y718261D01*
X593003Y718267D01*
X592902Y718269D01*
X589289Y718269D01*
X584942Y718269D02*
X579523Y718269D01*
X583136Y723688D02*
X583136Y710141D01*
X583135Y710141D02*
X583133Y710040D01*
X583127Y709939D01*
X583118Y709838D01*
X583105Y709737D01*
X583088Y709637D01*
X583067Y709538D01*
X583043Y709440D01*
X583015Y709343D01*
X582983Y709246D01*
X582948Y709151D01*
X582909Y709058D01*
X582867Y708966D01*
X582821Y708875D01*
X582772Y708787D01*
X582720Y708700D01*
X582664Y708615D01*
X582606Y708532D01*
X582544Y708452D01*
X582479Y708374D01*
X582412Y708298D01*
X582342Y708225D01*
X582269Y708155D01*
X582193Y708088D01*
X582115Y708023D01*
X582035Y707961D01*
X581952Y707903D01*
X581867Y707847D01*
X581781Y707795D01*
X581692Y707746D01*
X581601Y707700D01*
X581509Y707658D01*
X581416Y707619D01*
X581321Y707584D01*
X581224Y707552D01*
X581127Y707524D01*
X581029Y707500D01*
X580930Y707479D01*
X580830Y707462D01*
X580729Y707449D01*
X580628Y707440D01*
X580527Y707434D01*
X580426Y707432D01*
X579523Y707432D01*
X573224Y710141D02*
X573224Y718269D01*
X573223Y710141D02*
X573221Y710040D01*
X573215Y709939D01*
X573206Y709838D01*
X573193Y709737D01*
X573176Y709637D01*
X573155Y709538D01*
X573131Y709440D01*
X573103Y709343D01*
X573071Y709246D01*
X573036Y709151D01*
X572997Y709058D01*
X572955Y708966D01*
X572909Y708875D01*
X572860Y708787D01*
X572808Y708700D01*
X572752Y708615D01*
X572694Y708532D01*
X572632Y708452D01*
X572567Y708374D01*
X572500Y708298D01*
X572430Y708225D01*
X572357Y708155D01*
X572281Y708088D01*
X572203Y708023D01*
X572123Y707961D01*
X572040Y707903D01*
X571955Y707847D01*
X571869Y707795D01*
X571780Y707746D01*
X571689Y707700D01*
X571597Y707658D01*
X571504Y707619D01*
X571409Y707584D01*
X571312Y707552D01*
X571215Y707524D01*
X571117Y707500D01*
X571018Y707479D01*
X570918Y707462D01*
X570817Y707449D01*
X570716Y707440D01*
X570615Y707434D01*
X570514Y707432D01*
X565999Y707432D01*
X565999Y718269D01*
X558550Y718269D02*
X558550Y707432D01*
X558550Y718269D02*
X553131Y718269D01*
X553131Y716463D01*
X545504Y707432D02*
X540989Y707432D01*
X545504Y707432D02*
X545605Y707434D01*
X545706Y707440D01*
X545807Y707449D01*
X545908Y707462D01*
X546008Y707479D01*
X546107Y707500D01*
X546205Y707524D01*
X546302Y707552D01*
X546399Y707584D01*
X546494Y707619D01*
X546587Y707658D01*
X546679Y707700D01*
X546770Y707746D01*
X546859Y707795D01*
X546945Y707847D01*
X547030Y707903D01*
X547113Y707961D01*
X547193Y708023D01*
X547271Y708088D01*
X547347Y708155D01*
X547420Y708225D01*
X547490Y708298D01*
X547557Y708374D01*
X547622Y708452D01*
X547684Y708532D01*
X547742Y708615D01*
X547798Y708700D01*
X547850Y708787D01*
X547899Y708875D01*
X547945Y708966D01*
X547987Y709058D01*
X548026Y709151D01*
X548061Y709246D01*
X548093Y709343D01*
X548121Y709440D01*
X548145Y709538D01*
X548166Y709637D01*
X548183Y709737D01*
X548196Y709838D01*
X548205Y709939D01*
X548211Y710040D01*
X548213Y710141D01*
X548214Y710141D02*
X548214Y714657D01*
X548213Y714657D02*
X548211Y714776D01*
X548205Y714896D01*
X548195Y715015D01*
X548181Y715133D01*
X548164Y715252D01*
X548142Y715369D01*
X548117Y715486D01*
X548087Y715601D01*
X548054Y715716D01*
X548017Y715830D01*
X547977Y715942D01*
X547932Y716053D01*
X547884Y716162D01*
X547833Y716270D01*
X547778Y716376D01*
X547719Y716480D01*
X547657Y716582D01*
X547592Y716682D01*
X547523Y716780D01*
X547451Y716876D01*
X547376Y716969D01*
X547299Y717059D01*
X547218Y717147D01*
X547134Y717232D01*
X547047Y717314D01*
X546958Y717394D01*
X546866Y717470D01*
X546772Y717544D01*
X546675Y717614D01*
X546577Y717681D01*
X546476Y717745D01*
X546372Y717805D01*
X546267Y717862D01*
X546160Y717915D01*
X546052Y717965D01*
X545942Y718011D01*
X545830Y718053D01*
X545717Y718092D01*
X545603Y718127D01*
X545488Y718158D01*
X545371Y718186D01*
X545254Y718209D01*
X545137Y718229D01*
X545018Y718245D01*
X544899Y718257D01*
X544780Y718265D01*
X544661Y718269D01*
X544541Y718269D01*
X544422Y718265D01*
X544303Y718257D01*
X544184Y718245D01*
X544065Y718229D01*
X543948Y718209D01*
X543831Y718186D01*
X543714Y718158D01*
X543599Y718127D01*
X543485Y718092D01*
X543372Y718053D01*
X543260Y718011D01*
X543150Y717965D01*
X543042Y717915D01*
X542935Y717862D01*
X542830Y717805D01*
X542726Y717745D01*
X542625Y717681D01*
X542527Y717614D01*
X542430Y717544D01*
X542336Y717470D01*
X542244Y717394D01*
X542155Y717314D01*
X542068Y717232D01*
X541984Y717147D01*
X541903Y717059D01*
X541826Y716969D01*
X541751Y716876D01*
X541679Y716780D01*
X541610Y716682D01*
X541545Y716582D01*
X541483Y716480D01*
X541424Y716376D01*
X541369Y716270D01*
X541318Y716162D01*
X541270Y716053D01*
X541225Y715942D01*
X541185Y715830D01*
X541148Y715716D01*
X541115Y715601D01*
X541085Y715486D01*
X541060Y715369D01*
X541038Y715252D01*
X541021Y715133D01*
X541007Y715015D01*
X540997Y714896D01*
X540991Y714776D01*
X540989Y714657D01*
X540989Y712851D01*
X548214Y712851D01*
X519178Y707432D02*
X519178Y723688D01*
X519178Y707432D02*
X523694Y707432D01*
X523795Y707434D01*
X523896Y707440D01*
X523997Y707449D01*
X524098Y707462D01*
X524198Y707479D01*
X524297Y707500D01*
X524395Y707524D01*
X524492Y707552D01*
X524589Y707584D01*
X524684Y707619D01*
X524777Y707658D01*
X524869Y707700D01*
X524960Y707746D01*
X525049Y707795D01*
X525135Y707847D01*
X525220Y707903D01*
X525303Y707961D01*
X525383Y708023D01*
X525461Y708088D01*
X525537Y708155D01*
X525610Y708225D01*
X525680Y708298D01*
X525747Y708374D01*
X525812Y708452D01*
X525874Y708532D01*
X525932Y708615D01*
X525988Y708700D01*
X526040Y708787D01*
X526089Y708875D01*
X526135Y708966D01*
X526177Y709058D01*
X526216Y709151D01*
X526251Y709246D01*
X526283Y709343D01*
X526311Y709440D01*
X526335Y709538D01*
X526356Y709637D01*
X526373Y709737D01*
X526386Y709838D01*
X526395Y709939D01*
X526401Y710040D01*
X526403Y710141D01*
X526403Y715560D01*
X526401Y715661D01*
X526395Y715762D01*
X526386Y715863D01*
X526373Y715964D01*
X526356Y716064D01*
X526335Y716163D01*
X526311Y716261D01*
X526283Y716358D01*
X526251Y716455D01*
X526216Y716550D01*
X526177Y716643D01*
X526135Y716735D01*
X526089Y716826D01*
X526040Y716915D01*
X525988Y717001D01*
X525932Y717086D01*
X525874Y717169D01*
X525812Y717249D01*
X525747Y717327D01*
X525680Y717403D01*
X525610Y717476D01*
X525537Y717546D01*
X525461Y717613D01*
X525383Y717678D01*
X525303Y717740D01*
X525220Y717798D01*
X525135Y717854D01*
X525049Y717906D01*
X524960Y717955D01*
X524869Y718001D01*
X524777Y718043D01*
X524684Y718082D01*
X524589Y718117D01*
X524492Y718149D01*
X524395Y718177D01*
X524297Y718201D01*
X524198Y718222D01*
X524098Y718239D01*
X523997Y718252D01*
X523896Y718261D01*
X523795Y718267D01*
X523694Y718269D01*
X519178Y718269D01*
X509553Y707432D02*
X505037Y707432D01*
X509553Y707432D02*
X509654Y707434D01*
X509755Y707440D01*
X509856Y707449D01*
X509957Y707462D01*
X510057Y707479D01*
X510156Y707500D01*
X510254Y707524D01*
X510351Y707552D01*
X510448Y707584D01*
X510543Y707619D01*
X510636Y707658D01*
X510728Y707700D01*
X510819Y707746D01*
X510908Y707795D01*
X510994Y707847D01*
X511079Y707903D01*
X511162Y707961D01*
X511242Y708023D01*
X511320Y708088D01*
X511396Y708155D01*
X511469Y708225D01*
X511539Y708298D01*
X511606Y708374D01*
X511671Y708452D01*
X511733Y708532D01*
X511791Y708615D01*
X511847Y708700D01*
X511899Y708787D01*
X511948Y708875D01*
X511994Y708966D01*
X512036Y709058D01*
X512075Y709151D01*
X512110Y709246D01*
X512142Y709343D01*
X512170Y709440D01*
X512194Y709538D01*
X512215Y709637D01*
X512232Y709737D01*
X512245Y709838D01*
X512254Y709939D01*
X512260Y710040D01*
X512262Y710141D01*
X512262Y714657D01*
X512260Y714776D01*
X512254Y714896D01*
X512244Y715015D01*
X512230Y715133D01*
X512213Y715252D01*
X512191Y715369D01*
X512166Y715486D01*
X512136Y715601D01*
X512103Y715716D01*
X512066Y715830D01*
X512026Y715942D01*
X511981Y716053D01*
X511933Y716162D01*
X511882Y716270D01*
X511827Y716376D01*
X511768Y716480D01*
X511706Y716582D01*
X511641Y716682D01*
X511572Y716780D01*
X511500Y716876D01*
X511425Y716969D01*
X511348Y717059D01*
X511267Y717147D01*
X511183Y717232D01*
X511096Y717314D01*
X511007Y717394D01*
X510915Y717470D01*
X510821Y717544D01*
X510724Y717614D01*
X510626Y717681D01*
X510525Y717745D01*
X510421Y717805D01*
X510316Y717862D01*
X510209Y717915D01*
X510101Y717965D01*
X509991Y718011D01*
X509879Y718053D01*
X509766Y718092D01*
X509652Y718127D01*
X509537Y718158D01*
X509420Y718186D01*
X509303Y718209D01*
X509186Y718229D01*
X509067Y718245D01*
X508948Y718257D01*
X508829Y718265D01*
X508710Y718269D01*
X508590Y718269D01*
X508471Y718265D01*
X508352Y718257D01*
X508233Y718245D01*
X508114Y718229D01*
X507997Y718209D01*
X507880Y718186D01*
X507763Y718158D01*
X507648Y718127D01*
X507534Y718092D01*
X507421Y718053D01*
X507309Y718011D01*
X507199Y717965D01*
X507091Y717915D01*
X506984Y717862D01*
X506879Y717805D01*
X506775Y717745D01*
X506674Y717681D01*
X506576Y717614D01*
X506479Y717544D01*
X506385Y717470D01*
X506293Y717394D01*
X506204Y717314D01*
X506117Y717232D01*
X506033Y717147D01*
X505952Y717059D01*
X505875Y716969D01*
X505800Y716876D01*
X505728Y716780D01*
X505659Y716682D01*
X505594Y716582D01*
X505532Y716480D01*
X505473Y716376D01*
X505418Y716270D01*
X505367Y716162D01*
X505319Y716053D01*
X505274Y715942D01*
X505234Y715830D01*
X505197Y715716D01*
X505164Y715601D01*
X505134Y715486D01*
X505109Y715369D01*
X505087Y715252D01*
X505070Y715133D01*
X505056Y715015D01*
X505046Y714896D01*
X505040Y714776D01*
X505038Y714657D01*
X505037Y714657D02*
X505037Y712851D01*
X512262Y712851D01*
X497360Y713754D02*
X492845Y711948D01*
X497361Y713754D02*
X497449Y713791D01*
X497535Y713832D01*
X497620Y713876D01*
X497703Y713924D01*
X497783Y713975D01*
X497862Y714029D01*
X497938Y714087D01*
X498012Y714147D01*
X498084Y714211D01*
X498152Y714277D01*
X498218Y714347D01*
X498281Y714418D01*
X498342Y714493D01*
X498399Y714569D01*
X498452Y714648D01*
X498503Y714729D01*
X498550Y714812D01*
X498594Y714897D01*
X498634Y714984D01*
X498671Y715072D01*
X498704Y715162D01*
X498734Y715253D01*
X498759Y715345D01*
X498781Y715438D01*
X498799Y715532D01*
X498814Y715626D01*
X498824Y715721D01*
X498830Y715817D01*
X498833Y715912D01*
X498832Y716008D01*
X498826Y716103D01*
X498817Y716199D01*
X498804Y716293D01*
X498788Y716387D01*
X498767Y716481D01*
X498742Y716573D01*
X498714Y716664D01*
X498682Y716754D01*
X498647Y716843D01*
X498608Y716930D01*
X498565Y717016D01*
X498519Y717100D01*
X498469Y717181D01*
X498417Y717261D01*
X498361Y717339D01*
X498301Y717414D01*
X498239Y717486D01*
X498174Y717556D01*
X498106Y717624D01*
X498036Y717688D01*
X497963Y717750D01*
X497887Y717808D01*
X497809Y717864D01*
X497729Y717916D01*
X497647Y717965D01*
X497563Y718010D01*
X497477Y718052D01*
X497390Y718091D01*
X497301Y718126D01*
X497210Y718157D01*
X497119Y718184D01*
X497026Y718208D01*
X496933Y718228D01*
X496839Y718244D01*
X496744Y718256D01*
X496649Y718265D01*
X496553Y718269D01*
X496458Y718270D01*
X496211Y718263D01*
X495965Y718251D01*
X495719Y718233D01*
X495473Y718208D01*
X495229Y718178D01*
X494985Y718142D01*
X494742Y718101D01*
X494500Y718053D01*
X494259Y717999D01*
X494020Y717940D01*
X493782Y717875D01*
X493546Y717804D01*
X493311Y717728D01*
X493078Y717646D01*
X492848Y717558D01*
X492620Y717465D01*
X492393Y717367D01*
X492844Y711947D02*
X492756Y711910D01*
X492670Y711869D01*
X492585Y711825D01*
X492502Y711777D01*
X492422Y711726D01*
X492343Y711672D01*
X492267Y711614D01*
X492193Y711554D01*
X492121Y711490D01*
X492053Y711424D01*
X491987Y711354D01*
X491924Y711283D01*
X491863Y711208D01*
X491806Y711132D01*
X491753Y711053D01*
X491702Y710972D01*
X491655Y710889D01*
X491611Y710804D01*
X491571Y710717D01*
X491534Y710629D01*
X491501Y710539D01*
X491471Y710448D01*
X491446Y710356D01*
X491424Y710263D01*
X491406Y710169D01*
X491391Y710075D01*
X491381Y709980D01*
X491375Y709884D01*
X491372Y709789D01*
X491373Y709693D01*
X491379Y709598D01*
X491388Y709502D01*
X491401Y709408D01*
X491417Y709314D01*
X491438Y709220D01*
X491463Y709128D01*
X491491Y709037D01*
X491523Y708947D01*
X491558Y708858D01*
X491597Y708771D01*
X491640Y708685D01*
X491686Y708601D01*
X491736Y708520D01*
X491788Y708440D01*
X491844Y708362D01*
X491904Y708287D01*
X491966Y708215D01*
X492031Y708145D01*
X492099Y708077D01*
X492169Y708013D01*
X492242Y707951D01*
X492318Y707893D01*
X492396Y707837D01*
X492476Y707785D01*
X492558Y707736D01*
X492642Y707691D01*
X492728Y707649D01*
X492815Y707610D01*
X492904Y707575D01*
X492995Y707544D01*
X493086Y707517D01*
X493179Y707493D01*
X493272Y707473D01*
X493366Y707457D01*
X493461Y707445D01*
X493556Y707436D01*
X493652Y707432D01*
X493747Y707431D01*
X493748Y707432D02*
X494110Y707441D01*
X494472Y707459D01*
X494833Y707486D01*
X495193Y707521D01*
X495553Y707564D01*
X495912Y707616D01*
X496269Y707677D01*
X496624Y707746D01*
X496978Y707823D01*
X497330Y707909D01*
X497680Y708003D01*
X498028Y708106D01*
X498373Y708216D01*
X498715Y708335D01*
X485203Y707432D02*
X485203Y718269D01*
X485654Y722785D02*
X485654Y723688D01*
X484751Y723688D01*
X484751Y722785D01*
X485654Y722785D01*
X476279Y707432D02*
X471764Y707432D01*
X476279Y707432D02*
X476380Y707434D01*
X476481Y707440D01*
X476582Y707449D01*
X476683Y707462D01*
X476783Y707479D01*
X476882Y707500D01*
X476980Y707524D01*
X477077Y707552D01*
X477174Y707584D01*
X477269Y707619D01*
X477362Y707658D01*
X477454Y707700D01*
X477545Y707746D01*
X477634Y707795D01*
X477720Y707847D01*
X477805Y707903D01*
X477888Y707961D01*
X477968Y708023D01*
X478046Y708088D01*
X478122Y708155D01*
X478195Y708225D01*
X478265Y708298D01*
X478332Y708374D01*
X478397Y708452D01*
X478459Y708532D01*
X478517Y708615D01*
X478573Y708700D01*
X478625Y708787D01*
X478674Y708875D01*
X478720Y708966D01*
X478762Y709058D01*
X478801Y709151D01*
X478836Y709246D01*
X478868Y709343D01*
X478896Y709440D01*
X478920Y709538D01*
X478941Y709637D01*
X478958Y709737D01*
X478971Y709838D01*
X478980Y709939D01*
X478986Y710040D01*
X478988Y710141D01*
X478989Y710141D02*
X478989Y715560D01*
X478988Y715560D02*
X478986Y715661D01*
X478980Y715762D01*
X478971Y715863D01*
X478958Y715964D01*
X478941Y716064D01*
X478920Y716163D01*
X478896Y716261D01*
X478868Y716358D01*
X478836Y716455D01*
X478801Y716550D01*
X478762Y716643D01*
X478720Y716735D01*
X478674Y716826D01*
X478625Y716915D01*
X478573Y717001D01*
X478517Y717086D01*
X478459Y717169D01*
X478397Y717249D01*
X478332Y717327D01*
X478265Y717403D01*
X478195Y717476D01*
X478122Y717546D01*
X478046Y717613D01*
X477968Y717678D01*
X477888Y717740D01*
X477805Y717798D01*
X477720Y717854D01*
X477634Y717906D01*
X477545Y717955D01*
X477454Y718001D01*
X477362Y718043D01*
X477269Y718082D01*
X477174Y718117D01*
X477077Y718149D01*
X476980Y718177D01*
X476882Y718201D01*
X476783Y718222D01*
X476683Y718239D01*
X476582Y718252D01*
X476481Y718261D01*
X476380Y718267D01*
X476279Y718269D01*
X471764Y718269D01*
X471764Y704723D01*
X471766Y704622D01*
X471772Y704521D01*
X471781Y704420D01*
X471794Y704319D01*
X471811Y704219D01*
X471832Y704120D01*
X471856Y704022D01*
X471884Y703925D01*
X471916Y703828D01*
X471951Y703733D01*
X471990Y703640D01*
X472032Y703548D01*
X472078Y703457D01*
X472127Y703369D01*
X472179Y703282D01*
X472235Y703197D01*
X472293Y703114D01*
X472355Y703034D01*
X472420Y702956D01*
X472487Y702880D01*
X472557Y702807D01*
X472630Y702737D01*
X472706Y702670D01*
X472784Y702605D01*
X472864Y702543D01*
X472947Y702485D01*
X473032Y702429D01*
X473119Y702377D01*
X473207Y702328D01*
X473298Y702282D01*
X473390Y702240D01*
X473483Y702201D01*
X473578Y702166D01*
X473675Y702134D01*
X473772Y702106D01*
X473870Y702082D01*
X473969Y702061D01*
X474069Y702044D01*
X474170Y702031D01*
X474271Y702022D01*
X474372Y702016D01*
X474473Y702014D01*
X474473Y702013D02*
X478086Y702013D01*
X464326Y707432D02*
X464326Y718269D01*
X459811Y718269D01*
X459707Y718267D01*
X459604Y718261D01*
X459500Y718251D01*
X459397Y718237D01*
X459295Y718219D01*
X459194Y718198D01*
X459093Y718172D01*
X458994Y718143D01*
X458895Y718110D01*
X458798Y718073D01*
X458703Y718032D01*
X458609Y717988D01*
X458517Y717940D01*
X458427Y717889D01*
X458338Y717834D01*
X458252Y717776D01*
X458169Y717714D01*
X458087Y717650D01*
X458009Y717582D01*
X457933Y717512D01*
X457859Y717439D01*
X457789Y717362D01*
X457721Y717284D01*
X457657Y717202D01*
X457595Y717119D01*
X457537Y717033D01*
X457482Y716944D01*
X457431Y716854D01*
X457383Y716762D01*
X457339Y716668D01*
X457298Y716573D01*
X457261Y716476D01*
X457228Y716377D01*
X457199Y716278D01*
X457173Y716177D01*
X457152Y716076D01*
X457134Y715974D01*
X457120Y715871D01*
X457110Y715767D01*
X457104Y715664D01*
X457102Y715560D01*
X457101Y715560D02*
X457101Y707432D01*
X441327Y707432D02*
X441327Y723688D01*
X441327Y707432D02*
X436812Y707432D01*
X436708Y707434D01*
X436605Y707440D01*
X436501Y707450D01*
X436398Y707464D01*
X436296Y707482D01*
X436195Y707503D01*
X436094Y707529D01*
X435995Y707558D01*
X435896Y707591D01*
X435799Y707628D01*
X435704Y707669D01*
X435610Y707713D01*
X435518Y707761D01*
X435428Y707812D01*
X435339Y707867D01*
X435253Y707925D01*
X435170Y707987D01*
X435088Y708051D01*
X435010Y708119D01*
X434934Y708189D01*
X434860Y708262D01*
X434790Y708339D01*
X434722Y708417D01*
X434658Y708499D01*
X434596Y708582D01*
X434538Y708668D01*
X434483Y708757D01*
X434432Y708847D01*
X434384Y708939D01*
X434340Y709033D01*
X434299Y709128D01*
X434262Y709225D01*
X434229Y709324D01*
X434200Y709423D01*
X434174Y709524D01*
X434153Y709625D01*
X434135Y709727D01*
X434121Y709830D01*
X434111Y709934D01*
X434105Y710037D01*
X434103Y710141D01*
X434102Y710141D02*
X434102Y715560D01*
X434103Y715560D02*
X434105Y715661D01*
X434111Y715762D01*
X434120Y715863D01*
X434133Y715964D01*
X434150Y716064D01*
X434171Y716163D01*
X434195Y716261D01*
X434223Y716358D01*
X434255Y716455D01*
X434290Y716550D01*
X434329Y716643D01*
X434371Y716735D01*
X434417Y716826D01*
X434466Y716915D01*
X434518Y717001D01*
X434574Y717086D01*
X434632Y717169D01*
X434694Y717249D01*
X434759Y717327D01*
X434826Y717403D01*
X434896Y717476D01*
X434969Y717546D01*
X435045Y717613D01*
X435123Y717678D01*
X435203Y717740D01*
X435286Y717798D01*
X435371Y717854D01*
X435458Y717906D01*
X435546Y717955D01*
X435637Y718001D01*
X435729Y718043D01*
X435822Y718082D01*
X435917Y718117D01*
X436014Y718149D01*
X436111Y718177D01*
X436209Y718201D01*
X436308Y718222D01*
X436408Y718239D01*
X436509Y718252D01*
X436610Y718261D01*
X436711Y718267D01*
X436812Y718269D01*
X441327Y718269D01*
X428374Y702013D02*
X426568Y702013D01*
X421150Y718269D01*
X428374Y718269D02*
X424762Y707432D01*
X415314Y708787D02*
X415314Y709690D01*
X414411Y709690D01*
X414411Y708787D01*
X415314Y708787D01*
X415314Y716012D02*
X415314Y716915D01*
X414411Y716915D01*
X414411Y716012D01*
X415314Y716012D01*
X399057Y723688D02*
X399057Y707432D01*
X399057Y723688D02*
X394542Y723688D01*
X394411Y723686D01*
X394279Y723680D01*
X394148Y723671D01*
X394018Y723657D01*
X393887Y723640D01*
X393758Y723619D01*
X393629Y723595D01*
X393501Y723566D01*
X393373Y723534D01*
X393247Y723498D01*
X393122Y723459D01*
X392997Y723416D01*
X392875Y723369D01*
X392753Y723319D01*
X392633Y723265D01*
X392515Y723208D01*
X392399Y723147D01*
X392284Y723083D01*
X392171Y723016D01*
X392060Y722945D01*
X391952Y722871D01*
X391845Y722794D01*
X391741Y722714D01*
X391639Y722631D01*
X391540Y722546D01*
X391443Y722457D01*
X391349Y722365D01*
X391257Y722271D01*
X391168Y722174D01*
X391083Y722075D01*
X391000Y721973D01*
X390920Y721869D01*
X390843Y721762D01*
X390769Y721654D01*
X390698Y721543D01*
X390631Y721430D01*
X390567Y721315D01*
X390506Y721199D01*
X390449Y721081D01*
X390395Y720961D01*
X390345Y720839D01*
X390298Y720717D01*
X390255Y720592D01*
X390216Y720467D01*
X390180Y720341D01*
X390148Y720213D01*
X390119Y720085D01*
X390095Y719956D01*
X390074Y719827D01*
X390057Y719696D01*
X390043Y719566D01*
X390034Y719435D01*
X390028Y719303D01*
X390026Y719172D01*
X390026Y711948D01*
X390028Y711817D01*
X390034Y711685D01*
X390043Y711554D01*
X390057Y711424D01*
X390074Y711293D01*
X390095Y711164D01*
X390119Y711035D01*
X390148Y710907D01*
X390180Y710779D01*
X390216Y710653D01*
X390255Y710528D01*
X390298Y710403D01*
X390345Y710281D01*
X390395Y710159D01*
X390449Y710039D01*
X390506Y709921D01*
X390567Y709805D01*
X390631Y709690D01*
X390698Y709577D01*
X390769Y709466D01*
X390843Y709358D01*
X390920Y709251D01*
X391000Y709147D01*
X391083Y709045D01*
X391168Y708946D01*
X391257Y708849D01*
X391349Y708755D01*
X391443Y708663D01*
X391540Y708574D01*
X391639Y708489D01*
X391741Y708406D01*
X391845Y708326D01*
X391952Y708249D01*
X392060Y708175D01*
X392171Y708104D01*
X392284Y708037D01*
X392399Y707973D01*
X392515Y707912D01*
X392633Y707855D01*
X392753Y707801D01*
X392875Y707751D01*
X392997Y707704D01*
X393122Y707661D01*
X393247Y707622D01*
X393373Y707586D01*
X393501Y707554D01*
X393629Y707525D01*
X393758Y707501D01*
X393887Y707480D01*
X394018Y707463D01*
X394148Y707449D01*
X394279Y707440D01*
X394411Y707434D01*
X394542Y707432D01*
X399057Y707432D01*
X382438Y707432D02*
X382438Y718269D01*
X377019Y718269D01*
X377019Y716463D01*
X372589Y708335D02*
X372589Y707432D01*
X372589Y708335D02*
X371685Y708335D01*
X371685Y707432D01*
X372589Y707432D01*
X356823Y707432D02*
X356823Y723688D01*
X356823Y707432D02*
X349598Y707432D01*
X344001Y707432D02*
X344001Y718269D01*
X344452Y722785D02*
X344452Y723688D01*
X343549Y723688D01*
X343549Y722785D01*
X344452Y722785D01*
X337192Y718269D02*
X337192Y707432D01*
X337192Y718269D02*
X332677Y718269D01*
X332573Y718267D01*
X332470Y718261D01*
X332366Y718251D01*
X332263Y718237D01*
X332161Y718219D01*
X332060Y718198D01*
X331959Y718172D01*
X331860Y718143D01*
X331761Y718110D01*
X331664Y718073D01*
X331569Y718032D01*
X331475Y717988D01*
X331383Y717940D01*
X331293Y717889D01*
X331204Y717834D01*
X331118Y717776D01*
X331035Y717714D01*
X330953Y717650D01*
X330875Y717582D01*
X330799Y717512D01*
X330725Y717439D01*
X330655Y717362D01*
X330587Y717284D01*
X330523Y717202D01*
X330461Y717119D01*
X330403Y717033D01*
X330348Y716944D01*
X330297Y716854D01*
X330249Y716762D01*
X330205Y716668D01*
X330164Y716573D01*
X330127Y716476D01*
X330094Y716377D01*
X330065Y716278D01*
X330039Y716177D01*
X330018Y716076D01*
X330000Y715974D01*
X329986Y715871D01*
X329976Y715767D01*
X329970Y715664D01*
X329968Y715560D01*
X329968Y707432D01*
X315973Y707432D02*
X315973Y723688D01*
X315973Y707432D02*
X320488Y707432D01*
X320589Y707434D01*
X320690Y707440D01*
X320791Y707449D01*
X320892Y707462D01*
X320992Y707479D01*
X321091Y707500D01*
X321189Y707524D01*
X321286Y707552D01*
X321383Y707584D01*
X321478Y707619D01*
X321571Y707658D01*
X321663Y707700D01*
X321754Y707746D01*
X321843Y707795D01*
X321929Y707847D01*
X322014Y707903D01*
X322097Y707961D01*
X322177Y708023D01*
X322255Y708088D01*
X322331Y708155D01*
X322404Y708225D01*
X322474Y708298D01*
X322541Y708374D01*
X322606Y708452D01*
X322668Y708532D01*
X322726Y708615D01*
X322782Y708700D01*
X322834Y708787D01*
X322883Y708875D01*
X322929Y708966D01*
X322971Y709058D01*
X323010Y709151D01*
X323045Y709246D01*
X323077Y709343D01*
X323105Y709440D01*
X323129Y709538D01*
X323150Y709637D01*
X323167Y709737D01*
X323180Y709838D01*
X323189Y709939D01*
X323195Y710040D01*
X323197Y710141D01*
X323198Y710141D02*
X323198Y715560D01*
X323197Y715560D02*
X323195Y715661D01*
X323189Y715762D01*
X323180Y715863D01*
X323167Y715964D01*
X323150Y716064D01*
X323129Y716163D01*
X323105Y716261D01*
X323077Y716358D01*
X323045Y716455D01*
X323010Y716550D01*
X322971Y716643D01*
X322929Y716735D01*
X322883Y716826D01*
X322834Y716915D01*
X322782Y717001D01*
X322726Y717086D01*
X322668Y717169D01*
X322606Y717249D01*
X322541Y717327D01*
X322474Y717403D01*
X322404Y717476D01*
X322331Y717546D01*
X322255Y717613D01*
X322177Y717678D01*
X322097Y717740D01*
X322014Y717798D01*
X321929Y717854D01*
X321843Y717906D01*
X321754Y717955D01*
X321663Y718001D01*
X321571Y718043D01*
X321478Y718082D01*
X321383Y718117D01*
X321286Y718149D01*
X321189Y718177D01*
X321091Y718201D01*
X320992Y718222D01*
X320892Y718239D01*
X320791Y718252D01*
X320690Y718261D01*
X320589Y718267D01*
X320488Y718269D01*
X315973Y718269D01*
X305969Y713754D02*
X301905Y713754D01*
X305969Y713754D02*
X306081Y713752D01*
X306192Y713746D01*
X306303Y713736D01*
X306414Y713723D01*
X306524Y713705D01*
X306633Y713683D01*
X306742Y713658D01*
X306850Y713629D01*
X306956Y713596D01*
X307062Y713559D01*
X307166Y713519D01*
X307268Y713475D01*
X307369Y713427D01*
X307468Y713376D01*
X307566Y713321D01*
X307661Y713263D01*
X307754Y713202D01*
X307845Y713137D01*
X307934Y713069D01*
X308020Y712998D01*
X308103Y712925D01*
X308184Y712848D01*
X308263Y712768D01*
X308338Y712686D01*
X308410Y712601D01*
X308480Y712514D01*
X308546Y712424D01*
X308609Y712332D01*
X308669Y712237D01*
X308725Y712141D01*
X308778Y712043D01*
X308827Y711943D01*
X308873Y711841D01*
X308915Y711738D01*
X308954Y711633D01*
X308989Y711527D01*
X309020Y711420D01*
X309047Y711312D01*
X309071Y711203D01*
X309090Y711093D01*
X309106Y710983D01*
X309118Y710872D01*
X309126Y710760D01*
X309130Y710649D01*
X309130Y710537D01*
X309126Y710426D01*
X309118Y710314D01*
X309106Y710203D01*
X309090Y710093D01*
X309071Y709983D01*
X309047Y709874D01*
X309020Y709766D01*
X308989Y709659D01*
X308954Y709553D01*
X308915Y709448D01*
X308873Y709345D01*
X308827Y709243D01*
X308778Y709143D01*
X308725Y709045D01*
X308669Y708949D01*
X308609Y708854D01*
X308546Y708762D01*
X308480Y708672D01*
X308410Y708585D01*
X308338Y708500D01*
X308263Y708418D01*
X308184Y708338D01*
X308103Y708261D01*
X308020Y708188D01*
X307934Y708117D01*
X307845Y708049D01*
X307754Y707984D01*
X307661Y707923D01*
X307566Y707865D01*
X307468Y707810D01*
X307369Y707759D01*
X307268Y707711D01*
X307166Y707667D01*
X307062Y707627D01*
X306956Y707590D01*
X306850Y707557D01*
X306742Y707528D01*
X306633Y707503D01*
X306524Y707481D01*
X306414Y707463D01*
X306303Y707450D01*
X306192Y707440D01*
X306081Y707434D01*
X305969Y707432D01*
X301905Y707432D01*
X301905Y715560D01*
X301907Y715661D01*
X301913Y715762D01*
X301922Y715863D01*
X301935Y715964D01*
X301952Y716064D01*
X301973Y716163D01*
X301997Y716261D01*
X302025Y716358D01*
X302057Y716455D01*
X302092Y716550D01*
X302131Y716643D01*
X302173Y716735D01*
X302219Y716826D01*
X302268Y716915D01*
X302320Y717001D01*
X302376Y717086D01*
X302434Y717169D01*
X302496Y717249D01*
X302561Y717327D01*
X302628Y717403D01*
X302698Y717476D01*
X302771Y717546D01*
X302847Y717613D01*
X302925Y717678D01*
X303005Y717740D01*
X303088Y717798D01*
X303173Y717854D01*
X303260Y717906D01*
X303348Y717955D01*
X303439Y718001D01*
X303531Y718043D01*
X303624Y718082D01*
X303719Y718117D01*
X303816Y718149D01*
X303913Y718177D01*
X304011Y718201D01*
X304110Y718222D01*
X304210Y718239D01*
X304311Y718252D01*
X304412Y718261D01*
X304513Y718267D01*
X304614Y718269D01*
X308226Y718269D01*
X285992Y723688D02*
X285992Y707432D01*
X276960Y707432D02*
X285992Y723688D01*
X276960Y723688D02*
X276960Y707432D01*
X269457Y710141D02*
X269457Y718269D01*
X269457Y710141D02*
X269455Y710040D01*
X269449Y709939D01*
X269440Y709838D01*
X269427Y709737D01*
X269410Y709637D01*
X269389Y709538D01*
X269365Y709440D01*
X269337Y709343D01*
X269305Y709246D01*
X269270Y709151D01*
X269231Y709058D01*
X269189Y708966D01*
X269143Y708875D01*
X269094Y708787D01*
X269042Y708700D01*
X268986Y708615D01*
X268928Y708532D01*
X268866Y708452D01*
X268801Y708374D01*
X268734Y708298D01*
X268664Y708225D01*
X268591Y708155D01*
X268515Y708088D01*
X268437Y708023D01*
X268357Y707961D01*
X268274Y707903D01*
X268189Y707847D01*
X268103Y707795D01*
X268014Y707746D01*
X267923Y707700D01*
X267831Y707658D01*
X267738Y707619D01*
X267643Y707584D01*
X267546Y707552D01*
X267449Y707524D01*
X267351Y707500D01*
X267252Y707479D01*
X267152Y707462D01*
X267051Y707449D01*
X266950Y707440D01*
X266849Y707434D01*
X266748Y707432D01*
X262232Y707432D01*
X262232Y718269D01*
X255152Y723688D02*
X255152Y710141D01*
X255150Y710040D01*
X255144Y709939D01*
X255135Y709838D01*
X255122Y709737D01*
X255105Y709637D01*
X255084Y709538D01*
X255060Y709440D01*
X255032Y709343D01*
X255000Y709246D01*
X254965Y709151D01*
X254926Y709058D01*
X254884Y708966D01*
X254838Y708875D01*
X254789Y708787D01*
X254737Y708700D01*
X254681Y708615D01*
X254623Y708532D01*
X254561Y708452D01*
X254496Y708374D01*
X254429Y708298D01*
X254359Y708225D01*
X254286Y708155D01*
X254210Y708088D01*
X254132Y708023D01*
X254052Y707961D01*
X253969Y707903D01*
X253884Y707847D01*
X253798Y707795D01*
X253709Y707746D01*
X253618Y707700D01*
X253526Y707658D01*
X253433Y707619D01*
X253338Y707584D01*
X253241Y707552D01*
X253144Y707524D01*
X253046Y707500D01*
X252947Y707479D01*
X252847Y707462D01*
X252746Y707449D01*
X252645Y707440D01*
X252544Y707434D01*
X252443Y707432D01*
X246816Y710141D02*
X246816Y723688D01*
X246815Y710141D02*
X246813Y710040D01*
X246807Y709939D01*
X246798Y709838D01*
X246785Y709737D01*
X246768Y709637D01*
X246747Y709538D01*
X246723Y709440D01*
X246695Y709343D01*
X246663Y709246D01*
X246628Y709151D01*
X246589Y709058D01*
X246547Y708966D01*
X246501Y708875D01*
X246452Y708787D01*
X246400Y708700D01*
X246344Y708615D01*
X246286Y708532D01*
X246224Y708452D01*
X246159Y708374D01*
X246092Y708298D01*
X246022Y708225D01*
X245949Y708155D01*
X245873Y708088D01*
X245795Y708023D01*
X245715Y707961D01*
X245632Y707903D01*
X245547Y707847D01*
X245461Y707795D01*
X245372Y707746D01*
X245281Y707700D01*
X245189Y707658D01*
X245096Y707619D01*
X245001Y707584D01*
X244904Y707552D01*
X244807Y707524D01*
X244709Y707500D01*
X244610Y707479D01*
X244510Y707462D01*
X244409Y707449D01*
X244308Y707440D01*
X244207Y707434D01*
X244106Y707432D01*
X679238Y697018D02*
X679238Y680762D01*
X679238Y689793D02*
X670207Y689793D01*
X670207Y697018D02*
X670207Y680762D01*
X660137Y687084D02*
X656073Y687084D01*
X660137Y687084D02*
X660249Y687082D01*
X660360Y687076D01*
X660471Y687066D01*
X660582Y687053D01*
X660692Y687035D01*
X660801Y687013D01*
X660910Y686988D01*
X661018Y686959D01*
X661124Y686926D01*
X661230Y686889D01*
X661334Y686849D01*
X661436Y686805D01*
X661537Y686757D01*
X661636Y686706D01*
X661734Y686651D01*
X661829Y686593D01*
X661922Y686532D01*
X662013Y686467D01*
X662102Y686399D01*
X662188Y686328D01*
X662271Y686255D01*
X662352Y686178D01*
X662431Y686098D01*
X662506Y686016D01*
X662578Y685931D01*
X662648Y685844D01*
X662714Y685754D01*
X662777Y685662D01*
X662837Y685567D01*
X662893Y685471D01*
X662946Y685373D01*
X662995Y685273D01*
X663041Y685171D01*
X663083Y685068D01*
X663122Y684963D01*
X663157Y684857D01*
X663188Y684750D01*
X663215Y684642D01*
X663239Y684533D01*
X663258Y684423D01*
X663274Y684313D01*
X663286Y684202D01*
X663294Y684090D01*
X663298Y683979D01*
X663298Y683867D01*
X663294Y683756D01*
X663286Y683644D01*
X663274Y683533D01*
X663258Y683423D01*
X663239Y683313D01*
X663215Y683204D01*
X663188Y683096D01*
X663157Y682989D01*
X663122Y682883D01*
X663083Y682778D01*
X663041Y682675D01*
X662995Y682573D01*
X662946Y682473D01*
X662893Y682375D01*
X662837Y682279D01*
X662777Y682184D01*
X662714Y682092D01*
X662648Y682002D01*
X662578Y681915D01*
X662506Y681830D01*
X662431Y681748D01*
X662352Y681668D01*
X662271Y681591D01*
X662188Y681518D01*
X662102Y681447D01*
X662013Y681379D01*
X661922Y681314D01*
X661829Y681253D01*
X661734Y681195D01*
X661636Y681140D01*
X661537Y681089D01*
X661436Y681041D01*
X661334Y680997D01*
X661230Y680957D01*
X661124Y680920D01*
X661018Y680887D01*
X660910Y680858D01*
X660801Y680833D01*
X660692Y680811D01*
X660582Y680793D01*
X660471Y680780D01*
X660360Y680770D01*
X660249Y680764D01*
X660137Y680762D01*
X656073Y680762D01*
X656073Y688890D01*
X656075Y688991D01*
X656081Y689092D01*
X656090Y689193D01*
X656103Y689294D01*
X656120Y689394D01*
X656141Y689493D01*
X656165Y689591D01*
X656193Y689688D01*
X656225Y689785D01*
X656260Y689880D01*
X656299Y689973D01*
X656341Y690065D01*
X656387Y690156D01*
X656436Y690245D01*
X656488Y690331D01*
X656544Y690416D01*
X656602Y690499D01*
X656664Y690579D01*
X656729Y690657D01*
X656796Y690733D01*
X656866Y690806D01*
X656939Y690876D01*
X657015Y690943D01*
X657093Y691008D01*
X657173Y691070D01*
X657256Y691128D01*
X657341Y691184D01*
X657428Y691236D01*
X657516Y691285D01*
X657607Y691331D01*
X657699Y691373D01*
X657792Y691412D01*
X657887Y691447D01*
X657984Y691479D01*
X658081Y691507D01*
X658179Y691531D01*
X658278Y691552D01*
X658378Y691569D01*
X658479Y691582D01*
X658580Y691591D01*
X658681Y691597D01*
X658782Y691599D01*
X662395Y691599D01*
X648551Y691599D02*
X648551Y680762D01*
X648551Y691599D02*
X643132Y691599D01*
X643132Y689793D01*
X631063Y697018D02*
X631063Y680762D01*
X635579Y680762D01*
X635680Y680764D01*
X635781Y680770D01*
X635882Y680779D01*
X635983Y680792D01*
X636083Y680809D01*
X636182Y680830D01*
X636280Y680854D01*
X636377Y680882D01*
X636474Y680914D01*
X636569Y680949D01*
X636662Y680988D01*
X636754Y681030D01*
X636845Y681076D01*
X636934Y681125D01*
X637020Y681177D01*
X637105Y681233D01*
X637188Y681291D01*
X637268Y681353D01*
X637346Y681418D01*
X637422Y681485D01*
X637495Y681555D01*
X637565Y681628D01*
X637632Y681704D01*
X637697Y681782D01*
X637759Y681862D01*
X637817Y681945D01*
X637873Y682030D01*
X637925Y682117D01*
X637974Y682205D01*
X638020Y682296D01*
X638062Y682388D01*
X638101Y682481D01*
X638136Y682576D01*
X638168Y682673D01*
X638196Y682770D01*
X638220Y682868D01*
X638241Y682967D01*
X638258Y683067D01*
X638271Y683168D01*
X638280Y683269D01*
X638286Y683370D01*
X638288Y683471D01*
X638288Y688890D01*
X638286Y688991D01*
X638280Y689092D01*
X638271Y689193D01*
X638258Y689294D01*
X638241Y689394D01*
X638220Y689493D01*
X638196Y689591D01*
X638168Y689688D01*
X638136Y689785D01*
X638101Y689880D01*
X638062Y689973D01*
X638020Y690065D01*
X637974Y690156D01*
X637925Y690245D01*
X637873Y690331D01*
X637817Y690416D01*
X637759Y690499D01*
X637697Y690579D01*
X637632Y690657D01*
X637565Y690733D01*
X637495Y690806D01*
X637422Y690876D01*
X637346Y690943D01*
X637268Y691008D01*
X637188Y691070D01*
X637105Y691128D01*
X637020Y691184D01*
X636934Y691236D01*
X636845Y691285D01*
X636754Y691331D01*
X636662Y691373D01*
X636569Y691412D01*
X636474Y691447D01*
X636377Y691479D01*
X636280Y691507D01*
X636182Y691531D01*
X636083Y691552D01*
X635983Y691569D01*
X635882Y691582D01*
X635781Y691591D01*
X635680Y691597D01*
X635579Y691599D01*
X631063Y691599D01*
X624390Y691599D02*
X621680Y680762D01*
X618971Y687987D01*
X616262Y680762D01*
X613552Y691599D01*
X604386Y687084D02*
X600322Y687084D01*
X604386Y687084D02*
X604498Y687082D01*
X604609Y687076D01*
X604720Y687066D01*
X604831Y687053D01*
X604941Y687035D01*
X605050Y687013D01*
X605159Y686988D01*
X605267Y686959D01*
X605373Y686926D01*
X605479Y686889D01*
X605583Y686849D01*
X605685Y686805D01*
X605786Y686757D01*
X605885Y686706D01*
X605983Y686651D01*
X606078Y686593D01*
X606171Y686532D01*
X606262Y686467D01*
X606351Y686399D01*
X606437Y686328D01*
X606520Y686255D01*
X606601Y686178D01*
X606680Y686098D01*
X606755Y686016D01*
X606827Y685931D01*
X606897Y685844D01*
X606963Y685754D01*
X607026Y685662D01*
X607086Y685567D01*
X607142Y685471D01*
X607195Y685373D01*
X607244Y685273D01*
X607290Y685171D01*
X607332Y685068D01*
X607371Y684963D01*
X607406Y684857D01*
X607437Y684750D01*
X607464Y684642D01*
X607488Y684533D01*
X607507Y684423D01*
X607523Y684313D01*
X607535Y684202D01*
X607543Y684090D01*
X607547Y683979D01*
X607547Y683867D01*
X607543Y683756D01*
X607535Y683644D01*
X607523Y683533D01*
X607507Y683423D01*
X607488Y683313D01*
X607464Y683204D01*
X607437Y683096D01*
X607406Y682989D01*
X607371Y682883D01*
X607332Y682778D01*
X607290Y682675D01*
X607244Y682573D01*
X607195Y682473D01*
X607142Y682375D01*
X607086Y682279D01*
X607026Y682184D01*
X606963Y682092D01*
X606897Y682002D01*
X606827Y681915D01*
X606755Y681830D01*
X606680Y681748D01*
X606601Y681668D01*
X606520Y681591D01*
X606437Y681518D01*
X606351Y681447D01*
X606262Y681379D01*
X606171Y681314D01*
X606078Y681253D01*
X605983Y681195D01*
X605885Y681140D01*
X605786Y681089D01*
X605685Y681041D01*
X605583Y680997D01*
X605479Y680957D01*
X605373Y680920D01*
X605267Y680887D01*
X605159Y680858D01*
X605050Y680833D01*
X604941Y680811D01*
X604831Y680793D01*
X604720Y680780D01*
X604609Y680770D01*
X604498Y680764D01*
X604386Y680762D01*
X600322Y680762D01*
X600322Y688890D01*
X600324Y688991D01*
X600330Y689092D01*
X600339Y689193D01*
X600352Y689294D01*
X600369Y689394D01*
X600390Y689493D01*
X600414Y689591D01*
X600442Y689688D01*
X600474Y689785D01*
X600509Y689880D01*
X600548Y689973D01*
X600590Y690065D01*
X600636Y690156D01*
X600685Y690245D01*
X600737Y690331D01*
X600793Y690416D01*
X600851Y690499D01*
X600913Y690579D01*
X600978Y690657D01*
X601045Y690733D01*
X601115Y690806D01*
X601188Y690876D01*
X601264Y690943D01*
X601342Y691008D01*
X601422Y691070D01*
X601505Y691128D01*
X601590Y691184D01*
X601677Y691236D01*
X601765Y691285D01*
X601856Y691331D01*
X601948Y691373D01*
X602041Y691412D01*
X602136Y691447D01*
X602233Y691479D01*
X602330Y691507D01*
X602428Y691531D01*
X602527Y691552D01*
X602627Y691569D01*
X602728Y691582D01*
X602829Y691591D01*
X602930Y691597D01*
X603031Y691599D01*
X606644Y691599D01*
X592799Y691599D02*
X592799Y680762D01*
X592799Y691599D02*
X587381Y691599D01*
X587381Y689793D01*
X579754Y680762D02*
X575239Y680762D01*
X579754Y680762D02*
X579855Y680764D01*
X579956Y680770D01*
X580057Y680779D01*
X580158Y680792D01*
X580258Y680809D01*
X580357Y680830D01*
X580455Y680854D01*
X580552Y680882D01*
X580649Y680914D01*
X580744Y680949D01*
X580837Y680988D01*
X580929Y681030D01*
X581020Y681076D01*
X581109Y681125D01*
X581195Y681177D01*
X581280Y681233D01*
X581363Y681291D01*
X581443Y681353D01*
X581521Y681418D01*
X581597Y681485D01*
X581670Y681555D01*
X581740Y681628D01*
X581807Y681704D01*
X581872Y681782D01*
X581934Y681862D01*
X581992Y681945D01*
X582048Y682030D01*
X582100Y682117D01*
X582149Y682205D01*
X582195Y682296D01*
X582237Y682388D01*
X582276Y682481D01*
X582311Y682576D01*
X582343Y682673D01*
X582371Y682770D01*
X582395Y682868D01*
X582416Y682967D01*
X582433Y683067D01*
X582446Y683168D01*
X582455Y683269D01*
X582461Y683370D01*
X582463Y683471D01*
X582463Y687987D01*
X582461Y688106D01*
X582455Y688226D01*
X582445Y688345D01*
X582431Y688463D01*
X582414Y688582D01*
X582392Y688699D01*
X582367Y688816D01*
X582337Y688931D01*
X582304Y689046D01*
X582267Y689160D01*
X582227Y689272D01*
X582182Y689383D01*
X582134Y689492D01*
X582083Y689600D01*
X582028Y689706D01*
X581969Y689810D01*
X581907Y689912D01*
X581842Y690012D01*
X581773Y690110D01*
X581701Y690206D01*
X581626Y690299D01*
X581549Y690389D01*
X581468Y690477D01*
X581384Y690562D01*
X581297Y690644D01*
X581208Y690724D01*
X581116Y690800D01*
X581022Y690874D01*
X580925Y690944D01*
X580827Y691011D01*
X580726Y691075D01*
X580622Y691135D01*
X580517Y691192D01*
X580410Y691245D01*
X580302Y691295D01*
X580192Y691341D01*
X580080Y691383D01*
X579967Y691422D01*
X579853Y691457D01*
X579738Y691488D01*
X579621Y691516D01*
X579504Y691539D01*
X579387Y691559D01*
X579268Y691575D01*
X579149Y691587D01*
X579030Y691595D01*
X578911Y691599D01*
X578791Y691599D01*
X578672Y691595D01*
X578553Y691587D01*
X578434Y691575D01*
X578315Y691559D01*
X578198Y691539D01*
X578081Y691516D01*
X577964Y691488D01*
X577849Y691457D01*
X577735Y691422D01*
X577622Y691383D01*
X577510Y691341D01*
X577400Y691295D01*
X577292Y691245D01*
X577185Y691192D01*
X577080Y691135D01*
X576976Y691075D01*
X576875Y691011D01*
X576777Y690944D01*
X576680Y690874D01*
X576586Y690800D01*
X576494Y690724D01*
X576405Y690644D01*
X576318Y690562D01*
X576234Y690477D01*
X576153Y690389D01*
X576076Y690299D01*
X576001Y690206D01*
X575929Y690110D01*
X575860Y690012D01*
X575795Y689912D01*
X575733Y689810D01*
X575674Y689706D01*
X575619Y689600D01*
X575568Y689492D01*
X575520Y689383D01*
X575475Y689272D01*
X575435Y689160D01*
X575398Y689046D01*
X575365Y688931D01*
X575335Y688816D01*
X575310Y688699D01*
X575288Y688582D01*
X575271Y688463D01*
X575257Y688345D01*
X575247Y688226D01*
X575241Y688106D01*
X575239Y687987D01*
X575239Y686181D01*
X582463Y686181D01*
X560615Y691599D02*
X560615Y680762D01*
X561066Y696115D02*
X561066Y697018D01*
X560163Y697018D01*
X560163Y696115D01*
X561066Y696115D01*
X553528Y691599D02*
X553528Y680762D01*
X553528Y691599D02*
X545400Y691599D01*
X545299Y691597D01*
X545198Y691591D01*
X545097Y691582D01*
X544996Y691569D01*
X544896Y691552D01*
X544797Y691531D01*
X544699Y691507D01*
X544602Y691479D01*
X544505Y691447D01*
X544410Y691412D01*
X544317Y691373D01*
X544225Y691331D01*
X544134Y691285D01*
X544046Y691236D01*
X543959Y691184D01*
X543874Y691128D01*
X543791Y691070D01*
X543711Y691008D01*
X543633Y690943D01*
X543557Y690876D01*
X543484Y690806D01*
X543414Y690733D01*
X543347Y690657D01*
X543282Y690579D01*
X543220Y690499D01*
X543162Y690416D01*
X543106Y690331D01*
X543054Y690245D01*
X543005Y690156D01*
X542959Y690065D01*
X542917Y689973D01*
X542878Y689880D01*
X542843Y689785D01*
X542811Y689688D01*
X542783Y689591D01*
X542759Y689493D01*
X542738Y689394D01*
X542721Y689294D01*
X542708Y689193D01*
X542699Y689092D01*
X542693Y688991D01*
X542691Y688890D01*
X542691Y680762D01*
X548110Y680762D02*
X548110Y691599D01*
X534975Y691599D02*
X534975Y675343D01*
X534975Y691599D02*
X530460Y691599D01*
X530356Y691597D01*
X530253Y691591D01*
X530149Y691581D01*
X530046Y691567D01*
X529944Y691549D01*
X529843Y691528D01*
X529742Y691502D01*
X529643Y691473D01*
X529544Y691440D01*
X529447Y691403D01*
X529352Y691362D01*
X529258Y691318D01*
X529166Y691270D01*
X529076Y691219D01*
X528987Y691164D01*
X528901Y691106D01*
X528818Y691044D01*
X528736Y690980D01*
X528658Y690912D01*
X528582Y690842D01*
X528508Y690769D01*
X528438Y690692D01*
X528370Y690614D01*
X528306Y690532D01*
X528244Y690449D01*
X528186Y690363D01*
X528131Y690274D01*
X528080Y690184D01*
X528032Y690092D01*
X527988Y689998D01*
X527947Y689903D01*
X527910Y689806D01*
X527877Y689707D01*
X527848Y689608D01*
X527822Y689507D01*
X527801Y689406D01*
X527783Y689304D01*
X527769Y689201D01*
X527759Y689097D01*
X527753Y688994D01*
X527751Y688890D01*
X527751Y683471D01*
X527753Y683370D01*
X527759Y683269D01*
X527768Y683168D01*
X527781Y683067D01*
X527798Y682967D01*
X527819Y682868D01*
X527843Y682770D01*
X527871Y682673D01*
X527903Y682576D01*
X527938Y682481D01*
X527977Y682388D01*
X528019Y682296D01*
X528065Y682205D01*
X528114Y682116D01*
X528166Y682030D01*
X528222Y681945D01*
X528280Y681862D01*
X528342Y681782D01*
X528407Y681704D01*
X528474Y681628D01*
X528544Y681555D01*
X528617Y681485D01*
X528693Y681418D01*
X528771Y681353D01*
X528851Y681291D01*
X528934Y681233D01*
X529019Y681177D01*
X529106Y681125D01*
X529194Y681076D01*
X529285Y681030D01*
X529377Y680988D01*
X529470Y680949D01*
X529565Y680914D01*
X529662Y680882D01*
X529759Y680854D01*
X529857Y680830D01*
X529956Y680809D01*
X530056Y680792D01*
X530157Y680779D01*
X530258Y680770D01*
X530359Y680764D01*
X530460Y680762D01*
X534975Y680762D01*
X521265Y683471D02*
X521265Y697018D01*
X521264Y683471D02*
X521262Y683370D01*
X521256Y683269D01*
X521247Y683168D01*
X521234Y683067D01*
X521217Y682967D01*
X521196Y682868D01*
X521172Y682770D01*
X521144Y682673D01*
X521112Y682576D01*
X521077Y682481D01*
X521038Y682388D01*
X520996Y682296D01*
X520950Y682205D01*
X520901Y682117D01*
X520849Y682030D01*
X520793Y681945D01*
X520735Y681862D01*
X520673Y681782D01*
X520608Y681704D01*
X520541Y681628D01*
X520471Y681555D01*
X520398Y681485D01*
X520322Y681418D01*
X520244Y681353D01*
X520164Y681291D01*
X520081Y681233D01*
X519996Y681177D01*
X519910Y681125D01*
X519821Y681076D01*
X519730Y681030D01*
X519638Y680988D01*
X519545Y680949D01*
X519450Y680914D01*
X519353Y680882D01*
X519256Y680854D01*
X519158Y680830D01*
X519059Y680809D01*
X518959Y680792D01*
X518858Y680779D01*
X518757Y680770D01*
X518656Y680764D01*
X518555Y680762D01*
X510456Y680762D02*
X505940Y680762D01*
X510456Y680762D02*
X510557Y680764D01*
X510658Y680770D01*
X510759Y680779D01*
X510860Y680792D01*
X510960Y680809D01*
X511059Y680830D01*
X511157Y680854D01*
X511254Y680882D01*
X511351Y680914D01*
X511446Y680949D01*
X511539Y680988D01*
X511631Y681030D01*
X511722Y681076D01*
X511811Y681125D01*
X511897Y681177D01*
X511982Y681233D01*
X512065Y681291D01*
X512145Y681353D01*
X512223Y681418D01*
X512299Y681485D01*
X512372Y681555D01*
X512442Y681628D01*
X512509Y681704D01*
X512574Y681782D01*
X512636Y681862D01*
X512694Y681945D01*
X512750Y682030D01*
X512802Y682117D01*
X512851Y682205D01*
X512897Y682296D01*
X512939Y682388D01*
X512978Y682481D01*
X513013Y682576D01*
X513045Y682673D01*
X513073Y682770D01*
X513097Y682868D01*
X513118Y682967D01*
X513135Y683067D01*
X513148Y683168D01*
X513157Y683269D01*
X513163Y683370D01*
X513165Y683471D01*
X513165Y687987D01*
X513163Y688106D01*
X513157Y688226D01*
X513147Y688345D01*
X513133Y688463D01*
X513116Y688582D01*
X513094Y688699D01*
X513069Y688816D01*
X513039Y688931D01*
X513006Y689046D01*
X512969Y689160D01*
X512929Y689272D01*
X512884Y689383D01*
X512836Y689492D01*
X512785Y689600D01*
X512730Y689706D01*
X512671Y689810D01*
X512609Y689912D01*
X512544Y690012D01*
X512475Y690110D01*
X512403Y690206D01*
X512328Y690299D01*
X512251Y690389D01*
X512170Y690477D01*
X512086Y690562D01*
X511999Y690644D01*
X511910Y690724D01*
X511818Y690800D01*
X511724Y690874D01*
X511627Y690944D01*
X511529Y691011D01*
X511428Y691075D01*
X511324Y691135D01*
X511219Y691192D01*
X511112Y691245D01*
X511004Y691295D01*
X510894Y691341D01*
X510782Y691383D01*
X510669Y691422D01*
X510555Y691457D01*
X510440Y691488D01*
X510323Y691516D01*
X510206Y691539D01*
X510089Y691559D01*
X509970Y691575D01*
X509851Y691587D01*
X509732Y691595D01*
X509613Y691599D01*
X509493Y691599D01*
X509374Y691595D01*
X509255Y691587D01*
X509136Y691575D01*
X509017Y691559D01*
X508900Y691539D01*
X508783Y691516D01*
X508666Y691488D01*
X508551Y691457D01*
X508437Y691422D01*
X508324Y691383D01*
X508212Y691341D01*
X508102Y691295D01*
X507994Y691245D01*
X507887Y691192D01*
X507782Y691135D01*
X507678Y691075D01*
X507577Y691011D01*
X507479Y690944D01*
X507382Y690874D01*
X507288Y690800D01*
X507196Y690724D01*
X507107Y690644D01*
X507020Y690562D01*
X506936Y690477D01*
X506855Y690389D01*
X506778Y690299D01*
X506703Y690206D01*
X506631Y690110D01*
X506562Y690012D01*
X506497Y689912D01*
X506435Y689810D01*
X506376Y689706D01*
X506321Y689600D01*
X506270Y689492D01*
X506222Y689383D01*
X506177Y689272D01*
X506137Y689160D01*
X506100Y689046D01*
X506067Y688931D01*
X506037Y688816D01*
X506012Y688699D01*
X505990Y688582D01*
X505973Y688463D01*
X505959Y688345D01*
X505949Y688226D01*
X505943Y688106D01*
X505941Y687987D01*
X505940Y687987D02*
X505940Y686181D01*
X513165Y686181D01*
X498819Y680762D02*
X498819Y691599D01*
X490691Y691599D01*
X490590Y691597D01*
X490489Y691591D01*
X490388Y691582D01*
X490287Y691569D01*
X490187Y691552D01*
X490088Y691531D01*
X489990Y691507D01*
X489893Y691479D01*
X489796Y691447D01*
X489701Y691412D01*
X489608Y691373D01*
X489516Y691331D01*
X489425Y691285D01*
X489337Y691236D01*
X489250Y691184D01*
X489165Y691128D01*
X489082Y691070D01*
X489002Y691008D01*
X488924Y690943D01*
X488848Y690876D01*
X488775Y690806D01*
X488705Y690733D01*
X488638Y690657D01*
X488573Y690579D01*
X488511Y690499D01*
X488453Y690416D01*
X488397Y690331D01*
X488345Y690245D01*
X488296Y690156D01*
X488250Y690065D01*
X488208Y689973D01*
X488169Y689880D01*
X488134Y689785D01*
X488102Y689688D01*
X488074Y689591D01*
X488050Y689493D01*
X488029Y689394D01*
X488012Y689294D01*
X487999Y689193D01*
X487990Y689092D01*
X487984Y688991D01*
X487982Y688890D01*
X487982Y680762D01*
X493400Y680762D02*
X493400Y691599D01*
X478151Y680762D02*
X473636Y680762D01*
X478151Y680762D02*
X478252Y680764D01*
X478353Y680770D01*
X478454Y680779D01*
X478555Y680792D01*
X478655Y680809D01*
X478754Y680830D01*
X478852Y680854D01*
X478949Y680882D01*
X479046Y680914D01*
X479141Y680949D01*
X479234Y680988D01*
X479326Y681030D01*
X479417Y681076D01*
X479506Y681125D01*
X479592Y681177D01*
X479677Y681233D01*
X479760Y681291D01*
X479840Y681353D01*
X479918Y681418D01*
X479994Y681485D01*
X480067Y681555D01*
X480137Y681628D01*
X480204Y681704D01*
X480269Y681782D01*
X480331Y681862D01*
X480389Y681945D01*
X480445Y682030D01*
X480497Y682117D01*
X480546Y682205D01*
X480592Y682296D01*
X480634Y682388D01*
X480673Y682481D01*
X480708Y682576D01*
X480740Y682673D01*
X480768Y682770D01*
X480792Y682868D01*
X480813Y682967D01*
X480830Y683067D01*
X480843Y683168D01*
X480852Y683269D01*
X480858Y683370D01*
X480860Y683471D01*
X480860Y687987D01*
X480858Y688106D01*
X480852Y688226D01*
X480842Y688345D01*
X480828Y688463D01*
X480811Y688582D01*
X480789Y688699D01*
X480764Y688816D01*
X480734Y688931D01*
X480701Y689046D01*
X480664Y689160D01*
X480624Y689272D01*
X480579Y689383D01*
X480531Y689492D01*
X480480Y689600D01*
X480425Y689706D01*
X480366Y689810D01*
X480304Y689912D01*
X480239Y690012D01*
X480170Y690110D01*
X480098Y690206D01*
X480023Y690299D01*
X479946Y690389D01*
X479865Y690477D01*
X479781Y690562D01*
X479694Y690644D01*
X479605Y690724D01*
X479513Y690800D01*
X479419Y690874D01*
X479322Y690944D01*
X479224Y691011D01*
X479123Y691075D01*
X479019Y691135D01*
X478914Y691192D01*
X478807Y691245D01*
X478699Y691295D01*
X478589Y691341D01*
X478477Y691383D01*
X478364Y691422D01*
X478250Y691457D01*
X478135Y691488D01*
X478018Y691516D01*
X477901Y691539D01*
X477784Y691559D01*
X477665Y691575D01*
X477546Y691587D01*
X477427Y691595D01*
X477308Y691599D01*
X477188Y691599D01*
X477069Y691595D01*
X476950Y691587D01*
X476831Y691575D01*
X476712Y691559D01*
X476595Y691539D01*
X476478Y691516D01*
X476361Y691488D01*
X476246Y691457D01*
X476132Y691422D01*
X476019Y691383D01*
X475907Y691341D01*
X475797Y691295D01*
X475689Y691245D01*
X475582Y691192D01*
X475477Y691135D01*
X475373Y691075D01*
X475272Y691011D01*
X475174Y690944D01*
X475077Y690874D01*
X474983Y690800D01*
X474891Y690724D01*
X474802Y690644D01*
X474715Y690562D01*
X474631Y690477D01*
X474550Y690389D01*
X474473Y690299D01*
X474398Y690206D01*
X474326Y690110D01*
X474257Y690012D01*
X474192Y689912D01*
X474130Y689810D01*
X474071Y689706D01*
X474016Y689600D01*
X473965Y689492D01*
X473917Y689383D01*
X473872Y689272D01*
X473832Y689160D01*
X473795Y689046D01*
X473762Y688931D01*
X473732Y688816D01*
X473707Y688699D01*
X473685Y688582D01*
X473668Y688463D01*
X473654Y688345D01*
X473644Y688226D01*
X473638Y688106D01*
X473636Y687987D01*
X473636Y686181D01*
X480860Y686181D01*
X466792Y680762D02*
X466792Y691599D01*
X462277Y691599D01*
X462173Y691597D01*
X462070Y691591D01*
X461966Y691581D01*
X461863Y691567D01*
X461761Y691549D01*
X461660Y691528D01*
X461559Y691502D01*
X461460Y691473D01*
X461361Y691440D01*
X461264Y691403D01*
X461169Y691362D01*
X461075Y691318D01*
X460983Y691270D01*
X460893Y691219D01*
X460804Y691164D01*
X460718Y691106D01*
X460635Y691044D01*
X460553Y690980D01*
X460475Y690912D01*
X460399Y690842D01*
X460325Y690769D01*
X460255Y690692D01*
X460187Y690614D01*
X460123Y690532D01*
X460061Y690449D01*
X460003Y690363D01*
X459948Y690274D01*
X459897Y690184D01*
X459849Y690092D01*
X459805Y689998D01*
X459764Y689903D01*
X459727Y689806D01*
X459694Y689707D01*
X459665Y689608D01*
X459639Y689507D01*
X459618Y689406D01*
X459600Y689304D01*
X459586Y689201D01*
X459576Y689097D01*
X459570Y688994D01*
X459568Y688890D01*
X459567Y688890D02*
X459567Y680762D01*
X454022Y691599D02*
X448603Y691599D01*
X452215Y697018D02*
X452215Y683471D01*
X452213Y683370D01*
X452207Y683269D01*
X452198Y683168D01*
X452185Y683067D01*
X452168Y682967D01*
X452147Y682868D01*
X452123Y682770D01*
X452095Y682673D01*
X452063Y682576D01*
X452028Y682481D01*
X451989Y682388D01*
X451947Y682296D01*
X451901Y682205D01*
X451852Y682117D01*
X451800Y682030D01*
X451744Y681945D01*
X451686Y681862D01*
X451624Y681782D01*
X451559Y681704D01*
X451492Y681628D01*
X451422Y681555D01*
X451349Y681485D01*
X451273Y681418D01*
X451195Y681353D01*
X451115Y681291D01*
X451032Y681233D01*
X450947Y681177D01*
X450861Y681125D01*
X450772Y681076D01*
X450681Y681030D01*
X450589Y680988D01*
X450496Y680949D01*
X450401Y680914D01*
X450304Y680882D01*
X450207Y680854D01*
X450109Y680830D01*
X450010Y680809D01*
X449910Y680792D01*
X449809Y680779D01*
X449708Y680770D01*
X449607Y680764D01*
X449506Y680762D01*
X448603Y680762D01*
X439737Y687084D02*
X435673Y687084D01*
X439737Y687084D02*
X439849Y687082D01*
X439960Y687076D01*
X440071Y687066D01*
X440182Y687053D01*
X440292Y687035D01*
X440401Y687013D01*
X440510Y686988D01*
X440618Y686959D01*
X440724Y686926D01*
X440830Y686889D01*
X440934Y686849D01*
X441036Y686805D01*
X441137Y686757D01*
X441236Y686706D01*
X441334Y686651D01*
X441429Y686593D01*
X441522Y686532D01*
X441613Y686467D01*
X441702Y686399D01*
X441788Y686328D01*
X441871Y686255D01*
X441952Y686178D01*
X442031Y686098D01*
X442106Y686016D01*
X442178Y685931D01*
X442248Y685844D01*
X442314Y685754D01*
X442377Y685662D01*
X442437Y685567D01*
X442493Y685471D01*
X442546Y685373D01*
X442595Y685273D01*
X442641Y685171D01*
X442683Y685068D01*
X442722Y684963D01*
X442757Y684857D01*
X442788Y684750D01*
X442815Y684642D01*
X442839Y684533D01*
X442858Y684423D01*
X442874Y684313D01*
X442886Y684202D01*
X442894Y684090D01*
X442898Y683979D01*
X442898Y683867D01*
X442894Y683756D01*
X442886Y683644D01*
X442874Y683533D01*
X442858Y683423D01*
X442839Y683313D01*
X442815Y683204D01*
X442788Y683096D01*
X442757Y682989D01*
X442722Y682883D01*
X442683Y682778D01*
X442641Y682675D01*
X442595Y682573D01*
X442546Y682473D01*
X442493Y682375D01*
X442437Y682279D01*
X442377Y682184D01*
X442314Y682092D01*
X442248Y682002D01*
X442178Y681915D01*
X442106Y681830D01*
X442031Y681748D01*
X441952Y681668D01*
X441871Y681591D01*
X441788Y681518D01*
X441702Y681447D01*
X441613Y681379D01*
X441522Y681314D01*
X441429Y681253D01*
X441334Y681195D01*
X441236Y681140D01*
X441137Y681089D01*
X441036Y681041D01*
X440934Y680997D01*
X440830Y680957D01*
X440724Y680920D01*
X440618Y680887D01*
X440510Y680858D01*
X440401Y680833D01*
X440292Y680811D01*
X440182Y680793D01*
X440071Y680780D01*
X439960Y680770D01*
X439849Y680764D01*
X439737Y680762D01*
X435673Y680762D01*
X435673Y688890D01*
X435675Y688991D01*
X435681Y689092D01*
X435690Y689193D01*
X435703Y689294D01*
X435720Y689394D01*
X435741Y689493D01*
X435765Y689591D01*
X435793Y689688D01*
X435825Y689785D01*
X435860Y689880D01*
X435899Y689973D01*
X435941Y690065D01*
X435987Y690156D01*
X436036Y690245D01*
X436088Y690331D01*
X436144Y690416D01*
X436202Y690499D01*
X436264Y690579D01*
X436329Y690657D01*
X436396Y690733D01*
X436466Y690806D01*
X436539Y690876D01*
X436615Y690943D01*
X436693Y691008D01*
X436773Y691070D01*
X436856Y691128D01*
X436941Y691184D01*
X437028Y691236D01*
X437116Y691285D01*
X437207Y691331D01*
X437299Y691373D01*
X437392Y691412D01*
X437487Y691447D01*
X437584Y691479D01*
X437681Y691507D01*
X437779Y691531D01*
X437878Y691552D01*
X437978Y691569D01*
X438079Y691582D01*
X438180Y691591D01*
X438281Y691597D01*
X438382Y691599D01*
X441995Y691599D01*
X430054Y691599D02*
X424635Y691599D01*
X428247Y697018D02*
X428247Y683471D01*
X428245Y683370D01*
X428239Y683269D01*
X428230Y683168D01*
X428217Y683067D01*
X428200Y682967D01*
X428179Y682868D01*
X428155Y682770D01*
X428127Y682673D01*
X428095Y682576D01*
X428060Y682481D01*
X428021Y682388D01*
X427979Y682296D01*
X427933Y682205D01*
X427884Y682117D01*
X427832Y682030D01*
X427776Y681945D01*
X427718Y681862D01*
X427656Y681782D01*
X427591Y681704D01*
X427524Y681628D01*
X427454Y681555D01*
X427381Y681485D01*
X427305Y681418D01*
X427227Y681353D01*
X427147Y681291D01*
X427064Y681233D01*
X426979Y681177D01*
X426893Y681125D01*
X426804Y681076D01*
X426713Y681030D01*
X426621Y680988D01*
X426528Y680949D01*
X426433Y680914D01*
X426336Y680882D01*
X426239Y680854D01*
X426141Y680830D01*
X426042Y680809D01*
X425942Y680792D01*
X425841Y680779D01*
X425740Y680770D01*
X425639Y680764D01*
X425538Y680762D01*
X424635Y680762D01*
X418892Y680762D02*
X418892Y691599D01*
X419343Y696115D02*
X419343Y697018D01*
X418440Y697018D01*
X418440Y696115D01*
X419343Y696115D01*
X412604Y687987D02*
X412604Y684374D01*
X412604Y687987D02*
X412602Y688106D01*
X412596Y688226D01*
X412586Y688345D01*
X412572Y688463D01*
X412555Y688582D01*
X412533Y688699D01*
X412508Y688816D01*
X412478Y688931D01*
X412445Y689046D01*
X412408Y689160D01*
X412368Y689272D01*
X412323Y689383D01*
X412275Y689492D01*
X412224Y689600D01*
X412169Y689706D01*
X412110Y689810D01*
X412048Y689912D01*
X411983Y690012D01*
X411914Y690110D01*
X411842Y690206D01*
X411767Y690299D01*
X411690Y690389D01*
X411609Y690477D01*
X411525Y690562D01*
X411438Y690644D01*
X411349Y690724D01*
X411257Y690800D01*
X411163Y690874D01*
X411066Y690944D01*
X410968Y691011D01*
X410867Y691075D01*
X410763Y691135D01*
X410658Y691192D01*
X410551Y691245D01*
X410443Y691295D01*
X410333Y691341D01*
X410221Y691383D01*
X410108Y691422D01*
X409994Y691457D01*
X409879Y691488D01*
X409762Y691516D01*
X409645Y691539D01*
X409528Y691559D01*
X409409Y691575D01*
X409290Y691587D01*
X409171Y691595D01*
X409052Y691599D01*
X408932Y691599D01*
X408813Y691595D01*
X408694Y691587D01*
X408575Y691575D01*
X408456Y691559D01*
X408339Y691539D01*
X408222Y691516D01*
X408105Y691488D01*
X407990Y691457D01*
X407876Y691422D01*
X407763Y691383D01*
X407651Y691341D01*
X407541Y691295D01*
X407433Y691245D01*
X407326Y691192D01*
X407221Y691135D01*
X407117Y691075D01*
X407016Y691011D01*
X406918Y690944D01*
X406821Y690874D01*
X406727Y690800D01*
X406635Y690724D01*
X406546Y690644D01*
X406459Y690562D01*
X406375Y690477D01*
X406294Y690389D01*
X406217Y690299D01*
X406142Y690206D01*
X406070Y690110D01*
X406001Y690012D01*
X405936Y689912D01*
X405874Y689810D01*
X405815Y689706D01*
X405760Y689600D01*
X405709Y689492D01*
X405661Y689383D01*
X405616Y689272D01*
X405576Y689160D01*
X405539Y689046D01*
X405506Y688931D01*
X405476Y688816D01*
X405451Y688699D01*
X405429Y688582D01*
X405412Y688463D01*
X405398Y688345D01*
X405388Y688226D01*
X405382Y688106D01*
X405380Y687987D01*
X405379Y687987D02*
X405379Y684374D01*
X405380Y684374D02*
X405382Y684255D01*
X405388Y684135D01*
X405398Y684016D01*
X405412Y683898D01*
X405429Y683779D01*
X405451Y683662D01*
X405476Y683545D01*
X405506Y683430D01*
X405539Y683315D01*
X405576Y683201D01*
X405616Y683089D01*
X405661Y682978D01*
X405709Y682869D01*
X405760Y682761D01*
X405815Y682655D01*
X405874Y682551D01*
X405936Y682449D01*
X406001Y682349D01*
X406070Y682251D01*
X406142Y682155D01*
X406217Y682062D01*
X406294Y681972D01*
X406375Y681884D01*
X406459Y681799D01*
X406546Y681717D01*
X406635Y681637D01*
X406727Y681561D01*
X406821Y681487D01*
X406918Y681417D01*
X407016Y681350D01*
X407117Y681286D01*
X407221Y681226D01*
X407326Y681169D01*
X407433Y681116D01*
X407541Y681066D01*
X407651Y681020D01*
X407763Y680978D01*
X407876Y680939D01*
X407990Y680904D01*
X408105Y680873D01*
X408222Y680845D01*
X408339Y680822D01*
X408456Y680802D01*
X408575Y680786D01*
X408694Y680774D01*
X408813Y680766D01*
X408932Y680762D01*
X409052Y680762D01*
X409171Y680766D01*
X409290Y680774D01*
X409409Y680786D01*
X409528Y680802D01*
X409645Y680822D01*
X409762Y680845D01*
X409879Y680873D01*
X409994Y680904D01*
X410108Y680939D01*
X410221Y680978D01*
X410333Y681020D01*
X410443Y681066D01*
X410551Y681116D01*
X410658Y681169D01*
X410763Y681226D01*
X410867Y681286D01*
X410968Y681350D01*
X411066Y681417D01*
X411163Y681487D01*
X411257Y681561D01*
X411349Y681637D01*
X411438Y681717D01*
X411525Y681799D01*
X411609Y681884D01*
X411690Y681972D01*
X411767Y682062D01*
X411842Y682155D01*
X411914Y682251D01*
X411983Y682349D01*
X412048Y682449D01*
X412110Y682551D01*
X412169Y682655D01*
X412224Y682761D01*
X412275Y682869D01*
X412323Y682978D01*
X412368Y683089D01*
X412408Y683201D01*
X412445Y683315D01*
X412478Y683430D01*
X412508Y683545D01*
X412533Y683662D01*
X412555Y683779D01*
X412572Y683898D01*
X412586Y684016D01*
X412596Y684135D01*
X412602Y684255D01*
X412604Y684374D01*
X398536Y680762D02*
X398536Y691599D01*
X394021Y691599D01*
X393917Y691597D01*
X393814Y691591D01*
X393710Y691581D01*
X393607Y691567D01*
X393505Y691549D01*
X393404Y691528D01*
X393303Y691502D01*
X393204Y691473D01*
X393105Y691440D01*
X393008Y691403D01*
X392913Y691362D01*
X392819Y691318D01*
X392727Y691270D01*
X392637Y691219D01*
X392548Y691164D01*
X392462Y691106D01*
X392379Y691044D01*
X392297Y690980D01*
X392219Y690912D01*
X392143Y690842D01*
X392069Y690769D01*
X391999Y690692D01*
X391931Y690614D01*
X391867Y690532D01*
X391805Y690449D01*
X391747Y690363D01*
X391692Y690274D01*
X391641Y690184D01*
X391593Y690092D01*
X391549Y689998D01*
X391508Y689903D01*
X391471Y689806D01*
X391438Y689707D01*
X391409Y689608D01*
X391383Y689507D01*
X391362Y689406D01*
X391344Y689304D01*
X391330Y689201D01*
X391320Y689097D01*
X391314Y688994D01*
X391312Y688890D01*
X391311Y688890D02*
X391311Y680762D01*
X375537Y680762D02*
X375537Y697018D01*
X375537Y680762D02*
X371022Y680762D01*
X370918Y680764D01*
X370815Y680770D01*
X370711Y680780D01*
X370608Y680794D01*
X370506Y680812D01*
X370405Y680833D01*
X370304Y680859D01*
X370205Y680888D01*
X370106Y680921D01*
X370009Y680958D01*
X369914Y680999D01*
X369820Y681043D01*
X369728Y681091D01*
X369638Y681142D01*
X369549Y681197D01*
X369463Y681255D01*
X369380Y681317D01*
X369298Y681381D01*
X369220Y681449D01*
X369144Y681519D01*
X369070Y681592D01*
X369000Y681669D01*
X368932Y681747D01*
X368868Y681829D01*
X368806Y681912D01*
X368748Y681998D01*
X368693Y682087D01*
X368642Y682177D01*
X368594Y682269D01*
X368550Y682363D01*
X368509Y682458D01*
X368472Y682555D01*
X368439Y682654D01*
X368410Y682753D01*
X368384Y682854D01*
X368363Y682955D01*
X368345Y683057D01*
X368331Y683160D01*
X368321Y683264D01*
X368315Y683367D01*
X368313Y683471D01*
X368312Y683471D02*
X368312Y688890D01*
X368313Y688890D02*
X368315Y688991D01*
X368321Y689092D01*
X368330Y689193D01*
X368343Y689294D01*
X368360Y689394D01*
X368381Y689493D01*
X368405Y689591D01*
X368433Y689688D01*
X368465Y689785D01*
X368500Y689880D01*
X368539Y689973D01*
X368581Y690065D01*
X368627Y690156D01*
X368676Y690245D01*
X368728Y690331D01*
X368784Y690416D01*
X368842Y690499D01*
X368904Y690579D01*
X368969Y690657D01*
X369036Y690733D01*
X369106Y690806D01*
X369179Y690876D01*
X369255Y690943D01*
X369333Y691008D01*
X369413Y691070D01*
X369496Y691128D01*
X369581Y691184D01*
X369668Y691236D01*
X369756Y691285D01*
X369847Y691331D01*
X369939Y691373D01*
X370032Y691412D01*
X370127Y691447D01*
X370224Y691479D01*
X370321Y691507D01*
X370419Y691531D01*
X370518Y691552D01*
X370618Y691569D01*
X370719Y691582D01*
X370820Y691591D01*
X370921Y691597D01*
X371022Y691599D01*
X375537Y691599D01*
X362584Y675343D02*
X360778Y675343D01*
X355359Y691599D01*
X362584Y691599D02*
X358972Y680762D01*
X349524Y682117D02*
X349524Y683020D01*
X348621Y683020D01*
X348621Y682117D01*
X349524Y682117D01*
X349524Y689342D02*
X349524Y690245D01*
X348621Y690245D01*
X348621Y689342D01*
X349524Y689342D01*
X333176Y697018D02*
X333176Y680762D01*
X333176Y697018D02*
X328660Y697018D01*
X328527Y697016D01*
X328395Y697010D01*
X328263Y697000D01*
X328131Y696987D01*
X327999Y696969D01*
X327869Y696948D01*
X327738Y696923D01*
X327609Y696894D01*
X327481Y696861D01*
X327353Y696825D01*
X327227Y696785D01*
X327102Y696741D01*
X326978Y696693D01*
X326856Y696642D01*
X326735Y696587D01*
X326616Y696529D01*
X326498Y696467D01*
X326383Y696402D01*
X326269Y696333D01*
X326158Y696262D01*
X326049Y696186D01*
X325942Y696108D01*
X325837Y696027D01*
X325735Y695942D01*
X325635Y695855D01*
X325538Y695765D01*
X325443Y695672D01*
X325352Y695576D01*
X325263Y695478D01*
X325177Y695377D01*
X325094Y695273D01*
X325014Y695167D01*
X324938Y695059D01*
X324864Y694949D01*
X324794Y694836D01*
X324727Y694722D01*
X324664Y694605D01*
X324604Y694487D01*
X324547Y694367D01*
X324494Y694245D01*
X324445Y694122D01*
X324399Y693998D01*
X324357Y693872D01*
X324319Y693745D01*
X324284Y693617D01*
X324253Y693488D01*
X324226Y693359D01*
X324203Y693228D01*
X324183Y693097D01*
X324168Y692965D01*
X324156Y692833D01*
X324148Y692701D01*
X324144Y692568D01*
X324144Y692436D01*
X324148Y692303D01*
X324156Y692171D01*
X324168Y692039D01*
X324183Y691907D01*
X324203Y691776D01*
X324226Y691645D01*
X324253Y691516D01*
X324284Y691387D01*
X324319Y691259D01*
X324357Y691132D01*
X324399Y691006D01*
X324445Y690882D01*
X324494Y690759D01*
X324547Y690637D01*
X324604Y690517D01*
X324664Y690399D01*
X324727Y690282D01*
X324794Y690168D01*
X324864Y690055D01*
X324938Y689945D01*
X325014Y689837D01*
X325094Y689731D01*
X325177Y689627D01*
X325263Y689526D01*
X325352Y689428D01*
X325443Y689332D01*
X325538Y689239D01*
X325635Y689149D01*
X325735Y689062D01*
X325837Y688977D01*
X325942Y688896D01*
X326049Y688818D01*
X326158Y688742D01*
X326269Y688671D01*
X326383Y688602D01*
X326498Y688537D01*
X326616Y688475D01*
X326735Y688417D01*
X326856Y688362D01*
X326978Y688311D01*
X327102Y688263D01*
X327227Y688219D01*
X327353Y688179D01*
X327481Y688143D01*
X327609Y688110D01*
X327738Y688081D01*
X327869Y688056D01*
X327999Y688035D01*
X328131Y688017D01*
X328263Y688004D01*
X328395Y687994D01*
X328527Y687988D01*
X328660Y687986D01*
X328660Y687987D02*
X333176Y687987D01*
X327757Y687987D02*
X324145Y680762D01*
X317810Y680762D02*
X317810Y691599D01*
X318261Y696115D02*
X318261Y697018D01*
X317358Y697018D01*
X317358Y696115D01*
X318261Y696115D01*
X308796Y680762D02*
X305183Y680762D01*
X308796Y680762D02*
X308897Y680764D01*
X308998Y680770D01*
X309099Y680779D01*
X309200Y680792D01*
X309300Y680809D01*
X309399Y680830D01*
X309497Y680854D01*
X309594Y680882D01*
X309691Y680914D01*
X309786Y680949D01*
X309879Y680988D01*
X309971Y681030D01*
X310062Y681076D01*
X310151Y681125D01*
X310237Y681177D01*
X310322Y681233D01*
X310405Y681291D01*
X310485Y681353D01*
X310563Y681418D01*
X310639Y681485D01*
X310712Y681555D01*
X310782Y681628D01*
X310849Y681704D01*
X310914Y681782D01*
X310976Y681862D01*
X311034Y681945D01*
X311090Y682030D01*
X311142Y682117D01*
X311191Y682205D01*
X311237Y682296D01*
X311279Y682388D01*
X311318Y682481D01*
X311353Y682576D01*
X311385Y682673D01*
X311413Y682770D01*
X311437Y682868D01*
X311458Y682967D01*
X311475Y683067D01*
X311488Y683168D01*
X311497Y683269D01*
X311503Y683370D01*
X311505Y683471D01*
X311505Y688890D01*
X311503Y688991D01*
X311497Y689092D01*
X311488Y689193D01*
X311475Y689294D01*
X311458Y689394D01*
X311437Y689493D01*
X311413Y689591D01*
X311385Y689688D01*
X311353Y689785D01*
X311318Y689880D01*
X311279Y689973D01*
X311237Y690065D01*
X311191Y690156D01*
X311142Y690245D01*
X311090Y690331D01*
X311034Y690416D01*
X310976Y690499D01*
X310914Y690579D01*
X310849Y690657D01*
X310782Y690733D01*
X310712Y690806D01*
X310639Y690876D01*
X310563Y690943D01*
X310485Y691008D01*
X310405Y691070D01*
X310322Y691128D01*
X310237Y691184D01*
X310151Y691236D01*
X310062Y691285D01*
X309971Y691331D01*
X309879Y691373D01*
X309786Y691412D01*
X309691Y691447D01*
X309594Y691479D01*
X309497Y691507D01*
X309399Y691531D01*
X309300Y691552D01*
X309200Y691569D01*
X309099Y691582D01*
X308998Y691591D01*
X308897Y691597D01*
X308796Y691599D01*
X305183Y691599D01*
X299017Y697018D02*
X299017Y680762D01*
X299017Y691599D02*
X294502Y691599D01*
X294398Y691597D01*
X294295Y691591D01*
X294191Y691581D01*
X294088Y691567D01*
X293986Y691549D01*
X293885Y691528D01*
X293784Y691502D01*
X293685Y691473D01*
X293586Y691440D01*
X293489Y691403D01*
X293394Y691362D01*
X293300Y691318D01*
X293208Y691270D01*
X293118Y691219D01*
X293029Y691164D01*
X292943Y691106D01*
X292860Y691044D01*
X292778Y690980D01*
X292700Y690912D01*
X292624Y690842D01*
X292550Y690769D01*
X292480Y690692D01*
X292412Y690614D01*
X292348Y690532D01*
X292286Y690449D01*
X292228Y690363D01*
X292173Y690274D01*
X292122Y690184D01*
X292074Y690092D01*
X292030Y689998D01*
X291989Y689903D01*
X291952Y689806D01*
X291919Y689707D01*
X291890Y689608D01*
X291864Y689507D01*
X291843Y689406D01*
X291825Y689304D01*
X291811Y689201D01*
X291801Y689097D01*
X291795Y688994D01*
X291793Y688890D01*
X291793Y680762D01*
X281862Y687084D02*
X277798Y687084D01*
X281862Y687084D02*
X281974Y687082D01*
X282085Y687076D01*
X282196Y687066D01*
X282307Y687053D01*
X282417Y687035D01*
X282526Y687013D01*
X282635Y686988D01*
X282743Y686959D01*
X282849Y686926D01*
X282955Y686889D01*
X283059Y686849D01*
X283161Y686805D01*
X283262Y686757D01*
X283361Y686706D01*
X283459Y686651D01*
X283554Y686593D01*
X283647Y686532D01*
X283738Y686467D01*
X283827Y686399D01*
X283913Y686328D01*
X283996Y686255D01*
X284077Y686178D01*
X284156Y686098D01*
X284231Y686016D01*
X284303Y685931D01*
X284373Y685844D01*
X284439Y685754D01*
X284502Y685662D01*
X284562Y685567D01*
X284618Y685471D01*
X284671Y685373D01*
X284720Y685273D01*
X284766Y685171D01*
X284808Y685068D01*
X284847Y684963D01*
X284882Y684857D01*
X284913Y684750D01*
X284940Y684642D01*
X284964Y684533D01*
X284983Y684423D01*
X284999Y684313D01*
X285011Y684202D01*
X285019Y684090D01*
X285023Y683979D01*
X285023Y683867D01*
X285019Y683756D01*
X285011Y683644D01*
X284999Y683533D01*
X284983Y683423D01*
X284964Y683313D01*
X284940Y683204D01*
X284913Y683096D01*
X284882Y682989D01*
X284847Y682883D01*
X284808Y682778D01*
X284766Y682675D01*
X284720Y682573D01*
X284671Y682473D01*
X284618Y682375D01*
X284562Y682279D01*
X284502Y682184D01*
X284439Y682092D01*
X284373Y682002D01*
X284303Y681915D01*
X284231Y681830D01*
X284156Y681748D01*
X284077Y681668D01*
X283996Y681591D01*
X283913Y681518D01*
X283827Y681447D01*
X283738Y681379D01*
X283647Y681314D01*
X283554Y681253D01*
X283459Y681195D01*
X283361Y681140D01*
X283262Y681089D01*
X283161Y681041D01*
X283059Y680997D01*
X282955Y680957D01*
X282849Y680920D01*
X282743Y680887D01*
X282635Y680858D01*
X282526Y680833D01*
X282417Y680811D01*
X282307Y680793D01*
X282196Y680780D01*
X282085Y680770D01*
X281974Y680764D01*
X281862Y680762D01*
X277798Y680762D01*
X277798Y688890D01*
X277800Y688991D01*
X277806Y689092D01*
X277815Y689193D01*
X277828Y689294D01*
X277845Y689394D01*
X277866Y689493D01*
X277890Y689591D01*
X277918Y689688D01*
X277950Y689785D01*
X277985Y689880D01*
X278024Y689973D01*
X278066Y690065D01*
X278112Y690156D01*
X278161Y690245D01*
X278213Y690331D01*
X278269Y690416D01*
X278327Y690499D01*
X278389Y690579D01*
X278454Y690657D01*
X278521Y690733D01*
X278591Y690806D01*
X278664Y690876D01*
X278740Y690943D01*
X278818Y691008D01*
X278898Y691070D01*
X278981Y691128D01*
X279066Y691184D01*
X279153Y691236D01*
X279241Y691285D01*
X279332Y691331D01*
X279424Y691373D01*
X279517Y691412D01*
X279612Y691447D01*
X279709Y691479D01*
X279806Y691507D01*
X279904Y691531D01*
X280003Y691552D01*
X280103Y691569D01*
X280204Y691582D01*
X280305Y691591D01*
X280406Y691597D01*
X280507Y691599D01*
X284120Y691599D01*
X270275Y691599D02*
X270275Y680762D01*
X270275Y691599D02*
X264857Y691599D01*
X264857Y689793D01*
X252788Y697018D02*
X252788Y680762D01*
X257303Y680762D01*
X257404Y680764D01*
X257505Y680770D01*
X257606Y680779D01*
X257707Y680792D01*
X257807Y680809D01*
X257906Y680830D01*
X258004Y680854D01*
X258101Y680882D01*
X258198Y680914D01*
X258293Y680949D01*
X258386Y680988D01*
X258478Y681030D01*
X258569Y681076D01*
X258658Y681125D01*
X258744Y681177D01*
X258829Y681233D01*
X258912Y681291D01*
X258992Y681353D01*
X259070Y681418D01*
X259146Y681485D01*
X259219Y681555D01*
X259289Y681628D01*
X259356Y681704D01*
X259421Y681782D01*
X259483Y681862D01*
X259541Y681945D01*
X259597Y682030D01*
X259649Y682117D01*
X259698Y682205D01*
X259744Y682296D01*
X259786Y682388D01*
X259825Y682481D01*
X259860Y682576D01*
X259892Y682673D01*
X259920Y682770D01*
X259944Y682868D01*
X259965Y682967D01*
X259982Y683067D01*
X259995Y683168D01*
X260004Y683269D01*
X260010Y683370D01*
X260012Y683471D01*
X260013Y683471D02*
X260013Y688890D01*
X260012Y688890D02*
X260010Y688991D01*
X260004Y689092D01*
X259995Y689193D01*
X259982Y689294D01*
X259965Y689394D01*
X259944Y689493D01*
X259920Y689591D01*
X259892Y689688D01*
X259860Y689785D01*
X259825Y689880D01*
X259786Y689973D01*
X259744Y690065D01*
X259698Y690156D01*
X259649Y690245D01*
X259597Y690331D01*
X259541Y690416D01*
X259483Y690499D01*
X259421Y690579D01*
X259356Y690657D01*
X259289Y690733D01*
X259219Y690806D01*
X259146Y690876D01*
X259070Y690943D01*
X258992Y691008D01*
X258912Y691070D01*
X258829Y691128D01*
X258744Y691184D01*
X258658Y691236D01*
X258569Y691285D01*
X258478Y691331D01*
X258386Y691373D01*
X258293Y691412D01*
X258198Y691447D01*
X258101Y691479D01*
X258004Y691507D01*
X257906Y691531D01*
X257807Y691552D01*
X257707Y691569D01*
X257606Y691582D01*
X257505Y691591D01*
X257404Y691597D01*
X257303Y691599D01*
X252788Y691599D01*
X236664Y689793D02*
X232148Y689793D01*
X232148Y689794D02*
X232015Y689792D01*
X231883Y689786D01*
X231751Y689776D01*
X231619Y689763D01*
X231487Y689745D01*
X231357Y689724D01*
X231226Y689699D01*
X231097Y689670D01*
X230969Y689637D01*
X230841Y689601D01*
X230715Y689561D01*
X230590Y689517D01*
X230466Y689469D01*
X230344Y689418D01*
X230223Y689363D01*
X230104Y689305D01*
X229986Y689243D01*
X229871Y689178D01*
X229757Y689109D01*
X229646Y689038D01*
X229537Y688962D01*
X229430Y688884D01*
X229325Y688803D01*
X229223Y688718D01*
X229123Y688631D01*
X229026Y688541D01*
X228931Y688448D01*
X228840Y688352D01*
X228751Y688254D01*
X228665Y688153D01*
X228582Y688049D01*
X228502Y687943D01*
X228426Y687835D01*
X228352Y687725D01*
X228282Y687612D01*
X228215Y687498D01*
X228152Y687381D01*
X228092Y687263D01*
X228035Y687143D01*
X227982Y687021D01*
X227933Y686898D01*
X227887Y686774D01*
X227845Y686648D01*
X227807Y686521D01*
X227772Y686393D01*
X227741Y686264D01*
X227714Y686135D01*
X227691Y686004D01*
X227671Y685873D01*
X227656Y685741D01*
X227644Y685609D01*
X227636Y685477D01*
X227632Y685344D01*
X227632Y685212D01*
X227636Y685079D01*
X227644Y684947D01*
X227656Y684815D01*
X227671Y684683D01*
X227691Y684552D01*
X227714Y684421D01*
X227741Y684292D01*
X227772Y684163D01*
X227807Y684035D01*
X227845Y683908D01*
X227887Y683782D01*
X227933Y683658D01*
X227982Y683535D01*
X228035Y683413D01*
X228092Y683293D01*
X228152Y683175D01*
X228215Y683058D01*
X228282Y682944D01*
X228352Y682831D01*
X228426Y682721D01*
X228502Y682613D01*
X228582Y682507D01*
X228665Y682403D01*
X228751Y682302D01*
X228840Y682204D01*
X228931Y682108D01*
X229026Y682015D01*
X229123Y681925D01*
X229223Y681838D01*
X229325Y681753D01*
X229430Y681672D01*
X229537Y681594D01*
X229646Y681518D01*
X229757Y681447D01*
X229871Y681378D01*
X229986Y681313D01*
X230104Y681251D01*
X230223Y681193D01*
X230344Y681138D01*
X230466Y681087D01*
X230590Y681039D01*
X230715Y680995D01*
X230841Y680955D01*
X230969Y680919D01*
X231097Y680886D01*
X231226Y680857D01*
X231357Y680832D01*
X231487Y680811D01*
X231619Y680793D01*
X231751Y680780D01*
X231883Y680770D01*
X232015Y680764D01*
X232148Y680762D01*
X236664Y680762D01*
X236664Y697018D01*
X232148Y697018D01*
X232029Y697016D01*
X231909Y697010D01*
X231790Y697000D01*
X231672Y696986D01*
X231553Y696969D01*
X231436Y696947D01*
X231319Y696922D01*
X231204Y696892D01*
X231089Y696859D01*
X230975Y696822D01*
X230863Y696782D01*
X230752Y696737D01*
X230643Y696689D01*
X230535Y696638D01*
X230429Y696583D01*
X230325Y696524D01*
X230223Y696462D01*
X230123Y696397D01*
X230025Y696328D01*
X229929Y696256D01*
X229836Y696181D01*
X229746Y696104D01*
X229658Y696023D01*
X229573Y695939D01*
X229491Y695852D01*
X229411Y695763D01*
X229335Y695671D01*
X229261Y695577D01*
X229191Y695480D01*
X229124Y695382D01*
X229060Y695281D01*
X229000Y695177D01*
X228943Y695072D01*
X228890Y694965D01*
X228840Y694857D01*
X228794Y694747D01*
X228752Y694635D01*
X228713Y694522D01*
X228678Y694408D01*
X228647Y694293D01*
X228619Y694176D01*
X228596Y694059D01*
X228576Y693942D01*
X228560Y693823D01*
X228548Y693704D01*
X228540Y693585D01*
X228536Y693466D01*
X228536Y693346D01*
X228540Y693227D01*
X228548Y693108D01*
X228560Y692989D01*
X228576Y692870D01*
X228596Y692753D01*
X228619Y692636D01*
X228647Y692519D01*
X228678Y692404D01*
X228713Y692290D01*
X228752Y692177D01*
X228794Y692065D01*
X228840Y691955D01*
X228890Y691847D01*
X228943Y691740D01*
X229000Y691635D01*
X229060Y691531D01*
X229124Y691430D01*
X229191Y691332D01*
X229261Y691235D01*
X229335Y691141D01*
X229411Y691049D01*
X229491Y690960D01*
X229573Y690873D01*
X229658Y690789D01*
X229746Y690708D01*
X229836Y690631D01*
X229929Y690556D01*
X230025Y690484D01*
X230123Y690415D01*
X230223Y690350D01*
X230325Y690288D01*
X230429Y690229D01*
X230535Y690174D01*
X230643Y690123D01*
X230752Y690075D01*
X230863Y690030D01*
X230975Y689990D01*
X231089Y689953D01*
X231204Y689920D01*
X231319Y689890D01*
X231436Y689865D01*
X231553Y689843D01*
X231672Y689826D01*
X231790Y689812D01*
X231909Y689802D01*
X232029Y689796D01*
X232148Y689794D01*
X221903Y687987D02*
X221903Y684374D01*
X221903Y687987D02*
X221901Y688106D01*
X221895Y688226D01*
X221885Y688345D01*
X221871Y688463D01*
X221854Y688582D01*
X221832Y688699D01*
X221807Y688816D01*
X221777Y688931D01*
X221744Y689046D01*
X221707Y689160D01*
X221667Y689272D01*
X221622Y689383D01*
X221574Y689492D01*
X221523Y689600D01*
X221468Y689706D01*
X221409Y689810D01*
X221347Y689912D01*
X221282Y690012D01*
X221213Y690110D01*
X221141Y690206D01*
X221066Y690299D01*
X220989Y690389D01*
X220908Y690477D01*
X220824Y690562D01*
X220737Y690644D01*
X220648Y690724D01*
X220556Y690800D01*
X220462Y690874D01*
X220365Y690944D01*
X220267Y691011D01*
X220166Y691075D01*
X220062Y691135D01*
X219957Y691192D01*
X219850Y691245D01*
X219742Y691295D01*
X219632Y691341D01*
X219520Y691383D01*
X219407Y691422D01*
X219293Y691457D01*
X219178Y691488D01*
X219061Y691516D01*
X218944Y691539D01*
X218827Y691559D01*
X218708Y691575D01*
X218589Y691587D01*
X218470Y691595D01*
X218351Y691599D01*
X218231Y691599D01*
X218112Y691595D01*
X217993Y691587D01*
X217874Y691575D01*
X217755Y691559D01*
X217638Y691539D01*
X217521Y691516D01*
X217404Y691488D01*
X217289Y691457D01*
X217175Y691422D01*
X217062Y691383D01*
X216950Y691341D01*
X216840Y691295D01*
X216732Y691245D01*
X216625Y691192D01*
X216520Y691135D01*
X216416Y691075D01*
X216315Y691011D01*
X216217Y690944D01*
X216120Y690874D01*
X216026Y690800D01*
X215934Y690724D01*
X215845Y690644D01*
X215758Y690562D01*
X215674Y690477D01*
X215593Y690389D01*
X215516Y690299D01*
X215441Y690206D01*
X215369Y690110D01*
X215300Y690012D01*
X215235Y689912D01*
X215173Y689810D01*
X215114Y689706D01*
X215059Y689600D01*
X215008Y689492D01*
X214960Y689383D01*
X214915Y689272D01*
X214875Y689160D01*
X214838Y689046D01*
X214805Y688931D01*
X214775Y688816D01*
X214750Y688699D01*
X214728Y688582D01*
X214711Y688463D01*
X214697Y688345D01*
X214687Y688226D01*
X214681Y688106D01*
X214679Y687987D01*
X214679Y684374D01*
X214681Y684255D01*
X214687Y684135D01*
X214697Y684016D01*
X214711Y683898D01*
X214728Y683779D01*
X214750Y683662D01*
X214775Y683545D01*
X214805Y683430D01*
X214838Y683315D01*
X214875Y683201D01*
X214915Y683089D01*
X214960Y682978D01*
X215008Y682869D01*
X215059Y682761D01*
X215114Y682655D01*
X215173Y682551D01*
X215235Y682449D01*
X215300Y682349D01*
X215369Y682251D01*
X215441Y682155D01*
X215516Y682062D01*
X215593Y681972D01*
X215674Y681884D01*
X215758Y681799D01*
X215845Y681717D01*
X215934Y681637D01*
X216026Y681561D01*
X216120Y681487D01*
X216217Y681417D01*
X216315Y681350D01*
X216416Y681286D01*
X216520Y681226D01*
X216625Y681169D01*
X216732Y681116D01*
X216840Y681066D01*
X216950Y681020D01*
X217062Y680978D01*
X217175Y680939D01*
X217289Y680904D01*
X217404Y680873D01*
X217521Y680845D01*
X217638Y680822D01*
X217755Y680802D01*
X217874Y680786D01*
X217993Y680774D01*
X218112Y680766D01*
X218231Y680762D01*
X218351Y680762D01*
X218470Y680766D01*
X218589Y680774D01*
X218708Y680786D01*
X218827Y680802D01*
X218944Y680822D01*
X219061Y680845D01*
X219178Y680873D01*
X219293Y680904D01*
X219407Y680939D01*
X219520Y680978D01*
X219632Y681020D01*
X219742Y681066D01*
X219850Y681116D01*
X219957Y681169D01*
X220062Y681226D01*
X220166Y681286D01*
X220267Y681350D01*
X220365Y681417D01*
X220462Y681487D01*
X220556Y681561D01*
X220648Y681637D01*
X220737Y681717D01*
X220824Y681799D01*
X220908Y681884D01*
X220989Y681972D01*
X221066Y682062D01*
X221141Y682155D01*
X221213Y682251D01*
X221282Y682349D01*
X221347Y682449D01*
X221409Y682551D01*
X221468Y682655D01*
X221523Y682761D01*
X221574Y682869D01*
X221622Y682978D01*
X221667Y683089D01*
X221707Y683201D01*
X221744Y683315D01*
X221777Y683430D01*
X221807Y683545D01*
X221832Y683662D01*
X221854Y683779D01*
X221871Y683898D01*
X221885Y684016D01*
X221895Y684135D01*
X221901Y684255D01*
X221903Y684374D01*
X208599Y691599D02*
X205890Y680762D01*
X203181Y687987D01*
X200471Y680762D01*
X197762Y691599D01*
X190328Y687084D02*
X185813Y685278D01*
X190329Y687084D02*
X190417Y687121D01*
X190503Y687162D01*
X190588Y687206D01*
X190671Y687254D01*
X190751Y687305D01*
X190830Y687359D01*
X190906Y687417D01*
X190980Y687477D01*
X191052Y687541D01*
X191120Y687607D01*
X191186Y687677D01*
X191249Y687748D01*
X191310Y687823D01*
X191367Y687899D01*
X191420Y687978D01*
X191471Y688059D01*
X191518Y688142D01*
X191562Y688227D01*
X191602Y688314D01*
X191639Y688402D01*
X191672Y688492D01*
X191702Y688583D01*
X191727Y688675D01*
X191749Y688768D01*
X191767Y688862D01*
X191782Y688956D01*
X191792Y689051D01*
X191798Y689147D01*
X191801Y689242D01*
X191800Y689338D01*
X191794Y689433D01*
X191785Y689529D01*
X191772Y689623D01*
X191756Y689717D01*
X191735Y689811D01*
X191710Y689903D01*
X191682Y689994D01*
X191650Y690084D01*
X191615Y690173D01*
X191576Y690260D01*
X191533Y690346D01*
X191487Y690430D01*
X191437Y690511D01*
X191385Y690591D01*
X191329Y690669D01*
X191269Y690744D01*
X191207Y690816D01*
X191142Y690886D01*
X191074Y690954D01*
X191004Y691018D01*
X190931Y691080D01*
X190855Y691138D01*
X190777Y691194D01*
X190697Y691246D01*
X190615Y691295D01*
X190531Y691340D01*
X190445Y691382D01*
X190358Y691421D01*
X190269Y691456D01*
X190178Y691487D01*
X190087Y691514D01*
X189994Y691538D01*
X189901Y691558D01*
X189807Y691574D01*
X189712Y691586D01*
X189617Y691595D01*
X189521Y691599D01*
X189426Y691600D01*
X189179Y691593D01*
X188933Y691581D01*
X188687Y691563D01*
X188441Y691538D01*
X188197Y691508D01*
X187953Y691472D01*
X187710Y691431D01*
X187468Y691383D01*
X187227Y691329D01*
X186988Y691270D01*
X186750Y691205D01*
X186514Y691134D01*
X186279Y691058D01*
X186046Y690976D01*
X185816Y690888D01*
X185588Y690795D01*
X185361Y690697D01*
X185813Y685277D02*
X185725Y685240D01*
X185639Y685199D01*
X185554Y685155D01*
X185471Y685107D01*
X185391Y685056D01*
X185312Y685002D01*
X185236Y684944D01*
X185162Y684884D01*
X185090Y684820D01*
X185022Y684754D01*
X184956Y684684D01*
X184893Y684613D01*
X184832Y684538D01*
X184775Y684462D01*
X184722Y684383D01*
X184671Y684302D01*
X184624Y684219D01*
X184580Y684134D01*
X184540Y684047D01*
X184503Y683959D01*
X184470Y683869D01*
X184440Y683778D01*
X184415Y683686D01*
X184393Y683593D01*
X184375Y683499D01*
X184360Y683405D01*
X184350Y683310D01*
X184344Y683214D01*
X184341Y683119D01*
X184342Y683023D01*
X184348Y682928D01*
X184357Y682832D01*
X184370Y682738D01*
X184386Y682644D01*
X184407Y682550D01*
X184432Y682458D01*
X184460Y682367D01*
X184492Y682277D01*
X184527Y682188D01*
X184566Y682101D01*
X184609Y682015D01*
X184655Y681931D01*
X184705Y681850D01*
X184757Y681770D01*
X184813Y681692D01*
X184873Y681617D01*
X184935Y681545D01*
X185000Y681475D01*
X185068Y681407D01*
X185138Y681343D01*
X185211Y681281D01*
X185287Y681223D01*
X185365Y681167D01*
X185445Y681115D01*
X185527Y681066D01*
X185611Y681021D01*
X185697Y680979D01*
X185784Y680940D01*
X185873Y680905D01*
X185964Y680874D01*
X186055Y680847D01*
X186148Y680823D01*
X186241Y680803D01*
X186335Y680787D01*
X186430Y680775D01*
X186525Y680766D01*
X186621Y680762D01*
X186716Y680761D01*
X186716Y680762D02*
X187078Y680771D01*
X187440Y680789D01*
X187801Y680816D01*
X188161Y680851D01*
X188521Y680894D01*
X188880Y680946D01*
X189237Y681007D01*
X189592Y681076D01*
X189946Y681153D01*
X190298Y681239D01*
X190648Y681333D01*
X190996Y681436D01*
X191341Y681546D01*
X191683Y681665D01*
X175427Y680762D02*
X170911Y680762D01*
X175427Y680762D02*
X175528Y680764D01*
X175629Y680770D01*
X175730Y680779D01*
X175831Y680792D01*
X175931Y680809D01*
X176030Y680830D01*
X176128Y680854D01*
X176225Y680882D01*
X176322Y680914D01*
X176417Y680949D01*
X176510Y680988D01*
X176602Y681030D01*
X176693Y681076D01*
X176782Y681125D01*
X176868Y681177D01*
X176953Y681233D01*
X177036Y681291D01*
X177116Y681353D01*
X177194Y681418D01*
X177270Y681485D01*
X177343Y681555D01*
X177413Y681628D01*
X177480Y681704D01*
X177545Y681782D01*
X177607Y681862D01*
X177665Y681945D01*
X177721Y682030D01*
X177773Y682117D01*
X177822Y682205D01*
X177868Y682296D01*
X177910Y682388D01*
X177949Y682481D01*
X177984Y682576D01*
X178016Y682673D01*
X178044Y682770D01*
X178068Y682868D01*
X178089Y682967D01*
X178106Y683067D01*
X178119Y683168D01*
X178128Y683269D01*
X178134Y683370D01*
X178136Y683471D01*
X178136Y687987D01*
X178134Y688106D01*
X178128Y688226D01*
X178118Y688345D01*
X178104Y688463D01*
X178087Y688582D01*
X178065Y688699D01*
X178040Y688816D01*
X178010Y688931D01*
X177977Y689046D01*
X177940Y689160D01*
X177900Y689272D01*
X177855Y689383D01*
X177807Y689492D01*
X177756Y689600D01*
X177701Y689706D01*
X177642Y689810D01*
X177580Y689912D01*
X177515Y690012D01*
X177446Y690110D01*
X177374Y690206D01*
X177299Y690299D01*
X177222Y690389D01*
X177141Y690477D01*
X177057Y690562D01*
X176970Y690644D01*
X176881Y690724D01*
X176789Y690800D01*
X176695Y690874D01*
X176598Y690944D01*
X176500Y691011D01*
X176399Y691075D01*
X176295Y691135D01*
X176190Y691192D01*
X176083Y691245D01*
X175975Y691295D01*
X175865Y691341D01*
X175753Y691383D01*
X175640Y691422D01*
X175526Y691457D01*
X175411Y691488D01*
X175294Y691516D01*
X175177Y691539D01*
X175060Y691559D01*
X174941Y691575D01*
X174822Y691587D01*
X174703Y691595D01*
X174584Y691599D01*
X174464Y691599D01*
X174345Y691595D01*
X174226Y691587D01*
X174107Y691575D01*
X173988Y691559D01*
X173871Y691539D01*
X173754Y691516D01*
X173637Y691488D01*
X173522Y691457D01*
X173408Y691422D01*
X173295Y691383D01*
X173183Y691341D01*
X173073Y691295D01*
X172965Y691245D01*
X172858Y691192D01*
X172753Y691135D01*
X172649Y691075D01*
X172548Y691011D01*
X172450Y690944D01*
X172353Y690874D01*
X172259Y690800D01*
X172167Y690724D01*
X172078Y690644D01*
X171991Y690562D01*
X171907Y690477D01*
X171826Y690389D01*
X171749Y690299D01*
X171674Y690206D01*
X171602Y690110D01*
X171533Y690012D01*
X171468Y689912D01*
X171406Y689810D01*
X171347Y689706D01*
X171292Y689600D01*
X171241Y689492D01*
X171193Y689383D01*
X171148Y689272D01*
X171108Y689160D01*
X171071Y689046D01*
X171038Y688931D01*
X171008Y688816D01*
X170983Y688699D01*
X170961Y688582D01*
X170944Y688463D01*
X170930Y688345D01*
X170920Y688226D01*
X170914Y688106D01*
X170912Y687987D01*
X170911Y687987D02*
X170911Y686181D01*
X178136Y686181D01*
X163983Y680762D02*
X163983Y691599D01*
X158564Y691599D01*
X158564Y689793D01*
M02*
