G04 EAGLE Gerber RS-274X export*
G75*
%MOMM*%
%FSLAX34Y34*%
%LPD*%
%INSoldermask Bottom*%
%IPPOS*%
%AMOC8*
5,1,8,0,0,1.08239X$1,22.5*%
G01*
%ADD10C,1.584200*%
%ADD11C,1.561200*%
%ADD12R,1.561200X1.561200*%
%ADD13C,3.003200*%
%ADD14P,1.649562X8X292.500000*%
%ADD15P,1.649562X8X112.500000*%
%ADD16C,2.213200*%
%ADD17C,1.511200*%
%ADD18R,1.441200X1.441200*%
%ADD19C,1.441200*%
%ADD20C,1.524000*%
%ADD21C,0.959600*%


D10*
X953500Y353700D03*
X928500Y353700D03*
X953500Y333700D03*
X928500Y333700D03*
X953500Y313700D03*
X928500Y313700D03*
X953500Y293700D03*
X928500Y293700D03*
X953500Y273700D03*
X928500Y273700D03*
X953500Y253700D03*
X928500Y253700D03*
X953500Y233700D03*
X928500Y233700D03*
X953500Y213700D03*
X928500Y213700D03*
X953500Y193700D03*
X928500Y193700D03*
X953500Y173700D03*
X928500Y173700D03*
X953500Y153700D03*
X928500Y153700D03*
X953500Y133700D03*
X928500Y133700D03*
D11*
X708800Y39400D03*
X708800Y64400D03*
X688800Y39400D03*
X688800Y64400D03*
X668800Y39400D03*
X668800Y64400D03*
X648800Y39400D03*
X648800Y64400D03*
X628800Y39400D03*
X628800Y64400D03*
X608800Y39400D03*
X608800Y64400D03*
X588800Y39400D03*
X588800Y64400D03*
X568800Y39400D03*
X568800Y64400D03*
X548800Y39400D03*
X548800Y64400D03*
X528800Y39400D03*
X528800Y64400D03*
D12*
X137400Y1158800D03*
D11*
X137400Y1133800D03*
X157400Y1158800D03*
X157400Y1133800D03*
X177400Y1158800D03*
X177400Y1133800D03*
X197400Y1158800D03*
X197400Y1133800D03*
D10*
X960530Y1013920D03*
X935530Y1013920D03*
X960530Y993920D03*
X935530Y993920D03*
X960530Y973920D03*
X935530Y973920D03*
X960530Y953920D03*
X935530Y953920D03*
X960530Y933920D03*
X935530Y933920D03*
X960530Y913920D03*
X935530Y913920D03*
X960530Y893920D03*
X935530Y893920D03*
X960530Y873920D03*
X935530Y873920D03*
X960530Y853920D03*
X935530Y853920D03*
X960530Y833920D03*
X935530Y833920D03*
X960530Y813920D03*
X935530Y813920D03*
X960530Y793920D03*
X935530Y793920D03*
D11*
X955700Y664000D03*
X930700Y664000D03*
X955700Y644000D03*
X930700Y644000D03*
X955700Y624000D03*
X930700Y624000D03*
X955700Y604000D03*
X930700Y604000D03*
X955700Y584000D03*
X930700Y584000D03*
X955700Y564000D03*
X930700Y564000D03*
X955700Y544000D03*
X930700Y544000D03*
X955700Y524000D03*
X930700Y524000D03*
X955700Y504000D03*
X930700Y504000D03*
X955700Y484000D03*
X930700Y484000D03*
D12*
X61340Y217420D03*
D11*
X86340Y217420D03*
X61340Y237420D03*
X86340Y237420D03*
X61340Y257420D03*
X86340Y257420D03*
X61340Y277420D03*
X86340Y277420D03*
X61340Y297420D03*
X86340Y297420D03*
X61340Y317420D03*
X86340Y317420D03*
X61340Y337420D03*
X86340Y337420D03*
X61340Y357420D03*
X86340Y357420D03*
X61340Y377420D03*
X86340Y377420D03*
D10*
X386060Y43930D03*
X386060Y68930D03*
X366060Y43930D03*
X366060Y68930D03*
X346060Y43930D03*
X346060Y68930D03*
X326060Y43930D03*
X326060Y68930D03*
X306060Y43930D03*
X306060Y68930D03*
X286060Y43930D03*
X286060Y68930D03*
X266060Y43930D03*
X266060Y68930D03*
X246060Y43930D03*
X246060Y68930D03*
X226060Y43930D03*
X226060Y68930D03*
X206060Y43930D03*
X206060Y68930D03*
X186060Y43930D03*
X186060Y68930D03*
X166060Y43930D03*
X166060Y68930D03*
X311500Y1148600D03*
X311500Y1123600D03*
X331500Y1148600D03*
X331500Y1123600D03*
X351500Y1148600D03*
X351500Y1123600D03*
X371500Y1148600D03*
X371500Y1123600D03*
X391500Y1148600D03*
X391500Y1123600D03*
X411500Y1148600D03*
X411500Y1123600D03*
X431500Y1148600D03*
X431500Y1123600D03*
X451500Y1148600D03*
X451500Y1123600D03*
X471500Y1148600D03*
X471500Y1123600D03*
X491500Y1148600D03*
X491500Y1123600D03*
X511500Y1148600D03*
X511500Y1123600D03*
X531500Y1148600D03*
X531500Y1123600D03*
X66300Y726300D03*
X91300Y726300D03*
X66300Y746300D03*
X91300Y746300D03*
X66300Y766300D03*
X91300Y766300D03*
X66300Y786300D03*
X91300Y786300D03*
X66300Y806300D03*
X91300Y806300D03*
X66300Y826300D03*
X91300Y826300D03*
X66300Y846300D03*
X91300Y846300D03*
X66300Y866300D03*
X91300Y866300D03*
X66300Y886300D03*
X91300Y886300D03*
X66300Y906300D03*
X91300Y906300D03*
X66300Y926300D03*
X91300Y926300D03*
X66300Y946300D03*
X91300Y946300D03*
X633810Y1156350D03*
X633810Y1131350D03*
X653810Y1156350D03*
X653810Y1131350D03*
X673810Y1156350D03*
X673810Y1131350D03*
X693810Y1156350D03*
X693810Y1131350D03*
X713810Y1156350D03*
X713810Y1131350D03*
X733810Y1156350D03*
X733810Y1131350D03*
X753810Y1156350D03*
X753810Y1131350D03*
X773810Y1156350D03*
X773810Y1131350D03*
X793810Y1156350D03*
X793810Y1131350D03*
X813810Y1156350D03*
X813810Y1131350D03*
X833810Y1156350D03*
X833810Y1131350D03*
X853810Y1156350D03*
X853810Y1131350D03*
D13*
X40000Y40000D03*
X960000Y40000D03*
X960000Y1160000D03*
X40000Y1160000D03*
D14*
X810000Y498100D03*
X810000Y421900D03*
X760000Y498100D03*
X760000Y421900D03*
X710000Y498100D03*
X710000Y421900D03*
X660000Y498100D03*
X660000Y421900D03*
X610000Y498100D03*
X610000Y421900D03*
X560000Y498100D03*
X560000Y421900D03*
X510000Y498100D03*
X510000Y421900D03*
X460000Y498100D03*
X460000Y421900D03*
X410000Y498100D03*
X410000Y421900D03*
X360000Y498100D03*
X360000Y421900D03*
X310000Y498100D03*
X310000Y421900D03*
X260000Y498100D03*
X260000Y421900D03*
X210000Y498100D03*
X210000Y421900D03*
X160000Y498100D03*
X160000Y421900D03*
X130000Y498100D03*
X130000Y421900D03*
X860000Y498100D03*
X860000Y421900D03*
D15*
X810000Y557300D03*
X810000Y582700D03*
X760000Y557300D03*
X760000Y582700D03*
X710000Y557300D03*
X710000Y582700D03*
X660000Y557300D03*
X660000Y582700D03*
X610000Y557300D03*
X610000Y582700D03*
X560000Y557300D03*
X560000Y582700D03*
X510000Y557300D03*
X510000Y582700D03*
X460000Y557300D03*
X460000Y582700D03*
X410000Y557300D03*
X410000Y582700D03*
X360000Y557300D03*
X360000Y582700D03*
X310000Y557300D03*
X310000Y582700D03*
X260000Y557300D03*
X260000Y582700D03*
X210000Y557300D03*
X210000Y582700D03*
X160000Y557300D03*
X160000Y582700D03*
X110000Y557300D03*
X110000Y582700D03*
X860000Y557300D03*
X860000Y582700D03*
D16*
X670000Y960000D03*
D17*
X690000Y1020000D03*
X690000Y900000D03*
X812000Y1020000D03*
X812000Y900000D03*
X730000Y745000D03*
X750000Y745000D03*
X770000Y745000D03*
X730000Y795000D03*
X750000Y795000D03*
X770000Y795000D03*
D14*
X790000Y348100D03*
X790000Y271900D03*
X750000Y348100D03*
X750000Y271900D03*
X710000Y348100D03*
X710000Y271900D03*
X670000Y348100D03*
X670000Y271900D03*
X630000Y348100D03*
X630000Y271900D03*
X590000Y348100D03*
X590000Y271900D03*
X550000Y348100D03*
X550000Y271900D03*
X510000Y348100D03*
X510000Y271900D03*
X470000Y348100D03*
X470000Y271900D03*
X430000Y348100D03*
X430000Y271900D03*
X390000Y348100D03*
X390000Y271900D03*
X350000Y348100D03*
X350000Y271900D03*
X310000Y348100D03*
X310000Y271900D03*
X270000Y348100D03*
X270000Y271900D03*
X230000Y348100D03*
X230000Y271900D03*
X190000Y348100D03*
X190000Y271900D03*
D18*
X213800Y880300D03*
D19*
X239200Y880300D03*
X264600Y880300D03*
X290000Y880300D03*
X315400Y880300D03*
X340800Y880300D03*
X366200Y880300D03*
X366200Y959700D03*
X340800Y959700D03*
X315400Y959700D03*
X290000Y959700D03*
X264600Y959700D03*
X239200Y959700D03*
X213800Y959700D03*
D20*
X620000Y1001496D02*
X620000Y1014704D01*
X620000Y938504D02*
X620000Y925296D01*
D21*
X774192Y981456D03*
X109728Y313944D03*
X350520Y152400D03*
X856488Y164592D03*
X167640Y1141476D03*
X656844Y1056132D03*
X922020Y783336D03*
X877824Y827532D03*
X740664Y1010412D03*
X348996Y1164336D03*
X106680Y714756D03*
X164592Y891540D03*
X196596Y967740D03*
X780288Y178308D03*
X160020Y906780D03*
X260604Y1072896D03*
X512064Y1110996D03*
X481584Y1110996D03*
X870204Y1014984D03*
X784860Y1030224D03*
X722376Y1042416D03*
X205740Y216408D03*
X316992Y185928D03*
X414528Y262128D03*
X705612Y230124D03*
X633984Y592836D03*
X859536Y367284D03*
X832104Y787908D03*
X620268Y1139952D03*
X233172Y166116D03*
X347472Y297180D03*
X205740Y257556D03*
X437388Y249936D03*
X393192Y249936D03*
X199644Y656844D03*
X932688Y376428D03*
X364236Y1042416D03*
X499872Y1042416D03*
X588264Y1042416D03*
X871728Y986028D03*
X731520Y964692D03*
X822960Y787908D03*
X888492Y896112D03*
X757428Y1027176D03*
X876300Y883920D03*
X230124Y871728D03*
X338328Y297180D03*
X166116Y278892D03*
X403860Y281940D03*
X254508Y755904D03*
X762000Y729996D03*
X760476Y1063752D03*
X848868Y941832D03*
X377952Y1030224D03*
X377952Y958596D03*
X252984Y871728D03*
X854964Y934212D03*
X766572Y1080516D03*
X361188Y1004316D03*
X579120Y1024128D03*
X452628Y1024128D03*
X890016Y524256D03*
X890016Y464820D03*
X880872Y336804D03*
X205740Y292608D03*
X310896Y284988D03*
X717804Y762000D03*
X484632Y167640D03*
X871728Y336804D03*
X763524Y941832D03*
X184404Y288036D03*
X102108Y733044D03*
X335280Y995172D03*
X166116Y915924D03*
X569976Y1018032D03*
X420624Y1018032D03*
X397764Y1031748D03*
X278892Y242316D03*
X257556Y263652D03*
X832104Y935736D03*
X762000Y1013460D03*
X324612Y1048512D03*
X429768Y1101852D03*
X667512Y1066800D03*
X566928Y1167384D03*
X908304Y382524D03*
X266700Y222504D03*
X114300Y842772D03*
X114300Y774192D03*
X541020Y176784D03*
X699516Y615696D03*
X220980Y88392D03*
X344424Y589788D03*
X178308Y280416D03*
X403860Y48768D03*
X966216Y263652D03*
X694944Y970788D03*
X720852Y938784D03*
X949452Y419100D03*
X51816Y422148D03*
X51816Y697992D03*
X454152Y1170432D03*
X687324Y1173480D03*
X704088Y598932D03*
X688848Y981456D03*
X705612Y787908D03*
X47244Y1057656D03*
X147828Y1147572D03*
X966216Y630936D03*
X905256Y943356D03*
X41148Y851916D03*
X175260Y263652D03*
X627888Y108204D03*
X574548Y211836D03*
X915924Y224028D03*
X24384Y416052D03*
X42672Y397764D03*
X917448Y574548D03*
X882396Y539496D03*
X161544Y1030224D03*
X972312Y251460D03*
X963168Y368808D03*
X842772Y1171956D03*
X722376Y57912D03*
X42672Y431292D03*
X42672Y406908D03*
X44196Y265176D03*
X82296Y646176D03*
X399288Y1176528D03*
X557784Y1176528D03*
X658368Y131064D03*
X885444Y606552D03*
X856488Y230124D03*
X964692Y766572D03*
X896112Y1008888D03*
X50292Y772668D03*
X230124Y931164D03*
X230124Y912876D03*
X699516Y79248D03*
X835152Y1178052D03*
X975360Y435864D03*
X978408Y481584D03*
X268224Y749808D03*
X733044Y722376D03*
X515112Y1161288D03*
X754380Y80772D03*
X897636Y614172D03*
X972312Y652272D03*
X624840Y1170432D03*
X298704Y1124712D03*
X787908Y114300D03*
X932688Y367284D03*
X321564Y1161288D03*
X597408Y1156716D03*
X473964Y1179576D03*
X166116Y21336D03*
X966216Y449580D03*
X175260Y21336D03*
X711708Y780288D03*
X652272Y138684D03*
X126492Y864108D03*
X126492Y752856D03*
X219456Y646176D03*
X539496Y906780D03*
X705612Y1141476D03*
X97536Y714756D03*
X38100Y327660D03*
X182880Y704088D03*
X182880Y806196D03*
X313944Y699516D03*
X313944Y649224D03*
X391668Y915924D03*
M02*
