M48
;GenerationSoftware,Autodesk,EAGLE,9.5.2*%
;CreationDate,2020-02-25T07:27:41Z*%
FMAT,2
ICI,OFF
METRIC,TZ,000.000
T7C0.730
T6C0.800
T5C0.813
T4C0.850
T3C1.000
T2C2.800
T1C3.139
%
G90
M71
T1
X27440Y59510
X14840Y59510
T2
X4000Y4000
X4000Y96000
X96000Y96000
X96000Y4000
T3
X21140Y49510
X24890Y49510
X17390Y49510
T4
X47910Y11830
X53910Y9330
X53910Y11830
X51910Y9330
X51910Y11830
X49910Y9330
X49910Y11830
X47910Y9330
T5
X81030Y80310
X73410Y80310
X73770Y87960
X36550Y81960
X28930Y81960
X81390Y87960
X85520Y88340
X40090Y77310
X84709Y15494
X61260Y87660
X58720Y87660
X19340Y84660
X16800Y84660
X82169Y15494
X88060Y88340
X63170Y66340
X65710Y66340
X31820Y69340
X34360Y69340
X71580Y66340
X74120Y66340
X14590Y39770
X9510Y39770
X16330Y14960
X18870Y14960
X16250Y6960
X18790Y6960
X73550Y15310
X65930Y15310
X47710Y77310
X49870Y88310
X42250Y88310
T6
X53950Y63110
X55950Y63110
X57950Y63110
X85390Y54640
X87890Y54640
X90390Y54640
X90390Y60640
X87890Y60640
X85390Y60640
X53950Y58110
X55950Y58110
X57950Y58110
T7
X75980Y43780
X75980Y41240
X75980Y38700
X75980Y36160
X75980Y33620
X75980Y31080
X75980Y28540
X83920Y28540
X83920Y31080
X83920Y33620
X83920Y36160
X83920Y41240
X83920Y43780
X83920Y38700
X53550Y31080
X53550Y28540
X61490Y28540
X61490Y31080
X61490Y33620
X61490Y36160
X61490Y38700
X61490Y41240
X61490Y43780
X25120Y41780
X25120Y39240
X25120Y36700
X25120Y34160
X25120Y31620
X25120Y29080
X25120Y26540
X33060Y26540
X33060Y29080
X33060Y31620
X33060Y34160
X33060Y36700
X84930Y79260
X33060Y41780
X62380Y81260
X62380Y78720
X62380Y76180
X62380Y73640
X54440Y73640
X54440Y76180
X54440Y78720
X54440Y81260
X22090Y79480
X22090Y76940
X22090Y74400
X22090Y71860
X14150Y71860
X84930Y71640
X14150Y74400
X14150Y76940
X14150Y79480
X92870Y71640
X92870Y74180
X92870Y76720
X92870Y79260
X84930Y74180
X84930Y76720
X53550Y43780
X53550Y41240
X53550Y38700
X53550Y36160
X53550Y33620
X33060Y39240
M30