M48
;GenerationSoftware,Autodesk,EAGLE,9.5.2*%
;CreationDate,2020-02-25T08:01:59Z*%
FMAT,2
ICI,OFF
METRIC,TZ,000.000
T5C0.350
T4C0.730
T3C0.813
T2C0.850
T1C2.800
%
G90
M71
T1
X96000Y96000
X4000Y4000
X96000Y4000
X4000Y96000
T2
X13290Y62930
X10790Y40930
X13290Y48930
X10790Y50930
X13290Y50930
X10790Y52930
X13290Y40930
X13290Y52930
X10790Y54930
X13290Y54930
X10790Y56930
X13290Y56930
X10790Y58930
X13290Y58930
X10790Y60930
X13290Y60930
X10790Y62930
X10790Y42930
X13290Y42930
X10790Y44930
X13290Y44930
X10790Y46930
X13290Y46930
X10790Y48930
T3
X28000Y81810
X33000Y74190
X38000Y74190
X38000Y81810
X43000Y74190
X43000Y81810
X48000Y74190
X48000Y81810
X53000Y74190
X53000Y81810
X58000Y74190
X58000Y81810
X63000Y74190
X53000Y88270
X33000Y81810
X13000Y74190
X13000Y81810
X18000Y74190
X18000Y81810
X23000Y74190
X63000Y81810
X23000Y81810
X28000Y74190
X68000Y81810
X68000Y74190
X13000Y85730
X13000Y88270
X63000Y85730
X63000Y88270
X58000Y85730
X58000Y88270
X53000Y85730
X48000Y85730
X48000Y88270
X43000Y85730
X43000Y88270
X38000Y85730
X38000Y88270
X33000Y85730
X33000Y88270
X28000Y85730
X28000Y88270
X23000Y85730
X23000Y88270
X18000Y85730
X18000Y88270
X68000Y85730
X68000Y88270
X7730Y29000
X10270Y29000
X7730Y24000
X10270Y24000
X7730Y19000
X10270Y19000
X7730Y14000
X10270Y14000
T4
X40980Y57240
X40980Y54700
X40980Y52160
X40980Y49620
X40980Y47080
X40980Y44540
X74580Y27050
X74580Y24510
X74580Y21970
X74580Y19430
X74580Y16890
X74580Y14350
X74580Y11810
X48920Y49620
X82520Y9270
X82520Y11810
X82520Y14350
X82520Y16890
X82520Y19430
X82520Y21970
X82520Y24510
X82520Y27050
X73980Y56990
X73980Y54450
X73980Y51910
X73980Y49370
X73980Y46830
X73980Y44290
X73980Y41750
X73980Y39210
X81920Y39210
X81920Y41750
X81920Y44290
X81920Y46830
X81920Y49370
X81920Y51910
X81920Y54450
X81920Y56990
X74280Y89990
X74280Y87450
X74280Y84910
X74280Y82370
X74280Y79830
X74280Y77290
X74280Y74750
X74280Y72210
X82220Y72210
X82220Y74750
X82220Y77290
X82220Y79830
X82220Y82370
X82220Y84910
X82220Y87450
X82220Y89990
X60220Y9540
X60220Y12080
X60220Y14620
X60220Y17160
X60220Y19700
X60220Y22240
X60220Y24780
X60220Y27320
X60220Y29860
X74580Y9270
X60220Y32400
X52280Y32400
X52280Y29860
X52280Y27320
X52280Y24780
X52280Y22240
X52280Y19700
X52280Y17160
X52280Y14620
X52280Y12080
X52280Y9540
X48920Y44540
X48920Y47080
X48920Y52160
X48920Y54700
X48920Y57240
X48920Y59780
X48920Y62320
X48920Y64860
X48920Y67400
X40980Y67400
X40980Y64860
X40980Y62320
X40980Y59780
T5
X21946Y65227
X30480Y56693
X22860Y66142
X35204Y53797
X23927Y67056
X79096Y29261
X79705Y43586
X77419Y41300
X50597Y51816
X78943Y73000
X49225Y25298
X74981Y45568
X69494Y85954
X75438Y80010
X76200Y79400
X49835Y26365
X61722Y83210
X79705Y17526
X25451Y29108
X41300Y85344
X76810Y75133
X77419Y79248
M30