G04 EAGLE Gerber RS-274X export*
G75*
%MOMM*%
%FSLAX34Y34*%
%LPD*%
%INBottom Copper*%
%IPPOS*%
%AMOC8*
5,1,8,0,0,1.08239X$1,22.5*%
G01*
%ADD10R,1.676400X1.676400*%
%ADD11C,1.676400*%
%ADD12C,1.381000*%
%ADD13R,1.358000X1.358000*%
%ADD14C,1.358000*%
%ADD15R,1.238000X1.238000*%
%ADD16C,1.238000*%
%ADD17P,1.429621X8X202.500000*%
%ADD18P,1.429621X8X22.500000*%
%ADD19P,1.429621X8X292.500000*%
%ADD20P,1.429621X8X112.500000*%
%ADD21C,0.152400*%
%ADD22C,0.756400*%


D10*
X728700Y844100D03*
D11*
X754100Y844100D03*
X779500Y844100D03*
X804900Y844100D03*
X830300Y844100D03*
X855700Y844100D03*
X881100Y844100D03*
X906500Y844100D03*
X906500Y920300D03*
X881100Y920300D03*
X855700Y920300D03*
X830300Y920300D03*
X804900Y920300D03*
X779500Y920300D03*
X754100Y920300D03*
X728700Y920300D03*
D10*
X489300Y844100D03*
D11*
X514700Y844100D03*
X540100Y844100D03*
X565500Y844100D03*
X590900Y844100D03*
X616300Y844100D03*
X641700Y844100D03*
X667100Y844100D03*
X667100Y920300D03*
X641700Y920300D03*
X616300Y920300D03*
X590900Y920300D03*
X565500Y920300D03*
X540100Y920300D03*
X514700Y920300D03*
X489300Y920300D03*
D10*
X377900Y409000D03*
D11*
X403300Y409000D03*
X428700Y409000D03*
X454100Y409000D03*
X479500Y409000D03*
X504900Y409000D03*
X530300Y409000D03*
X555700Y409000D03*
X581100Y409000D03*
X606500Y409000D03*
X606500Y485200D03*
X581100Y485200D03*
X555700Y485200D03*
X530300Y485200D03*
X504900Y485200D03*
X479500Y485200D03*
X454100Y485200D03*
X428700Y485200D03*
X403300Y485200D03*
X377900Y485200D03*
D10*
X727900Y411200D03*
D11*
X753300Y411200D03*
X778700Y411200D03*
X804100Y411200D03*
X829500Y411200D03*
X854900Y411200D03*
X880300Y411200D03*
X905700Y411200D03*
X931100Y411200D03*
X956500Y411200D03*
X956500Y487400D03*
X931100Y487400D03*
X905700Y487400D03*
X880300Y487400D03*
X854900Y487400D03*
X829500Y487400D03*
X804100Y487400D03*
X778700Y487400D03*
X753300Y487400D03*
X727900Y487400D03*
D12*
X101600Y404500D03*
X126600Y404500D03*
X101600Y424500D03*
X126600Y424500D03*
X101600Y444500D03*
X126600Y444500D03*
X101600Y464500D03*
X126600Y464500D03*
X101600Y484500D03*
X126600Y484500D03*
X101600Y504500D03*
X126600Y504500D03*
X101600Y524500D03*
X126600Y524500D03*
X101600Y544500D03*
X126600Y544500D03*
X101600Y564500D03*
X126600Y564500D03*
X101600Y584500D03*
X126600Y584500D03*
X101600Y604500D03*
X126600Y604500D03*
X101600Y624500D03*
X126600Y624500D03*
D13*
X540100Y91400D03*
D14*
X540100Y116400D03*
X520100Y91400D03*
X520100Y116400D03*
X500100Y91400D03*
X500100Y116400D03*
X480100Y91400D03*
X480100Y116400D03*
X460100Y91400D03*
X460100Y116400D03*
X440100Y91400D03*
X440100Y116400D03*
X420100Y91400D03*
X420100Y116400D03*
X400100Y91400D03*
X400100Y116400D03*
D15*
X270900Y553500D03*
D16*
X270900Y578900D03*
X270900Y604300D03*
X270900Y629700D03*
X270900Y655100D03*
X270900Y680500D03*
X270900Y705900D03*
X270900Y731300D03*
X270900Y756700D03*
X270900Y782100D03*
X191500Y782100D03*
X191500Y756700D03*
X191500Y731300D03*
X191500Y705900D03*
X191500Y680500D03*
X191500Y655100D03*
X191500Y629700D03*
X191500Y604300D03*
X191500Y578900D03*
X191500Y553500D03*
D15*
X405200Y553500D03*
D16*
X405200Y578900D03*
X405200Y604300D03*
X405200Y629700D03*
X405200Y655100D03*
X405200Y680500D03*
X405200Y705900D03*
X405200Y731300D03*
X405200Y756700D03*
X405200Y782100D03*
X325800Y782100D03*
X325800Y756700D03*
X325800Y731300D03*
X325800Y705900D03*
X325800Y680500D03*
X325800Y655100D03*
X325800Y629700D03*
X325800Y604300D03*
X325800Y578900D03*
X325800Y553500D03*
D15*
X480500Y760300D03*
D16*
X480500Y734900D03*
X480500Y709500D03*
X480500Y684100D03*
X480500Y658700D03*
X480500Y633300D03*
X480500Y607900D03*
X559900Y607900D03*
X559900Y633300D03*
X559900Y658700D03*
X559900Y684100D03*
X559900Y709500D03*
X559900Y734900D03*
X559900Y760300D03*
D15*
X640800Y760300D03*
D16*
X640800Y734900D03*
X640800Y709500D03*
X640800Y684100D03*
X640800Y658700D03*
X640800Y633300D03*
X640800Y607900D03*
X720200Y607900D03*
X720200Y633300D03*
X720200Y658700D03*
X720200Y684100D03*
X720200Y709500D03*
X720200Y734900D03*
X720200Y760300D03*
D15*
X203500Y846500D03*
D16*
X228900Y846500D03*
X254300Y846500D03*
X279700Y846500D03*
X305100Y846500D03*
X330500Y846500D03*
X355900Y846500D03*
X381300Y846500D03*
X406700Y846500D03*
X432100Y846500D03*
X432100Y925900D03*
X406700Y925900D03*
X381300Y925900D03*
X355900Y925900D03*
X330500Y925900D03*
X305100Y925900D03*
X279700Y925900D03*
X254300Y925900D03*
X228900Y925900D03*
X203500Y925900D03*
D15*
X882200Y770300D03*
D16*
X882200Y744900D03*
X882200Y719500D03*
X882200Y694100D03*
X882200Y668700D03*
X882200Y643300D03*
X882200Y617900D03*
X961600Y617900D03*
X961600Y643300D03*
X961600Y668700D03*
X961600Y694100D03*
X961600Y719500D03*
X961600Y744900D03*
X961600Y770300D03*
D17*
X712700Y150000D03*
X687300Y150000D03*
X712700Y100000D03*
X687300Y100000D03*
X712700Y50000D03*
X687300Y50000D03*
D18*
X821900Y140000D03*
X898100Y140000D03*
X821900Y100000D03*
X898100Y100000D03*
X821900Y60000D03*
X898100Y60000D03*
D19*
X880000Y252700D03*
X880000Y227300D03*
X830000Y252700D03*
X830000Y227300D03*
X780000Y252700D03*
X780000Y227300D03*
X730000Y252700D03*
X730000Y227300D03*
X680000Y252700D03*
X680000Y227300D03*
X630000Y252700D03*
X630000Y227300D03*
X580000Y252700D03*
X580000Y227300D03*
X530000Y252700D03*
X530000Y227300D03*
X480000Y252700D03*
X480000Y227300D03*
X430000Y252700D03*
X430000Y227300D03*
X380000Y252700D03*
X380000Y227300D03*
X330000Y252700D03*
X330000Y227300D03*
X280000Y252700D03*
X280000Y227300D03*
X230000Y252700D03*
X230000Y227300D03*
X180000Y252700D03*
X180000Y227300D03*
X930000Y252700D03*
X930000Y227300D03*
D20*
X880000Y301900D03*
X880000Y378100D03*
X830000Y301900D03*
X830000Y378100D03*
X780000Y301900D03*
X780000Y378100D03*
X730000Y301900D03*
X730000Y378100D03*
X680000Y301900D03*
X680000Y378100D03*
X630000Y301900D03*
X630000Y378100D03*
X580000Y301900D03*
X580000Y378100D03*
X530000Y301900D03*
X530000Y378100D03*
X480000Y301900D03*
X480000Y378100D03*
X430000Y301900D03*
X430000Y378100D03*
X380000Y301900D03*
X380000Y378100D03*
X330000Y301900D03*
X330000Y378100D03*
X280000Y301900D03*
X280000Y378100D03*
X230000Y301900D03*
X230000Y378100D03*
X180000Y301900D03*
X180000Y378100D03*
X930000Y301900D03*
X930000Y378100D03*
D18*
X67300Y270000D03*
X92700Y270000D03*
X67300Y220000D03*
X92700Y220000D03*
X67300Y170000D03*
X92700Y170000D03*
X67300Y120000D03*
X92700Y120000D03*
D15*
X129700Y713800D03*
D16*
X129700Y739200D03*
X129700Y764600D03*
X129700Y790000D03*
X129700Y815400D03*
X129700Y840800D03*
X129700Y866200D03*
X50300Y866200D03*
X50300Y840800D03*
X50300Y815400D03*
X50300Y790000D03*
X50300Y764600D03*
X50300Y739200D03*
X50300Y713800D03*
D21*
X490728Y867156D02*
X490728Y918972D01*
X490728Y867156D02*
X513588Y844296D01*
X490728Y918972D02*
X489300Y920300D01*
X513588Y844296D02*
X514700Y844100D01*
X720852Y810768D02*
X720852Y769620D01*
X720852Y760476D01*
X720852Y810768D02*
X752856Y842772D01*
X720852Y760476D02*
X720200Y760300D01*
X752856Y842772D02*
X754100Y844100D01*
X960120Y826008D02*
X960120Y771144D01*
X960120Y826008D02*
X867156Y918972D01*
X867156Y925068D01*
X861060Y931164D01*
X774192Y931164D01*
X765048Y922020D01*
X765048Y915924D01*
X757428Y908304D01*
X740664Y908304D01*
X729996Y918972D01*
X960120Y771144D02*
X961600Y770300D01*
X729996Y918972D02*
X728700Y920300D01*
X918972Y484632D02*
X900684Y466344D01*
X918972Y484632D02*
X918972Y512064D01*
X952500Y545592D01*
X952500Y762000D01*
X960120Y769620D01*
X961600Y770300D01*
X624840Y760476D02*
X560832Y760476D01*
X624840Y760476D02*
X633984Y769620D01*
X720852Y769620D01*
X560832Y760476D02*
X559900Y760300D01*
X256032Y554736D02*
X192024Y554736D01*
X256032Y554736D02*
X263652Y562356D01*
X316992Y562356D01*
X324612Y554736D01*
X192024Y554736D02*
X191500Y553500D01*
X324612Y554736D02*
X325800Y553500D01*
X376428Y502920D02*
X376428Y486156D01*
X376428Y502920D02*
X326136Y553212D01*
X376428Y486156D02*
X377900Y485200D01*
X326136Y553212D02*
X325800Y553500D01*
X51816Y714756D02*
X51816Y725424D01*
X190500Y864108D01*
X190500Y912876D01*
X202692Y925068D01*
X51816Y714756D02*
X50300Y713800D01*
X202692Y925068D02*
X203500Y925900D01*
X62484Y702564D02*
X62484Y623316D01*
X62484Y702564D02*
X51816Y713232D01*
X50300Y713800D01*
X80772Y269748D02*
X91440Y269748D01*
X80772Y269748D02*
X71628Y260604D01*
X64008Y260604D01*
X57912Y266700D01*
X57912Y618744D01*
X62484Y623316D01*
X92700Y270000D02*
X91440Y269748D01*
X204216Y582168D02*
X204216Y629412D01*
X195072Y638556D01*
X173736Y638556D01*
X129540Y594360D01*
X111252Y594360D01*
X102108Y585216D01*
X101600Y584500D01*
X359664Y909828D02*
X472440Y909828D01*
X359664Y909828D02*
X330708Y938784D01*
X216408Y938784D01*
X204216Y926592D01*
X203500Y925900D01*
D22*
X900684Y466344D03*
X62484Y623316D03*
X204216Y582168D03*
X472440Y909828D03*
D21*
X129540Y865632D02*
X76200Y865632D01*
X51816Y841248D01*
X129540Y865632D02*
X129700Y866200D01*
X51816Y841248D02*
X50300Y840800D01*
X271272Y812292D02*
X271272Y783336D01*
X271272Y812292D02*
X304800Y845820D01*
X271272Y783336D02*
X270900Y782100D01*
X304800Y845820D02*
X305100Y846500D01*
X405384Y845820D02*
X405384Y783336D01*
X405200Y782100D01*
X405384Y845820D02*
X406700Y846500D01*
X481584Y606552D02*
X548640Y606552D01*
X556260Y598932D01*
X632460Y598932D01*
X640080Y606552D01*
X481584Y606552D02*
X480500Y607900D01*
X640080Y606552D02*
X640800Y607900D01*
X716280Y682752D02*
X719328Y682752D01*
X716280Y682752D02*
X641604Y608076D01*
X719328Y682752D02*
X720200Y684100D01*
X641604Y608076D02*
X640800Y607900D01*
X376428Y408432D02*
X336804Y408432D01*
X309372Y381000D02*
X297180Y368808D01*
X309372Y381000D02*
X336804Y408432D01*
X297180Y368808D02*
X166116Y368808D01*
X68580Y271272D01*
X376428Y408432D02*
X377900Y409000D01*
X68580Y271272D02*
X67300Y270000D01*
X605028Y390144D02*
X605028Y408432D01*
X605028Y390144D02*
X580644Y365760D01*
X324612Y365760D01*
X309372Y381000D01*
X605028Y408432D02*
X606500Y409000D01*
X882396Y618744D02*
X897636Y633984D01*
X897636Y818388D01*
X882396Y833628D01*
X882396Y842772D01*
X882396Y618744D02*
X882200Y617900D01*
X882396Y842772D02*
X881100Y844100D01*
X970788Y633984D02*
X970788Y509016D01*
X970788Y633984D02*
X961644Y643128D01*
X961600Y643300D01*
X758952Y920496D02*
X754380Y920496D01*
X758952Y920496D02*
X772668Y934212D01*
X867156Y934212D01*
X880872Y920496D01*
X754380Y920496D02*
X754100Y920300D01*
X880872Y920496D02*
X881100Y920300D01*
X580644Y365760D02*
X580644Y313944D01*
X614172Y280416D01*
X614172Y213360D01*
X618744Y208788D01*
X720852Y736092D02*
X826008Y736092D01*
X870204Y691896D01*
X870204Y629412D01*
X880872Y618744D01*
X720200Y734900D02*
X720852Y736092D01*
X880872Y618744D02*
X882200Y617900D01*
D22*
X970788Y509016D03*
X618744Y208788D03*
D21*
X393192Y603504D02*
X326136Y603504D01*
X393192Y603504D02*
X402336Y594360D01*
X472440Y594360D01*
X484632Y582168D01*
X528828Y582168D01*
X531876Y585216D01*
X603504Y585216D01*
X777240Y411480D01*
X326136Y603504D02*
X325800Y604300D01*
X777240Y411480D02*
X778700Y411200D01*
X100584Y405384D02*
X92964Y405384D01*
X76200Y422148D01*
X76200Y617220D01*
X179832Y720852D01*
X179832Y762000D01*
X187452Y769620D01*
X271272Y769620D01*
X283464Y757428D01*
X283464Y659892D01*
X324612Y618744D01*
X324612Y605028D01*
X101600Y404500D02*
X100584Y405384D01*
X324612Y605028D02*
X325800Y604300D01*
X280416Y597408D02*
X277368Y597408D01*
X252984Y573024D01*
X242316Y509016D02*
X242316Y473964D01*
X254508Y461772D01*
X254508Y455676D01*
X193548Y394716D01*
X134112Y394716D02*
X121920Y394716D01*
X134112Y394716D02*
X193548Y394716D01*
X121920Y394716D02*
X111252Y405384D01*
X111252Y414528D01*
X102108Y423672D01*
X101600Y424500D01*
X803148Y409956D02*
X803148Y359664D01*
X134112Y345948D02*
X134112Y394716D01*
X803148Y409956D02*
X804100Y411200D01*
D22*
X280416Y597408D03*
X252984Y573024D03*
X242316Y509016D03*
X803148Y359664D03*
X134112Y345948D03*
D21*
X326136Y655320D02*
X330708Y655320D01*
X342900Y667512D01*
X379476Y667512D01*
X405384Y693420D01*
X472440Y693420D01*
X475488Y696468D01*
X484632Y696468D01*
X518160Y729996D01*
X518160Y801624D01*
X554736Y838200D01*
X554736Y848868D01*
X576072Y870204D01*
X870204Y870204D01*
X894588Y845820D01*
X894588Y826008D01*
X934212Y786384D01*
X934212Y531876D01*
X891540Y489204D01*
X891540Y470916D01*
X880872Y460248D01*
X880872Y411480D01*
X326136Y655320D02*
X325800Y655100D01*
X880300Y411200D02*
X880872Y411480D01*
X101600Y444500D02*
X82296Y425196D01*
X876300Y355092D02*
X876300Y350520D01*
X876300Y355092D02*
X893064Y371856D01*
X893064Y397764D01*
X880872Y409956D01*
X880300Y411200D01*
D22*
X82296Y425196D03*
X876300Y350520D03*
D21*
X352044Y679704D02*
X326136Y679704D01*
X352044Y679704D02*
X355092Y676656D01*
X195072Y502920D02*
X195072Y478536D01*
X131064Y414528D01*
X123444Y414528D01*
X111252Y426720D01*
X111252Y454152D01*
X102108Y463296D01*
X326136Y679704D02*
X325800Y680500D01*
X101600Y464500D02*
X102108Y463296D01*
X905256Y409956D02*
X905256Y374904D01*
X886968Y356616D01*
X905256Y409956D02*
X905700Y411200D01*
D22*
X355092Y676656D03*
X195072Y502920D03*
X886968Y356616D03*
D21*
X324612Y699516D02*
X324612Y705612D01*
X324612Y699516D02*
X304800Y679704D01*
X292608Y679704D01*
X289560Y682752D01*
X251460Y713232D02*
X248412Y713232D01*
X195072Y766572D01*
X188976Y766572D01*
X182880Y760476D01*
X182880Y719328D01*
X88392Y624840D01*
X88392Y496824D01*
X100584Y484632D01*
X324612Y705612D02*
X325800Y705900D01*
X101600Y484500D02*
X100584Y484632D01*
X905256Y486156D02*
X905256Y480060D01*
X886968Y461772D01*
X886968Y446532D01*
X905256Y486156D02*
X905700Y487400D01*
D22*
X289560Y682752D03*
X251460Y713232D03*
X886968Y446532D03*
D21*
X198120Y670560D02*
X158496Y670560D01*
X111252Y623316D01*
X111252Y620268D01*
X105156Y614172D01*
X97536Y614172D01*
X91440Y608076D01*
X91440Y515112D01*
X100584Y505968D01*
X101600Y504500D01*
X870204Y486156D02*
X879348Y486156D01*
X870204Y486156D02*
X806196Y422148D01*
X798576Y422148D01*
X792480Y416052D01*
X792480Y403860D01*
X710184Y321564D01*
X879348Y486156D02*
X880300Y487400D01*
D22*
X198120Y670560D03*
X710184Y321564D03*
D21*
X326136Y757428D02*
X326136Y769620D01*
X339852Y783336D01*
X339852Y908304D01*
X326136Y757428D02*
X325800Y756700D01*
X803148Y694944D02*
X803148Y487680D01*
X803148Y694944D02*
X768096Y729996D01*
X762000Y729996D01*
X803148Y487680D02*
X804100Y487400D01*
D22*
X339852Y908304D03*
X762000Y729996D03*
D21*
X324612Y781812D02*
X283464Y781812D01*
X274320Y772668D01*
X185928Y772668D01*
X173736Y760476D01*
X173736Y723900D01*
X111252Y661416D01*
X324612Y781812D02*
X325800Y782100D01*
X717804Y475488D02*
X740664Y475488D01*
X717804Y475488D02*
X605028Y588264D01*
X513588Y588264D01*
D22*
X111252Y661416D03*
X740664Y475488D03*
X513588Y588264D03*
D21*
X190500Y629412D02*
X185928Y629412D01*
X131064Y574548D01*
X123444Y574548D01*
X114300Y565404D01*
X114300Y437388D01*
X126492Y425196D01*
X190500Y629412D02*
X191500Y629700D01*
X126492Y425196D02*
X126600Y424500D01*
X182880Y499872D02*
X182880Y509016D01*
X182880Y515112D01*
X182880Y499872D02*
X128016Y445008D01*
X126600Y444500D01*
X198120Y509016D02*
X248412Y458724D01*
X198120Y509016D02*
X182880Y509016D01*
X560832Y521208D02*
X592836Y489204D01*
X592836Y472440D01*
X530352Y409956D01*
X530300Y409000D01*
D22*
X182880Y515112D03*
X248412Y458724D03*
X560832Y521208D03*
D21*
X641604Y659892D02*
X641604Y667512D01*
X711708Y737616D01*
X711708Y739140D01*
X716280Y743712D01*
X880872Y743712D01*
X641604Y659892D02*
X640800Y658700D01*
X880872Y743712D02*
X882200Y744900D01*
X192024Y705612D02*
X192024Y702564D01*
X210312Y684276D01*
X210312Y579120D01*
X193548Y562356D01*
X158496Y562356D01*
X131064Y534924D01*
X123444Y534924D01*
X117348Y528828D01*
X117348Y493776D01*
X126492Y484632D01*
X192024Y705612D02*
X191500Y705900D01*
X126492Y484632D02*
X126600Y484500D01*
X192024Y717804D02*
X192024Y729996D01*
X192024Y717804D02*
X213360Y696468D01*
X213360Y560832D01*
X192024Y518160D02*
X188976Y518160D01*
X185928Y521208D01*
X143256Y521208D01*
X128016Y505968D01*
X192024Y729996D02*
X191500Y731300D01*
X128016Y505968D02*
X126600Y504500D01*
X524256Y484632D02*
X528828Y484632D01*
X524256Y484632D02*
X510540Y470916D01*
X289560Y470916D01*
X242316Y518160D01*
X192024Y518160D01*
X528828Y484632D02*
X530300Y485200D01*
D22*
X213360Y560832D03*
X192024Y518160D03*
D21*
X192024Y743712D02*
X192024Y755904D01*
X192024Y743712D02*
X246888Y688848D01*
X246888Y569976D01*
X251460Y565404D01*
X367284Y565404D01*
X417576Y515112D02*
X446532Y486156D01*
X417576Y515112D02*
X367284Y565404D01*
X446532Y486156D02*
X452628Y486156D01*
X192024Y755904D02*
X191500Y756700D01*
X452628Y486156D02*
X454100Y485200D01*
X323088Y524256D02*
X128016Y524256D01*
X323088Y524256D02*
X373380Y473964D01*
X382524Y473964D01*
X391668Y483108D01*
X391668Y489204D01*
X417576Y515112D01*
X128016Y524256D02*
X126600Y524500D01*
X429768Y603504D02*
X472440Y603504D01*
X478536Y597408D01*
X553212Y597408D01*
X556260Y594360D01*
X662940Y594360D01*
X766572Y490728D01*
X766572Y467868D01*
X789432Y445008D01*
X789432Y405384D01*
X783336Y399288D01*
X765048Y399288D01*
X754380Y409956D01*
X753300Y411200D01*
X789432Y89916D02*
X541020Y89916D01*
X789432Y89916D02*
X920496Y220980D01*
X920496Y368808D01*
X929640Y377952D01*
X540100Y91400D02*
X541020Y89916D01*
X929640Y377952D02*
X930000Y378100D01*
X729996Y682752D02*
X768096Y720852D01*
X729996Y682752D02*
X729996Y681228D01*
X662940Y614172D01*
X662940Y594360D01*
D22*
X429768Y603504D03*
X768096Y720852D03*
D21*
X413004Y603504D02*
X405384Y603504D01*
X413004Y603504D02*
X419100Y597408D01*
X473964Y597408D01*
X477012Y594360D01*
X551688Y594360D01*
X554736Y591312D01*
X640080Y591312D01*
X710184Y521208D02*
X742188Y489204D01*
X710184Y521208D02*
X640080Y591312D01*
X742188Y489204D02*
X742188Y483108D01*
X783336Y441960D01*
X405384Y603504D02*
X405200Y604300D01*
X861060Y379476D02*
X879348Y379476D01*
X861060Y379476D02*
X830580Y409956D01*
X879348Y379476D02*
X880000Y378100D01*
X830580Y409956D02*
X829500Y411200D01*
X705612Y131064D02*
X675132Y100584D01*
X705612Y131064D02*
X826008Y131064D01*
X861060Y166116D01*
X861060Y379476D01*
X717804Y528828D02*
X710184Y521208D01*
D22*
X783336Y441960D03*
X675132Y100584D03*
X717804Y528828D03*
D21*
X505968Y91440D02*
X501396Y91440D01*
X505968Y91440D02*
X515112Y100584D01*
X605028Y100584D01*
X720852Y216408D01*
X720852Y231648D01*
X731520Y242316D01*
X733044Y242316D01*
X829056Y338328D01*
X829056Y377952D01*
X501396Y91440D02*
X500100Y91400D01*
X829056Y377952D02*
X830000Y378100D01*
X403860Y630936D02*
X336804Y630936D01*
X324612Y643128D01*
X320040Y643128D01*
X313944Y649224D01*
X313944Y681228D01*
X405384Y772668D01*
X408432Y772668D01*
X478536Y842772D01*
X478536Y925068D01*
X493776Y940308D01*
X809244Y940308D01*
X405200Y629700D02*
X403860Y630936D01*
X854964Y409956D02*
X861060Y409956D01*
X890016Y381000D01*
X890016Y373380D01*
X870204Y353568D01*
X870204Y347472D01*
X873252Y344424D01*
X883920Y344424D01*
X918972Y379476D01*
X918972Y434340D01*
X976884Y492252D01*
X976884Y833628D01*
X893064Y917448D01*
X893064Y923544D01*
X876300Y940308D01*
X809244Y940308D01*
X854900Y411200D02*
X854964Y409956D01*
D22*
X809244Y940308D03*
D21*
X780288Y377952D02*
X780288Y373380D01*
X800100Y353568D01*
X816864Y353568D01*
X780288Y377952D02*
X780000Y378100D01*
X486156Y91440D02*
X481584Y91440D01*
X486156Y91440D02*
X498348Y103632D01*
X603504Y103632D01*
X717804Y217932D01*
X717804Y271272D01*
X800100Y353568D01*
X481584Y91440D02*
X480100Y91400D01*
X403860Y653796D02*
X347472Y653796D01*
X339852Y646176D01*
X321564Y646176D01*
X316992Y650748D01*
X316992Y658368D01*
X329184Y670560D01*
X377952Y670560D01*
X403860Y696468D01*
X470916Y696468D01*
X473964Y699516D01*
X483108Y699516D01*
X515112Y731520D01*
X515112Y803148D01*
X551688Y839724D01*
X551688Y850392D01*
X606552Y905256D01*
X841248Y905256D01*
X854964Y918972D01*
X405200Y655100D02*
X403860Y653796D01*
X854964Y918972D02*
X855700Y920300D01*
D22*
X816864Y353568D03*
D21*
X617220Y490728D02*
X592836Y515112D01*
X617220Y490728D02*
X617220Y435864D01*
X606552Y425196D02*
X592836Y411480D01*
X606552Y425196D02*
X617220Y435864D01*
X592836Y411480D02*
X592836Y391668D01*
X580644Y379476D01*
X580000Y378100D01*
X597408Y220980D02*
X615696Y202692D01*
X621792Y202692D01*
X624840Y205740D01*
X624840Y219456D01*
X617220Y227076D01*
X617220Y414528D01*
X606552Y425196D01*
X617220Y490728D02*
X620268Y490728D01*
X769620Y844296D02*
X778764Y844296D01*
X769620Y844296D02*
X758952Y854964D01*
X693420Y854964D01*
X608076Y769620D01*
X556260Y769620D01*
X527304Y740664D01*
X527304Y693420D01*
X451104Y617220D01*
X778764Y844296D02*
X779500Y844100D01*
D22*
X592836Y515112D03*
X597408Y220980D03*
X620268Y490728D03*
X451104Y617220D03*
D21*
X539496Y527304D02*
X592836Y527304D01*
X629412Y490728D01*
X629412Y379476D01*
X630000Y378100D01*
X640080Y224028D02*
X630936Y214884D01*
X640080Y224028D02*
X640080Y368808D01*
X630936Y377952D01*
X630000Y378100D01*
X635508Y496824D02*
X670560Y496824D01*
X635508Y496824D02*
X629412Y490728D01*
X806196Y510540D02*
X806196Y701040D01*
X806196Y510540D02*
X829056Y487680D01*
X829500Y487400D01*
D22*
X539496Y527304D03*
X630936Y214884D03*
X670560Y496824D03*
X806196Y701040D03*
D21*
X527304Y780288D02*
X527304Y789432D01*
X579120Y841248D01*
X579120Y848868D01*
X588264Y858012D01*
X815340Y858012D01*
X829056Y844296D01*
X830300Y844100D01*
X641604Y220980D02*
X641604Y204216D01*
X641604Y220980D02*
X670560Y249936D01*
X670560Y368808D01*
X679704Y377952D01*
X680000Y378100D01*
X830580Y510540D02*
X830580Y684276D01*
X830580Y510540D02*
X853440Y487680D01*
X854900Y487400D01*
D22*
X527304Y780288D03*
X641604Y204216D03*
X830580Y684276D03*
D21*
X411480Y563880D02*
X393192Y563880D01*
X411480Y563880D02*
X440436Y534924D01*
X440436Y446532D02*
X403860Y409956D01*
X403300Y409000D01*
X528828Y394716D02*
X528828Y379476D01*
X528828Y394716D02*
X516636Y406908D01*
X516636Y413004D01*
X483108Y446532D01*
X440436Y446532D01*
X528828Y379476D02*
X530000Y378100D01*
X541020Y220980D02*
X541020Y117348D01*
X541020Y220980D02*
X563880Y243840D01*
X563880Y344424D01*
X541020Y117348D02*
X540100Y116400D01*
D22*
X393192Y563880D03*
X440436Y534924D03*
X440436Y446532D03*
X563880Y344424D03*
D21*
X519684Y115824D02*
X513588Y115824D01*
X504444Y106680D01*
X489204Y106680D01*
X486156Y103632D01*
X458724Y103632D01*
X449580Y112776D01*
X449580Y295656D01*
X402336Y342900D01*
X520100Y116400D02*
X519684Y115824D01*
X307848Y725424D02*
X342900Y760476D01*
X342900Y795528D01*
X391668Y844296D01*
X391668Y858012D01*
X396240Y862584D02*
X431292Y897636D01*
X396240Y862584D02*
X391668Y858012D01*
X106680Y391668D02*
X100584Y391668D01*
X73152Y419100D01*
X73152Y641604D01*
X170688Y739140D01*
X170688Y775716D01*
X309372Y914400D01*
X344424Y914400D01*
X396240Y862584D01*
D22*
X402336Y342900D03*
X307848Y725424D03*
X431292Y897636D03*
X106680Y391668D03*
D21*
X431292Y379476D02*
X467868Y379476D01*
X496824Y408432D01*
X504444Y408432D01*
X431292Y379476D02*
X430000Y378100D01*
X504444Y408432D02*
X504900Y409000D01*
X499872Y115824D02*
X493776Y115824D01*
X484632Y106680D01*
X475488Y106680D01*
X469392Y112776D01*
X469392Y339852D01*
X449580Y359664D01*
X500100Y116400D02*
X499872Y115824D01*
X348996Y763524D02*
X348996Y797052D01*
X394716Y842772D01*
X394716Y851916D01*
X446532Y903732D01*
X496824Y423672D02*
X496824Y408432D01*
X496824Y423672D02*
X480060Y440436D01*
X435864Y569976D02*
X400812Y569976D01*
X390144Y580644D01*
X390144Y585216D01*
X496824Y408432D02*
X504900Y409000D01*
D22*
X449580Y359664D03*
X348996Y763524D03*
X446532Y903732D03*
X480060Y440436D03*
X435864Y569976D03*
X390144Y585216D03*
D21*
X381000Y377952D02*
X416052Y377952D01*
X425196Y368808D01*
X541020Y368808D01*
X580644Y408432D01*
X381000Y377952D02*
X380000Y378100D01*
X580644Y408432D02*
X581100Y409000D01*
X481584Y166116D02*
X481584Y117348D01*
X481584Y166116D02*
X557784Y242316D01*
X557784Y359664D01*
X481584Y117348D02*
X480100Y116400D01*
X301752Y685800D02*
X301752Y694944D01*
X397764Y790956D01*
X397764Y850392D01*
X434340Y886968D01*
X472440Y886968D01*
X204216Y644652D02*
X179832Y644652D01*
D22*
X557784Y359664D03*
X301752Y685800D03*
X472440Y886968D03*
X179832Y644652D03*
X204216Y644652D03*
D21*
X271272Y667512D02*
X271272Y679704D01*
X271272Y667512D02*
X316992Y621792D01*
X316992Y600456D01*
X326136Y591312D01*
X466344Y591312D01*
X556260Y501396D02*
X571500Y486156D01*
X556260Y501396D02*
X466344Y591312D01*
X571500Y486156D02*
X580644Y486156D01*
X271272Y679704D02*
X270900Y680500D01*
X580644Y486156D02*
X581100Y485200D01*
X362712Y379476D02*
X330708Y379476D01*
X362712Y379476D02*
X377952Y394716D01*
X388620Y394716D01*
X391668Y397764D01*
X391668Y413004D01*
X443484Y464820D01*
X530352Y464820D01*
X544068Y478536D01*
X544068Y489204D01*
X556260Y501396D01*
X330708Y379476D02*
X330000Y378100D01*
X458724Y295656D02*
X458724Y117348D01*
X458724Y295656D02*
X394716Y359664D01*
X458724Y117348D02*
X460100Y116400D01*
D22*
X394716Y359664D03*
D21*
X315468Y342900D02*
X315468Y330708D01*
X420624Y225552D01*
X420624Y153924D01*
X438912Y135636D01*
X438912Y117348D01*
X440100Y116400D01*
X269748Y691896D02*
X269748Y705612D01*
X269748Y691896D02*
X262128Y684276D01*
X262128Y650748D01*
X324612Y588264D01*
X353568Y588264D01*
X441960Y499872D01*
X490728Y499872D01*
X504444Y486156D01*
X270900Y705900D02*
X269748Y705612D01*
X504444Y486156D02*
X504900Y485200D01*
X589788Y807720D02*
X589788Y842772D01*
X589788Y807720D02*
X524256Y742188D01*
X524256Y714756D01*
X428244Y618744D01*
X428244Y612648D01*
X420624Y605028D01*
X589788Y842772D02*
X590900Y844100D01*
X303276Y379476D02*
X280416Y379476D01*
X303276Y379476D02*
X344424Y420624D01*
X387096Y420624D01*
X388620Y419100D01*
X388620Y399288D01*
X387096Y397764D01*
X336804Y397764D01*
X320040Y381000D01*
X320040Y374904D01*
X326136Y368808D01*
X356616Y368808D01*
X379476Y391668D01*
X402336Y391668D01*
X417576Y406908D01*
X417576Y413004D01*
X445008Y440436D01*
X452628Y440436D01*
X280416Y379476D02*
X280000Y378100D01*
D22*
X315468Y342900D03*
X420624Y605028D03*
X452628Y440436D03*
D21*
X396240Y658368D02*
X342900Y658368D01*
X405384Y667512D02*
X428244Y690372D01*
X405384Y667512D02*
X396240Y658368D01*
X428244Y690372D02*
X473964Y690372D01*
X477012Y693420D01*
X486156Y693420D01*
X521208Y728472D01*
X521208Y798576D01*
X565404Y842772D01*
X565500Y844100D01*
X268224Y379476D02*
X230124Y379476D01*
X268224Y379476D02*
X347472Y458724D01*
X432816Y458724D01*
X441960Y467868D01*
X528828Y467868D01*
X541020Y480060D01*
X541020Y490728D01*
X534924Y496824D01*
X525780Y496824D01*
X516636Y487680D01*
X516636Y481584D01*
X509016Y473964D01*
X490728Y473964D01*
X480060Y484632D01*
X230124Y379476D02*
X230000Y378100D01*
X479500Y485200D02*
X480060Y484632D01*
X419100Y150876D02*
X419100Y117348D01*
X419100Y150876D02*
X289560Y280416D01*
X289560Y318516D01*
X245364Y362712D01*
X419100Y117348D02*
X420100Y116400D01*
X422148Y650748D02*
X405384Y667512D01*
X422148Y650748D02*
X422148Y615696D01*
X522732Y499872D02*
X525780Y496824D01*
D22*
X342900Y658368D03*
X245364Y362712D03*
X422148Y615696D03*
X522732Y499872D03*
D21*
X217932Y379476D02*
X181356Y379476D01*
X217932Y379476D02*
X303276Y464820D01*
X382524Y464820D01*
X181356Y379476D02*
X180000Y378100D01*
X399288Y144780D02*
X399288Y117348D01*
X399288Y144780D02*
X289560Y254508D01*
X289560Y269748D01*
X196596Y362712D01*
X399288Y117348D02*
X400100Y116400D01*
X269748Y742188D02*
X269748Y755904D01*
X269748Y742188D02*
X259080Y731520D01*
X259080Y629412D01*
X320040Y568452D01*
X368808Y568452D01*
X440436Y496824D01*
X458724Y496824D01*
X464820Y490728D01*
X464820Y480060D01*
X458724Y473964D01*
X414528Y473964D01*
X403860Y484632D01*
X269748Y755904D02*
X270900Y756700D01*
X403300Y485200D02*
X403860Y484632D01*
D22*
X382524Y464820D03*
X196596Y362712D03*
D21*
X539496Y536448D02*
X640080Y536448D01*
X696468Y480060D01*
X696468Y403860D01*
X650748Y211836D02*
X650748Y204216D01*
X650748Y211836D02*
X681228Y242316D01*
X682752Y242316D01*
X696468Y256032D01*
X696468Y403860D01*
X856488Y812292D02*
X856488Y842772D01*
X856488Y812292D02*
X891540Y777240D01*
X891540Y742188D01*
X873252Y723900D01*
X873252Y640080D01*
X883920Y629412D01*
X856488Y842772D02*
X855700Y844100D01*
D22*
X539496Y536448D03*
X696468Y403860D03*
X650748Y204216D03*
X883920Y629412D03*
D21*
X190500Y577596D02*
X140208Y577596D01*
X128016Y565404D01*
X190500Y577596D02*
X191500Y578900D01*
X128016Y565404D02*
X126600Y564500D01*
X489204Y717804D02*
X489204Y842772D01*
X489204Y717804D02*
X481584Y710184D01*
X489204Y842772D02*
X489300Y844100D01*
X481584Y710184D02*
X480500Y709500D01*
X204216Y847344D02*
X204216Y862584D01*
X263652Y922020D01*
X263652Y929640D01*
X257556Y935736D01*
X239268Y935736D01*
X230124Y926592D01*
X204216Y847344D02*
X203500Y846500D01*
X228900Y925900D02*
X230124Y926592D01*
X112776Y605028D02*
X102108Y605028D01*
X112776Y605028D02*
X121920Y614172D01*
X137160Y614172D01*
X187452Y664464D01*
X201168Y664464D01*
X204216Y667512D01*
X204216Y681228D01*
X192024Y693420D01*
X102108Y605028D02*
X101600Y604500D01*
D22*
X192024Y693420D03*
D21*
X560832Y684276D02*
X640080Y684276D01*
X560832Y684276D02*
X559900Y684100D01*
X640080Y684276D02*
X640800Y684100D01*
X822960Y207264D02*
X822960Y140208D01*
X822960Y207264D02*
X839724Y224028D01*
X839724Y381000D01*
X816864Y403860D01*
X795528Y435864D02*
X795528Y480060D01*
X789432Y486156D01*
X789432Y525780D01*
X697992Y617220D01*
X697992Y640080D01*
X821900Y140000D02*
X822960Y140208D01*
D22*
X816864Y403860D03*
X795528Y435864D03*
X697992Y640080D03*
D21*
X441960Y702564D02*
X441960Y797052D01*
X702564Y478536D02*
X702564Y211836D01*
X702564Y478536D02*
X601980Y579120D01*
X534924Y579120D01*
D22*
X441960Y797052D03*
X441960Y702564D03*
X702564Y211836D03*
X534924Y579120D03*
D21*
X560832Y608076D02*
X577596Y608076D01*
X708660Y739140D01*
X708660Y740664D01*
X719328Y751332D01*
X862584Y751332D01*
X880872Y769620D01*
X560832Y608076D02*
X559900Y607900D01*
X880872Y769620D02*
X882200Y770300D01*
X882396Y728472D02*
X882396Y720852D01*
X882396Y728472D02*
X894588Y740664D01*
X894588Y815340D01*
X867156Y842772D01*
X867156Y848868D01*
X851916Y864108D01*
X579120Y864108D01*
X320040Y864108D02*
X297180Y864108D01*
X280416Y847344D01*
X882396Y720852D02*
X882200Y719500D01*
X280416Y847344D02*
X279700Y846500D01*
X880872Y608076D02*
X928116Y560832D01*
X880872Y608076D02*
X879348Y608076D01*
X864108Y623316D01*
X864108Y688848D01*
D22*
X579120Y864108D03*
X320040Y864108D03*
X928116Y560832D03*
X864108Y688848D03*
D21*
X129540Y714756D02*
X129540Y726948D01*
X120396Y736092D01*
X120396Y768096D01*
X193548Y841248D01*
X193548Y865632D01*
X252984Y925068D01*
X129540Y714756D02*
X129700Y713800D01*
X252984Y925068D02*
X254300Y925900D01*
X131064Y752856D02*
X131064Y740664D01*
X131064Y752856D02*
X219456Y841248D01*
X219456Y865632D01*
X278892Y925068D01*
X131064Y740664D02*
X129700Y739200D01*
X278892Y925068D02*
X279700Y925900D01*
M02*
