M48
;GenerationSoftware,Autodesk,EAGLE,9.5.2*%
;CreationDate,2020-02-25T07:30:19Z*%
FMAT,2
ICI,OFF
METRIC,TZ,000.000
T6C0.350
T5C0.730
T4C0.813
T3C0.850
T2C1.118
T1C2.800
%
G90
M71
T1
X96000Y4000
X4000Y96000
X4000Y4000
X96000Y96000
T2
X54010Y84410
X51470Y84410
X48930Y84410
X72870Y92030
X75410Y92030
X77950Y92030
X80490Y92030
X83030Y92030
X85570Y92030
X88110Y92030
X90650Y92030
X90650Y84410
X88110Y84410
X85570Y84410
X80490Y84410
X72870Y84410
X75410Y84410
X72790Y48740
X75330Y48740
X77870Y48740
X80410Y48740
X59090Y92030
X82950Y48740
X85490Y48740
X88030Y48740
X90570Y48740
X93110Y48740
X95650Y48740
X95650Y41120
X93110Y41120
X90570Y41120
X88030Y41120
X85490Y41120
X82950Y41120
X80410Y41120
X77870Y41120
X75330Y41120
X72790Y41120
X37790Y48520
X40330Y48520
X42870Y48520
X45410Y48520
X47950Y48520
X50490Y48520
X53030Y48520
X55570Y48520
X58110Y48520
X83030Y84410
X60650Y48520
X60650Y40900
X58110Y40900
X55570Y40900
X53030Y40900
X50490Y40900
X47950Y40900
X45410Y40900
X42870Y40900
X40330Y40900
X37790Y40900
X48930Y92030
X51470Y92030
X54010Y92030
X56550Y92030
X61630Y92030
X64170Y92030
X66710Y92030
X66710Y84410
X64170Y84410
X61630Y84410
X59090Y84410
X56550Y84410
X77950Y84410
T3
X48010Y9140
X48010Y11640
X46010Y9140
X46010Y11640
X44010Y9140
X12660Y54450
X10160Y56450
X12660Y56450
X10160Y58450
X12660Y58450
X10160Y60450
X12660Y60450
X10160Y62450
X12660Y62450
X54010Y9140
X54010Y11640
X52010Y9140
X52010Y11640
X50010Y9140
X50010Y11640
X44010Y11640
X40010Y11640
X40010Y9140
X42010Y11640
X10160Y44450
X42010Y9140
X10160Y40450
X12660Y40450
X10160Y42450
X12660Y42450
X12660Y44450
X10160Y46450
X12660Y46450
X10160Y48450
X12660Y48450
X10160Y50450
X12660Y50450
X10160Y52450
X12660Y52450
X10160Y54450
T4
X9270Y12000
X6730Y12000
X9270Y17000
X6730Y17000
X9270Y22000
X6730Y22000
X9270Y27000
X6730Y27000
X93000Y37810
X93000Y30190
X18000Y37810
X18000Y30190
X23000Y37810
X23000Y30190
X28000Y37810
X48000Y25270
X48000Y22730
X43000Y25270
X43000Y22730
X38000Y25270
X38000Y22730
X33000Y25270
X33000Y22730
X28000Y25270
X28000Y22730
X23000Y25270
X23000Y22730
X18000Y25270
X18000Y22730
X93000Y25270
X93000Y22730
X88000Y30190
X88000Y37810
X83000Y37810
X78000Y30190
X78000Y37810
X73000Y30190
X73000Y37810
X68000Y30190
X68000Y37810
X63000Y30190
X63000Y37810
X58000Y30190
X58000Y37810
X53000Y30190
X53000Y37810
X48000Y30190
X48000Y37810
X43000Y30190
X43000Y37810
X38000Y37810
X33000Y30190
X33000Y37810
X28000Y30190
X83000Y30190
X71270Y15000
X68730Y15000
X71270Y10000
X38000Y30190
X68730Y10000
X71270Y5000
X68730Y5000
X82190Y14000
X89810Y14000
X82190Y10000
X89810Y10000
X82190Y6000
X89810Y6000
X88000Y25270
X88000Y22730
X83000Y22730
X78000Y25270
X78000Y22730
X73000Y25270
X73000Y22730
X68000Y25270
X68000Y22730
X63000Y25270
X83000Y25270
X63000Y22730
X58000Y25270
X58000Y22730
X53000Y25270
X53000Y22730
T5
X5030Y81540
X5030Y79000
X5030Y76460
X5030Y73920
X5030Y71380
X96160Y66870
X27090Y55350
X27090Y57890
X27090Y60430
X27090Y62970
X27090Y65510
X27090Y68050
X27090Y70590
X27090Y73130
X27090Y75670
X27090Y78210
X19150Y78210
X19150Y75670
X19150Y73130
X19150Y70590
X19150Y68050
X19150Y65510
X19150Y62970
X19150Y60430
X19150Y57890
X19150Y55350
X40520Y55350
X40520Y57890
X40520Y60430
X40520Y62970
X40520Y65510
X40520Y68050
X40520Y70590
X40520Y73130
X40520Y75670
X40520Y78210
X32580Y78210
X32580Y75670
X32580Y73130
X32580Y70590
X32580Y68050
X32580Y65510
X32580Y62970
X32580Y60430
X32580Y57890
X32580Y55350
X48050Y76030
X48050Y73490
X48050Y70950
X48050Y68410
X48050Y65870
X48050Y63330
X48050Y60790
X55990Y60790
X55990Y63330
X55990Y65870
X55990Y68410
X55990Y70950
X55990Y73490
X55990Y76030
X64080Y76030
X64080Y73490
X64080Y70950
X64080Y68410
X64080Y65870
X64080Y63330
X64080Y60790
X72020Y60790
X72020Y63330
X72020Y65870
X72020Y68410
X72020Y70950
X72020Y73490
X72020Y76030
X20350Y84650
X22890Y84650
X25430Y84650
X27970Y84650
X30510Y84650
X33050Y84650
X35590Y84650
X38130Y84650
X40670Y84650
X43210Y84650
X43210Y92590
X40670Y92590
X38130Y92590
X35590Y92590
X33050Y92590
X30510Y92590
X27970Y92590
X25430Y92590
X22890Y92590
X20350Y92590
X88220Y77030
X88220Y74490
X88220Y71950
X88220Y69410
X88220Y66870
X88220Y64330
X88220Y61790
X96160Y61790
X96160Y64330
X96160Y69410
X96160Y71950
X96160Y74490
X96160Y77030
X12970Y71380
X12970Y73920
X12970Y76460
X12970Y79000
X12970Y81540
X12970Y84080
X12970Y86620
X5030Y86620
X5030Y84080
T6
X6248Y62332
X20422Y58217
X47244Y90983
X97079Y50902
X61874Y20879
X65075Y20422
X69647Y40386
X53950Y53645
X19660Y36271
X38252Y46482
X52273Y49987
X42215Y61570
X24536Y36271
X34290Y65837
X45263Y44044
X42062Y60503
X31547Y34290
X39472Y35966
X20422Y64465
X17983Y64465
X47244Y88697
X30175Y68580
X55778Y35966
X39014Y58522
X43586Y56998
X48006Y44044
X44653Y90373
X34900Y76352
X44958Y35966
X10668Y39167
X43129Y89764
X30785Y72542
X40234Y34290
X56388Y34442
X44044Y53492
X39319Y56388
X83058Y68428
X64160Y20422
X52730Y78029
X80620Y70104
X67056Y49682
X63094Y21488
X90068Y46634
X53950Y52730
X45110Y61722
X62027Y49073
X59741Y22098
X59284Y51511
X81686Y35357
X80924Y94031
X71780Y52883
X67513Y10058
X78334Y44196
X76810Y72085
X42977Y60350
X19202Y51816
X21336Y56083
X56083Y52121
X24841Y45872
X18288Y51511
X51359Y58826
X74066Y47549
X11125Y66142
X76200Y73000
X33985Y90830
X71018Y32156
X19812Y67056
X88697Y44653
X25146Y71323
X28956Y68275
X88697Y35662
X19507Y50292
X35509Y67666
X87630Y35052
X8230Y42520
X13411Y34595
X80315Y35966
X24232Y50902
X25298Y57302
X28042Y59741
X57912Y86411
X86411Y68885
X92812Y56083
X32004Y86411
X44044Y44653
X53492Y57912
X70256Y21184
X44196Y70256
X44196Y79705
X69799Y64008
X79553Y43586
X81686Y40386
X19202Y69342
X88392Y62941
M30