G04 EAGLE Gerber RS-274X export*
G75*
%MOMM*%
%FSLAX34Y34*%
%LPD*%
%INTop Copper*%
%IPPOS*%
%AMOC8*
5,1,8,0,0,1.08239X$1,22.5*%
G01*
%ADD10R,1.238000X1.238000*%
%ADD11C,1.238000*%
%ADD12R,1.358000X1.358000*%
%ADD13C,1.358000*%
%ADD14P,1.429621X8X202.500000*%
%ADD15P,1.429621X8X22.500000*%
%ADD16C,1.905000*%
%ADD17P,2.061953X8X202.500000*%
%ADD18C,1.508000*%
%ADD19C,4.708000*%
%ADD20C,1.308000*%
%ADD21C,0.152400*%


D10*
X759800Y437800D03*
D11*
X759800Y412400D03*
X759800Y387000D03*
X759800Y361600D03*
X759800Y336200D03*
X759800Y310800D03*
X759800Y285400D03*
X839200Y285400D03*
X839200Y310800D03*
X839200Y336200D03*
X839200Y361600D03*
X839200Y387000D03*
X839200Y412400D03*
X839200Y437800D03*
D12*
X539100Y93300D03*
D13*
X539100Y118300D03*
X519100Y93300D03*
X519100Y118300D03*
X499100Y93300D03*
X499100Y118300D03*
X479100Y93300D03*
X479100Y118300D03*
D14*
X612600Y876600D03*
X587200Y876600D03*
X193400Y846600D03*
X168000Y846600D03*
D15*
X855200Y883400D03*
X880600Y883400D03*
X631700Y663400D03*
X657100Y663400D03*
X318200Y693400D03*
X343600Y693400D03*
X715800Y663400D03*
X741200Y663400D03*
D16*
X145900Y397700D03*
D17*
X95100Y397700D03*
D15*
X163300Y149600D03*
X188700Y149600D03*
X162500Y69600D03*
X187900Y69600D03*
D10*
X141500Y794800D03*
D11*
X141500Y769400D03*
X141500Y744000D03*
X141500Y718600D03*
X220900Y718600D03*
X220900Y744000D03*
X220900Y769400D03*
X220900Y794800D03*
D10*
X544400Y812600D03*
D11*
X544400Y787200D03*
X544400Y761800D03*
X544400Y736400D03*
X623800Y736400D03*
X623800Y761800D03*
X623800Y787200D03*
X623800Y812600D03*
D10*
X849300Y792600D03*
D11*
X849300Y767200D03*
X849300Y741800D03*
X849300Y716400D03*
X928700Y716400D03*
X928700Y741800D03*
X928700Y767200D03*
X928700Y792600D03*
D15*
X821690Y154940D03*
X847090Y154940D03*
D10*
X535500Y437800D03*
D11*
X535500Y412400D03*
X535500Y387000D03*
X535500Y361600D03*
X535500Y336200D03*
X535500Y310800D03*
X535500Y285400D03*
X614900Y285400D03*
X614900Y310800D03*
X614900Y336200D03*
X614900Y361600D03*
X614900Y387000D03*
X614900Y412400D03*
X614900Y437800D03*
D10*
X251200Y417800D03*
D11*
X251200Y392400D03*
X251200Y367000D03*
X251200Y341600D03*
X251200Y316200D03*
X251200Y290800D03*
X251200Y265400D03*
X330600Y265400D03*
X330600Y290800D03*
X330600Y316200D03*
X330600Y341600D03*
X330600Y367000D03*
X330600Y392400D03*
X330600Y417800D03*
D18*
X173900Y495100D03*
X211400Y495100D03*
X248900Y495100D03*
D19*
X148400Y595100D03*
X274400Y595100D03*
D15*
X289300Y819600D03*
X365500Y819600D03*
X737700Y879600D03*
X813900Y879600D03*
X734100Y803100D03*
X810300Y803100D03*
X422500Y883100D03*
X498700Y883100D03*
X400900Y773100D03*
X477100Y773100D03*
X659300Y153100D03*
X735500Y153100D03*
D20*
X853900Y546400D03*
X878900Y546400D03*
X903900Y546400D03*
X903900Y606400D03*
X878900Y606400D03*
X853900Y606400D03*
X539500Y581100D03*
X559500Y581100D03*
X579500Y581100D03*
X539500Y631100D03*
X559500Y631100D03*
X579500Y631100D03*
D21*
X760476Y284988D02*
X760476Y240792D01*
X845820Y155448D01*
X760476Y284988D02*
X759800Y285400D01*
X845820Y155448D02*
X847090Y154940D01*
X536448Y292608D02*
X536448Y298704D01*
X536448Y292608D02*
X536448Y286512D01*
X536448Y298704D02*
X544068Y306324D01*
X544068Y327660D01*
X536448Y335280D01*
X536448Y286512D02*
X535500Y285400D01*
X536448Y335280D02*
X535500Y336200D01*
X330708Y315468D02*
X330708Y292608D01*
X330708Y291084D01*
X330600Y290800D01*
X330708Y315468D02*
X330600Y316200D01*
X330708Y367284D02*
X330708Y391668D01*
X330708Y367284D02*
X330600Y367000D01*
X330708Y391668D02*
X330600Y392400D01*
X329184Y330708D02*
X329184Y316992D01*
X329184Y330708D02*
X321564Y338328D01*
X321564Y358140D01*
X329184Y365760D01*
X329184Y316992D02*
X330600Y316200D01*
X329184Y365760D02*
X330600Y367000D01*
X187452Y149352D02*
X187452Y70104D01*
X187900Y69600D01*
X187452Y149352D02*
X188700Y149600D01*
X249936Y266700D02*
X249936Y278892D01*
X242316Y286512D01*
X242316Y307848D01*
X249936Y315468D01*
X249936Y266700D02*
X251200Y265400D01*
X249936Y315468D02*
X251200Y316200D01*
X251460Y316992D02*
X251460Y338328D01*
X251460Y341376D01*
X251200Y341600D01*
X251460Y316992D02*
X251200Y316200D01*
X188976Y204216D02*
X188976Y150876D01*
X188976Y204216D02*
X249936Y265176D01*
X188976Y150876D02*
X188700Y149600D01*
X249936Y265176D02*
X251200Y265400D01*
X251460Y338328D02*
X321564Y338328D01*
X251460Y338328D02*
X251200Y341600D01*
X330708Y292608D02*
X536448Y292608D01*
X330708Y292608D02*
X330600Y290800D01*
X658368Y664464D02*
X704088Y664464D01*
X713232Y673608D01*
X731520Y673608D01*
X740664Y664464D01*
X658368Y664464D02*
X657100Y663400D01*
X740664Y664464D02*
X741200Y663400D01*
X615696Y425196D02*
X615696Y422148D01*
X615696Y413004D01*
X615696Y425196D02*
X624840Y434340D01*
X624840Y504444D01*
X580644Y548640D01*
X580644Y580644D01*
X615696Y413004D02*
X614900Y412400D01*
X580644Y580644D02*
X579500Y581100D01*
X141732Y795528D02*
X141732Y819912D01*
X167640Y845820D01*
X141732Y795528D02*
X141500Y794800D01*
X167640Y845820D02*
X168000Y846600D01*
X545592Y835152D02*
X545592Y813816D01*
X545592Y835152D02*
X586740Y876300D01*
X545592Y813816D02*
X544400Y812600D01*
X586740Y876300D02*
X587200Y876600D01*
X868680Y883920D02*
X879348Y883920D01*
X868680Y883920D02*
X859536Y893064D01*
X851916Y893064D01*
X847344Y888492D02*
X845820Y886968D01*
X847344Y888492D02*
X851916Y893064D01*
X845820Y886968D02*
X845820Y797052D01*
X848868Y794004D01*
X880600Y883400D02*
X879348Y883920D01*
X848868Y794004D02*
X849300Y792600D01*
X600456Y877824D02*
X588264Y877824D01*
X600456Y877824D02*
X611124Y888492D01*
X847344Y888492D01*
X588264Y877824D02*
X587200Y876600D01*
X573024Y362712D02*
X614172Y362712D01*
X573024Y362712D02*
X525780Y409956D01*
X525780Y416052D01*
X531876Y422148D01*
X615696Y422148D01*
X614172Y362712D02*
X614900Y361600D01*
X163068Y149352D02*
X163068Y70104D01*
X162500Y69600D01*
X163068Y149352D02*
X163300Y149600D01*
X164592Y150876D02*
X164592Y318516D01*
X254508Y408432D01*
X320040Y408432D01*
X329184Y417576D01*
X164592Y150876D02*
X163300Y149600D01*
X329184Y417576D02*
X330600Y417800D01*
X144780Y719328D02*
X141732Y719328D01*
X144780Y719328D02*
X219456Y794004D01*
X141732Y719328D02*
X141500Y718600D01*
X219456Y794004D02*
X220900Y794800D01*
X193548Y821436D02*
X193548Y845820D01*
X193548Y821436D02*
X219456Y795528D01*
X193548Y845820D02*
X193400Y846600D01*
X219456Y795528D02*
X220900Y794800D01*
X365760Y819912D02*
X365760Y826008D01*
X394716Y854964D02*
X422148Y882396D01*
X394716Y854964D02*
X365760Y826008D01*
X365760Y819912D02*
X365500Y819600D01*
X422148Y882396D02*
X422500Y883100D01*
X623316Y865632D02*
X623316Y813816D01*
X623316Y865632D02*
X612648Y876300D01*
X623316Y813816D02*
X623800Y812600D01*
X612648Y876300D02*
X612600Y876600D01*
X534924Y737616D02*
X513588Y737616D01*
X534924Y737616D02*
X544068Y737616D01*
X513588Y737616D02*
X478536Y772668D01*
X544068Y737616D02*
X544400Y736400D01*
X478536Y772668D02*
X477100Y773100D01*
X559308Y618744D02*
X559308Y582168D01*
X559308Y618744D02*
X548640Y629412D01*
X548640Y733044D01*
X545592Y736092D01*
X559308Y582168D02*
X559500Y581100D01*
X545592Y736092D02*
X544400Y736400D01*
X582168Y812292D02*
X623316Y812292D01*
X582168Y812292D02*
X534924Y765048D01*
X534924Y737616D01*
X623316Y812292D02*
X623800Y812600D01*
X477012Y772668D02*
X394716Y854964D01*
X477100Y773100D02*
X477012Y772668D01*
X614172Y510540D02*
X614172Y438912D01*
X614172Y510540D02*
X560832Y563880D01*
X560832Y580644D01*
X614172Y438912D02*
X614900Y437800D01*
X560832Y580644D02*
X559500Y581100D01*
X239268Y769620D02*
X220980Y769620D01*
X239268Y769620D02*
X288036Y818388D01*
X220980Y769620D02*
X220900Y769400D01*
X288036Y818388D02*
X289300Y819600D01*
X210312Y653796D02*
X210312Y495300D01*
X210312Y653796D02*
X208788Y655320D01*
X208788Y757428D01*
X219456Y768096D01*
X210312Y495300D02*
X211400Y495100D01*
X219456Y768096D02*
X220900Y769400D01*
X242316Y493776D02*
X248412Y493776D01*
X242316Y493776D02*
X146304Y397764D01*
X248412Y493776D02*
X248900Y495100D01*
X146304Y397764D02*
X145900Y397700D01*
X219456Y729996D02*
X219456Y743712D01*
X219456Y729996D02*
X211836Y722376D01*
X211836Y656844D01*
X242316Y626364D01*
X242316Y493776D01*
X219456Y743712D02*
X220900Y744000D01*
X248900Y495100D02*
X242316Y493776D01*
X220980Y717804D02*
X292608Y717804D01*
X316992Y693420D01*
X220980Y717804D02*
X220900Y718600D01*
X316992Y693420D02*
X318200Y693400D01*
X624840Y762000D02*
X624840Y786384D01*
X624840Y762000D02*
X623800Y761800D01*
X624840Y786384D02*
X623800Y787200D01*
X624840Y736092D02*
X624840Y670560D01*
X630936Y664464D01*
X624840Y736092D02*
X623800Y736400D01*
X630936Y664464D02*
X631700Y663400D01*
X545592Y748284D02*
X545592Y760476D01*
X545592Y748284D02*
X621792Y672084D01*
X621792Y512064D01*
X769620Y364236D01*
X769620Y345948D01*
X760476Y336804D01*
X545592Y760476D02*
X544400Y761800D01*
X760476Y336804D02*
X759800Y336200D01*
X544068Y787908D02*
X544068Y797052D01*
X499872Y841248D01*
X499872Y882396D01*
X544068Y787908D02*
X544400Y787200D01*
X499872Y882396D02*
X498700Y883100D01*
X848868Y777240D02*
X848868Y768096D01*
X848868Y777240D02*
X746760Y879348D01*
X739140Y879348D01*
X848868Y768096D02*
X849300Y767200D01*
X739140Y879348D02*
X737700Y879600D01*
X818388Y717804D02*
X848868Y717804D01*
X818388Y717804D02*
X734568Y801624D01*
X848868Y717804D02*
X849300Y716400D01*
X734568Y801624D02*
X734100Y803100D01*
X877824Y594360D02*
X877824Y547116D01*
X877824Y594360D02*
X864108Y608076D01*
X864108Y702564D01*
X850392Y716280D01*
X877824Y547116D02*
X878900Y546400D01*
X850392Y716280D02*
X849300Y716400D01*
X928116Y717804D02*
X928116Y729996D01*
X856488Y801624D01*
X856488Y882396D01*
X928116Y717804D02*
X928700Y716400D01*
X856488Y882396D02*
X855200Y883400D01*
X722376Y153924D02*
X659892Y153924D01*
X722376Y153924D02*
X731520Y163068D01*
X813816Y163068D01*
X821436Y155448D01*
X659892Y153924D02*
X659300Y153100D01*
X821436Y155448D02*
X821690Y154940D01*
X758952Y362712D02*
X626364Y362712D01*
X577596Y411480D01*
X536448Y411480D01*
X758952Y362712D02*
X759800Y361600D01*
X536448Y411480D02*
X535500Y412400D01*
X772668Y310896D02*
X838200Y310896D01*
X772668Y310896D02*
X731520Y352044D01*
X545592Y352044D01*
X536448Y361188D01*
X838200Y310896D02*
X839200Y310800D01*
X536448Y361188D02*
X535500Y361600D01*
X614172Y284988D02*
X614172Y213360D01*
X519684Y118872D01*
X614172Y284988D02*
X614900Y285400D01*
X519684Y118872D02*
X519100Y118300D01*
X627888Y310896D02*
X758952Y310896D01*
X627888Y310896D02*
X589788Y348996D01*
X387096Y348996D01*
X333756Y402336D01*
X260604Y402336D01*
X251460Y393192D01*
X758952Y310896D02*
X759800Y310800D01*
X251460Y393192D02*
X251200Y392400D01*
M02*
