G04 EAGLE Gerber RS-274X export*
G75*
%MOMM*%
%FSLAX34Y34*%
%LPD*%
%INBottom Copper*%
%IPPOS*%
%AMOC8*
5,1,8,0,0,1.08239X$1,22.5*%
G01*
%ADD10R,1.238000X1.238000*%
%ADD11C,1.238000*%
%ADD12R,1.358000X1.358000*%
%ADD13C,1.358000*%
%ADD14P,1.429621X8X202.500000*%
%ADD15P,1.429621X8X22.500000*%
%ADD16C,1.905000*%
%ADD17P,2.061953X8X202.500000*%
%ADD18C,1.508000*%
%ADD19C,4.708000*%
%ADD20C,1.308000*%
%ADD21C,0.152400*%


D10*
X759800Y437800D03*
D11*
X759800Y412400D03*
X759800Y387000D03*
X759800Y361600D03*
X759800Y336200D03*
X759800Y310800D03*
X759800Y285400D03*
X839200Y285400D03*
X839200Y310800D03*
X839200Y336200D03*
X839200Y361600D03*
X839200Y387000D03*
X839200Y412400D03*
X839200Y437800D03*
D12*
X539100Y93300D03*
D13*
X539100Y118300D03*
X519100Y93300D03*
X519100Y118300D03*
X499100Y93300D03*
X499100Y118300D03*
X479100Y93300D03*
X479100Y118300D03*
D14*
X612600Y876600D03*
X587200Y876600D03*
X193400Y846600D03*
X168000Y846600D03*
D15*
X855200Y883400D03*
X880600Y883400D03*
X631700Y663400D03*
X657100Y663400D03*
X318200Y693400D03*
X343600Y693400D03*
X715800Y663400D03*
X741200Y663400D03*
D16*
X145900Y397700D03*
D17*
X95100Y397700D03*
D15*
X163300Y149600D03*
X188700Y149600D03*
X162500Y69600D03*
X187900Y69600D03*
D10*
X141500Y794800D03*
D11*
X141500Y769400D03*
X141500Y744000D03*
X141500Y718600D03*
X220900Y718600D03*
X220900Y744000D03*
X220900Y769400D03*
X220900Y794800D03*
D10*
X544400Y812600D03*
D11*
X544400Y787200D03*
X544400Y761800D03*
X544400Y736400D03*
X623800Y736400D03*
X623800Y761800D03*
X623800Y787200D03*
X623800Y812600D03*
D10*
X849300Y792600D03*
D11*
X849300Y767200D03*
X849300Y741800D03*
X849300Y716400D03*
X928700Y716400D03*
X928700Y741800D03*
X928700Y767200D03*
X928700Y792600D03*
D15*
X821690Y154940D03*
X847090Y154940D03*
D10*
X535500Y437800D03*
D11*
X535500Y412400D03*
X535500Y387000D03*
X535500Y361600D03*
X535500Y336200D03*
X535500Y310800D03*
X535500Y285400D03*
X614900Y285400D03*
X614900Y310800D03*
X614900Y336200D03*
X614900Y361600D03*
X614900Y387000D03*
X614900Y412400D03*
X614900Y437800D03*
D10*
X251200Y417800D03*
D11*
X251200Y392400D03*
X251200Y367000D03*
X251200Y341600D03*
X251200Y316200D03*
X251200Y290800D03*
X251200Y265400D03*
X330600Y265400D03*
X330600Y290800D03*
X330600Y316200D03*
X330600Y341600D03*
X330600Y367000D03*
X330600Y392400D03*
X330600Y417800D03*
D18*
X173900Y495100D03*
X211400Y495100D03*
X248900Y495100D03*
D19*
X148400Y595100D03*
X274400Y595100D03*
D15*
X289300Y819600D03*
X365500Y819600D03*
X737700Y879600D03*
X813900Y879600D03*
X734100Y803100D03*
X810300Y803100D03*
X422500Y883100D03*
X498700Y883100D03*
X400900Y773100D03*
X477100Y773100D03*
X659300Y153100D03*
X735500Y153100D03*
D20*
X853900Y546400D03*
X878900Y546400D03*
X903900Y546400D03*
X903900Y606400D03*
X878900Y606400D03*
X853900Y606400D03*
X539500Y581100D03*
X559500Y581100D03*
X579500Y581100D03*
X539500Y631100D03*
X559500Y631100D03*
X579500Y631100D03*
D21*
X560832Y361188D02*
X614172Y361188D01*
X560832Y361188D02*
X536448Y336804D01*
X614172Y361188D02*
X614900Y361600D01*
X536448Y336804D02*
X535500Y336200D01*
X537972Y283464D02*
X537972Y118872D01*
X537972Y283464D02*
X536448Y284988D01*
X537972Y118872D02*
X539100Y118300D01*
X536448Y284988D02*
X535500Y285400D01*
X690372Y286512D02*
X758952Y286512D01*
X690372Y286512D02*
X615696Y361188D01*
X758952Y286512D02*
X759800Y285400D01*
X615696Y361188D02*
X614900Y361600D01*
X129540Y396240D02*
X96012Y396240D01*
X129540Y396240D02*
X182880Y342900D01*
X249936Y342900D01*
X96012Y396240D02*
X95100Y397700D01*
X249936Y342900D02*
X251200Y341600D01*
X656844Y658368D02*
X656844Y662940D01*
X656844Y658368D02*
X580644Y582168D01*
X656844Y662940D02*
X657100Y663400D01*
X580644Y582168D02*
X579500Y581100D01*
X342900Y693420D02*
X332232Y693420D01*
X320040Y705612D02*
X240792Y784860D01*
X320040Y705612D02*
X332232Y693420D01*
X240792Y784860D02*
X150876Y784860D01*
X141732Y794004D01*
X342900Y693420D02*
X343600Y693400D01*
X141732Y794004D02*
X141500Y794800D01*
X850392Y792480D02*
X877824Y792480D01*
X928116Y742188D01*
X850392Y792480D02*
X849300Y792600D01*
X928116Y742188D02*
X928700Y741800D01*
X905256Y594360D02*
X905256Y547116D01*
X905256Y594360D02*
X918972Y608076D01*
X918972Y731520D01*
X928116Y740664D01*
X905256Y547116D02*
X903900Y546400D01*
X928116Y740664D02*
X928700Y741800D01*
X426720Y812292D02*
X320040Y705612D01*
X426720Y812292D02*
X544068Y812292D01*
X544400Y812600D01*
X742188Y685800D02*
X742188Y664464D01*
X742188Y685800D02*
X848868Y792480D01*
X742188Y664464D02*
X741200Y663400D01*
X848868Y792480D02*
X849300Y792600D01*
X537972Y92964D02*
X531876Y92964D01*
X518160Y79248D01*
X172212Y79248D01*
X163068Y70104D01*
X537972Y92964D02*
X539100Y93300D01*
X163068Y70104D02*
X162500Y69600D01*
X330708Y419100D02*
X528828Y419100D01*
X537972Y428244D01*
X605028Y428244D01*
X614172Y437388D01*
X330708Y419100D02*
X330600Y417800D01*
X614172Y437388D02*
X614900Y437800D01*
X797052Y437388D02*
X838200Y437388D01*
X797052Y437388D02*
X763524Y403860D01*
X649224Y403860D01*
X615696Y437388D01*
X838200Y437388D02*
X839200Y437800D01*
X615696Y437388D02*
X614900Y437800D01*
X880872Y794004D02*
X928116Y794004D01*
X880872Y794004D02*
X873252Y801624D01*
X813816Y801624D02*
X810768Y801624D01*
X813816Y801624D02*
X873252Y801624D01*
X928116Y794004D02*
X928700Y792600D01*
X810768Y801624D02*
X810300Y803100D01*
X813816Y801624D02*
X813816Y813816D01*
X813816Y879348D01*
X813900Y879600D01*
X810300Y803100D02*
X813816Y801624D01*
X813816Y813816D02*
X624840Y813816D01*
X623800Y812600D01*
X341376Y795528D02*
X220980Y795528D01*
X341376Y795528D02*
X364236Y818388D01*
X220980Y795528D02*
X220900Y794800D01*
X364236Y818388D02*
X365500Y819600D01*
X630936Y438912D02*
X758952Y438912D01*
X630936Y438912D02*
X385572Y684276D01*
X201168Y684276D01*
X141732Y743712D01*
X758952Y438912D02*
X759800Y437800D01*
X141732Y743712D02*
X141500Y744000D01*
X141732Y768096D02*
X196596Y768096D01*
X219456Y745236D01*
X141732Y768096D02*
X141500Y769400D01*
X219456Y745236D02*
X220900Y744000D01*
X714756Y670560D02*
X714756Y664464D01*
X714756Y670560D02*
X624840Y760476D01*
X714756Y664464D02*
X715800Y663400D01*
X624840Y760476D02*
X623800Y761800D01*
X464820Y772668D02*
X402336Y772668D01*
X464820Y772668D02*
X484632Y752856D01*
X615696Y752856D01*
X623316Y760476D01*
X402336Y772668D02*
X400900Y773100D01*
X623316Y760476D02*
X623800Y761800D01*
X853440Y594360D02*
X853440Y547116D01*
X853440Y594360D02*
X839724Y608076D01*
X839724Y757428D01*
X848868Y766572D01*
X853440Y547116D02*
X853900Y546400D01*
X848868Y766572D02*
X849300Y767200D01*
X758952Y413004D02*
X652272Y413004D01*
X618744Y446532D01*
X544068Y446532D01*
X536448Y438912D01*
X758952Y413004D02*
X759800Y412400D01*
X536448Y438912D02*
X535500Y437800D01*
X850392Y728472D02*
X850392Y740664D01*
X850392Y728472D02*
X864108Y714756D01*
X864108Y516636D01*
X760476Y413004D01*
X850392Y740664D02*
X849300Y741800D01*
X760476Y413004D02*
X759800Y412400D01*
X534924Y385572D02*
X534924Y373380D01*
X509016Y347472D01*
X509016Y103632D01*
X499872Y94488D01*
X534924Y385572D02*
X535500Y387000D01*
X499872Y94488D02*
X499100Y93300D01*
X615696Y297180D02*
X615696Y309372D01*
X733044Y179832D02*
X734568Y178308D01*
X733044Y179832D02*
X673608Y239268D01*
X615696Y297180D01*
X734568Y178308D02*
X734568Y153924D01*
X615696Y309372D02*
X614900Y310800D01*
X734568Y153924D02*
X735500Y153100D01*
X733044Y179832D02*
X838200Y284988D01*
X839200Y285400D01*
X522732Y94488D02*
X519684Y94488D01*
X522732Y94488D02*
X536448Y108204D01*
X542544Y108204D01*
X673608Y239268D01*
X519684Y94488D02*
X519100Y93300D01*
X627888Y387096D02*
X758952Y387096D01*
X627888Y387096D02*
X611124Y403860D01*
X265176Y403860D01*
X251460Y417576D01*
X758952Y387096D02*
X759800Y387000D01*
X251460Y417576D02*
X251200Y417800D01*
X797052Y336804D02*
X838200Y336804D01*
X797052Y336804D02*
X755904Y377952D01*
X557784Y377952D01*
X539496Y396240D01*
X347472Y396240D01*
X318516Y367284D01*
X251460Y367284D01*
X838200Y336804D02*
X839200Y336200D01*
X251460Y367284D02*
X251200Y367000D01*
M02*
