G04 EAGLE Gerber RS-274X export*
G75*
%MOMM*%
%FSLAX34Y34*%
%LPD*%
%INSoldermask Bottom*%
%IPPOS*%
%AMOC8*
5,1,8,0,0,1.08239X$1,22.5*%
G01*
%ADD10R,1.441200X1.441200*%
%ADD11C,1.441200*%
%ADD12R,1.561200X1.561200*%
%ADD13C,1.561200*%
%ADD14P,1.649562X8X202.500000*%
%ADD15P,1.649562X8X22.500000*%
%ADD16C,2.108200*%
%ADD17P,2.281895X8X202.500000*%
%ADD18C,1.711200*%
%ADD19C,4.911200*%
%ADD20C,1.511200*%
%ADD21C,3.003200*%


D10*
X759800Y437800D03*
D11*
X759800Y412400D03*
X759800Y387000D03*
X759800Y361600D03*
X759800Y336200D03*
X759800Y310800D03*
X759800Y285400D03*
X839200Y285400D03*
X839200Y310800D03*
X839200Y336200D03*
X839200Y361600D03*
X839200Y387000D03*
X839200Y412400D03*
X839200Y437800D03*
D12*
X539100Y93300D03*
D13*
X539100Y118300D03*
X519100Y93300D03*
X519100Y118300D03*
X499100Y93300D03*
X499100Y118300D03*
X479100Y93300D03*
X479100Y118300D03*
D14*
X612600Y876600D03*
X587200Y876600D03*
X193400Y846600D03*
X168000Y846600D03*
D15*
X855200Y883400D03*
X880600Y883400D03*
X631700Y663400D03*
X657100Y663400D03*
X318200Y693400D03*
X343600Y693400D03*
X715800Y663400D03*
X741200Y663400D03*
D16*
X145900Y397700D03*
D17*
X95100Y397700D03*
D15*
X163300Y149600D03*
X188700Y149600D03*
X162500Y69600D03*
X187900Y69600D03*
D10*
X141500Y794800D03*
D11*
X141500Y769400D03*
X141500Y744000D03*
X141500Y718600D03*
X220900Y718600D03*
X220900Y744000D03*
X220900Y769400D03*
X220900Y794800D03*
D10*
X544400Y812600D03*
D11*
X544400Y787200D03*
X544400Y761800D03*
X544400Y736400D03*
X623800Y736400D03*
X623800Y761800D03*
X623800Y787200D03*
X623800Y812600D03*
D10*
X849300Y792600D03*
D11*
X849300Y767200D03*
X849300Y741800D03*
X849300Y716400D03*
X928700Y716400D03*
X928700Y741800D03*
X928700Y767200D03*
X928700Y792600D03*
D15*
X821690Y154940D03*
X847090Y154940D03*
D10*
X535500Y437800D03*
D11*
X535500Y412400D03*
X535500Y387000D03*
X535500Y361600D03*
X535500Y336200D03*
X535500Y310800D03*
X535500Y285400D03*
X614900Y285400D03*
X614900Y310800D03*
X614900Y336200D03*
X614900Y361600D03*
X614900Y387000D03*
X614900Y412400D03*
X614900Y437800D03*
D10*
X251200Y417800D03*
D11*
X251200Y392400D03*
X251200Y367000D03*
X251200Y341600D03*
X251200Y316200D03*
X251200Y290800D03*
X251200Y265400D03*
X330600Y265400D03*
X330600Y290800D03*
X330600Y316200D03*
X330600Y341600D03*
X330600Y367000D03*
X330600Y392400D03*
X330600Y417800D03*
D18*
X173900Y495100D03*
X211400Y495100D03*
X248900Y495100D03*
D19*
X148400Y595100D03*
X274400Y595100D03*
D15*
X289300Y819600D03*
X365500Y819600D03*
X737700Y879600D03*
X813900Y879600D03*
X734100Y803100D03*
X810300Y803100D03*
X422500Y883100D03*
X498700Y883100D03*
X400900Y773100D03*
X477100Y773100D03*
X659300Y153100D03*
X735500Y153100D03*
D20*
X853900Y546400D03*
X878900Y546400D03*
X903900Y546400D03*
X903900Y606400D03*
X878900Y606400D03*
X853900Y606400D03*
X539500Y581100D03*
X559500Y581100D03*
X579500Y581100D03*
X539500Y631100D03*
X559500Y631100D03*
X579500Y631100D03*
D21*
X40000Y40000D03*
X40000Y960000D03*
X960000Y960000D03*
X960000Y40000D03*
M02*
