G04 EAGLE Gerber RS-274X export*
G75*
%MOMM*%
%FSLAX34Y34*%
%LPD*%
%INTop Copper*%
%IPPOS*%
%AMOC8*
5,1,8,0,0,1.08239X$1,22.5*%
G01*
%ADD10R,1.238000X1.238000*%
%ADD11C,1.238000*%
%ADD12C,1.381000*%
%ADD13P,1.429621X8X292.500000*%
%ADD14P,1.429621X8X112.500000*%
%ADD15P,1.429621X8X22.500000*%
%ADD16C,0.152400*%
%ADD17C,0.756400*%


D10*
X602200Y95400D03*
D11*
X602200Y120800D03*
X602200Y146200D03*
X602200Y171600D03*
X602200Y197000D03*
X602200Y222400D03*
X602200Y247800D03*
X602200Y273200D03*
X602200Y298600D03*
X602200Y324000D03*
X522800Y324000D03*
X522800Y298600D03*
X522800Y273200D03*
X522800Y247800D03*
X522800Y222400D03*
X522800Y197000D03*
X522800Y171600D03*
X522800Y146200D03*
X522800Y120800D03*
X522800Y95400D03*
D10*
X489200Y445400D03*
D11*
X489200Y470800D03*
X489200Y496200D03*
X489200Y521600D03*
X489200Y547000D03*
X489200Y572400D03*
X489200Y597800D03*
X489200Y623200D03*
X489200Y648600D03*
X489200Y674000D03*
X409800Y674000D03*
X409800Y648600D03*
X409800Y623200D03*
X409800Y597800D03*
X409800Y572400D03*
X409800Y547000D03*
X409800Y521600D03*
X409800Y496200D03*
X409800Y470800D03*
X409800Y445400D03*
D12*
X107900Y409300D03*
X132900Y409300D03*
X107900Y429300D03*
X132900Y429300D03*
X107900Y449300D03*
X132900Y449300D03*
X107900Y469300D03*
X132900Y469300D03*
X107900Y489300D03*
X132900Y489300D03*
X107900Y509300D03*
X132900Y509300D03*
X107900Y529300D03*
X132900Y529300D03*
X107900Y549300D03*
X132900Y549300D03*
X107900Y569300D03*
X132900Y569300D03*
X107900Y589300D03*
X132900Y589300D03*
X107900Y609300D03*
X132900Y609300D03*
X107900Y629300D03*
X132900Y629300D03*
D10*
X745800Y270500D03*
D11*
X745800Y245100D03*
X745800Y219700D03*
X745800Y194300D03*
X745800Y168900D03*
X745800Y143500D03*
X745800Y118100D03*
X745800Y92700D03*
X825200Y92700D03*
X825200Y118100D03*
X825200Y143500D03*
X825200Y168900D03*
X825200Y194300D03*
X825200Y219700D03*
X825200Y245100D03*
X825200Y270500D03*
D10*
X739800Y569900D03*
D11*
X739800Y544500D03*
X739800Y519100D03*
X739800Y493700D03*
X739800Y468300D03*
X739800Y442900D03*
X739800Y417500D03*
X739800Y392100D03*
X819200Y392100D03*
X819200Y417500D03*
X819200Y442900D03*
X819200Y468300D03*
X819200Y493700D03*
X819200Y519100D03*
X819200Y544500D03*
X819200Y569900D03*
D10*
X742800Y899900D03*
D11*
X742800Y874500D03*
X742800Y849100D03*
X742800Y823700D03*
X742800Y798300D03*
X742800Y772900D03*
X742800Y747500D03*
X742800Y722100D03*
X822200Y722100D03*
X822200Y747500D03*
X822200Y772900D03*
X822200Y798300D03*
X822200Y823700D03*
X822200Y849100D03*
X822200Y874500D03*
X822200Y899900D03*
D13*
X630000Y818100D03*
X630000Y741900D03*
X580000Y818100D03*
X580000Y741900D03*
X530000Y818100D03*
X530000Y741900D03*
X480000Y818100D03*
X480000Y741900D03*
X430000Y818100D03*
X430000Y741900D03*
X380000Y818100D03*
X380000Y741900D03*
X330000Y818100D03*
X330000Y741900D03*
X280000Y818100D03*
X280000Y741900D03*
X230000Y818100D03*
X230000Y741900D03*
X180000Y818100D03*
X180000Y741900D03*
X130000Y818100D03*
X130000Y741900D03*
X680000Y818100D03*
X680000Y741900D03*
D14*
X130000Y857300D03*
X130000Y882700D03*
X630000Y857300D03*
X630000Y882700D03*
X580000Y857300D03*
X580000Y882700D03*
X530000Y857300D03*
X530000Y882700D03*
X480000Y857300D03*
X480000Y882700D03*
X430000Y857300D03*
X430000Y882700D03*
X380000Y857300D03*
X380000Y882700D03*
X330000Y857300D03*
X330000Y882700D03*
X280000Y857300D03*
X280000Y882700D03*
X230000Y857300D03*
X230000Y882700D03*
X180000Y857300D03*
X180000Y882700D03*
X680000Y857300D03*
X680000Y882700D03*
D15*
X77300Y290000D03*
X102700Y290000D03*
X77300Y240000D03*
X102700Y240000D03*
X77300Y190000D03*
X102700Y190000D03*
X77300Y140000D03*
X102700Y140000D03*
D16*
X524256Y146304D02*
X589788Y146304D01*
X627888Y184404D01*
X748284Y184404D01*
X754380Y190500D01*
X754380Y211836D01*
X746760Y219456D01*
X524256Y146304D02*
X522800Y146200D01*
X745800Y219700D02*
X746760Y219456D01*
X111252Y408432D02*
X108204Y408432D01*
X111252Y408432D02*
X373380Y146304D01*
X522732Y146304D01*
X108204Y408432D02*
X107900Y409300D01*
X522732Y146304D02*
X522800Y146200D01*
X524256Y172212D02*
X589788Y172212D01*
X611124Y193548D01*
X745236Y193548D01*
X524256Y172212D02*
X522800Y171600D01*
X745236Y193548D02*
X745800Y194300D01*
X108204Y443484D02*
X108204Y448056D01*
X108204Y443484D02*
X123444Y428244D01*
X123444Y405384D01*
X330708Y198120D01*
X522732Y198120D01*
X108204Y448056D02*
X107900Y449300D01*
X522732Y198120D02*
X522800Y197000D01*
X522732Y222504D02*
X492252Y252984D01*
X522732Y222504D02*
X522800Y222400D01*
D17*
X492252Y252984D03*
D16*
X522732Y248412D02*
X522732Y260604D01*
X513588Y269748D01*
X513588Y301752D01*
X729996Y518160D01*
X739140Y518160D01*
X522732Y248412D02*
X522800Y247800D01*
X739140Y518160D02*
X739800Y519100D01*
X539496Y274320D02*
X524256Y274320D01*
X539496Y274320D02*
X723900Y458724D01*
X743712Y458724D01*
X748284Y463296D01*
X748284Y484632D01*
X740664Y492252D01*
X524256Y274320D02*
X522800Y273200D01*
X740664Y492252D02*
X739800Y493700D01*
X559308Y298704D02*
X524256Y298704D01*
X559308Y298704D02*
X728472Y467868D01*
X739140Y467868D01*
X524256Y298704D02*
X522800Y298600D01*
X739140Y467868D02*
X739800Y468300D01*
X408432Y495300D02*
X219456Y495300D01*
X134112Y409956D01*
X408432Y495300D02*
X409800Y496200D01*
X134112Y409956D02*
X132900Y409300D01*
X748284Y729996D02*
X789432Y729996D01*
X748284Y729996D02*
X746760Y731520D01*
X710184Y731520D01*
X498348Y519684D01*
X498348Y518160D01*
X477012Y496824D01*
X409956Y496824D01*
X409800Y496200D01*
D17*
X789432Y729996D03*
D16*
X408432Y521208D02*
X225552Y521208D01*
X134112Y429768D01*
X408432Y521208D02*
X409800Y521600D01*
X134112Y429768D02*
X132900Y429300D01*
X230124Y545592D02*
X408432Y545592D01*
X230124Y545592D02*
X134112Y449580D01*
X408432Y545592D02*
X409800Y547000D01*
X134112Y449580D02*
X132900Y449300D01*
X237744Y573024D02*
X408432Y573024D01*
X237744Y573024D02*
X134112Y469392D01*
X408432Y573024D02*
X409800Y572400D01*
X134112Y469392D02*
X132900Y469300D01*
X734568Y772668D02*
X742188Y772668D01*
X734568Y772668D02*
X544068Y582168D01*
X419100Y582168D01*
X409956Y573024D01*
X742188Y772668D02*
X742800Y772900D01*
X409956Y573024D02*
X409800Y572400D01*
X603504Y121920D02*
X737616Y121920D01*
X746760Y131064D01*
X830580Y131064D01*
X838200Y138684D01*
X838200Y207264D01*
X826008Y219456D01*
X603504Y121920D02*
X602200Y120800D01*
X825200Y219700D02*
X826008Y219456D01*
X731520Y144780D02*
X603504Y144780D01*
X731520Y144780D02*
X742188Y134112D01*
X829056Y134112D01*
X835152Y140208D01*
X835152Y184404D01*
X826008Y193548D01*
X603504Y144780D02*
X602200Y146200D01*
X825200Y194300D02*
X826008Y193548D01*
X617220Y742188D02*
X580644Y742188D01*
X617220Y742188D02*
X656844Y781812D01*
X734568Y781812D01*
X737616Y784860D01*
X748284Y784860D01*
X806196Y726948D01*
X806196Y187452D01*
X824484Y169164D01*
X580000Y741900D02*
X580644Y742188D01*
X824484Y169164D02*
X825200Y168900D01*
X568452Y740664D02*
X530352Y740664D01*
X568452Y740664D02*
X577596Y731520D01*
X688848Y731520D01*
X739140Y781812D01*
X746760Y781812D01*
X803148Y725424D01*
X803148Y166116D01*
X824484Y144780D01*
X530352Y740664D02*
X530000Y741900D01*
X824484Y144780D02*
X825200Y143500D01*
X505968Y251460D02*
X505968Y518160D01*
X505968Y251460D02*
X518160Y239268D01*
X530352Y239268D01*
X598932Y307848D01*
X605028Y307848D01*
X611124Y301752D01*
X611124Y230124D01*
X603504Y222504D01*
X602200Y222400D01*
D17*
X505968Y518160D03*
D16*
X466344Y742188D02*
X431292Y742188D01*
X466344Y742188D02*
X509016Y784860D01*
X733044Y784860D01*
X736092Y787908D01*
X769620Y787908D01*
X832104Y725424D01*
X832104Y505968D01*
X819912Y493776D01*
X431292Y742188D02*
X430000Y741900D01*
X819200Y493700D02*
X819912Y493776D01*
X797052Y435864D02*
X774192Y413004D01*
D17*
X774192Y413004D03*
X797052Y435864D03*
D16*
X601980Y297180D02*
X601980Y284988D01*
X592836Y275844D01*
X592836Y219456D01*
X598932Y213360D01*
X701040Y213360D01*
X745236Y257556D01*
X755904Y257556D01*
X790956Y292608D01*
X602200Y298600D02*
X601980Y297180D01*
X329184Y740664D02*
X318516Y740664D01*
X137160Y559308D01*
X129540Y559308D01*
X117348Y547116D01*
X117348Y464820D01*
X111252Y458724D01*
X103632Y458724D01*
X97536Y452628D01*
X97536Y425196D01*
X103632Y419100D01*
X111252Y419100D01*
X120396Y409956D01*
X120396Y403860D01*
X336804Y187452D01*
X560832Y187452D01*
X592836Y219456D01*
X329184Y740664D02*
X330000Y741900D01*
D17*
X790956Y292608D03*
D16*
X239268Y670560D02*
X239268Y731520D01*
X230124Y740664D01*
X230000Y741900D01*
X806196Y824484D02*
X821436Y824484D01*
X806196Y824484D02*
X746760Y883920D01*
X694944Y883920D01*
X678180Y867156D01*
X676656Y867156D01*
X640080Y830580D01*
X640080Y815340D01*
X612648Y787908D01*
X339852Y787908D01*
X283464Y731520D01*
X239268Y731520D01*
X821436Y824484D02*
X822200Y823700D01*
D17*
X239268Y670560D03*
D16*
X422148Y522732D02*
X487680Y522732D01*
X422148Y522732D02*
X406908Y537972D01*
X352044Y537972D01*
X228600Y661416D02*
X228600Y693420D01*
X198120Y723900D02*
X181356Y740664D01*
X198120Y723900D02*
X228600Y693420D01*
X487680Y522732D02*
X489200Y521600D01*
X181356Y740664D02*
X180000Y741900D01*
X822960Y798576D02*
X822960Y812292D01*
X832104Y821436D01*
X832104Y826008D01*
X768096Y890016D01*
X685800Y890016D01*
X682752Y893064D01*
X553212Y893064D01*
X527304Y867156D01*
X326136Y867156D01*
X289560Y830580D01*
X289560Y813816D01*
X227076Y751332D01*
X225552Y751332D01*
X198120Y723900D01*
X822200Y798300D02*
X822960Y798576D01*
D17*
X352044Y537972D03*
X228600Y661416D03*
D16*
X422148Y547116D02*
X487680Y547116D01*
X422148Y547116D02*
X402336Y566928D01*
X304800Y566928D01*
X219456Y652272D02*
X131064Y740664D01*
X487680Y547116D02*
X489200Y547000D01*
X131064Y740664D02*
X130000Y741900D01*
X792480Y774192D02*
X821436Y774192D01*
X792480Y774192D02*
X774192Y792480D01*
X768096Y751332D02*
X758952Y751332D01*
X742188Y734568D01*
X701040Y734568D01*
X513588Y547116D01*
X489204Y547116D01*
X822200Y772900D02*
X821436Y774192D01*
X489204Y547116D02*
X489200Y547000D01*
D17*
X304800Y566928D03*
X219456Y652272D03*
X774192Y792480D03*
X768096Y751332D03*
D16*
X413004Y838200D02*
X413004Y853440D01*
X413004Y838200D02*
X365760Y790956D01*
X329184Y790956D01*
X280416Y742188D01*
X280000Y741900D01*
D17*
X413004Y853440D03*
D16*
X103632Y188976D02*
X103632Y140208D01*
X102700Y140000D01*
X103632Y188976D02*
X102700Y190000D01*
X254508Y291084D02*
X408432Y445008D01*
X409800Y445400D01*
X103632Y289560D02*
X103632Y240792D01*
X102700Y240000D01*
X103632Y289560D02*
X102700Y290000D01*
X106680Y582168D02*
X106680Y588264D01*
X106680Y582168D02*
X91440Y566928D01*
X91440Y301752D01*
X102108Y291084D01*
X106680Y588264D02*
X107900Y589300D01*
X102108Y291084D02*
X102700Y290000D01*
X103632Y239268D02*
X103632Y190500D01*
X102700Y190000D01*
X103632Y239268D02*
X102700Y240000D01*
D17*
X254508Y291084D03*
D16*
X489204Y598932D02*
X489204Y621792D01*
X489200Y623200D01*
X489204Y598932D02*
X489200Y597800D01*
X489204Y649224D02*
X489204Y673608D01*
X489204Y649224D02*
X489200Y648600D01*
X489204Y673608D02*
X489200Y674000D01*
X489204Y647700D02*
X489204Y623316D01*
X489200Y623200D01*
X489204Y647700D02*
X489200Y648600D01*
X797052Y284988D02*
X797052Y175260D01*
X797052Y284988D02*
X800100Y288036D01*
X800100Y332232D01*
X740664Y391668D01*
X739800Y392100D01*
X743712Y582168D02*
X743712Y720852D01*
X743712Y582168D02*
X762000Y563880D01*
X762000Y414528D01*
X740664Y393192D01*
X743712Y720852D02*
X742800Y722100D01*
X740664Y393192D02*
X739800Y392100D01*
X679704Y883920D02*
X630936Y883920D01*
X630000Y882700D01*
X679704Y883920D02*
X680000Y882700D01*
X429768Y883920D02*
X381000Y883920D01*
X380000Y882700D01*
X429768Y883920D02*
X430000Y882700D01*
X431292Y883920D02*
X478536Y883920D01*
X480000Y882700D01*
X431292Y883920D02*
X430000Y882700D01*
X480060Y883920D02*
X528828Y883920D01*
X530000Y882700D01*
X480060Y883920D02*
X480000Y882700D01*
X580644Y883920D02*
X617220Y883920D01*
X629412Y883920D01*
X630000Y882700D01*
X580644Y883920D02*
X580000Y882700D01*
X77724Y188976D02*
X77724Y140208D01*
X77300Y140000D01*
X77724Y188976D02*
X77300Y190000D01*
X77724Y240792D02*
X77724Y289560D01*
X77724Y240792D02*
X77300Y240000D01*
X77724Y289560D02*
X77300Y290000D01*
X77724Y239268D02*
X77724Y190500D01*
X77300Y190000D01*
X77724Y239268D02*
X77300Y240000D01*
X280416Y883920D02*
X329184Y883920D01*
X280416Y883920D02*
X280000Y882700D01*
X329184Y883920D02*
X330000Y882700D01*
X179832Y883920D02*
X131064Y883920D01*
X130000Y882700D01*
X179832Y883920D02*
X180000Y882700D01*
X181356Y883920D02*
X228600Y883920D01*
X230000Y882700D01*
X181356Y883920D02*
X180000Y882700D01*
X132588Y595884D02*
X132588Y589788D01*
X132588Y595884D02*
X120396Y608076D01*
X120396Y873252D01*
X129540Y882396D01*
X132588Y589788D02*
X132900Y589300D01*
X129540Y882396D02*
X130000Y882700D01*
X230124Y883920D02*
X278892Y883920D01*
X280000Y882700D01*
X230124Y883920D02*
X230000Y882700D01*
X330708Y883920D02*
X379476Y883920D01*
X380000Y882700D01*
X330708Y883920D02*
X330000Y882700D01*
X617220Y883920D02*
X617220Y832104D01*
D17*
X797052Y175260D03*
X617220Y832104D03*
D16*
X577596Y120396D02*
X524256Y120396D01*
X577596Y120396D02*
X601980Y96012D01*
X524256Y120396D02*
X522800Y120800D01*
X601980Y96012D02*
X602200Y95400D01*
X464820Y469392D02*
X409956Y469392D01*
X464820Y469392D02*
X487680Y446532D01*
X409956Y469392D02*
X409800Y470800D01*
X487680Y446532D02*
X489200Y445400D01*
X498348Y435864D02*
X498348Y263652D01*
X498348Y435864D02*
X489204Y445008D01*
X489200Y445400D01*
D17*
X498348Y263652D03*
D16*
X826008Y106680D02*
X826008Y92964D01*
X826008Y106680D02*
X841248Y121920D01*
X841248Y370332D01*
X819912Y391668D01*
X826008Y92964D02*
X825200Y92700D01*
X819912Y391668D02*
X819200Y392100D01*
X821436Y585216D02*
X821436Y720852D01*
X821436Y585216D02*
X809244Y573024D01*
X809244Y402336D01*
X818388Y393192D01*
X821436Y720852D02*
X822200Y722100D01*
X818388Y393192D02*
X819200Y392100D01*
X740664Y530352D02*
X740664Y544068D01*
X740664Y530352D02*
X755904Y515112D01*
X755904Y420624D01*
X739140Y403860D01*
X734568Y403860D01*
X726948Y396240D01*
X726948Y272796D01*
X739140Y260604D01*
X752856Y260604D01*
X784860Y292608D01*
X784860Y295656D01*
X787908Y298704D01*
X794004Y298704D01*
X797052Y295656D01*
X797052Y289560D01*
X752856Y245364D01*
X746760Y245364D01*
X740664Y544068D02*
X739800Y544500D01*
X746760Y245364D02*
X745800Y245100D01*
X743712Y861060D02*
X743712Y873252D01*
X743712Y861060D02*
X762000Y842772D01*
X762000Y794004D01*
X743712Y873252D02*
X742800Y874500D01*
D17*
X762000Y794004D03*
D16*
X740664Y568452D02*
X740664Y556260D01*
X758952Y537972D01*
X758952Y419100D01*
X740664Y400812D01*
X736092Y400812D01*
X729996Y394716D01*
X729996Y286512D01*
X745236Y271272D01*
X740664Y568452D02*
X739800Y569900D01*
X745236Y271272D02*
X745800Y270500D01*
X754380Y800100D02*
X694944Y859536D01*
D17*
X754380Y800100D03*
X694944Y859536D03*
D16*
X740664Y431292D02*
X740664Y417576D01*
X740664Y431292D02*
X749808Y440436D01*
X749808Y455676D01*
X740664Y417576D02*
X739800Y417500D01*
X746760Y118872D02*
X824484Y118872D01*
X746760Y118872D02*
X745800Y118100D01*
X824484Y118872D02*
X825200Y118100D01*
X108204Y623316D02*
X108204Y627888D01*
X108204Y623316D02*
X117348Y614172D01*
X117348Y565404D01*
X111252Y559308D01*
X103632Y559308D01*
X94488Y550164D01*
X94488Y408432D01*
X373380Y129540D01*
X580644Y129540D01*
X598932Y111252D01*
X739140Y111252D01*
X745236Y117348D01*
X108204Y627888D02*
X107900Y629300D01*
X745800Y118100D02*
X745236Y117348D01*
D17*
X749808Y455676D03*
D16*
X679704Y818388D02*
X679704Y856488D01*
X679704Y818388D02*
X680000Y818100D01*
X679704Y856488D02*
X680000Y857300D01*
X630936Y856488D02*
X630936Y818388D01*
X630000Y818100D01*
X630936Y856488D02*
X630000Y857300D01*
X580644Y856488D02*
X580644Y818388D01*
X580000Y818100D01*
X580644Y856488D02*
X580000Y857300D01*
X530352Y856488D02*
X530352Y818388D01*
X530000Y818100D01*
X530352Y856488D02*
X530000Y857300D01*
X480060Y856488D02*
X480060Y818388D01*
X480000Y818100D01*
X480060Y856488D02*
X480000Y857300D01*
X429768Y856488D02*
X429768Y818388D01*
X430000Y818100D01*
X429768Y856488D02*
X430000Y857300D01*
X381000Y856488D02*
X381000Y818388D01*
X380000Y818100D01*
X381000Y856488D02*
X380000Y857300D01*
X330708Y856488D02*
X330708Y818388D01*
X330000Y818100D01*
X330708Y856488D02*
X330000Y857300D01*
X280416Y856488D02*
X280416Y818388D01*
X280000Y818100D01*
X280416Y856488D02*
X280000Y857300D01*
X230124Y856488D02*
X230124Y818388D01*
X230000Y818100D01*
X230124Y856488D02*
X230000Y857300D01*
X179832Y856488D02*
X179832Y818388D01*
X180000Y818100D01*
X179832Y856488D02*
X180000Y857300D01*
X129540Y856488D02*
X129540Y818388D01*
X130000Y818100D01*
X129540Y856488D02*
X130000Y857300D01*
X240792Y597408D02*
X408432Y597408D01*
X240792Y597408D02*
X134112Y490728D01*
X408432Y597408D02*
X409800Y597800D01*
X134112Y490728D02*
X132900Y489300D01*
X245364Y621792D02*
X408432Y621792D01*
X245364Y621792D02*
X134112Y510540D01*
X408432Y621792D02*
X409800Y623200D01*
X134112Y510540D02*
X132900Y509300D01*
X251460Y647700D02*
X408432Y647700D01*
X251460Y647700D02*
X134112Y530352D01*
X408432Y647700D02*
X409800Y648600D01*
X134112Y530352D02*
X132900Y529300D01*
X257556Y673608D02*
X408432Y673608D01*
X257556Y673608D02*
X134112Y550164D01*
X408432Y673608D02*
X409800Y674000D01*
X134112Y550164D02*
X132900Y549300D01*
M02*
