G04 EAGLE Gerber RS-274X export*
G75*
%MOMM*%
%FSLAX34Y34*%
%LPD*%
%INSoldermask Top*%
%IPPOS*%
%AMOC8*
5,1,8,0,0,1.08239X$1,22.5*%
G01*
%ADD10R,1.441200X1.441200*%
%ADD11C,1.441200*%
%ADD12C,1.584200*%
%ADD13P,1.649562X8X292.500000*%
%ADD14P,1.649562X8X112.500000*%
%ADD15P,1.649562X8X22.500000*%
%ADD16C,3.003200*%
%ADD17C,0.959600*%


D10*
X602200Y95400D03*
D11*
X602200Y120800D03*
X602200Y146200D03*
X602200Y171600D03*
X602200Y197000D03*
X602200Y222400D03*
X602200Y247800D03*
X602200Y273200D03*
X602200Y298600D03*
X602200Y324000D03*
X522800Y324000D03*
X522800Y298600D03*
X522800Y273200D03*
X522800Y247800D03*
X522800Y222400D03*
X522800Y197000D03*
X522800Y171600D03*
X522800Y146200D03*
X522800Y120800D03*
X522800Y95400D03*
D10*
X489200Y445400D03*
D11*
X489200Y470800D03*
X489200Y496200D03*
X489200Y521600D03*
X489200Y547000D03*
X489200Y572400D03*
X489200Y597800D03*
X489200Y623200D03*
X489200Y648600D03*
X489200Y674000D03*
X409800Y674000D03*
X409800Y648600D03*
X409800Y623200D03*
X409800Y597800D03*
X409800Y572400D03*
X409800Y547000D03*
X409800Y521600D03*
X409800Y496200D03*
X409800Y470800D03*
X409800Y445400D03*
D12*
X107900Y409300D03*
X132900Y409300D03*
X107900Y429300D03*
X132900Y429300D03*
X107900Y449300D03*
X132900Y449300D03*
X107900Y469300D03*
X132900Y469300D03*
X107900Y489300D03*
X132900Y489300D03*
X107900Y509300D03*
X132900Y509300D03*
X107900Y529300D03*
X132900Y529300D03*
X107900Y549300D03*
X132900Y549300D03*
X107900Y569300D03*
X132900Y569300D03*
X107900Y589300D03*
X132900Y589300D03*
X107900Y609300D03*
X132900Y609300D03*
X107900Y629300D03*
X132900Y629300D03*
D10*
X745800Y270500D03*
D11*
X745800Y245100D03*
X745800Y219700D03*
X745800Y194300D03*
X745800Y168900D03*
X745800Y143500D03*
X745800Y118100D03*
X745800Y92700D03*
X825200Y92700D03*
X825200Y118100D03*
X825200Y143500D03*
X825200Y168900D03*
X825200Y194300D03*
X825200Y219700D03*
X825200Y245100D03*
X825200Y270500D03*
D10*
X739800Y569900D03*
D11*
X739800Y544500D03*
X739800Y519100D03*
X739800Y493700D03*
X739800Y468300D03*
X739800Y442900D03*
X739800Y417500D03*
X739800Y392100D03*
X819200Y392100D03*
X819200Y417500D03*
X819200Y442900D03*
X819200Y468300D03*
X819200Y493700D03*
X819200Y519100D03*
X819200Y544500D03*
X819200Y569900D03*
D10*
X742800Y899900D03*
D11*
X742800Y874500D03*
X742800Y849100D03*
X742800Y823700D03*
X742800Y798300D03*
X742800Y772900D03*
X742800Y747500D03*
X742800Y722100D03*
X822200Y722100D03*
X822200Y747500D03*
X822200Y772900D03*
X822200Y798300D03*
X822200Y823700D03*
X822200Y849100D03*
X822200Y874500D03*
X822200Y899900D03*
D13*
X630000Y818100D03*
X630000Y741900D03*
X580000Y818100D03*
X580000Y741900D03*
X530000Y818100D03*
X530000Y741900D03*
X480000Y818100D03*
X480000Y741900D03*
X430000Y818100D03*
X430000Y741900D03*
X380000Y818100D03*
X380000Y741900D03*
X330000Y818100D03*
X330000Y741900D03*
X280000Y818100D03*
X280000Y741900D03*
X230000Y818100D03*
X230000Y741900D03*
X180000Y818100D03*
X180000Y741900D03*
X130000Y818100D03*
X130000Y741900D03*
X680000Y818100D03*
X680000Y741900D03*
D14*
X130000Y857300D03*
X130000Y882700D03*
X630000Y857300D03*
X630000Y882700D03*
X580000Y857300D03*
X580000Y882700D03*
X530000Y857300D03*
X530000Y882700D03*
X480000Y857300D03*
X480000Y882700D03*
X430000Y857300D03*
X430000Y882700D03*
X380000Y857300D03*
X380000Y882700D03*
X330000Y857300D03*
X330000Y882700D03*
X280000Y857300D03*
X280000Y882700D03*
X230000Y857300D03*
X230000Y882700D03*
X180000Y857300D03*
X180000Y882700D03*
X680000Y857300D03*
X680000Y882700D03*
D15*
X77300Y290000D03*
X102700Y290000D03*
X77300Y240000D03*
X102700Y240000D03*
X77300Y190000D03*
X102700Y190000D03*
X77300Y140000D03*
X102700Y140000D03*
D16*
X40000Y40000D03*
X960000Y40000D03*
X960000Y960000D03*
X40000Y960000D03*
D17*
X492252Y252984D03*
X789432Y729996D03*
X505968Y518160D03*
X774192Y413004D03*
X797052Y435864D03*
X790956Y292608D03*
X239268Y670560D03*
X352044Y537972D03*
X228600Y661416D03*
X304800Y566928D03*
X219456Y652272D03*
X774192Y792480D03*
X768096Y751332D03*
X413004Y853440D03*
X254508Y291084D03*
X797052Y175260D03*
X617220Y832104D03*
X498348Y263652D03*
X762000Y794004D03*
X754380Y800100D03*
X694944Y859536D03*
X749808Y455676D03*
M02*
