M48
;GenerationSoftware,Autodesk,EAGLE,9.5.2*%
;CreationDate,2020-02-25T07:32:10Z*%
FMAT,2
ICI,OFF
METRIC,TZ,000.000
T6C0.350
T5C0.730
T4C0.813
T3C0.850
T2C1.118
T1C2.800
%
G90
M71
T1
X4000Y4000
X4000Y96000
X96000Y96000
X96000Y4000
T2
X69210Y44220
X71750Y44220
X74290Y44220
X76830Y44220
X81910Y44220
X81910Y36600
X79370Y36600
X76830Y36600
X74290Y36600
X71750Y36600
X69210Y36600
X66670Y36600
X37210Y37280
X32130Y44900
X34670Y44900
X37210Y44900
X39750Y57990
X39750Y44900
X42290Y44900
X44830Y44900
X47370Y44900
X49910Y44900
X49910Y37280
X47370Y37280
X44830Y37280
X42290Y37280
X39750Y37280
X34670Y37280
X32130Y37280
X64130Y57850
X66670Y57850
X69210Y57850
X71750Y57850
X74290Y57850
X76830Y57850
X79370Y57850
X81910Y57850
X81910Y50230
X79370Y50230
X76830Y50230
X74290Y50230
X79370Y44220
X71750Y50230
X69210Y50230
X66670Y50230
X64130Y50230
X32130Y57990
X34670Y57990
X37210Y57990
X32130Y50370
X34670Y50370
X37210Y50370
X39750Y50370
X42290Y50370
X44830Y50370
X47370Y50370
X49910Y50370
X49910Y57990
X47370Y57990
X44830Y57990
X42290Y57990
X64130Y36600
X64130Y44220
X66670Y44220
T3
X10200Y58000
X12700Y56000
X10200Y56000
X12700Y54000
X10200Y54000
X12700Y52000
X10200Y52000
X12700Y50000
X10200Y50000
X12700Y48000
X10200Y48000
X76070Y86340
X12700Y60000
X10200Y60000
X12700Y58000
X70070Y88840
X70070Y86340
X72070Y88840
X72070Y86340
X74070Y88840
X74070Y86340
X76070Y88840
X12700Y46000
X78070Y88840
X78070Y86340
X80070Y88840
X80070Y86340
X82070Y88840
X82070Y86340
X84070Y88840
X84070Y86340
X87120Y10160
X87120Y12660
X85120Y10160
X85120Y12660
X83120Y10160
X83120Y12660
X81120Y10160
X81120Y12660
X79120Y10160
X79120Y12660
X77120Y10160
X77120Y12660
X75120Y10160
X75120Y12660
X73120Y10160
X73120Y12660
X10200Y46000
X12700Y44000
X10200Y44000
X12700Y42000
X10200Y42000
T4
X76000Y64190
X71000Y71810
X71000Y64190
X66000Y71810
X66000Y64190
X61000Y71810
X61000Y64190
X56000Y71810
X56000Y64190
X51000Y71810
X51000Y64190
X46000Y71810
X46000Y64190
X41000Y71810
X41000Y64190
X36000Y71810
X36000Y64190
X31000Y71810
X31000Y64190
X26000Y64190
X21000Y71810
X21000Y64190
X16000Y71810
X16000Y64190
X91000Y74730
X91000Y77270
X86000Y74730
X86000Y77270
X81000Y74730
X81000Y77270
X76000Y74730
X76000Y77270
X71000Y74730
X71000Y77270
X66000Y74730
X66000Y77270
X61000Y74730
X61000Y77270
X56000Y74730
X56000Y77270
X51000Y74730
X51000Y77270
X46000Y74730
X46000Y77270
X41000Y74730
X41000Y77270
X36000Y74730
X36000Y77270
X31000Y74730
X31000Y77270
X26000Y74730
X26000Y77270
X21000Y74730
X21000Y77270
X16000Y74730
X16000Y77270
X6730Y85000
X9270Y85000
X6730Y80000
X9270Y80000
X6730Y75000
X9270Y75000
X6730Y70000
X9270Y70000
X26000Y71810
X91000Y71810
X91000Y64190
X86000Y71810
X86000Y64190
X81000Y71810
X81000Y64190
X76000Y71810
T5
X56810Y15970
X54270Y15970
X51730Y15970
X49190Y15970
X46650Y15970
X44110Y15970
X41570Y15970
X80390Y32380
X82930Y32380
X85470Y32380
X88010Y32380
X90550Y32380
X93090Y32380
X93090Y24440
X90550Y24440
X88010Y24440
X85470Y24440
X82930Y24440
X80390Y24440
X77850Y24440
X54850Y32060
X51730Y8030
X57390Y32060
X59930Y32060
X62470Y32060
X65010Y32060
X67550Y32060
X70090Y32060
X70090Y24120
X67550Y24120
X65010Y24120
X62470Y24120
X59930Y24120
X57390Y24120
X54850Y24120
X31850Y32280
X34390Y32280
X36930Y32280
X39470Y32280
X44550Y32280
X47090Y32280
X47090Y24340
X44550Y24340
X42010Y24340
X39470Y24340
X36930Y24340
X34390Y24340
X31850Y24340
X7390Y32150
X9930Y32150
X12470Y32150
X42010Y32280
X15010Y32150
X17550Y32150
X20090Y32150
X22630Y32150
X22630Y24210
X17550Y24210
X15010Y24210
X12470Y24210
X9930Y24210
X7390Y24210
X44110Y8030
X9570Y8030
X12110Y8030
X14650Y8030
X17190Y8030
X19730Y8030
X22270Y8030
X24810Y8030
X27350Y8030
X29890Y8030
X32430Y8030
X32430Y15970
X29890Y15970
X27350Y15970
X24810Y15970
X22270Y15970
X19730Y15970
X17190Y15970
X14650Y15970
X12110Y15970
X9570Y15970
X41570Y8030
X77850Y32380
X46650Y8030
X49190Y8030
X20090Y24210
X54270Y8030
X56810Y8030
X59350Y8030
X61890Y8030
X64430Y8030
X64430Y15970
X61890Y15970
X59350Y15970
T6
X49530Y17221
X54712Y18440
X27737Y21031
X66294Y22555
X64465Y10820
X78791Y90373
X57912Y78943
X42520Y48920
X41148Y58826
X41148Y55321
X54102Y57912
X74066Y48463
X69647Y77876
X73152Y47854
X73152Y39167
X68732Y24079
X75743Y43129
X73152Y58979
X62941Y77876
X51968Y48311
X32156Y26213
X61417Y44348
X53340Y55016
X18593Y13716
X11735Y40234
X23622Y18440
X14935Y37490
X18440Y21031
X18440Y26213
X41300Y12192
X33223Y9144
X9296Y37338
X50444Y32918
X52426Y55321
X60046Y8992
X41148Y10211
X27889Y10211
X8230Y52121
X13564Y56998
X58674Y13106
X28651Y22555
X14935Y51816
X17678Y23012
X40386Y12192
X32004Y23165
X80467Y37948
X82753Y48463
X92354Y25451
X76048Y52578
X56998Y10211
X45720Y24232
X67056Y48768
X50444Y10973
X43434Y19050
X42977Y46939
X35052Y46939
X57912Y15240
X46025Y34595
X71628Y8992
X5182Y14935
X11278Y66446
X65380Y65380
X21641Y14935
X18440Y27127
X23774Y61417
X18745Y61417
X8230Y53188
X11125Y53188
X21641Y62636
X19812Y60808
X12040Y37490
X55016Y60808
X69647Y60808
X12192Y65532
X6401Y16459
X49225Y53492
X12192Y66446
X5791Y51968
X77114Y31242
M30