M48
;GenerationSoftware,Autodesk,EAGLE,9.5.2*%
;CreationDate,2020-02-25T07:40:05Z*%
FMAT,2
ICI,OFF
METRIC,TZ,000.000
T6C0.350
T5C0.730
T4C0.813
T3C0.850
T2C1.118
T1C2.800
%
G90
M71
T1
X96000Y96000
X4000Y4000
X96000Y4000
X4000Y96000
T2
X74250Y65970
X74250Y63430
X74250Y60890
X74250Y58350
X66630Y58350
X66630Y60890
X66630Y63430
X66630Y65970
X66630Y68510
X83410Y78670
X83410Y81210
X91030Y60890
X66630Y71050
X66630Y73590
X66630Y78670
X83410Y58350
X66630Y81210
X91030Y81210
X66630Y76130
X91030Y76130
X91030Y73590
X91030Y71050
X91030Y68510
X91030Y78670
X74250Y71050
X91030Y65970
X74250Y68510
X83410Y76130
X83410Y73590
X83410Y71050
X91030Y58350
X83410Y68510
X83410Y65970
X91030Y63430
X83410Y63430
X83410Y60890
X74250Y81210
X74250Y78670
X74250Y76130
X74250Y73590
T3
X47950Y87890
X49950Y90390
X49950Y87890
X51950Y90390
X51950Y87890
X53950Y90390
X53950Y87890
X55950Y90390
X55950Y87890
X57950Y90390
X57950Y87890
X13160Y63570
X10660Y63570
X13160Y61570
X10660Y61570
X10660Y59570
X13160Y57570
X10660Y57570
X13160Y55570
X10660Y55570
X13160Y53570
X10660Y53570
X13160Y51570
X10660Y51570
X13160Y49570
X10660Y49570
X13160Y47570
X10660Y47570
X13160Y45570
X10660Y45570
X13160Y43570
X10660Y43570
X13160Y41570
X10660Y41570
X13160Y59570
X43950Y90390
X43950Y87890
X45950Y90390
X45950Y87890
X47950Y90390
T4
X61000Y36810
X61000Y29190
X66000Y36810
X66000Y29190
X71000Y36810
X71000Y29190
X76000Y36810
X76000Y29190
X81000Y36810
X81000Y29190
X86000Y36810
X81000Y16730
X91000Y29190
X91000Y36810
X86000Y29190
X56000Y29190
X56000Y36810
X51000Y29190
X51000Y36810
X46000Y29190
X46000Y36810
X41000Y29190
X41000Y36810
X36000Y29190
X36000Y36810
X31000Y29190
X31000Y36810
X26000Y29190
X26000Y36810
X21000Y29190
X21000Y36810
X96000Y29190
X96000Y36810
X91000Y19270
X91000Y16730
X86000Y19270
X86000Y16730
X81000Y19270
X76000Y19270
X76000Y16730
X71000Y19270
X71000Y16730
X66000Y19270
X66000Y16730
X61000Y19270
X61000Y16730
X56000Y19270
X56000Y16730
X51000Y19270
X51000Y16730
X46000Y19270
X46000Y16730
X41000Y19270
X41000Y16730
X36000Y19270
X36000Y16730
X31000Y19270
X31000Y16730
X26000Y19270
X26000Y16730
X21000Y19270
X21000Y16730
X96000Y19270
X96000Y16730
X11730Y28000
X14270Y28000
X11730Y23000
X14270Y23000
X11730Y18000
X14270Y18000
X11730Y13000
X14270Y13000
T5
X22980Y69070
X22980Y66530
X22980Y63990
X22980Y61450
X22980Y58910
X22980Y56370
X22980Y53830
X30920Y53830
X30920Y56370
X30920Y58910
X30920Y61450
X30920Y63990
X30920Y66530
X30920Y69070
X30920Y71610
X30920Y74150
X30920Y76690
X36280Y76690
X36280Y74150
X36280Y71610
X36280Y69070
X36280Y66530
X36280Y63990
X36280Y61450
X36280Y58910
X36280Y56370
X36280Y53830
X44220Y53830
X44220Y56370
X44220Y58910
X44220Y61450
X44220Y66530
X44220Y69070
X44220Y71610
X44220Y74150
X44220Y76690
X44220Y63990
X7690Y90780
X7690Y88240
X7690Y85700
X7690Y83160
X7690Y80620
X7690Y78080
X7690Y75540
X15630Y75540
X15630Y78080
X15630Y80620
X15630Y83160
X15630Y85700
X15630Y88240
X15630Y90780
X22980Y76690
X22980Y74150
X22980Y71610
T6
X20879Y64465
X33680Y65837
X30937Y62789
X78791Y72238
X80315Y65075
X79248Y64008
X49530Y56236
X38252Y55474
X68428Y67056
X96164Y78638
X51968Y86563
X51968Y81686
X81077Y58522
X49073Y75286
X87020Y67666
X86106Y59131
X93726Y74676
X39624Y88544
X33833Y72542
X81991Y83820
X32156Y76962
X19050Y67056
X28499Y57607
X53188Y39472
X93421Y71933
X94336Y77876
X54407Y40843
X39472Y55778
X94031Y70561
X94945Y78638
X82448Y91440
X18288Y47701
X51359Y40081
X35357Y57150
X95555Y76505
X80467Y56845
X32766Y65532
X29108Y55321
X77114Y71476
X26060Y40996
X84734Y71780
X11735Y38710
X29870Y77876
X20269Y67513
X71018Y57607
X67056Y53645
X57302Y79400
X46482Y68580
X12802Y35814
X22098Y72390
X65227Y73457
X48311Y73609
X72542Y66446
X64313Y57607
X62179Y53035
X48311Y74524
X63703Y74066
X44501Y86411
X11887Y40538
X20879Y65684
X19660Y64465
X19660Y60960
X15240Y56540
X41910Y57912
X45415Y61417
X27737Y61417
M30