G04 EAGLE Gerber RS-274X export*
G75*
%MOMM*%
%FSLAX34Y34*%
%LPD*%
%INBottom Copper*%
%IPPOS*%
%AMOC8*
5,1,8,0,0,1.08239X$1,22.5*%
G01*
%ADD10R,1.238000X1.238000*%
%ADD11C,1.238000*%
%ADD12R,1.308000X1.308000*%
%ADD13C,1.308000*%
%ADD14R,1.358000X1.358000*%
%ADD15C,1.358000*%
%ADD16C,1.381000*%
%ADD17R,1.216000X1.216000*%
%ADD18C,1.216000*%
%ADD19P,1.429621X8X292.500000*%
%ADD20P,1.429621X8X202.500000*%
%ADD21C,0.152400*%
%ADD22C,0.756400*%


D10*
X675300Y651500D03*
D11*
X675300Y626100D03*
X675300Y600700D03*
X675300Y575300D03*
X675300Y549900D03*
X675300Y524500D03*
X675300Y499100D03*
X675300Y473700D03*
X754700Y473700D03*
X754700Y499100D03*
X754700Y524500D03*
X754700Y549900D03*
X754700Y575300D03*
X754700Y600700D03*
X754700Y626100D03*
X754700Y651500D03*
D10*
X237100Y661500D03*
D11*
X237100Y636100D03*
X237100Y610700D03*
X237100Y585300D03*
X237100Y559900D03*
X237100Y534500D03*
X237100Y509100D03*
X237100Y483700D03*
X316500Y483700D03*
X316500Y509100D03*
X316500Y534500D03*
X316500Y559900D03*
X316500Y585300D03*
X316500Y610700D03*
X316500Y636100D03*
X316500Y661500D03*
D10*
X452280Y662780D03*
D11*
X452280Y637380D03*
X452280Y611980D03*
X452280Y586580D03*
X452280Y561180D03*
X452280Y535780D03*
X452280Y510380D03*
X452280Y484980D03*
X531680Y484980D03*
X531680Y510380D03*
X531680Y535780D03*
X531680Y561180D03*
X531680Y586580D03*
X531680Y611980D03*
X531680Y637380D03*
X531680Y662780D03*
D10*
X345000Y661500D03*
D11*
X345000Y636100D03*
X345000Y610700D03*
X345000Y585300D03*
X345000Y559900D03*
X345000Y534500D03*
X345000Y509100D03*
X345000Y483700D03*
X424400Y483700D03*
X424400Y509100D03*
X424400Y534500D03*
X424400Y559900D03*
X424400Y585300D03*
X424400Y610700D03*
X424400Y636100D03*
X424400Y661500D03*
D10*
X782800Y654700D03*
D11*
X782800Y629300D03*
X782800Y603900D03*
X782800Y578500D03*
X782800Y553100D03*
X782800Y527700D03*
X782800Y502300D03*
X782800Y476900D03*
X862200Y476900D03*
X862200Y502300D03*
X862200Y527700D03*
X862200Y553100D03*
X862200Y578500D03*
X862200Y603900D03*
X862200Y629300D03*
X862200Y654700D03*
D10*
X24700Y411500D03*
D11*
X24700Y386100D03*
X24700Y360700D03*
X24700Y335300D03*
X24700Y309900D03*
X24700Y284500D03*
X24700Y259100D03*
X24700Y233700D03*
X104100Y233700D03*
X104100Y259100D03*
X104100Y284500D03*
X104100Y309900D03*
X104100Y335300D03*
X104100Y360700D03*
X104100Y386100D03*
X104100Y411500D03*
D10*
X565800Y654700D03*
D11*
X565800Y629300D03*
X565800Y603900D03*
X565800Y578500D03*
X565800Y553100D03*
X565800Y527700D03*
X565800Y502300D03*
X565800Y476900D03*
X645200Y476900D03*
X645200Y502300D03*
X645200Y527700D03*
X645200Y553100D03*
X645200Y578500D03*
X645200Y603900D03*
X645200Y629300D03*
X645200Y654700D03*
D10*
X109800Y654700D03*
D11*
X109800Y629300D03*
X109800Y603900D03*
X109800Y578500D03*
X109800Y553100D03*
X109800Y527700D03*
X109800Y502300D03*
X109800Y476900D03*
X189200Y476900D03*
X189200Y502300D03*
X189200Y527700D03*
X189200Y553100D03*
X189200Y578500D03*
X189200Y603900D03*
X189200Y629300D03*
X189200Y654700D03*
D12*
X538100Y433900D03*
D13*
X563500Y433900D03*
X588900Y433900D03*
X614300Y433900D03*
X639700Y433900D03*
X665100Y433900D03*
X690500Y433900D03*
X715900Y433900D03*
X715900Y352900D03*
X690500Y352900D03*
X665100Y352900D03*
X639700Y352900D03*
X614300Y352900D03*
X588900Y352900D03*
X563500Y352900D03*
X538100Y352900D03*
D12*
X302470Y433490D03*
D13*
X327870Y433490D03*
X353270Y433490D03*
X378670Y433490D03*
X404070Y433490D03*
X429470Y433490D03*
X454870Y433490D03*
X480270Y433490D03*
X480270Y352490D03*
X454870Y352490D03*
X429470Y352490D03*
X404070Y352490D03*
X378670Y352490D03*
X353270Y352490D03*
X327870Y352490D03*
X302470Y352490D03*
D14*
X21800Y469800D03*
D15*
X46800Y469800D03*
X21800Y489800D03*
X46800Y489800D03*
X21800Y509800D03*
X46800Y509800D03*
X21800Y529800D03*
X46800Y529800D03*
X21800Y549800D03*
X46800Y549800D03*
X21800Y569800D03*
X46800Y569800D03*
X21800Y589800D03*
X46800Y589800D03*
X21800Y609800D03*
X46800Y609800D03*
X21800Y629800D03*
X46800Y629800D03*
D16*
X967700Y634700D03*
X942700Y634700D03*
X967700Y614700D03*
X942700Y614700D03*
X967700Y594700D03*
X942700Y594700D03*
X967700Y574700D03*
X942700Y574700D03*
X967700Y554700D03*
X942700Y554700D03*
X967700Y534700D03*
X942700Y534700D03*
X967700Y514700D03*
X942700Y514700D03*
X967700Y494700D03*
X942700Y494700D03*
X967700Y474700D03*
X942700Y474700D03*
X967700Y454700D03*
X942700Y454700D03*
X967700Y434700D03*
X942700Y434700D03*
X967700Y414700D03*
X942700Y414700D03*
D17*
X544400Y807900D03*
D18*
X569800Y807900D03*
X595200Y807900D03*
X620600Y807900D03*
X646000Y807900D03*
X671400Y807900D03*
X696800Y807900D03*
X722200Y807900D03*
X747600Y807900D03*
X773000Y807900D03*
X798400Y807900D03*
X823800Y807900D03*
X849200Y807900D03*
X874600Y807900D03*
X874600Y960300D03*
X849200Y960300D03*
X823800Y960300D03*
X798400Y960300D03*
X773000Y960300D03*
X747600Y960300D03*
X722200Y960300D03*
X696800Y960300D03*
X671400Y960300D03*
X646000Y960300D03*
X620600Y960300D03*
X595200Y960300D03*
X569800Y960300D03*
X544400Y960300D03*
D17*
X144400Y810100D03*
D18*
X169800Y810100D03*
X195200Y810100D03*
X220600Y810100D03*
X246000Y810100D03*
X271400Y810100D03*
X296800Y810100D03*
X322200Y810100D03*
X347600Y810100D03*
X373000Y810100D03*
X398400Y810100D03*
X423800Y810100D03*
X449200Y810100D03*
X474600Y810100D03*
X474600Y962500D03*
X449200Y962500D03*
X423800Y962500D03*
X398400Y962500D03*
X373000Y962500D03*
X347600Y962500D03*
X322200Y962500D03*
X296800Y962500D03*
X271400Y962500D03*
X246000Y962500D03*
X220600Y962500D03*
X195200Y962500D03*
X169800Y962500D03*
X144400Y962500D03*
D16*
X610000Y40000D03*
X590000Y40000D03*
X570000Y40000D03*
X550000Y40000D03*
X530000Y40000D03*
X510000Y40000D03*
X490000Y40000D03*
X610000Y65000D03*
X590000Y65000D03*
X570000Y65000D03*
X550000Y65000D03*
X530000Y65000D03*
X510000Y65000D03*
X490000Y65000D03*
D10*
X179700Y33800D03*
D11*
X179700Y59200D03*
X179700Y84600D03*
X179700Y110000D03*
X179700Y135400D03*
X179700Y160800D03*
X179700Y186200D03*
X100300Y186200D03*
X100300Y160800D03*
X100300Y135400D03*
X100300Y110000D03*
X100300Y84600D03*
X100300Y59200D03*
X100300Y33800D03*
D10*
X231100Y690300D03*
D11*
X256500Y690300D03*
X281900Y690300D03*
X307300Y690300D03*
X332700Y690300D03*
X358100Y690300D03*
X383500Y690300D03*
X408900Y690300D03*
X408900Y769700D03*
X383500Y769700D03*
X358100Y769700D03*
X332700Y769700D03*
X307300Y769700D03*
X281900Y769700D03*
X256500Y769700D03*
X231100Y769700D03*
D10*
X21100Y690300D03*
D11*
X46500Y690300D03*
X71900Y690300D03*
X97300Y690300D03*
X122700Y690300D03*
X148100Y690300D03*
X173500Y690300D03*
X198900Y690300D03*
X198900Y769700D03*
X173500Y769700D03*
X148100Y769700D03*
X122700Y769700D03*
X97300Y769700D03*
X71900Y769700D03*
X46500Y769700D03*
X21100Y769700D03*
D10*
X455700Y690300D03*
D11*
X481100Y690300D03*
X506500Y690300D03*
X531900Y690300D03*
X557300Y690300D03*
X582700Y690300D03*
X608100Y690300D03*
X633500Y690300D03*
X658900Y690300D03*
X684300Y690300D03*
X684300Y769700D03*
X658900Y769700D03*
X633500Y769700D03*
X608100Y769700D03*
X582700Y769700D03*
X557300Y769700D03*
X531900Y769700D03*
X506500Y769700D03*
X481100Y769700D03*
X455700Y769700D03*
D10*
X735700Y690300D03*
D11*
X761100Y690300D03*
X786500Y690300D03*
X811900Y690300D03*
X837300Y690300D03*
X862700Y690300D03*
X888100Y690300D03*
X913500Y690300D03*
X938900Y690300D03*
X964300Y690300D03*
X964300Y769700D03*
X938900Y769700D03*
X913500Y769700D03*
X888100Y769700D03*
X862700Y769700D03*
X837300Y769700D03*
X811900Y769700D03*
X786500Y769700D03*
X761100Y769700D03*
X735700Y769700D03*
D13*
X830000Y385000D03*
X850000Y385000D03*
X870000Y385000D03*
X830000Y435000D03*
X850000Y435000D03*
X870000Y435000D03*
D19*
X920000Y212700D03*
X920000Y187300D03*
X870000Y212700D03*
X870000Y187300D03*
X820000Y212700D03*
X820000Y187300D03*
X770000Y212700D03*
X770000Y187300D03*
X720000Y212700D03*
X720000Y187300D03*
X670000Y212700D03*
X670000Y187300D03*
X620000Y212700D03*
X620000Y187300D03*
X570000Y212700D03*
X570000Y187300D03*
X520000Y212700D03*
X520000Y187300D03*
X470000Y212700D03*
X470000Y187300D03*
X420000Y212700D03*
X420000Y187300D03*
X370000Y212700D03*
X370000Y187300D03*
X320000Y212700D03*
X320000Y187300D03*
X270000Y212700D03*
X270000Y187300D03*
X220000Y212700D03*
X220000Y187300D03*
X970000Y212700D03*
X970000Y187300D03*
X920000Y308100D03*
X920000Y231900D03*
X870000Y308100D03*
X870000Y231900D03*
X820000Y308100D03*
X820000Y231900D03*
X770000Y308100D03*
X770000Y231900D03*
X720000Y308100D03*
X720000Y231900D03*
X670000Y308100D03*
X670000Y231900D03*
X620000Y308100D03*
X620000Y231900D03*
X570000Y308100D03*
X570000Y231900D03*
X520000Y308100D03*
X520000Y231900D03*
X470000Y308100D03*
X470000Y231900D03*
X420000Y308100D03*
X420000Y231900D03*
X370000Y308100D03*
X370000Y231900D03*
X320000Y308100D03*
X320000Y231900D03*
X270000Y308100D03*
X270000Y231900D03*
X220000Y308100D03*
X220000Y231900D03*
X970000Y308100D03*
X970000Y231900D03*
D20*
X192700Y340000D03*
X167300Y340000D03*
X192700Y370000D03*
X167300Y370000D03*
X192700Y400000D03*
X167300Y400000D03*
X192700Y430000D03*
X167300Y430000D03*
D21*
X955548Y635508D02*
X966216Y635508D01*
X955548Y635508D02*
X946404Y644652D01*
X870204Y644652D01*
X864108Y638556D01*
X792480Y638556D01*
X783336Y629412D01*
X966216Y635508D02*
X967700Y634700D01*
X783336Y629412D02*
X782800Y629300D01*
X781812Y562356D02*
X781812Y553212D01*
X781812Y562356D02*
X771144Y573024D01*
X771144Y662940D01*
X810768Y702564D01*
X810768Y769620D01*
X782800Y553100D02*
X781812Y553212D01*
X810768Y769620D02*
X811900Y769700D01*
X955548Y615696D02*
X966216Y615696D01*
X955548Y615696D02*
X946404Y624840D01*
X915924Y624840D01*
X912876Y627888D01*
X900684Y627888D01*
X888492Y615696D01*
X856488Y615696D01*
X804672Y563880D01*
X804672Y556260D01*
X966216Y615696D02*
X967700Y614700D01*
D22*
X804672Y556260D03*
D21*
X862584Y536448D02*
X862584Y528828D01*
X862584Y536448D02*
X908304Y582168D01*
X935736Y582168D01*
X938784Y585216D01*
X957072Y585216D01*
X966216Y594360D01*
X862584Y528828D02*
X862200Y527700D01*
X966216Y594360D02*
X967700Y594700D01*
D22*
X908304Y582168D03*
D21*
X920496Y588264D02*
X931164Y588264D01*
X920496Y588264D02*
X902208Y606552D01*
X864108Y606552D01*
X862584Y605028D01*
X862200Y603900D01*
D22*
X931164Y588264D03*
D21*
X566928Y629412D02*
X566928Y640080D01*
X598932Y672084D01*
X598932Y729996D01*
X617220Y748284D01*
X637032Y748284D01*
X850392Y819912D02*
X886968Y783336D01*
X886968Y771144D01*
X566928Y629412D02*
X565800Y629300D01*
X886968Y771144D02*
X888100Y769700D01*
X915924Y565404D02*
X923544Y565404D01*
X915924Y565404D02*
X908304Y573024D01*
X888492Y624840D02*
X874776Y638556D01*
X867156Y673608D02*
X853440Y687324D01*
X853440Y736092D01*
X886968Y769620D01*
X888100Y769700D01*
D22*
X637032Y748284D03*
X850392Y819912D03*
X923544Y565404D03*
X908304Y573024D03*
X888492Y624840D03*
X874776Y638556D03*
X867156Y673608D03*
D21*
X566928Y551688D02*
X566928Y539496D01*
X576072Y530352D01*
X576072Y483108D01*
X598932Y460248D02*
X598932Y345948D01*
X643128Y301752D01*
X769620Y342900D02*
X851916Y425196D01*
X883920Y425196D01*
X908304Y449580D01*
X925068Y449580D01*
X926592Y448056D01*
X566928Y551688D02*
X565800Y553100D01*
X906780Y589788D02*
X906780Y592836D01*
X906780Y589788D02*
X871728Y554736D01*
X871728Y550164D01*
X853440Y531876D01*
X853440Y524256D01*
X859536Y518160D01*
X864108Y518160D01*
X905256Y477012D01*
X905256Y452628D01*
X908304Y449580D01*
D22*
X576072Y483108D03*
X598932Y460248D03*
X643128Y301752D03*
X769620Y342900D03*
X926592Y448056D03*
X906780Y592836D03*
D21*
X667512Y528828D02*
X646176Y528828D01*
X667512Y528828D02*
X672084Y533400D01*
X775716Y533400D01*
X778764Y536448D01*
X786384Y536448D01*
X792480Y530352D01*
X792480Y519684D01*
X789432Y516636D01*
X917448Y519684D02*
X923544Y519684D01*
X938784Y504444D01*
X957072Y504444D01*
X966216Y513588D01*
X646176Y528828D02*
X645200Y527700D01*
X966216Y513588D02*
X967700Y514700D01*
X940308Y766572D02*
X940308Y769620D01*
X940308Y766572D02*
X946404Y760476D01*
X946404Y754380D01*
X915924Y723900D01*
X914400Y723900D01*
X897636Y707136D01*
X897636Y667512D01*
X880872Y650748D01*
X938900Y769700D02*
X940308Y769620D01*
D22*
X789432Y516636D03*
X917448Y519684D03*
X880872Y650748D03*
D21*
X746760Y795528D02*
X723900Y772668D01*
X746760Y795528D02*
X772668Y795528D01*
X786384Y809244D01*
X786384Y816864D01*
X804672Y835152D01*
X874776Y836676D02*
X897636Y836676D01*
X963168Y771144D01*
X964300Y769700D01*
D22*
X723900Y772668D03*
X804672Y835152D03*
X874776Y836676D03*
D21*
X149352Y667512D02*
X111252Y629412D01*
X274320Y726948D02*
X274320Y736092D01*
X271272Y739140D01*
X271272Y771144D01*
X289560Y789432D01*
X341376Y789432D01*
X365760Y798576D02*
X425196Y798576D01*
X446532Y819912D01*
X452628Y819912D01*
X501396Y771144D01*
X505968Y771144D01*
X111252Y629412D02*
X109800Y629300D01*
X505968Y771144D02*
X506500Y769700D01*
X885444Y819912D02*
X925068Y780288D01*
X885444Y819912D02*
X868680Y819912D01*
X847344Y841248D01*
X729996Y841248D02*
X638556Y841248D01*
X635508Y838200D01*
D22*
X149352Y667512D03*
X274320Y726948D03*
X341376Y789432D03*
X365760Y798576D03*
X925068Y780288D03*
X847344Y841248D03*
X729996Y841248D03*
X635508Y838200D03*
D21*
X111252Y566928D02*
X111252Y553212D01*
X111252Y566928D02*
X131064Y586740D01*
X131064Y605028D01*
X286512Y723900D02*
X286512Y762000D01*
X307848Y783336D01*
X359664Y783336D01*
X111252Y553212D02*
X109800Y553100D01*
X918972Y714756D02*
X918972Y717804D01*
X952500Y751332D01*
X952500Y772668D01*
X896112Y829056D01*
X880872Y829056D01*
X722376Y832104D02*
X626364Y832104D01*
X620268Y838200D01*
D22*
X131064Y605028D03*
X286512Y723900D03*
X359664Y783336D03*
X918972Y714756D03*
X880872Y829056D03*
X722376Y832104D03*
X620268Y838200D03*
D21*
X198120Y527304D02*
X190500Y527304D01*
X198120Y527304D02*
X207264Y518160D01*
X320040Y518160D01*
X339852Y498348D01*
X339852Y496824D01*
X374904Y470916D02*
X403860Y470916D01*
X420624Y454152D01*
X495300Y470916D02*
X495300Y512064D01*
X498348Y515112D01*
X498348Y541020D01*
X512064Y554736D01*
X512064Y632460D01*
X566928Y713232D02*
X566928Y760476D01*
X557784Y769620D01*
X190500Y527304D02*
X189200Y527700D01*
X557300Y769700D02*
X557784Y769620D01*
X835152Y454152D02*
X804672Y423672D01*
X804672Y414528D01*
X801624Y411480D01*
X569976Y426720D02*
X569976Y385572D01*
X569976Y426720D02*
X573024Y429768D01*
X573024Y452628D01*
D22*
X339852Y496824D03*
X374904Y470916D03*
X420624Y454152D03*
X495300Y470916D03*
X512064Y632460D03*
X566928Y713232D03*
X835152Y454152D03*
X801624Y411480D03*
X569976Y385572D03*
X573024Y452628D03*
D21*
X193548Y605028D02*
X190500Y605028D01*
X193548Y605028D02*
X202692Y614172D01*
X227076Y614172D01*
X233172Y620268D01*
X254508Y620268D01*
X256032Y618744D01*
X390144Y720852D02*
X390144Y723900D01*
X445008Y778764D01*
X190500Y605028D02*
X189200Y603900D01*
X978408Y745236D02*
X978408Y786384D01*
X979932Y787908D01*
X633984Y880872D02*
X609600Y880872D01*
X592836Y864108D01*
X580644Y789432D02*
X580644Y772668D01*
X582168Y771144D01*
X582700Y769700D01*
D22*
X256032Y618744D03*
X390144Y720852D03*
X445008Y778764D03*
X978408Y745236D03*
X979932Y787908D03*
X633984Y880872D03*
X592836Y864108D03*
X580644Y789432D03*
D21*
X24384Y385572D02*
X24384Y373380D01*
X15240Y364236D01*
X15240Y172212D01*
X88392Y99060D01*
X88392Y28956D01*
X96012Y21336D01*
X790956Y21336D01*
X972312Y202692D01*
X973836Y202692D01*
X982980Y211836D01*
X982980Y513588D01*
X972312Y524256D01*
X964692Y524256D01*
X952500Y536448D01*
X952500Y544068D01*
X943356Y553212D01*
X24700Y386100D02*
X24384Y385572D01*
X942700Y554700D02*
X943356Y553212D01*
X609600Y771144D02*
X609600Y789432D01*
X612648Y874776D02*
X675132Y874776D01*
X778764Y978408D01*
X877824Y978408D01*
X989076Y867156D01*
X989076Y541020D01*
X972312Y524256D01*
X609600Y771144D02*
X608100Y769700D01*
D22*
X609600Y789432D03*
X612648Y874776D03*
D21*
X79248Y441960D02*
X79248Y342900D01*
X79248Y441960D02*
X89916Y452628D01*
X89916Y490728D01*
X109728Y643128D02*
X114300Y643128D01*
X138684Y667512D01*
X138684Y722376D01*
X173736Y757428D01*
X908304Y483108D02*
X908304Y475488D01*
X938784Y445008D01*
X950976Y445008D01*
X932688Y853440D02*
X899160Y853440D01*
D22*
X79248Y342900D03*
X89916Y490728D03*
X109728Y643128D03*
X173736Y757428D03*
X908304Y483108D03*
X950976Y445008D03*
X932688Y853440D03*
X899160Y853440D03*
D21*
X140208Y284988D02*
X105156Y284988D01*
X140208Y284988D02*
X185928Y330708D01*
X294132Y330708D01*
X318516Y355092D01*
X318516Y356616D01*
X324612Y362712D01*
X330708Y362712D01*
X341376Y352044D01*
X341376Y330708D01*
X353568Y318516D01*
X353568Y190500D01*
X390144Y153924D01*
X473964Y153924D01*
X477012Y156972D01*
X754380Y280416D02*
X778764Y280416D01*
X870204Y371856D01*
X879348Y371856D01*
X905256Y397764D01*
X105156Y284988D02*
X104100Y284500D01*
X659892Y771144D02*
X669036Y780288D01*
X676656Y780288D01*
X893064Y803148D02*
X931164Y765048D01*
X931164Y760476D01*
X925068Y531876D02*
X920496Y531876D01*
X925068Y531876D02*
X941832Y515112D01*
X658900Y769700D02*
X659892Y771144D01*
X941832Y515112D02*
X942700Y514700D01*
D22*
X477012Y156972D03*
X754380Y280416D03*
X905256Y397764D03*
X676656Y780288D03*
X893064Y803148D03*
X931164Y760476D03*
X920496Y531876D03*
D21*
X344424Y353568D02*
X329184Y368808D01*
X344424Y353568D02*
X344424Y332232D01*
X356616Y320040D01*
X356616Y213360D01*
X403860Y166116D01*
X419100Y166116D01*
X704088Y280416D02*
X716280Y280416D01*
X819912Y384048D01*
X819912Y388620D01*
X853440Y422148D01*
X890016Y422148D01*
X911352Y443484D01*
X877824Y822960D02*
X859536Y841248D01*
X877824Y822960D02*
X897636Y822960D01*
X949452Y771144D01*
X949452Y752856D01*
X917448Y720852D01*
X915924Y720852D01*
X903732Y708660D01*
X903732Y687324D01*
X943356Y647700D01*
X967740Y647700D01*
X978408Y637032D01*
X978408Y591312D01*
X972312Y585216D01*
X964692Y585216D01*
X952500Y573024D01*
X952500Y571500D01*
X946404Y565404D01*
X940308Y565404D01*
X911352Y536448D01*
X911352Y516636D01*
X932688Y495300D01*
X941832Y495300D01*
X942700Y494700D01*
D22*
X329184Y368808D03*
X419100Y166116D03*
X704088Y280416D03*
X911352Y443484D03*
X859536Y841248D03*
D21*
X690372Y527304D02*
X665988Y502920D01*
X665988Y446532D01*
X675132Y437388D01*
X675132Y417576D01*
X659892Y402336D01*
X608076Y300228D02*
X585216Y277368D01*
X437388Y182880D02*
X420624Y199644D01*
X74676Y275844D02*
X74676Y297180D01*
X47244Y324612D01*
X47244Y445008D01*
X22860Y469392D01*
X21800Y469800D01*
D22*
X690372Y527304D03*
X659892Y402336D03*
X608076Y300228D03*
X585216Y277368D03*
X437388Y182880D03*
X420624Y199644D03*
X74676Y275844D03*
D21*
X414528Y172212D02*
X426720Y172212D01*
X414528Y172212D02*
X381000Y205740D01*
X85344Y277368D02*
X85344Y291084D01*
X53340Y323088D01*
X53340Y373380D01*
D22*
X426720Y172212D03*
X381000Y205740D03*
X85344Y277368D03*
X53340Y373380D03*
D21*
X694944Y568452D02*
X705612Y568452D01*
X694944Y568452D02*
X672084Y591312D01*
X623316Y591312D01*
X614172Y582168D01*
X464820Y586740D02*
X428244Y623316D01*
X400812Y623316D01*
X388620Y635508D01*
X388620Y672084D01*
X342900Y717804D01*
X301752Y717804D01*
X259080Y717804D02*
X259080Y714756D01*
X262128Y711708D01*
X262128Y705612D01*
X256032Y699516D01*
X252984Y699516D01*
X240792Y687324D01*
X240792Y684276D01*
X230124Y673608D01*
X188976Y673608D01*
X185928Y670560D01*
X73152Y562356D02*
X50292Y539496D01*
X42672Y539496D01*
X36576Y533400D01*
X36576Y522732D01*
X38100Y521208D01*
X38100Y515112D01*
X33528Y510540D01*
X22860Y510540D01*
X21800Y509800D01*
D22*
X705612Y568452D03*
X614172Y582168D03*
X464820Y586740D03*
X301752Y717804D03*
X259080Y717804D03*
X185928Y670560D03*
X73152Y562356D03*
D21*
X755904Y560832D02*
X755904Y574548D01*
X755904Y560832D02*
X763524Y553212D01*
X763524Y545592D01*
X754380Y536448D01*
X620268Y536448D01*
X617220Y533400D01*
X595884Y512064D02*
X595884Y495300D01*
X582168Y481584D01*
X582168Y480060D01*
X559308Y457200D01*
X426720Y446532D02*
X388620Y446532D01*
X374904Y460248D01*
X73152Y449580D02*
X48768Y449580D01*
X32004Y466344D01*
X32004Y493776D01*
X25908Y499872D01*
X18288Y499872D01*
X12192Y505968D01*
X12192Y519684D01*
X21336Y528828D01*
X754700Y575300D02*
X755904Y574548D01*
X21800Y529800D02*
X21336Y528828D01*
D22*
X617220Y533400D03*
X595884Y512064D03*
X559308Y457200D03*
X426720Y446532D03*
X374904Y460248D03*
X73152Y449580D03*
D21*
X370332Y612648D02*
X374904Y612648D01*
X370332Y612648D02*
X356616Y626364D01*
X338328Y626364D01*
X315468Y649224D01*
X252984Y649224D01*
X249936Y652272D01*
X224028Y652272D01*
X222504Y653796D01*
X121920Y606552D02*
X121920Y603504D01*
X109728Y591312D01*
X82296Y591312D01*
X50292Y559308D01*
X32004Y559308D01*
X22860Y550164D01*
X21800Y549800D01*
D22*
X374904Y612648D03*
X222504Y653796D03*
X121920Y606552D03*
D21*
X451104Y545592D02*
X451104Y536448D01*
X451104Y545592D02*
X434340Y562356D01*
X434340Y588264D01*
X423672Y598932D01*
X374904Y598932D01*
X353568Y620268D01*
X338328Y620268D01*
X320040Y601980D01*
X300228Y601980D01*
X275844Y626364D01*
X262128Y626364D01*
X260604Y627888D01*
X242316Y627888D01*
X240792Y626364D01*
X207264Y626364D01*
X140208Y611124D02*
X126492Y611124D01*
X124968Y612648D01*
X83820Y612648D01*
X50292Y579120D01*
X32004Y579120D01*
X22860Y569976D01*
X451104Y536448D02*
X452280Y535780D01*
X22860Y569976D02*
X21800Y569800D01*
D22*
X207264Y626364D03*
X140208Y611124D03*
D21*
X492252Y637032D02*
X492252Y548640D01*
X80772Y676656D02*
X76200Y676656D01*
X35052Y635508D01*
X35052Y603504D01*
X22860Y591312D01*
X21800Y589800D01*
D22*
X492252Y548640D03*
X492252Y637032D03*
X80772Y676656D03*
D21*
X457200Y579120D02*
X472440Y579120D01*
X457200Y579120D02*
X455676Y577596D01*
X448056Y577596D01*
X440436Y585216D01*
X440436Y597408D01*
X434340Y603504D01*
X396240Y609600D02*
X374904Y630936D01*
X374904Y652272D01*
X348996Y678180D01*
X306324Y678180D01*
X286512Y697992D01*
X286512Y702564D01*
X256032Y708660D02*
X249936Y708660D01*
X246888Y705612D01*
X224028Y705612D01*
X220980Y708660D01*
X103632Y708660D02*
X32004Y637032D01*
X32004Y620268D01*
X22860Y611124D01*
X21800Y609800D01*
D22*
X472440Y579120D03*
X434340Y603504D03*
X396240Y609600D03*
X286512Y702564D03*
X256032Y708660D03*
X220980Y708660D03*
X103632Y708660D03*
D21*
X344424Y609600D02*
X344424Y600456D01*
X316992Y573024D01*
X259080Y573024D01*
X112776Y515112D02*
X91440Y515112D01*
X47244Y470916D01*
X344424Y609600D02*
X345000Y610700D01*
X47244Y470916D02*
X46800Y469800D01*
D22*
X259080Y573024D03*
X112776Y515112D03*
D21*
X344424Y525780D02*
X344424Y533400D01*
X344424Y525780D02*
X335280Y516636D01*
X65532Y455676D02*
X47244Y455676D01*
X36576Y466344D01*
X36576Y480060D01*
X45720Y489204D01*
X344424Y533400D02*
X345000Y534500D01*
X46800Y489800D02*
X45720Y489204D01*
D22*
X335280Y516636D03*
X65532Y455676D03*
D21*
X409956Y510540D02*
X423672Y510540D01*
X409956Y510540D02*
X376428Y544068D01*
X338328Y544068D01*
X320040Y525780D01*
X204216Y525780D01*
X192024Y537972D01*
X74676Y537972D01*
X47244Y510540D01*
X423672Y510540D02*
X424400Y509100D01*
X47244Y510540D02*
X46800Y509800D01*
X394716Y586740D02*
X423672Y586740D01*
X394716Y586740D02*
X393192Y588264D01*
X387096Y588264D01*
X348996Y550164D01*
X217932Y550164D01*
X208788Y541020D01*
X57912Y541020D01*
X47244Y530352D01*
X423672Y586740D02*
X424400Y585300D01*
X47244Y530352D02*
X46800Y529800D01*
X117348Y594360D02*
X121920Y594360D01*
X117348Y594360D02*
X111252Y588264D01*
X85344Y588264D01*
X47244Y550164D01*
X46800Y549800D01*
D22*
X121920Y594360D03*
D21*
X214884Y512064D02*
X214884Y489204D01*
D22*
X214884Y512064D03*
X214884Y489204D03*
D21*
X275844Y509016D02*
X288036Y509016D01*
X275844Y509016D02*
X240792Y473964D01*
X217932Y473964D01*
X204216Y464820D02*
X160020Y464820D01*
X150876Y473964D01*
D22*
X288036Y509016D03*
X217932Y473964D03*
X204216Y464820D03*
X150876Y473964D03*
D21*
X310896Y586740D02*
X315468Y586740D01*
X310896Y586740D02*
X274320Y623316D01*
X260604Y623316D01*
X259080Y624840D01*
X243840Y624840D01*
X242316Y623316D01*
X213360Y623316D01*
X207264Y617220D01*
X53340Y617220D01*
X47244Y611124D01*
X315468Y586740D02*
X316500Y585300D01*
X47244Y611124D02*
X46800Y609800D01*
X85344Y443484D02*
X85344Y355092D01*
X85344Y443484D02*
X94488Y452628D01*
X94488Y486156D01*
X96012Y487680D01*
X96012Y498348D01*
X99060Y623316D02*
X103632Y623316D01*
X106680Y620268D01*
X193548Y620268D01*
X201168Y627888D01*
X201168Y629412D01*
X207264Y635508D01*
X236220Y635508D01*
X237100Y636100D01*
D22*
X85344Y355092D03*
X96012Y498348D03*
X99060Y623316D03*
D21*
X138684Y382524D02*
X88392Y332232D01*
X138684Y382524D02*
X138684Y507492D01*
X169164Y547116D02*
X182880Y547116D01*
X185928Y544068D01*
X207264Y544068D01*
X216408Y553212D01*
X230124Y553212D01*
X236220Y559308D01*
X237100Y559900D01*
D22*
X88392Y332232D03*
X138684Y507492D03*
X169164Y547116D03*
D21*
X263652Y483108D02*
X281940Y501396D01*
D22*
X263652Y483108D03*
X281940Y501396D03*
D21*
X124968Y310896D02*
X105156Y310896D01*
X124968Y310896D02*
X173736Y359664D01*
X295656Y359664D01*
X310896Y374904D01*
X368808Y374904D01*
X400812Y342900D01*
X458724Y342900D01*
X467868Y352044D01*
X467868Y533400D01*
X437388Y563880D01*
X437388Y589788D01*
X425196Y601980D01*
X376428Y601980D01*
X355092Y623316D01*
X329184Y623316D01*
X316992Y611124D01*
X105156Y310896D02*
X104100Y309900D01*
X316500Y610700D02*
X316992Y611124D01*
X190500Y557784D02*
X190500Y553212D01*
X190500Y557784D02*
X211836Y579120D01*
X230124Y579120D01*
X242316Y566928D01*
X310896Y566928D01*
X313944Y569976D01*
X342900Y569976D01*
X368808Y595884D01*
X190500Y553212D02*
X189200Y553100D01*
D22*
X368808Y595884D03*
D21*
X676656Y550164D02*
X708660Y550164D01*
X720852Y562356D01*
X676656Y550164D02*
X675300Y549900D01*
D22*
X720852Y562356D03*
D21*
X720852Y644652D02*
X720852Y649224D01*
X760476Y688848D01*
X761100Y690300D01*
X932688Y231648D02*
X969264Y231648D01*
X932688Y231648D02*
X923544Y222504D01*
X893064Y222504D01*
X867156Y196596D01*
X609600Y196596D01*
X606552Y199644D01*
X638556Y542544D02*
X647700Y542544D01*
X675132Y569976D01*
X675132Y574548D01*
X969264Y231648D02*
X970000Y231900D01*
X675132Y574548D02*
X675300Y575300D01*
D22*
X720852Y644652D03*
X606552Y199644D03*
X638556Y542544D03*
D21*
X676656Y498348D02*
X676656Y484632D01*
X699516Y461772D01*
X699516Y400812D01*
X655320Y356616D01*
X655320Y336804D01*
X697992Y294132D01*
X697992Y277368D01*
X701040Y274320D01*
X877824Y274320D01*
X896112Y256032D01*
X752856Y635508D02*
X755904Y638556D01*
X752856Y635508D02*
X751332Y635508D01*
X729996Y614172D01*
X729996Y547116D01*
X722376Y539496D01*
X713232Y539496D01*
X710184Y542544D01*
X705612Y527304D02*
X676656Y498348D01*
X675300Y499100D01*
D22*
X896112Y256032D03*
X755904Y638556D03*
X710184Y542544D03*
X705612Y527304D03*
D21*
X755904Y473964D02*
X766572Y473964D01*
X795528Y502920D01*
X795528Y531876D01*
X783336Y544068D01*
X778764Y544068D01*
X768096Y554736D01*
X768096Y684276D01*
X794004Y710184D01*
X755904Y473964D02*
X754700Y473700D01*
X868680Y239268D02*
X868680Y233172D01*
X868680Y239268D02*
X836676Y271272D01*
X693420Y271272D01*
X652272Y312420D01*
X652272Y385572D01*
X681228Y414528D01*
X681228Y440436D01*
X693420Y452628D01*
X868680Y233172D02*
X870000Y231900D01*
D22*
X794004Y710184D03*
X693420Y452628D03*
D21*
X861060Y961644D02*
X873252Y961644D01*
X861060Y961644D02*
X853440Y969264D01*
X819912Y969264D01*
X815340Y964692D01*
X815340Y897636D01*
X816864Y896112D02*
X833628Y879348D01*
X816864Y896112D02*
X815340Y897636D01*
X833628Y879348D02*
X833628Y778764D01*
X827532Y772668D01*
X827532Y699516D01*
X836676Y690372D01*
X874600Y960300D02*
X873252Y961644D01*
X837300Y690300D02*
X836676Y690372D01*
X810768Y890016D02*
X816864Y896112D01*
X810768Y890016D02*
X810768Y832104D01*
X789432Y810768D01*
X789432Y807720D01*
X760476Y778764D01*
X757428Y778764D01*
X748284Y769620D01*
X748284Y661416D02*
X757428Y661416D01*
X763524Y655320D01*
X763524Y597408D01*
X745236Y579120D01*
X745236Y559308D01*
X754380Y550164D01*
X754700Y549900D01*
D22*
X748284Y769620D03*
X748284Y661416D03*
D21*
X850392Y893064D02*
X850392Y960120D01*
X850392Y893064D02*
X952500Y790956D01*
X940308Y757428D02*
X937260Y757428D01*
X870204Y690372D01*
X864108Y690372D01*
X850392Y960120D02*
X849200Y960300D01*
X862700Y690300D02*
X864108Y690372D01*
X640080Y617220D02*
X598932Y576072D01*
X640080Y617220D02*
X679704Y617220D01*
X693420Y630936D01*
X693420Y632460D01*
X731520Y233172D02*
X769620Y233172D01*
X731520Y233172D02*
X707136Y257556D01*
X662940Y257556D01*
X649224Y271272D02*
X649224Y304800D01*
X635508Y318516D01*
X630936Y318516D01*
X601980Y347472D01*
X601980Y454152D01*
X605028Y457200D01*
X605028Y490728D01*
X769620Y233172D02*
X770000Y231900D01*
D22*
X952500Y790956D03*
X940308Y757428D03*
X598932Y576072D03*
X693420Y632460D03*
X662940Y257556D03*
X649224Y271272D03*
X605028Y490728D03*
D21*
X824484Y893064D02*
X824484Y960120D01*
X824484Y893064D02*
X836676Y880872D01*
X836676Y783336D01*
X845820Y774192D01*
X845820Y685800D01*
X842772Y682752D01*
X842772Y676656D01*
X851916Y667512D01*
X870204Y667512D01*
X886968Y684276D01*
X886968Y688848D01*
X824484Y960120D02*
X823800Y960300D01*
X888100Y690300D02*
X886968Y688848D01*
X452628Y509016D02*
X452628Y496824D01*
X464820Y484632D01*
X464820Y397764D01*
X461772Y394716D01*
X554736Y301752D02*
X554736Y265176D01*
X617220Y202692D01*
X690372Y202692D01*
X719328Y231648D01*
X452628Y509016D02*
X452280Y510380D01*
X719328Y231648D02*
X720000Y231900D01*
X870204Y659892D02*
X870204Y667512D01*
X870204Y659892D02*
X871728Y658368D01*
X871728Y650748D01*
X862584Y641604D01*
X781812Y641604D01*
X774192Y633984D01*
X774192Y574548D01*
X795528Y553212D01*
X795528Y536448D01*
X798576Y533400D01*
X798576Y480060D01*
X781812Y463296D01*
X778764Y463296D01*
X801624Y431292D02*
X801624Y420624D01*
X733044Y352044D01*
X733044Y312420D01*
D22*
X461772Y394716D03*
X554736Y301752D03*
X778764Y463296D03*
X801624Y431292D03*
X733044Y312420D03*
D21*
X531876Y457200D02*
X531876Y484632D01*
X531876Y457200D02*
X547116Y441960D01*
X547116Y336804D01*
X560832Y323088D01*
X560832Y277368D01*
X615696Y222504D01*
X659892Y222504D01*
X669036Y231648D01*
X531876Y484632D02*
X531680Y484980D01*
X669036Y231648D02*
X670000Y231900D01*
X798576Y961644D02*
X807720Y961644D01*
X818388Y972312D01*
X874776Y972312D01*
X973836Y873252D01*
X973836Y749808D01*
X914400Y690372D01*
X798400Y960300D02*
X798576Y961644D01*
X913500Y690300D02*
X914400Y690372D01*
X740664Y411480D02*
X740664Y406908D01*
X740664Y411480D02*
X810768Y481584D01*
X810768Y565404D01*
X858012Y612648D01*
X900684Y612648D01*
X909828Y621792D01*
D22*
X740664Y406908D03*
X909828Y621792D03*
D21*
X550164Y530352D02*
X550164Y341376D01*
X579120Y312420D01*
X579120Y272796D01*
X618744Y233172D01*
X620000Y231900D01*
X774192Y961644D02*
X787908Y961644D01*
X801624Y975360D01*
X876300Y975360D01*
X986028Y865632D01*
X986028Y736092D01*
X940308Y690372D01*
X773000Y960300D02*
X774192Y961644D01*
X938900Y690300D02*
X940308Y690372D01*
X629412Y233172D02*
X620268Y233172D01*
X629412Y233172D02*
X659892Y263652D01*
X835152Y263652D01*
X979932Y553212D02*
X979932Y588264D01*
X981456Y589788D01*
X981456Y647700D01*
X940308Y688848D01*
X620268Y233172D02*
X620000Y231900D01*
X940308Y688848D02*
X938900Y690300D01*
D22*
X550164Y530352D03*
X835152Y263652D03*
X979932Y553212D03*
D21*
X440436Y664464D02*
X440436Y702564D01*
X458724Y720852D01*
X470916Y292608D02*
X531876Y292608D01*
X470916Y292608D02*
X426720Y248412D01*
D22*
X440436Y664464D03*
X458724Y720852D03*
X531876Y292608D03*
X426720Y248412D03*
D21*
X487680Y725424D02*
X480060Y733044D01*
X487680Y725424D02*
X489204Y725424D01*
X505968Y708660D01*
X505968Y690372D01*
X506500Y690300D01*
X368808Y486156D02*
X368808Y457200D01*
X394716Y431292D01*
X394716Y429768D01*
X426720Y397764D01*
X432816Y397764D01*
X419100Y781812D02*
X382524Y781812D01*
X352044Y751332D01*
X298704Y751332D01*
X295656Y748284D01*
X295656Y714756D01*
X329184Y681228D01*
X350520Y681228D01*
X385572Y646176D01*
X385572Y629412D01*
X381000Y591312D02*
X359664Y569976D01*
X359664Y528828D02*
X359664Y524256D01*
X345948Y510540D01*
X345000Y509100D01*
D22*
X480060Y733044D03*
X368808Y486156D03*
X432816Y397764D03*
X419100Y781812D03*
X385572Y629412D03*
X381000Y591312D03*
X359664Y569976D03*
X359664Y528828D03*
D21*
X449580Y809244D02*
X454152Y809244D01*
X516636Y746760D01*
X516636Y743712D01*
X534924Y725424D01*
X534924Y691896D01*
X533400Y690372D01*
X449580Y809244D02*
X449200Y810100D01*
X531900Y690300D02*
X533400Y690372D01*
X486156Y640080D02*
X486156Y621792D01*
X486156Y640080D02*
X492252Y646176D01*
X489204Y251460D02*
X470916Y233172D01*
X473964Y368808D02*
X473964Y426720D01*
X470916Y429768D01*
X470916Y455676D01*
X473964Y458724D01*
X470916Y233172D02*
X470000Y231900D01*
D22*
X486156Y621792D03*
X492252Y646176D03*
X489204Y251460D03*
X473964Y368808D03*
X473964Y458724D03*
D21*
X368808Y440436D02*
X368808Y426720D01*
X420624Y374904D01*
X416052Y880872D02*
X416052Y947928D01*
X473964Y822960D02*
X519684Y777240D01*
X519684Y745236D01*
X556260Y708660D01*
X556260Y690372D01*
X557300Y690300D01*
X489204Y429768D02*
X480060Y420624D01*
X489204Y429768D02*
X489204Y512064D01*
X473964Y527304D01*
X499872Y563880D02*
X499872Y626364D01*
D22*
X368808Y440436D03*
X420624Y374904D03*
X416052Y947928D03*
X416052Y880872D03*
X473964Y822960D03*
X480060Y420624D03*
X473964Y527304D03*
X499872Y563880D03*
X499872Y626364D03*
D21*
X397764Y890016D02*
X397764Y950976D01*
X397764Y890016D02*
X437388Y850392D01*
X472440Y850392D01*
X505968Y816864D02*
X510540Y816864D01*
X548640Y778764D01*
X560832Y778764D01*
X582168Y757428D01*
X582168Y690372D01*
X582700Y690300D01*
X356616Y665988D02*
X356616Y638556D01*
X356616Y665988D02*
X347472Y675132D01*
X284988Y675132D01*
X268224Y691896D01*
X268224Y772668D01*
X297180Y801624D01*
X300228Y801624D01*
X329184Y830580D01*
X329184Y838200D01*
X371856Y880872D02*
X388620Y880872D01*
X397764Y890016D01*
X379476Y233172D02*
X370332Y233172D01*
X379476Y233172D02*
X510540Y364236D01*
X510540Y509016D01*
X486156Y533400D02*
X486156Y600456D01*
X460248Y626364D01*
X434340Y626364D01*
X368808Y638556D02*
X356616Y638556D01*
X370332Y233172D02*
X370000Y231900D01*
X356616Y635508D02*
X356616Y638556D01*
D22*
X397764Y950976D03*
X472440Y850392D03*
X505968Y816864D03*
X356616Y635508D03*
X329184Y838200D03*
X371856Y880872D03*
X510540Y509016D03*
X486156Y533400D03*
X434340Y626364D03*
X368808Y638556D03*
D21*
X272796Y510540D02*
X237744Y510540D01*
X272796Y510540D02*
X277368Y515112D01*
X297180Y515112D01*
X338328Y473964D01*
X338328Y414528D01*
X237100Y509100D02*
X237744Y510540D01*
X406908Y915924D02*
X406908Y947928D01*
X406908Y915924D02*
X409956Y912876D01*
X614172Y736092D02*
X614172Y694944D01*
X609600Y690372D01*
X608100Y690300D01*
X225552Y601980D02*
X176784Y553212D01*
X225552Y601980D02*
X240792Y601980D01*
X249936Y611124D01*
X400812Y723900D02*
X438912Y762000D01*
D22*
X338328Y414528D03*
X406908Y947928D03*
X409956Y912876D03*
X614172Y736092D03*
X176784Y553212D03*
X249936Y611124D03*
X400812Y723900D03*
X438912Y762000D03*
D21*
X316992Y483108D02*
X316992Y426720D01*
X345948Y397764D01*
X316992Y483108D02*
X316500Y483700D01*
X361188Y925068D02*
X397764Y961644D01*
X361188Y925068D02*
X361188Y905256D01*
X335280Y879348D01*
X335280Y804672D01*
X350520Y789432D01*
X448056Y789432D01*
X464820Y772668D01*
X464820Y716280D01*
X446532Y697992D01*
X446532Y682752D01*
X457200Y672084D01*
X509016Y672084D01*
X527304Y653796D01*
X541020Y653796D02*
X548640Y653796D01*
X541020Y653796D02*
X527304Y653796D01*
X548640Y653796D02*
X574548Y679704D01*
X397764Y961644D02*
X398400Y962500D01*
X385572Y339852D02*
X466344Y339852D01*
X467868Y338328D01*
X480060Y338328D01*
X504444Y362712D01*
X504444Y537972D01*
X522732Y556260D01*
X522732Y589788D01*
X541020Y608076D01*
X541020Y653796D01*
D22*
X345948Y397764D03*
X574548Y679704D03*
X385572Y339852D03*
D21*
X144780Y365760D02*
X144780Y521208D01*
X144780Y365760D02*
X131064Y352044D01*
X173736Y309372D02*
X173736Y278892D01*
X390144Y929640D02*
X390144Y944880D01*
X390144Y929640D02*
X338328Y877824D01*
X338328Y806196D01*
X352044Y792480D01*
X449580Y792480D01*
X472440Y769620D01*
X472440Y765048D01*
X515112Y722376D01*
X528828Y722376D01*
X172212Y574548D02*
X172212Y562356D01*
X172212Y574548D02*
X205740Y608076D01*
X243840Y711708D02*
X243840Y737616D01*
X201168Y780288D01*
X201168Y790956D01*
X185928Y806196D01*
X185928Y862584D01*
X271272Y947928D01*
X358140Y947928D01*
X371856Y961644D01*
X373000Y962500D01*
D22*
X144780Y521208D03*
X131064Y352044D03*
X173736Y309372D03*
X173736Y278892D03*
X390144Y944880D03*
X528828Y722376D03*
X172212Y562356D03*
X205740Y608076D03*
X243840Y711708D03*
D21*
X487680Y961644D02*
X544068Y961644D01*
X487680Y961644D02*
X470916Y978408D01*
X324612Y978408D01*
X300228Y954024D01*
X204216Y954024D01*
X196596Y961644D01*
X544068Y961644D02*
X544400Y960300D01*
X196596Y961644D02*
X195200Y962500D01*
X798576Y655320D02*
X861060Y655320D01*
X798576Y655320D02*
X786384Y667512D01*
X784860Y667512D01*
X861060Y655320D02*
X862200Y654700D01*
X214884Y655320D02*
X190500Y655320D01*
X214884Y655320D02*
X230124Y670560D01*
X265176Y670560D02*
X307848Y670560D01*
X265176Y670560D02*
X230124Y670560D01*
X307848Y670560D02*
X315468Y662940D01*
X190500Y655320D02*
X189200Y654700D01*
X315468Y662940D02*
X316500Y661500D01*
X231648Y754380D02*
X231648Y769620D01*
X231648Y754380D02*
X265176Y720852D01*
X265176Y670560D01*
X231648Y769620D02*
X231100Y769700D01*
X425196Y739140D02*
X425196Y662940D01*
X425196Y739140D02*
X455676Y769620D01*
X425196Y662940D02*
X424400Y661500D01*
X455676Y769620D02*
X455700Y769700D01*
X530352Y679704D02*
X530352Y662940D01*
X530352Y679704D02*
X509016Y701040D01*
X509016Y717804D01*
X470916Y755904D01*
X530352Y662940D02*
X531680Y662780D01*
X656844Y701040D02*
X678180Y701040D01*
X656844Y701040D02*
X646176Y690372D01*
X646176Y678180D01*
X626364Y658368D01*
X626364Y652272D01*
X629412Y649224D01*
X640080Y649224D01*
X644652Y653796D01*
X645200Y654700D01*
X214884Y856488D02*
X214884Y864108D01*
X214884Y856488D02*
X236220Y835152D01*
X236220Y775716D01*
X231648Y771144D01*
X231100Y769700D01*
X966216Y454152D02*
X966216Y446532D01*
X952500Y432816D01*
X952500Y431292D01*
X946404Y425196D01*
X923544Y425196D01*
X873252Y374904D01*
X839724Y374904D01*
X830580Y384048D01*
X966216Y454152D02*
X967700Y454700D01*
X830580Y384048D02*
X830000Y385000D01*
X638556Y434340D02*
X615696Y434340D01*
X638556Y434340D02*
X639700Y433900D01*
X615696Y434340D02*
X614300Y433900D01*
X428244Y434340D02*
X405384Y434340D01*
X428244Y434340D02*
X429470Y433490D01*
X405384Y434340D02*
X404070Y433490D01*
X167640Y399288D02*
X167640Y370332D01*
X167300Y370000D01*
X167640Y399288D02*
X167300Y400000D01*
X167640Y400812D02*
X167640Y429768D01*
X167640Y400812D02*
X167300Y400000D01*
X167640Y429768D02*
X167300Y430000D01*
X100584Y47244D02*
X100584Y35052D01*
X100584Y47244D02*
X134112Y80772D01*
X134112Y190500D01*
X91440Y233172D01*
X91440Y286512D01*
X88392Y289560D01*
X88392Y295656D01*
X92964Y300228D01*
X94488Y300228D02*
X126492Y300228D01*
X94488Y300228D02*
X92964Y300228D01*
X126492Y300228D02*
X166116Y339852D01*
X100584Y35052D02*
X100300Y33800D01*
X166116Y339852D02*
X167300Y340000D01*
X166116Y368808D02*
X156972Y368808D01*
X106680Y318516D01*
X100584Y318516D01*
X94488Y312420D01*
X94488Y300228D01*
X166116Y368808D02*
X167300Y370000D01*
X647700Y414528D02*
X647700Y425196D01*
X640080Y432816D01*
X639700Y433900D01*
X711708Y608076D02*
X754380Y650748D01*
X713232Y509016D02*
X713232Y435864D01*
X714756Y434340D01*
X754380Y650748D02*
X754700Y651500D01*
X714756Y434340D02*
X715900Y433900D01*
D22*
X784860Y667512D03*
X470916Y755904D03*
X678180Y701040D03*
X214884Y864108D03*
X647700Y414528D03*
X711708Y608076D03*
X713232Y509016D03*
D21*
X100584Y83820D02*
X100584Y59436D01*
X100300Y59200D01*
X100584Y83820D02*
X100300Y84600D01*
X344424Y454152D02*
X344424Y483108D01*
X345000Y483700D01*
X111252Y475488D02*
X111252Y417576D01*
X112776Y416052D01*
X112776Y394716D01*
X105156Y387096D01*
X111252Y475488D02*
X109800Y476900D01*
X105156Y387096D02*
X104100Y386100D01*
X193548Y399288D02*
X193548Y370332D01*
X192700Y370000D01*
X193548Y399288D02*
X192700Y400000D01*
X193548Y400812D02*
X193548Y429768D01*
X192700Y430000D01*
X193548Y400812D02*
X192700Y400000D01*
X25908Y246888D02*
X25908Y234696D01*
X25908Y246888D02*
X47244Y268224D01*
X47244Y289560D01*
X25908Y234696D02*
X24700Y233700D01*
X923544Y438912D02*
X926592Y438912D01*
X923544Y438912D02*
X870204Y385572D01*
X870000Y385000D01*
X690372Y669036D02*
X685800Y669036D01*
X678180Y661416D01*
X669036Y661416D01*
X646176Y638556D01*
X646176Y629412D01*
X645200Y629300D01*
X356616Y771144D02*
X344424Y771144D01*
X336804Y778764D01*
X315468Y778764D01*
X307848Y771144D01*
X356616Y771144D02*
X358100Y769700D01*
X307848Y771144D02*
X307300Y769700D01*
X333756Y690372D02*
X356616Y690372D01*
X358100Y690300D01*
X333756Y690372D02*
X332700Y690300D01*
X423672Y649224D02*
X423672Y637032D01*
X423672Y649224D02*
X409956Y662940D01*
X409956Y688848D01*
X423672Y637032D02*
X424400Y636100D01*
X409956Y688848D02*
X408900Y690300D01*
X509016Y638556D02*
X530352Y638556D01*
X509016Y638556D02*
X495300Y652272D01*
X426720Y652272D01*
X423672Y649224D01*
X530352Y638556D02*
X531680Y637380D01*
X492252Y539496D02*
X492252Y518160D01*
X492252Y539496D02*
X505968Y553212D01*
X505968Y635508D01*
X509016Y638556D01*
X384048Y714756D02*
X384048Y769620D01*
X384048Y714756D02*
X408432Y690372D01*
X384048Y769620D02*
X383500Y769700D01*
X408432Y690372D02*
X408900Y690300D01*
X569976Y809244D02*
X569976Y944880D01*
X569976Y947928D01*
X569976Y960120D01*
X569800Y960300D01*
X569976Y809244D02*
X569800Y807900D01*
X734568Y960120D02*
X746760Y960120D01*
X734568Y960120D02*
X719328Y944880D01*
X569976Y944880D01*
X746760Y960120D02*
X747600Y960300D01*
X188976Y637032D02*
X188976Y629412D01*
X188976Y637032D02*
X149352Y676656D01*
X149352Y688848D01*
X188976Y629412D02*
X189200Y629300D01*
X149352Y688848D02*
X148100Y690300D01*
X170688Y810768D02*
X170688Y950976D01*
X170688Y961644D01*
X169800Y962500D01*
X170688Y810768D02*
X169800Y810100D01*
X333756Y961644D02*
X347472Y961644D01*
X333756Y961644D02*
X323088Y950976D01*
X170688Y950976D01*
X347472Y961644D02*
X347600Y962500D01*
X123444Y745236D02*
X123444Y690372D01*
X123444Y745236D02*
X147828Y769620D01*
X123444Y690372D02*
X122700Y690300D01*
X147828Y769620D02*
X148100Y769700D01*
X425196Y947928D02*
X569976Y947928D01*
X425196Y947928D02*
X400812Y972312D01*
X358140Y972312D01*
X348996Y963168D01*
X347600Y962500D01*
X315468Y635508D02*
X277368Y635508D01*
X271272Y629412D01*
X263652Y629412D01*
X248412Y644652D01*
X196596Y644652D01*
X188976Y637032D01*
X315468Y635508D02*
X316500Y636100D01*
X345948Y496824D02*
X345948Y484632D01*
X345948Y496824D02*
X368808Y519684D01*
X368808Y528828D01*
X409956Y528828D02*
X417576Y528828D01*
X425196Y521208D01*
X429768Y521208D01*
X443484Y507492D01*
X443484Y493776D01*
X452280Y484980D01*
X345948Y484632D02*
X345000Y483700D01*
D22*
X344424Y454152D03*
X47244Y289560D03*
X926592Y438912D03*
X690372Y669036D03*
X492252Y518160D03*
X368808Y528828D03*
X409956Y528828D03*
D21*
X783336Y591312D02*
X783336Y603504D01*
X783336Y591312D02*
X798576Y576072D01*
X798576Y537972D01*
X801624Y534924D01*
X801624Y477012D01*
X716280Y391668D01*
X716280Y353568D01*
X783336Y603504D02*
X782800Y603900D01*
X716280Y353568D02*
X715900Y352900D01*
X769620Y527304D02*
X781812Y527304D01*
X769620Y527304D02*
X725424Y483108D01*
X725424Y405384D01*
X691896Y371856D01*
X691896Y353568D01*
X781812Y527304D02*
X782800Y527700D01*
X691896Y353568D02*
X690500Y352900D01*
X725424Y365760D02*
X861060Y501396D01*
X725424Y365760D02*
X725424Y348996D01*
X719328Y342900D01*
X675132Y342900D01*
X665988Y352044D01*
X861060Y501396D02*
X862200Y502300D01*
X665988Y352044D02*
X665100Y352900D01*
X842772Y579120D02*
X861060Y579120D01*
X842772Y579120D02*
X813816Y550164D01*
X813816Y470916D01*
X722376Y379476D01*
X861060Y579120D02*
X862200Y578500D01*
D22*
X722376Y379476D03*
D21*
X566928Y589788D02*
X566928Y603504D01*
X566928Y589788D02*
X611124Y545592D01*
X611124Y530352D01*
X629412Y512064D01*
X647700Y512064D01*
X653796Y505968D01*
X653796Y391668D01*
X615696Y353568D01*
X566928Y603504D02*
X565800Y603900D01*
X615696Y353568D02*
X614300Y352900D01*
X565404Y515112D02*
X565404Y527304D01*
X565404Y515112D02*
X553212Y502920D01*
X553212Y350520D01*
X560832Y342900D01*
X579120Y342900D01*
X588264Y352044D01*
X565404Y527304D02*
X565800Y527700D01*
X588900Y352900D02*
X588264Y352044D01*
X626364Y502920D02*
X644652Y502920D01*
X626364Y502920D02*
X620268Y509016D01*
X614172Y509016D01*
X585216Y480060D01*
X585216Y443484D01*
X576072Y434340D01*
X576072Y365760D01*
X563880Y353568D01*
X645200Y502300D02*
X644652Y502920D01*
X563880Y353568D02*
X563500Y352900D01*
X214884Y569976D02*
X214884Y573024D01*
X214884Y569976D02*
X225552Y559308D01*
X300228Y544068D02*
X333756Y544068D01*
X336804Y547116D01*
X382524Y547116D01*
X411480Y518160D01*
X428244Y518160D01*
X440436Y505968D01*
X440436Y448056D01*
X441960Y446532D01*
X441960Y396240D01*
X448056Y390144D01*
D22*
X214884Y573024D03*
X225552Y559308D03*
X300228Y544068D03*
X448056Y390144D03*
D21*
X150876Y527304D02*
X111252Y527304D01*
X150876Y527304D02*
X252984Y425196D01*
X252984Y420624D01*
X387096Y420624D02*
X435864Y371856D01*
X111252Y527304D02*
X109800Y527700D01*
D22*
X252984Y420624D03*
X387096Y420624D03*
X435864Y371856D03*
D21*
X190500Y492252D02*
X190500Y501396D01*
X190500Y492252D02*
X304800Y377952D01*
X403860Y377952D01*
X428244Y353568D01*
X190500Y501396D02*
X189200Y502300D01*
X428244Y353568D02*
X429470Y352490D01*
X301752Y451104D02*
X301752Y501396D01*
X301752Y451104D02*
X313944Y438912D01*
X313944Y420624D01*
X342900Y391668D01*
X394716Y391668D01*
D22*
X301752Y501396D03*
X394716Y391668D03*
D21*
X236220Y260604D02*
X105156Y260604D01*
X236220Y260604D02*
X327660Y352044D01*
X105156Y260604D02*
X104100Y259100D01*
X327660Y352044D02*
X327870Y352490D01*
X178308Y73152D02*
X178308Y59436D01*
X178308Y73152D02*
X137160Y114300D01*
X137160Y213360D01*
X94488Y256032D01*
X94488Y292608D01*
X94488Y353568D02*
X94488Y446532D01*
X100584Y452628D01*
X100584Y461772D01*
X68580Y512064D02*
X88392Y531876D01*
X88392Y597408D02*
X77724Y597408D01*
X67056Y586740D01*
X178308Y59436D02*
X179700Y59200D01*
X230124Y690372D02*
X192024Y728472D01*
X192024Y763524D01*
X176784Y778764D01*
X144780Y778764D01*
X109728Y743712D01*
X109728Y690372D01*
X80772Y661416D01*
X65532Y661416D01*
X47244Y643128D01*
X47244Y630936D01*
X230124Y690372D02*
X231100Y690300D01*
X47244Y630936D02*
X46800Y629800D01*
D22*
X94488Y292608D03*
X94488Y353568D03*
X100584Y461772D03*
X68580Y512064D03*
X88392Y531876D03*
X88392Y597408D03*
X67056Y586740D03*
D21*
X83820Y451104D02*
X65532Y432816D01*
X83820Y451104D02*
X83820Y495300D01*
X97536Y509016D01*
X109728Y655320D02*
X68580Y655320D01*
X109728Y655320D02*
X109800Y654700D01*
X632460Y655320D02*
X644652Y667512D01*
X679704Y667512D01*
X696468Y684276D01*
X696468Y736092D01*
X704088Y743712D01*
X745236Y743712D01*
X771144Y717804D01*
X544068Y330708D02*
X544068Y196596D01*
X492252Y144780D01*
X495300Y129540D02*
X495300Y83820D01*
X480060Y68580D01*
X480060Y50292D01*
X489204Y41148D01*
X490000Y40000D01*
X65532Y320040D02*
X65532Y432816D01*
X53340Y307848D02*
X53340Y301752D01*
X68580Y286512D01*
X68580Y230124D01*
X128016Y170688D01*
X128016Y85344D01*
D22*
X65532Y432816D03*
X97536Y509016D03*
X68580Y655320D03*
X632460Y655320D03*
X771144Y717804D03*
X544068Y330708D03*
X492252Y144780D03*
X495300Y129540D03*
X65532Y320040D03*
X53340Y307848D03*
X128016Y85344D03*
D21*
X760476Y807720D02*
X772668Y807720D01*
X760476Y807720D02*
X751332Y798576D01*
X693420Y798576D01*
X684276Y807720D01*
X684276Y812292D01*
X676656Y819912D01*
X576072Y819912D01*
X493776Y838200D02*
X400812Y838200D01*
X373380Y810768D01*
X772668Y807720D02*
X773000Y807900D01*
X373380Y810768D02*
X373000Y810100D01*
X879348Y365760D02*
X879348Y339852D01*
X914400Y498348D02*
X885444Y527304D01*
X876300Y568452D02*
X876300Y600456D01*
X894588Y740664D02*
X894588Y763524D01*
X897636Y766572D01*
X897636Y789432D01*
X883920Y803148D01*
X883920Y810768D01*
X877824Y816864D01*
X862584Y816864D01*
X786384Y821436D02*
X786384Y826008D01*
X786384Y821436D02*
X774192Y809244D01*
X773000Y807900D01*
D22*
X576072Y819912D03*
X493776Y838200D03*
X879348Y339852D03*
X879348Y365760D03*
X914400Y498348D03*
X885444Y527304D03*
X876300Y568452D03*
X876300Y600456D03*
X894588Y740664D03*
X862584Y816864D03*
X786384Y826008D03*
D21*
X361188Y810768D02*
X348996Y810768D01*
X361188Y810768D02*
X394716Y844296D01*
X563880Y844296D01*
X586740Y844296D02*
X611124Y868680D01*
X711708Y868680D01*
X746760Y833628D01*
X746760Y809244D01*
X348996Y810768D02*
X347600Y810100D01*
X746760Y809244D02*
X747600Y807900D01*
X589788Y39624D02*
X583692Y39624D01*
X568452Y24384D01*
X97536Y24384D01*
X91440Y30480D01*
X91440Y202692D01*
X62484Y231648D01*
X62484Y288036D01*
X41148Y309372D01*
X41148Y434340D01*
X365760Y873252D02*
X365760Y896112D01*
X365760Y873252D02*
X394716Y844296D01*
X590000Y40000D02*
X589788Y39624D01*
D22*
X563880Y844296D03*
X586740Y844296D03*
X41148Y434340D03*
X365760Y896112D03*
D21*
X562356Y41148D02*
X569976Y41148D01*
X562356Y41148D02*
X548640Y54864D01*
X547116Y54864D01*
X539496Y62484D01*
X539496Y120396D01*
X608076Y188976D01*
X629412Y324612D02*
X633984Y324612D01*
X629412Y324612D02*
X605028Y348996D01*
X605028Y452628D01*
X617220Y464820D01*
X617220Y502920D01*
X623316Y573024D02*
X635508Y585216D01*
X569976Y41148D02*
X570000Y40000D01*
D22*
X608076Y188976D03*
X633984Y324612D03*
X617220Y502920D03*
X623316Y573024D03*
X635508Y585216D03*
D21*
X614172Y835152D02*
X614172Y862584D01*
X614172Y835152D02*
X626364Y822960D01*
X661416Y822960D02*
X682752Y822960D01*
X661416Y822960D02*
X626364Y822960D01*
X682752Y822960D02*
X696468Y809244D01*
X696800Y807900D01*
X455676Y179832D02*
X455676Y160020D01*
X455676Y179832D02*
X429768Y205740D01*
X429768Y236220D01*
X420624Y245364D01*
X420624Y251460D01*
X467868Y298704D01*
X473964Y298704D01*
X519684Y344424D01*
X519684Y536448D01*
X553212Y569976D01*
X553212Y608076D01*
X565404Y620268D01*
X569976Y620268D01*
X621792Y672084D01*
X621792Y742188D01*
X661416Y822960D02*
X661416Y826008D01*
D22*
X614172Y862584D03*
X455676Y160020D03*
X621792Y742188D03*
X661416Y826008D03*
D21*
X467868Y826008D02*
X461772Y826008D01*
X467868Y826008D02*
X470916Y829056D01*
X502920Y829056D01*
X536448Y795528D01*
X595884Y795528D01*
X617220Y816864D01*
X624840Y816864D01*
X643128Y798576D01*
X661416Y798576D01*
X670560Y807720D01*
X671400Y807900D01*
X528828Y39624D02*
X522732Y39624D01*
X513588Y30480D01*
X505968Y30480D01*
X499872Y36576D01*
X499872Y124968D01*
X544068Y169164D01*
X544068Y178308D01*
X470916Y344424D02*
X470916Y356616D01*
X501396Y387096D01*
X501396Y539496D01*
X519684Y557784D01*
X519684Y612648D01*
X605028Y646176D02*
X605028Y649224D01*
X643128Y687324D01*
X643128Y731520D01*
X670560Y758952D01*
X670560Y772668D01*
X530000Y40000D02*
X528828Y39624D01*
D22*
X461772Y826008D03*
X544068Y178308D03*
X470916Y344424D03*
X519684Y612648D03*
X605028Y646176D03*
X670560Y772668D03*
D21*
X355092Y918972D02*
X246888Y810768D01*
X246000Y810100D01*
X510540Y51816D02*
X510540Y41148D01*
X510540Y51816D02*
X519684Y60960D01*
X519684Y123444D01*
X591312Y195072D01*
X591312Y298704D02*
X614172Y321564D01*
X681228Y373380D02*
X681228Y377952D01*
X702564Y399288D01*
X702564Y510540D01*
X708660Y620268D02*
X708660Y638556D01*
X714756Y644652D01*
X714756Y710184D01*
X742188Y737616D01*
X717804Y780288D02*
X711708Y780288D01*
X696468Y795528D01*
X691896Y795528D01*
X681228Y806196D01*
X681228Y810768D01*
X675132Y816864D01*
X653796Y816864D01*
X646176Y809244D01*
X510540Y41148D02*
X510000Y40000D01*
X646000Y807900D02*
X646176Y809244D01*
D22*
X355092Y918972D03*
X591312Y195072D03*
X591312Y298704D03*
X614172Y321564D03*
X681228Y373380D03*
X702564Y510540D03*
X708660Y620268D03*
X742188Y737616D03*
X717804Y780288D03*
D21*
X784860Y65532D02*
X611124Y65532D01*
X784860Y65532D02*
X922020Y202692D01*
X946404Y202692D01*
X966216Y222504D01*
X973836Y222504D01*
X979932Y228600D01*
X979932Y455676D01*
X970788Y464820D01*
X937260Y464820D01*
X874776Y527304D01*
X716280Y589788D02*
X699516Y606552D01*
X699516Y729996D01*
X702564Y733044D01*
X652272Y754380D02*
X652272Y758952D01*
X643128Y768096D01*
X643128Y786384D01*
X621792Y807720D01*
X611124Y65532D02*
X610000Y65000D01*
X621792Y807720D02*
X620600Y807900D01*
D22*
X874776Y527304D03*
X716280Y589788D03*
X702564Y733044D03*
X652272Y754380D03*
D21*
X208788Y810768D02*
X196596Y810768D01*
X208788Y810768D02*
X230124Y832104D01*
X454152Y832104D02*
X504444Y832104D01*
X537972Y798576D01*
X585216Y798576D01*
X594360Y807720D01*
X196596Y810768D02*
X195200Y810100D01*
X594360Y807720D02*
X595200Y807900D01*
X464820Y179832D02*
X464820Y160020D01*
X464820Y179832D02*
X440436Y204216D01*
X441960Y356616D02*
X441960Y391668D01*
X438912Y394716D01*
X438912Y445008D01*
X374904Y509016D01*
X374904Y536448D01*
X298704Y589788D02*
X271272Y617220D01*
X268224Y635508D02*
X262128Y635508D01*
X249936Y647700D01*
X195072Y647700D01*
X193548Y646176D01*
X184404Y646176D01*
X179832Y650748D01*
X179832Y684276D01*
X185928Y690372D01*
X185928Y760476D01*
D22*
X230124Y832104D03*
X454152Y832104D03*
X464820Y160020D03*
X440436Y204216D03*
X441960Y356616D03*
X374904Y536448D03*
X298704Y589788D03*
X271272Y617220D03*
X268224Y635508D03*
X185928Y760476D03*
D21*
X347472Y320040D02*
X347472Y193548D01*
X347472Y320040D02*
X327660Y339852D01*
X295656Y376428D02*
X259080Y376428D01*
X196596Y438912D01*
X150876Y438912D01*
D22*
X347472Y193548D03*
X327660Y339852D03*
X295656Y376428D03*
X150876Y438912D03*
D21*
X550164Y65532D02*
X661416Y176784D01*
X713232Y286512D02*
X716280Y286512D01*
X763524Y333756D01*
X763524Y355092D01*
X839724Y431292D01*
X839724Y441960D01*
X871728Y473964D01*
X871728Y505968D01*
X862584Y515112D01*
X858012Y515112D01*
X845820Y527304D01*
X845820Y573024D01*
X848868Y679704D02*
X848868Y795528D01*
X839724Y804672D01*
X839724Y886968D01*
X550164Y65532D02*
X550000Y65000D01*
D22*
X661416Y176784D03*
X713232Y286512D03*
X845820Y573024D03*
X848868Y679704D03*
X839724Y886968D03*
D21*
X720852Y960120D02*
X713232Y960120D01*
X701040Y947928D01*
X594360Y947928D01*
X573024Y969264D01*
X565404Y969264D01*
X547116Y950976D01*
X448056Y950976D01*
X423672Y975360D01*
X335280Y975360D01*
X323088Y963168D01*
X720852Y960120D02*
X722200Y960300D01*
X323088Y963168D02*
X322200Y962500D01*
X454152Y420624D02*
X454152Y370332D01*
X454152Y420624D02*
X445008Y429768D01*
X445008Y472440D01*
X446532Y473964D01*
X446532Y524256D02*
X434340Y536448D01*
X434340Y537972D01*
X390144Y582168D01*
X403860Y629412D02*
X403860Y682752D01*
X341376Y745236D01*
X301752Y745236D01*
X208788Y848868D02*
X208788Y876300D01*
D22*
X454152Y370332D03*
X446532Y473964D03*
X446532Y524256D03*
X390144Y582168D03*
X403860Y629412D03*
X301752Y745236D03*
X208788Y848868D03*
X208788Y876300D03*
D21*
X272796Y963168D02*
X284988Y963168D01*
X306324Y984504D01*
X685800Y984504D01*
X705612Y964692D01*
X705612Y957072D01*
X699516Y950976D01*
X681228Y950976D01*
X672084Y960120D01*
X272796Y963168D02*
X271400Y962500D01*
X671400Y960300D02*
X672084Y960120D01*
X19812Y163068D02*
X19812Y152400D01*
X19812Y163068D02*
X12192Y170688D01*
X12192Y417576D01*
X38100Y443484D01*
X33528Y681228D02*
X33528Y838200D01*
X167640Y972312D01*
X262128Y972312D01*
X271272Y963168D01*
X271400Y962500D01*
D22*
X19812Y152400D03*
X38100Y443484D03*
X33528Y681228D03*
D21*
X237744Y661416D02*
X303276Y661416D01*
X312420Y652272D01*
X335280Y652272D01*
X344424Y661416D01*
X237744Y661416D02*
X237100Y661500D01*
X344424Y661416D02*
X345000Y661500D01*
X178308Y99060D02*
X178308Y85344D01*
X178308Y99060D02*
X170688Y106680D01*
X170688Y114300D01*
X188976Y132588D01*
X470916Y132588D01*
X510540Y172212D01*
X510540Y262128D01*
X537972Y289560D01*
X537972Y339852D01*
X522732Y355092D01*
X522732Y499872D02*
X522732Y513588D01*
X522732Y499872D02*
X522732Y355092D01*
X522732Y513588D02*
X556260Y547116D01*
X556260Y606552D01*
X563880Y614172D01*
X632460Y614172D01*
X638556Y620268D01*
X649224Y620268D01*
X675132Y646176D01*
X675132Y650748D01*
X179700Y84600D02*
X178308Y85344D01*
X675132Y650748D02*
X675300Y651500D01*
X466344Y611124D02*
X466344Y594360D01*
X480060Y580644D01*
X480060Y548640D01*
X522732Y499872D02*
X525780Y499872D01*
D22*
X466344Y611124D03*
X480060Y548640D03*
X525780Y499872D03*
D21*
X682752Y961644D02*
X696468Y961644D01*
X682752Y961644D02*
X662940Y981456D01*
X315468Y981456D01*
X297180Y963168D01*
X696468Y961644D02*
X696800Y960300D01*
X297180Y963168D02*
X296800Y962500D01*
X486156Y719328D02*
X457200Y690372D01*
X455700Y690300D01*
X955548Y475488D02*
X966216Y475488D01*
X955548Y475488D02*
X946404Y484632D01*
X938784Y484632D01*
X879348Y544068D01*
X844296Y665988D02*
X844296Y670560D01*
X821436Y693420D01*
X821436Y772668D01*
X815340Y778764D01*
X769620Y778764D01*
X762000Y771144D01*
X966216Y475488D02*
X967700Y474700D01*
X761100Y769700D02*
X762000Y771144D01*
X643128Y754380D02*
X611124Y754380D01*
X643128Y754380D02*
X649224Y748284D01*
X655320Y748284D01*
X658368Y751332D01*
X658368Y757428D01*
X649224Y766572D01*
X649224Y772668D01*
X662940Y786384D01*
X701040Y786384D01*
X726948Y760476D01*
X751332Y760476D01*
X760476Y769620D01*
X761100Y769700D01*
X816864Y813816D02*
X816864Y886968D01*
X816864Y813816D02*
X815340Y812292D01*
X815340Y778764D01*
D22*
X486156Y719328D03*
X879348Y544068D03*
X844296Y665988D03*
X611124Y754380D03*
X816864Y886968D03*
D21*
X45720Y688848D02*
X45720Y667512D01*
X12192Y633984D01*
X12192Y545592D01*
X18288Y539496D01*
X25908Y539496D01*
X32004Y533400D01*
X32004Y518160D01*
X28956Y423672D02*
X35052Y417576D01*
X35052Y310896D01*
X56388Y289560D01*
X56388Y239268D01*
X45720Y688848D02*
X46500Y690300D01*
D22*
X32004Y518160D03*
X28956Y423672D03*
X56388Y239268D03*
D21*
X179832Y135636D02*
X464820Y135636D01*
X486156Y156972D01*
X179832Y135636D02*
X179700Y135400D01*
D22*
X486156Y156972D03*
D21*
X467868Y111252D02*
X179832Y111252D01*
X467868Y111252D02*
X559308Y202692D01*
X600456Y202692D01*
X603504Y205740D01*
X609600Y205740D01*
X615696Y199644D01*
X844296Y199644D01*
X867156Y222504D01*
X873252Y222504D01*
X957072Y306324D01*
X957072Y425196D01*
X966216Y434340D01*
X179832Y111252D02*
X179700Y110000D01*
X966216Y434340D02*
X967700Y434700D01*
X280416Y690372D02*
X280416Y739140D01*
X277368Y742188D01*
X195072Y781812D02*
X121920Y781812D01*
X56388Y716280D01*
X56388Y665988D01*
X21336Y630936D01*
X280416Y690372D02*
X281900Y690300D01*
X21800Y629800D02*
X21336Y630936D01*
D22*
X277368Y742188D03*
X195072Y781812D03*
D21*
X518160Y783336D02*
X518160Y787908D01*
X518160Y783336D02*
X522732Y778764D01*
X522732Y758952D01*
X560832Y720852D01*
X655320Y678180D02*
X672084Y678180D01*
X676656Y673608D01*
X705612Y644652D02*
X705612Y626364D01*
X702564Y623316D01*
X702564Y608076D01*
X714756Y595884D01*
X719328Y595884D01*
X726948Y588264D01*
X726948Y553212D01*
X719328Y545592D01*
X736092Y480060D02*
X765048Y451104D01*
D22*
X518160Y787908D03*
X560832Y720852D03*
X655320Y678180D03*
X676656Y673608D03*
X705612Y644652D03*
X719328Y545592D03*
X736092Y480060D03*
X765048Y451104D03*
D21*
X368808Y219456D02*
X368808Y213360D01*
X368808Y219456D02*
X359664Y228600D01*
X359664Y298704D01*
X368808Y307848D01*
X368808Y213360D02*
X370000Y212700D01*
X368808Y307848D02*
X370000Y308100D01*
M02*
