M48
;GenerationSoftware,Autodesk,EAGLE,9.5.2*%
;CreationDate,2020-02-25T07:35:32Z*%
FMAT,2
ICI,OFF
METRIC,TZ,000.000
T7C0.350
T6C0.730
T5C0.800
T4C0.813
T3C0.850
T2C1.340
T1C2.800
%
G90
M71
T1
X4000Y4000
X96000Y4000
X96000Y116000
X4000Y116000
T2
X67000Y96000
T3
X52880Y6440
X13740Y115880
X13740Y113380
X15740Y115880
X15740Y113380
X17740Y115880
X17740Y113380
X19740Y115880
X19740Y113380
X96053Y101392
X93553Y101392
X96053Y99392
X93553Y99392
X96053Y97392
X93553Y97392
X96053Y95392
X93553Y95392
X96053Y93392
X93553Y93392
X96053Y91392
X93553Y91392
X96053Y89392
X93553Y89392
X96053Y87392
X93553Y87392
X96053Y85392
X93553Y85392
X96053Y83392
X93553Y83392
X96053Y81392
X93553Y81392
X96053Y79392
X93553Y79392
X95570Y66400
X93070Y66400
X85381Y113135
X85381Y115635
X83381Y113135
X83381Y115635
X81381Y113135
X81381Y115635
X79381Y113135
X79381Y115635
X77381Y113135
X77381Y115635
X75381Y113135
X75381Y115635
X73381Y113135
X73381Y115635
X71381Y113135
X71381Y115635
X69381Y113135
X69381Y115635
X67381Y113135
X67381Y115635
X65381Y113135
X65381Y115635
X63381Y113135
X95570Y64400
X63381Y115635
X9130Y94630
X6630Y94630
X9130Y92630
X6630Y92630
X9130Y90630
X6630Y90630
X9130Y88630
X6630Y88630
X9130Y86630
X6630Y86630
X9130Y84630
X6630Y84630
X9130Y82630
X6630Y82630
X9130Y80630
X6630Y80630
X9130Y78630
X6630Y78630
X9130Y76630
X6630Y76630
X9130Y74630
X6630Y74630
X9130Y72630
X6630Y72630
X53150Y112360
X53150Y114860
X51150Y112360
X51150Y114860
X49150Y112360
X49150Y114860
X47150Y112360
X47150Y114860
X45150Y112360
X45150Y114860
X43150Y112360
X43150Y114860
X41150Y112360
X41150Y114860
X39150Y112360
X39150Y114860
X37150Y112360
X37150Y114860
X35150Y112360
X35150Y114860
X33150Y112360
X33150Y114860
X31150Y112360
X31150Y114860
X16606Y6893
X16606Y4393
X18606Y6893
X18606Y4393
X20606Y6893
X20606Y4393
X22606Y6893
X22606Y4393
X24606Y6893
X24606Y4393
X26606Y6893
X26606Y4393
X28606Y6893
X28606Y4393
X30606Y6893
X30606Y4393
X32606Y6893
X32606Y4393
X34606Y6893
X34606Y4393
X36606Y6893
X36606Y4393
X38606Y6893
X38606Y4393
X8634Y37742
X6134Y37742
X8634Y35742
X6134Y35742
X8634Y33742
X6134Y33742
X8634Y31742
X6134Y31742
X8634Y29742
X6134Y29742
X8634Y27742
X6134Y27742
X8634Y25742
X6134Y25742
X8634Y23742
X6134Y23742
X8634Y21742
X6134Y21742
X93070Y48400
X95570Y48400
X93070Y50400
X95570Y50400
X93070Y52400
X95570Y52400
X93070Y54400
X95570Y54400
X93070Y56400
X95570Y56400
X93070Y58400
X95570Y58400
X93070Y60400
X95570Y60400
X93070Y62400
X95570Y62400
X93070Y64400
X56880Y6440
X54880Y3940
X54880Y6440
X52880Y3940
X95350Y35370
X92850Y35370
X95350Y33370
X92850Y33370
X95350Y31370
X92850Y31370
X95350Y29370
X92850Y29370
X95350Y27370
X92850Y27370
X95350Y25370
X92850Y25370
X95350Y23370
X92850Y23370
X95350Y21370
X92850Y21370
X95350Y19370
X92850Y19370
X95350Y17370
X92850Y17370
X95350Y15370
X92850Y15370
X95350Y13370
X92850Y13370
X70880Y3940
X70880Y6440
X68880Y3940
X68880Y6440
X66880Y3940
X66880Y6440
X64880Y3940
X64880Y6440
X62880Y3940
X62880Y6440
X60880Y3940
X60880Y6440
X58880Y3940
X58880Y6440
X56880Y3940
T4
X16000Y55730
X11000Y55730
X11000Y58270
X86000Y55730
X86000Y58270
X79000Y34810
X79000Y27190
X75000Y34810
X75000Y27190
X71000Y34810
X71000Y27190
X67000Y34810
X67000Y27190
X63000Y34810
X63000Y27190
X59000Y34810
X59000Y27190
X55000Y34810
X55000Y27190
X51000Y34810
X51000Y27190
X47000Y34810
X47000Y27190
X43000Y34810
X43000Y27190
X39000Y34810
X39000Y27190
X35000Y34810
X35000Y27190
X31000Y34810
X31000Y27190
X27000Y34810
X27000Y27190
X23000Y34810
X23000Y27190
X19000Y34810
X19000Y27190
X62000Y100810
X62000Y93190
X16000Y58270
X81000Y49810
X81000Y42190
X76000Y49810
X76000Y42190
X71000Y49810
X71000Y42190
X66000Y49810
X66000Y42190
X61000Y49810
X61000Y42190
X56000Y49810
X56000Y42190
X51000Y49810
X51000Y42190
X46000Y49810
X46000Y42190
X41000Y49810
X41000Y42190
X36000Y49810
X36000Y42190
X31000Y49810
X31000Y42190
X26000Y49810
X26000Y42190
X21000Y49810
X21000Y42190
X16000Y49810
X16000Y42190
X13000Y49810
X13000Y42190
X86000Y49810
X86000Y42190
X81000Y55730
X81000Y58270
X76000Y55730
X76000Y58270
X71000Y55730
X71000Y58270
X66000Y55730
X66000Y58270
X61000Y55730
X61000Y58270
X56000Y55730
X56000Y58270
X51000Y55730
X51000Y58270
X46000Y55730
X46000Y58270
X41000Y55730
X41000Y58270
X36000Y55730
X36000Y58270
X31000Y55730
X31000Y58270
X26000Y55730
X26000Y58270
X21000Y55730
X21000Y58270
T5
X69000Y102000
X69000Y90000
X81200Y102000
X81200Y90000
X73000Y74500
X75000Y74500
X77000Y74500
X73000Y79500
X75000Y79500
X77000Y79500
T6
X21380Y88030
X23920Y88030
X26460Y88030
X29000Y88030
X31540Y88030
X34080Y88030
X36620Y88030
X36620Y95970
X34080Y95970
X31540Y95970
X29000Y95970
X26460Y95970
X23920Y95970
X21380Y95970
T7
X70561Y23012
X63398Y59284
X85954Y36728
X83210Y78791
X62027Y113995
X23317Y16612
X34747Y29718
X20574Y25756
X43739Y24994
X39319Y24994
X19964Y65684
X93269Y37643
X36424Y104242
X49987Y104242
X58826Y104242
X56998Y101803
X16612Y91592
X33528Y99517
X10211Y73304
X18440Y28804
X76352Y94183
X87173Y33680
X48463Y16764
X71780Y76200
X31090Y28499
X20574Y29261
X89002Y46482
X89002Y52426
X45263Y102413
X57912Y102413
X36119Y100432
X76657Y108052
X85496Y93421
X25298Y87173
X37795Y95860
X37795Y103022
X84887Y94183
X76048Y106375
X76200Y73000
X25451Y75590
X40386Y28194
X16612Y27889
X33833Y29718
X23012Y87173
X87630Y88392
X75743Y102718
X88849Y89611
X82296Y78791
X73152Y96469
X39167Y91592
X31394Y64922
X31394Y69952
X18288Y80620
X18288Y70409
X3810Y32766
X9754Y71476
X70561Y114148
X53950Y90678
X21946Y64618
X12649Y75286
X12649Y86411
X65227Y13868
X71171Y78029
X17526Y2134
X96622Y44958
X16612Y2134
X47396Y117958
X59741Y115672
X32156Y116129
X93269Y36728
X78791Y11430
X29870Y112471
X62484Y117043
X97231Y65227
X89764Y61417
X75438Y8077
X51511Y116129
X73304Y72238
X26822Y74981
X97841Y48158
X97536Y43586
X83515Y117805
X69952Y7925
X23012Y91288
X23012Y93116
X5029Y77267
X89611Y100889
X96469Y76657
X85649Y23012
X88544Y60655
X65837Y13106
X55778Y117653
X39929Y117653
X8230Y64618
X4420Y26518
X4267Y40691
X4267Y43129
X72238Y5791
X84277Y117196
X96317Y36881
X97231Y25146
X16154Y103022
X88240Y53950
X91745Y57455
X4267Y39776
X2438Y41605
X91592Y22403
X57455Y21184
X88087Y33680
X62789Y10820
X17526Y26365
X4115Y85192
X90526Y94336
X87173Y98603
X77419Y98146
X10973Y31394
X35052Y15240
X85649Y16459
X16764Y114148
X65684Y105613
X92202Y78334
X87782Y82753
X74066Y101041
X34900Y116434
X96622Y63094
X14783Y114757
X4724Y105766
X70561Y78791
X68885Y98146
X70409Y59893
X68732Y117348
X45415Y117043
X5182Y69799
X5182Y42215
X94945Y41910
X72085Y93878
X69494Y97079
X96622Y26365
X40386Y4877
X17831Y28042
X34442Y58979
X22098Y8839
X69952Y61570
X54102Y17678
X11430Y77419
X11430Y84277
X26670Y22250
X90830Y38252
X56693Y116738
X66751Y106680
X42977Y110185
X32461Y104851
X76200Y101346
X83210Y93574
X25756Y26365
X27889Y24232
X10668Y71476
X16459Y89154
X19660Y96774
X78029Y17831
X16002Y90678
X26060Y107290
X51206Y111100
X48158Y111100
X87020Y101498
X78486Y103022
X72238Y104242
X20574Y21641
X31699Y18593
X41453Y26213
X39776Y103175
X42062Y101803
M30